M48
; DRILL file {KiCad 7.0.5} date Wed Jul 12 14:46:15 2023
; FORMAT={-:-/ absolute / metric / decimal}
; #@! TF.CreationDate,2023-07-12T14:46:15+02:00
; #@! TF.GenerationSoftware,Kicad,Pcbnew,7.0.5
; #@! TF.FileFunction,Plated,1,2,PTH
FMAT,2
METRIC
; #@! TA.AperFunction,Plated,PTH,ViaDrill
T1C0.300
; #@! TA.AperFunction,Plated,PTH,ComponentDrill
T2C0.600
; #@! TA.AperFunction,Plated,PTH,ComponentDrill
T3C0.750
; #@! TA.AperFunction,Plated,PTH,ComponentDrill
T4C1.000
%
G90
G05
T1
X98.41Y-71.0
X99.77Y-71.28
X100.05Y-73.0
X102.76Y-72.65
X103.33Y-73.68
X103.9Y-71.34
X103.97Y-73.13
X104.26Y-72.48
X104.81Y-73.51
X104.85Y-65.09
X105.06Y-68.51
X106.08Y-70.05
X106.09Y-71.95
X106.18Y-58.09
X108.02Y-64.38
X108.7Y-71.81
X108.86Y-68.55
X108.87Y-57.82
X109.04Y-54.73
X109.4Y-70.52
X109.57Y-69.67
X109.91Y-65.88
X110.29Y-53.56
X110.54Y-56.05
X111.16Y-73.91
X111.38Y-68.06
X111.38Y-70.66
X111.38Y-71.31
X111.38Y-71.96
X111.38Y-72.61
X111.67Y-68.89
X111.86Y-73.99
X112.04Y-53.65
X112.04Y-54.55
X112.09Y-67.31
X112.4Y-69.03
X112.55Y-60.12
X112.78Y-65.29
X112.92Y-72.86
X112.98Y-72.19
X113.3Y-58.56
X113.82Y-53.35
X114.475Y-58.138
X114.96Y-58.57
X115.76Y-59.31
X116.07Y-53.16
T3
X101.47Y-64.51
X101.47Y-66.51
X101.47Y-68.51
X101.47Y-70.51
X101.47Y-72.51
X116.43Y-55.77
X116.43Y-57.77
T4
X107.51Y-61.76
X110.05Y-61.76
X112.59Y-61.76
T2
G00X96.5Y-52.675
M15
G01X95.7Y-52.675
M16
G05
G00X96.5Y-61.315
M15
G01X95.7Y-61.315
M16
G05
G00X100.83Y-52.675
M15
G01X99.73Y-52.675
M16
G05
G00X100.83Y-61.315
M15
G01X99.73Y-61.315
M16
G05
T0
M30
