%TF.GenerationSoftware,KiCad,Pcbnew,7.0.5*%
%TF.CreationDate,2023-07-12T14:46:01+02:00*%
%TF.ProjectId,euroslimenRFV2,6575726f-736c-4696-9d65-6e524656322e,rev?*%
%TF.SameCoordinates,Original*%
%TF.FileFunction,Soldermask,Top*%
%TF.FilePolarity,Negative*%
%FSLAX46Y46*%
G04 Gerber Fmt 4.6, Leading zero omitted, Abs format (unit mm)*
G04 Created by KiCad (PCBNEW 7.0.5) date 2023-07-12 14:46:01*
%MOMM*%
%LPD*%
G01*
G04 APERTURE LIST*
G04 Aperture macros list*
%AMRoundRect*
0 Rectangle with rounded corners*
0 $1 Rounding radius*
0 $2 $3 $4 $5 $6 $7 $8 $9 X,Y pos of 4 corners*
0 Add a 4 corners polygon primitive as box body*
4,1,4,$2,$3,$4,$5,$6,$7,$8,$9,$2,$3,0*
0 Add four circle primitives for the rounded corners*
1,1,$1+$1,$2,$3*
1,1,$1+$1,$4,$5*
1,1,$1+$1,$6,$7*
1,1,$1+$1,$8,$9*
0 Add four rect primitives between the rounded corners*
20,1,$1+$1,$2,$3,$4,$5,0*
20,1,$1+$1,$4,$5,$6,$7,0*
20,1,$1+$1,$6,$7,$8,$9,0*
20,1,$1+$1,$8,$9,$2,$3,0*%
G04 Aperture macros list end*
%ADD10RoundRect,0.135000X-0.185000X0.135000X-0.185000X-0.135000X0.185000X-0.135000X0.185000X0.135000X0*%
%ADD11RoundRect,0.135000X-0.135000X-0.185000X0.135000X-0.185000X0.135000X0.185000X-0.135000X0.185000X0*%
%ADD12RoundRect,0.140000X-0.170000X0.140000X-0.170000X-0.140000X0.170000X-0.140000X0.170000X0.140000X0*%
%ADD13RoundRect,0.135000X0.135000X0.185000X-0.135000X0.185000X-0.135000X-0.185000X0.135000X-0.185000X0*%
%ADD14R,0.750000X1.500000*%
%ADD15R,0.950000X0.950000*%
%ADD16RoundRect,0.140000X-0.140000X-0.170000X0.140000X-0.170000X0.140000X0.170000X-0.140000X0.170000X0*%
%ADD17RoundRect,0.140000X0.170000X-0.140000X0.170000X0.140000X-0.170000X0.140000X-0.170000X-0.140000X0*%
%ADD18R,0.800000X0.800000*%
%ADD19R,0.400000X0.400000*%
%ADD20R,0.533400X0.304800*%
%ADD21R,0.304800X0.533400*%
%ADD22C,0.900000*%
%ADD23R,1.500000X0.700000*%
%ADD24R,0.800000X1.000000*%
%ADD25RoundRect,0.135000X0.185000X-0.135000X0.185000X0.135000X-0.185000X0.135000X-0.185000X-0.135000X0*%
%ADD26RoundRect,0.140000X0.140000X0.170000X-0.140000X0.170000X-0.140000X-0.170000X0.140000X-0.170000X0*%
%ADD27C,0.800000*%
%ADD28R,0.900000X1.400000*%
%ADD29R,0.400000X0.600000*%
%ADD30R,1.100000X1.100000*%
%ADD31R,0.900000X0.600000*%
%ADD32R,0.800000X0.300000*%
%ADD33R,0.300000X0.800000*%
%ADD34R,1.750000X1.750000*%
%ADD35C,0.650000*%
%ADD36R,1.150000X0.600000*%
%ADD37R,1.150000X0.300000*%
%ADD38O,2.100000X1.000000*%
%ADD39O,1.800000X1.000000*%
%ADD40O,1.700000X1.700000*%
%ADD41RoundRect,0.250000X0.625000X-0.350000X0.625000X0.350000X-0.625000X0.350000X-0.625000X-0.350000X0*%
%ADD42O,1.750000X1.200000*%
G04 APERTURE END LIST*
D10*
%TO.C,R9*%
X111125000Y-64145000D03*
X111125000Y-65165000D03*
%TD*%
D11*
%TO.C,R11*%
X113935000Y-59285000D03*
X114955000Y-59285000D03*
%TD*%
D12*
%TO.C,C9*%
X103800000Y-66600000D03*
X103800000Y-67560000D03*
%TD*%
D13*
%TO.C,R10*%
X103860000Y-74270000D03*
X102840000Y-74270000D03*
%TD*%
D14*
%TO.C,LED1*%
X117445000Y-53655000D03*
D15*
X116070000Y-54305000D03*
D14*
X114695000Y-53655000D03*
%TD*%
D13*
%TO.C,R16*%
X113560000Y-57820000D03*
X112540000Y-57820000D03*
%TD*%
D16*
%TO.C,C5*%
X107955000Y-67595000D03*
X108915000Y-67595000D03*
%TD*%
D17*
%TO.C,C7*%
X113460000Y-56300000D03*
X113460000Y-55340000D03*
%TD*%
D12*
%TO.C,C2*%
X108685000Y-73165000D03*
X108685000Y-74125000D03*
%TD*%
D18*
%TO.C,nRF1*%
X110350000Y-73830000D03*
D19*
X111575000Y-73380000D03*
X112225000Y-73380000D03*
X112550000Y-74030000D03*
D18*
X113450000Y-73830000D03*
D19*
X113650000Y-72930000D03*
X113650000Y-72280000D03*
X113650000Y-71630000D03*
X113000000Y-71305000D03*
X113650000Y-70980000D03*
X113000000Y-70655000D03*
X113650000Y-70330000D03*
X113000000Y-70005000D03*
X113650000Y-69680000D03*
X113000000Y-69355000D03*
X113650000Y-69030000D03*
X113000000Y-68705000D03*
X113650000Y-68380000D03*
X113000000Y-68055000D03*
X113650000Y-67730000D03*
D18*
X113450000Y-66830000D03*
D19*
X112550000Y-66630000D03*
X111900000Y-66630000D03*
X111250000Y-66630000D03*
D18*
X110350000Y-66830000D03*
D19*
X110150000Y-67730000D03*
X110800000Y-68055000D03*
X110150000Y-68380000D03*
X110800000Y-68705000D03*
X110150000Y-69030000D03*
X110800000Y-69355000D03*
X110150000Y-69680000D03*
X110800000Y-70005000D03*
X110150000Y-70330000D03*
X110800000Y-70655000D03*
X110150000Y-70980000D03*
X110800000Y-71305000D03*
X110150000Y-71630000D03*
X110800000Y-71955000D03*
X110150000Y-72280000D03*
X110800000Y-72605000D03*
X110150000Y-72930000D03*
X114400000Y-74030000D03*
X115400000Y-74030000D03*
X116400000Y-74030000D03*
D18*
X117350000Y-73830000D03*
D19*
X117550000Y-72830000D03*
X117550000Y-71830000D03*
X117550000Y-70830000D03*
X117550000Y-69830000D03*
X117550000Y-68830000D03*
X117550000Y-67830000D03*
D18*
X117350000Y-66830000D03*
D19*
X116400000Y-66630000D03*
X115400000Y-66630000D03*
X114400000Y-66630000D03*
%TD*%
D16*
%TO.C,C1*%
X105325000Y-74300000D03*
X106285000Y-74300000D03*
%TD*%
%TO.C,C3*%
X105795000Y-69015000D03*
X106755000Y-69015000D03*
%TD*%
%TO.C,C11*%
X107955000Y-65595000D03*
X108915000Y-65595000D03*
%TD*%
D19*
%TO.C,MAG1*%
X105260000Y-66410000D03*
X105260000Y-66910000D03*
X105260000Y-67410000D03*
X105260000Y-67910000D03*
X105810000Y-67910000D03*
X106310000Y-67910000D03*
X106860000Y-67910000D03*
X106860000Y-67410000D03*
X106860000Y-66910000D03*
X106860000Y-66410000D03*
X106310000Y-66410000D03*
X105810000Y-66410000D03*
%TD*%
D11*
%TO.C,R2*%
X106815000Y-70055000D03*
X107835000Y-70055000D03*
%TD*%
D20*
%TO.C,IMU1*%
X104900900Y-71475411D03*
X104900900Y-71975537D03*
X104900900Y-72475663D03*
X104900900Y-72975789D03*
D21*
X105581874Y-73152700D03*
X106082000Y-73152700D03*
X106582126Y-73152700D03*
D20*
X107263100Y-72975789D03*
X107263100Y-72475663D03*
X107263100Y-71975537D03*
X107263100Y-71475411D03*
D21*
X106582126Y-71298500D03*
X106082000Y-71298500D03*
X105581874Y-71298500D03*
%TD*%
D22*
%TO.C,S1*%
X96632000Y-64332000D03*
X96632000Y-67332000D03*
D23*
X98482000Y-64832000D03*
X98482000Y-65832000D03*
X98482000Y-66832000D03*
D24*
X97732000Y-63032000D03*
X97732000Y-68632000D03*
X95532000Y-63032000D03*
X95532000Y-68632000D03*
%TD*%
D25*
%TO.C,R5*%
X104530000Y-53795000D03*
X104530000Y-52775000D03*
%TD*%
D26*
%TO.C,C8*%
X105630000Y-62040000D03*
X104670000Y-62040000D03*
%TD*%
D10*
%TO.C,R17*%
X107790000Y-58790000D03*
X107790000Y-59810000D03*
%TD*%
D27*
%TO.C,RST1*%
X97520000Y-72320000D03*
X95720000Y-72320000D03*
D28*
X95970000Y-70520000D03*
X95970000Y-74120000D03*
X97270000Y-70520000D03*
X97270000Y-74120000D03*
D29*
X98420000Y-72320000D03*
%TD*%
D17*
%TO.C,C10*%
X108000000Y-55800000D03*
X108000000Y-54840000D03*
%TD*%
D13*
%TO.C,R1*%
X105035000Y-70055000D03*
X104015000Y-70055000D03*
%TD*%
D30*
%TO.C,LED2*%
X99470000Y-74120000D03*
X101470000Y-74120000D03*
%TD*%
D25*
%TO.C,R8*%
X110020000Y-65165000D03*
X110020000Y-64145000D03*
%TD*%
%TO.C,R4*%
X103320000Y-53795000D03*
X103320000Y-52775000D03*
%TD*%
D13*
%TO.C,R6*%
X112120000Y-59020000D03*
X111100000Y-59020000D03*
%TD*%
D31*
%TO.C,LDO1*%
X103820000Y-63370000D03*
X103820000Y-65270000D03*
X106620000Y-64320000D03*
%TD*%
D13*
%TO.C,R7*%
X117470000Y-59310000D03*
X116450000Y-59310000D03*
%TD*%
D32*
%TO.C,IC1*%
X112040000Y-56800000D03*
X112040000Y-56300000D03*
X112040000Y-55800000D03*
X112040000Y-55300000D03*
D33*
X111290000Y-54550000D03*
X110790000Y-54550000D03*
X110290000Y-54550000D03*
X109790000Y-54550000D03*
D32*
X109040000Y-55300000D03*
X109040000Y-55800000D03*
X109040000Y-56300000D03*
X109040000Y-56800000D03*
D33*
X109790000Y-57550000D03*
X110290000Y-57550000D03*
X110790000Y-57550000D03*
X111290000Y-57550000D03*
D34*
X110540000Y-56050000D03*
%TD*%
D16*
%TO.C,C4*%
X107955000Y-66595000D03*
X108915000Y-66595000D03*
%TD*%
D35*
%TO.C,USB1*%
X99780000Y-54105000D03*
X99780000Y-59885000D03*
D36*
X100855000Y-53795000D03*
X100855000Y-54595000D03*
D37*
X100855000Y-55745000D03*
X100855000Y-56745000D03*
X100855000Y-57245000D03*
X100855000Y-58245000D03*
D36*
X100855000Y-59395000D03*
X100855000Y-60195000D03*
X100855000Y-60195000D03*
X100855000Y-59395000D03*
D37*
X100855000Y-58745000D03*
X100855000Y-57745000D03*
X100855000Y-56245000D03*
X100855000Y-55245000D03*
D36*
X100855000Y-54595000D03*
X100855000Y-53795000D03*
D38*
X100280000Y-52675000D03*
D39*
X96100000Y-52675000D03*
D38*
X100280000Y-61315000D03*
D39*
X96100000Y-61315000D03*
%TD*%
D16*
%TO.C,C6*%
X108830000Y-58790000D03*
X109790000Y-58790000D03*
%TD*%
D11*
%TO.C,R3*%
X98460000Y-69920000D03*
X99480000Y-69920000D03*
%TD*%
D40*
%TO.C,PROG1*%
X107510000Y-61760000D03*
X110050000Y-61760000D03*
X112590000Y-61760000D03*
%TD*%
D41*
%TO.C,EXT1*%
X101470000Y-72510000D03*
D42*
X101470000Y-70510000D03*
X101470000Y-68510000D03*
X101470000Y-66510000D03*
X101470000Y-64510000D03*
%TD*%
D41*
%TO.C,BAT1*%
X116430000Y-57770000D03*
D42*
X116430000Y-55770000D03*
%TD*%
M02*
