%TF.GenerationSoftware,KiCad,Pcbnew,7.0.5*%
%TF.CreationDate,2023-07-12T14:46:01+02:00*%
%TF.ProjectId,euroslimenRFV2,6575726f-736c-4696-9d65-6e524656322e,rev?*%
%TF.SameCoordinates,Original*%
%TF.FileFunction,Legend,Top*%
%TF.FilePolarity,Positive*%
%FSLAX46Y46*%
G04 Gerber Fmt 4.6, Leading zero omitted, Abs format (unit mm)*
G04 Created by KiCad (PCBNEW 7.0.5) date 2023-07-12 14:46:01*
%MOMM*%
%LPD*%
G01*
G04 APERTURE LIST*
%ADD10C,0.120000*%
%ADD11C,0.200000*%
%ADD12C,0.254000*%
%ADD13C,0.152400*%
%ADD14C,0.100000*%
%ADD15C,0.250000*%
G04 APERTURE END LIST*
D10*
%TO.C,R9*%
X111505000Y-64501359D02*
X111505000Y-64808641D01*
X110745000Y-64501359D02*
X110745000Y-64808641D01*
%TO.C,R11*%
X114291359Y-58905000D02*
X114598641Y-58905000D01*
X114291359Y-59665000D02*
X114598641Y-59665000D01*
%TO.C,C9*%
X104160000Y-66972164D02*
X104160000Y-67187836D01*
X103440000Y-66972164D02*
X103440000Y-67187836D01*
%TO.C,R10*%
X103503641Y-74650000D02*
X103196359Y-74650000D01*
X103503641Y-73890000D02*
X103196359Y-73890000D01*
D11*
%TO.C,LED1*%
X116936027Y-52654997D02*
G75*
G03*
X115203971Y-52655000I-866027J-500003D01*
G01*
X118073000Y-53637000D02*
G75*
G03*
X118073000Y-53637000I-14000J0D01*
G01*
D10*
%TO.C,R16*%
X113203641Y-58200000D02*
X112896359Y-58200000D01*
X113203641Y-57440000D02*
X112896359Y-57440000D01*
%TO.C,C5*%
X108327164Y-67235000D02*
X108542836Y-67235000D01*
X108327164Y-67955000D02*
X108542836Y-67955000D01*
%TO.C,C7*%
X113100000Y-55927836D02*
X113100000Y-55712164D01*
X113820000Y-55927836D02*
X113820000Y-55712164D01*
%TO.C,C2*%
X109045000Y-73537164D02*
X109045000Y-73752836D01*
X108325000Y-73537164D02*
X108325000Y-73752836D01*
D11*
%TO.C,nRF1*%
X110250000Y-74930000D02*
X110250000Y-74930000D01*
X110450000Y-74930000D02*
X110450000Y-74930000D01*
X110450000Y-74930000D02*
G75*
G03*
X110250000Y-74930000I-100000J0D01*
G01*
X110250000Y-74930000D02*
G75*
G03*
X110450000Y-74930000I100000J0D01*
G01*
D10*
%TO.C,C1*%
X105697164Y-73940000D02*
X105912836Y-73940000D01*
X105697164Y-74660000D02*
X105912836Y-74660000D01*
%TO.C,C3*%
X106167164Y-68655000D02*
X106382836Y-68655000D01*
X106167164Y-69375000D02*
X106382836Y-69375000D01*
%TO.C,C11*%
X108327164Y-65235000D02*
X108542836Y-65235000D01*
X108327164Y-65955000D02*
X108542836Y-65955000D01*
D12*
%TO.C,MAG1*%
X104717000Y-66412000D02*
G75*
G03*
X104717000Y-66412000I-25000J0D01*
G01*
D10*
%TO.C,R2*%
X107171359Y-69675000D02*
X107478641Y-69675000D01*
X107171359Y-70435000D02*
X107478641Y-70435000D01*
D13*
%TO.C,IMU1*%
X104405600Y-70803200D02*
X104405600Y-71081230D01*
X104405600Y-73369970D02*
X104405600Y-73648000D01*
X104405600Y-73648000D02*
X105187693Y-73648000D01*
X105187693Y-70803200D02*
X104405600Y-70803200D01*
X106976307Y-73648000D02*
X107758400Y-73648000D01*
X107758400Y-70803200D02*
X106976307Y-70803200D01*
X107758400Y-71081230D02*
X107758400Y-70803200D01*
X107758400Y-73648000D02*
X107758400Y-73369970D01*
D12*
X104007000Y-70975600D02*
G75*
G03*
X104007000Y-70975600I-25000J0D01*
G01*
G36*
X108037800Y-72166037D02*
G01*
X107783800Y-72166037D01*
X107783800Y-71785037D01*
X108037800Y-71785037D01*
X108037800Y-72166037D01*
G37*
D11*
%TO.C,S1*%
X95257000Y-63832000D02*
X95257000Y-67832000D01*
D14*
X99720000Y-64832000D02*
X99720000Y-64832000D01*
X99620000Y-64832000D02*
X99620000Y-64832000D01*
X99620000Y-64832000D02*
G75*
G03*
X99720000Y-64832000I50000J0D01*
G01*
X99720000Y-64832000D02*
G75*
G03*
X99620000Y-64832000I-50000J0D01*
G01*
D10*
%TO.C,R5*%
X104150000Y-53438641D02*
X104150000Y-53131359D01*
X104910000Y-53438641D02*
X104910000Y-53131359D01*
%TO.C,C8*%
X105257836Y-62400000D02*
X105042164Y-62400000D01*
X105257836Y-61680000D02*
X105042164Y-61680000D01*
%TO.C,R17*%
X108170000Y-59146359D02*
X108170000Y-59453641D01*
X107410000Y-59146359D02*
X107410000Y-59453641D01*
D11*
%TO.C,RST1*%
X95970000Y-68120000D02*
X95970000Y-68120000D01*
X95970000Y-68120000D02*
X95970000Y-68120000D01*
X95970000Y-68220000D02*
X95970000Y-68220000D01*
D14*
X94520000Y-70570000D02*
X94520000Y-70570000D01*
X94520000Y-70570000D02*
X94520000Y-74070000D01*
X94520000Y-74070000D02*
X94520000Y-70570000D01*
X94520000Y-74070000D02*
X94520000Y-74070000D01*
D11*
X95970000Y-68220000D02*
G75*
G03*
X95970000Y-68120000I0J50000D01*
G01*
X95970000Y-68120000D02*
G75*
G03*
X95970000Y-68220000I0J-50000D01*
G01*
X95970000Y-68120000D02*
G75*
G03*
X95970000Y-68220000I0J-50000D01*
G01*
D10*
%TO.C,C10*%
X107640000Y-55427836D02*
X107640000Y-55212164D01*
X108360000Y-55427836D02*
X108360000Y-55212164D01*
%TO.C,R1*%
X104678641Y-70435000D02*
X104371359Y-70435000D01*
X104678641Y-69675000D02*
X104371359Y-69675000D01*
D14*
%TO.C,LED2*%
X99870000Y-74670000D02*
X99870000Y-74995000D01*
X100270000Y-73820000D02*
X100670000Y-73820000D01*
X100270000Y-74420000D02*
X100670000Y-74420000D01*
X101070000Y-74670000D02*
X101070000Y-74995000D01*
X101070000Y-74995000D02*
X99870000Y-74995000D01*
D10*
%TO.C,R8*%
X109640000Y-64808641D02*
X109640000Y-64501359D01*
X110400000Y-64808641D02*
X110400000Y-64501359D01*
%TO.C,G\u002A\u002A\u002A*%
G36*
X114967157Y-69895697D02*
G01*
X114982106Y-69897388D01*
X114997916Y-69899896D01*
X115013254Y-69902967D01*
X115026785Y-69906346D01*
X115037174Y-69909779D01*
X115041010Y-69911567D01*
X115049876Y-69918336D01*
X115060121Y-69929223D01*
X115071151Y-69943526D01*
X115082152Y-69960185D01*
X115087599Y-69969015D01*
X115094601Y-69980321D01*
X115101954Y-69992160D01*
X115104746Y-69996646D01*
X115116465Y-70016497D01*
X115125377Y-70034312D01*
X115132222Y-70051870D01*
X115137741Y-70070950D01*
X115140382Y-70082292D01*
X115143213Y-70095170D01*
X115145862Y-70107052D01*
X115148009Y-70116511D01*
X115149219Y-70121653D01*
X115152209Y-70134005D01*
X115154587Y-70144544D01*
X115156429Y-70154113D01*
X115157813Y-70163552D01*
X115158814Y-70173705D01*
X115159510Y-70185412D01*
X115159977Y-70199516D01*
X115160292Y-70216858D01*
X115160531Y-70238280D01*
X115160609Y-70246661D01*
X115160766Y-70267425D01*
X115160855Y-70287315D01*
X115160878Y-70305508D01*
X115160835Y-70321181D01*
X115160728Y-70333509D01*
X115160556Y-70341669D01*
X115160501Y-70343021D01*
X115159045Y-70360487D01*
X115156431Y-70379700D01*
X115152892Y-70399663D01*
X115148660Y-70419383D01*
X115143965Y-70437866D01*
X115139041Y-70454117D01*
X115134119Y-70467141D01*
X115129554Y-70475767D01*
X115125574Y-70481792D01*
X115123244Y-70485867D01*
X115122991Y-70486606D01*
X115121650Y-70490128D01*
X115118093Y-70496829D01*
X115113014Y-70505570D01*
X115107112Y-70515212D01*
X115101083Y-70524617D01*
X115095624Y-70532647D01*
X115091478Y-70538107D01*
X115085534Y-70545204D01*
X115077840Y-70554572D01*
X115069882Y-70564399D01*
X115068434Y-70566203D01*
X115055555Y-70580915D01*
X115041662Y-70593773D01*
X115025530Y-70605761D01*
X115005937Y-70617860D01*
X114999715Y-70621373D01*
X114976265Y-70633547D01*
X114953198Y-70643578D01*
X114928138Y-70652464D01*
X114918384Y-70655511D01*
X114908633Y-70658149D01*
X114899575Y-70659692D01*
X114889437Y-70660309D01*
X114885799Y-70660270D01*
X114876446Y-70660170D01*
X114871506Y-70659998D01*
X114852510Y-70658929D01*
X114837434Y-70657096D01*
X114825003Y-70654095D01*
X114813940Y-70649524D01*
X114802971Y-70642980D01*
X114791806Y-70634825D01*
X114786071Y-70629099D01*
X114778856Y-70620060D01*
X114771057Y-70609030D01*
X114763567Y-70597331D01*
X114757284Y-70586286D01*
X114753490Y-70578227D01*
X114750031Y-70569543D01*
X114745557Y-70558292D01*
X114740972Y-70546749D01*
X114740483Y-70545517D01*
X114734194Y-70527776D01*
X114729107Y-70508959D01*
X114725107Y-70488298D01*
X114722079Y-70465022D01*
X114719909Y-70438363D01*
X114718479Y-70407551D01*
X114718152Y-70396410D01*
X114717695Y-70372255D01*
X114717632Y-70357345D01*
X114802224Y-70357345D01*
X114802332Y-70376291D01*
X114802647Y-70394440D01*
X114803137Y-70410844D01*
X114803770Y-70424551D01*
X114804512Y-70434614D01*
X114805034Y-70438730D01*
X114807160Y-70451037D01*
X114809462Y-70464500D01*
X114810611Y-70471284D01*
X114813420Y-70484800D01*
X114817723Y-70501574D01*
X114823075Y-70520030D01*
X114829033Y-70538592D01*
X114831799Y-70546575D01*
X114837806Y-70559682D01*
X114845537Y-70569037D01*
X114855665Y-70574973D01*
X114868862Y-70577823D01*
X114885799Y-70577921D01*
X114893699Y-70577271D01*
X114917834Y-70573582D01*
X114937754Y-70567847D01*
X114951520Y-70561185D01*
X114959962Y-70555021D01*
X114970953Y-70545585D01*
X114983713Y-70533609D01*
X114997459Y-70519826D01*
X115010600Y-70505854D01*
X115025952Y-70486122D01*
X115039846Y-70462526D01*
X115051668Y-70436344D01*
X115060799Y-70408851D01*
X115064178Y-70394945D01*
X115066950Y-70381977D01*
X115070022Y-70367791D01*
X115072311Y-70357345D01*
X115074152Y-70347063D01*
X115075973Y-70333536D01*
X115077533Y-70318726D01*
X115078393Y-70307863D01*
X115079084Y-70296219D01*
X115079534Y-70285326D01*
X115079735Y-70274246D01*
X115079679Y-70262038D01*
X115079360Y-70247763D01*
X115078769Y-70230482D01*
X115077899Y-70209256D01*
X115077544Y-70201085D01*
X115076607Y-70187084D01*
X115074918Y-70173543D01*
X115072214Y-70158943D01*
X115068233Y-70141762D01*
X115065433Y-70130769D01*
X115061589Y-70115840D01*
X115058056Y-70101818D01*
X115055121Y-70089856D01*
X115053066Y-70081105D01*
X115052387Y-70077939D01*
X115049737Y-70069771D01*
X115044692Y-70058644D01*
X115037911Y-70045813D01*
X115030055Y-70032538D01*
X115022707Y-70021387D01*
X115017874Y-70013881D01*
X115013838Y-70006697D01*
X115013797Y-70006616D01*
X115006868Y-69997639D01*
X114996210Y-69989732D01*
X114983302Y-69983799D01*
X114971878Y-69981011D01*
X114951828Y-69980295D01*
X114931467Y-69983371D01*
X114912063Y-69989817D01*
X114894881Y-69999211D01*
X114881190Y-70011132D01*
X114881117Y-70011215D01*
X114872643Y-70022801D01*
X114863778Y-70038334D01*
X114855016Y-70056628D01*
X114846850Y-70076498D01*
X114839774Y-70096758D01*
X114834283Y-70116222D01*
X114831302Y-70130798D01*
X114829513Y-70140652D01*
X114827577Y-70149266D01*
X114826193Y-70153959D01*
X114824789Y-70159191D01*
X114822962Y-70168146D01*
X114820989Y-70179387D01*
X114819762Y-70187230D01*
X114817778Y-70200102D01*
X114815195Y-70216198D01*
X114812324Y-70233614D01*
X114809476Y-70250445D01*
X114809006Y-70253172D01*
X114806830Y-70266239D01*
X114805173Y-70277729D01*
X114803965Y-70288708D01*
X114803136Y-70300238D01*
X114802617Y-70313384D01*
X114802340Y-70329209D01*
X114802234Y-70348777D01*
X114802224Y-70357345D01*
X114717632Y-70357345D01*
X114717602Y-70350180D01*
X114717864Y-70331008D01*
X114718473Y-70315562D01*
X114719188Y-70306561D01*
X114720590Y-70293212D01*
X114722191Y-70277070D01*
X114723756Y-70260534D01*
X114724657Y-70250568D01*
X114730515Y-70198996D01*
X114739002Y-70145878D01*
X114749666Y-70093872D01*
X114754568Y-70073473D01*
X114759615Y-70053529D01*
X114763705Y-70037798D01*
X114767117Y-70025433D01*
X114770129Y-70015587D01*
X114773019Y-70007413D01*
X114776067Y-70000065D01*
X114779552Y-69992694D01*
X114783751Y-69984455D01*
X114784041Y-69983897D01*
X114791889Y-69971628D01*
X114802788Y-69958341D01*
X114815409Y-69945383D01*
X114828423Y-69934103D01*
X114840500Y-69925846D01*
X114842220Y-69924915D01*
X114871292Y-69911898D01*
X114901124Y-69902376D01*
X114930489Y-69896675D01*
X114954406Y-69895077D01*
X114967157Y-69895697D01*
G37*
G36*
X115704421Y-69521434D02*
G01*
X115734249Y-69521677D01*
X115763527Y-69522074D01*
X115791616Y-69522624D01*
X115817878Y-69523325D01*
X115841671Y-69524173D01*
X115862357Y-69525168D01*
X115879296Y-69526307D01*
X115881414Y-69526485D01*
X115900959Y-69528319D01*
X115915677Y-69530028D01*
X115925948Y-69531662D01*
X115932153Y-69533273D01*
X115932206Y-69533293D01*
X115937642Y-69534719D01*
X115940458Y-69534558D01*
X115943979Y-69534332D01*
X115950442Y-69535194D01*
X115952610Y-69535630D01*
X115957538Y-69536442D01*
X115965049Y-69537257D01*
X115975540Y-69538099D01*
X115989409Y-69538994D01*
X116007052Y-69539965D01*
X116028867Y-69541036D01*
X116055250Y-69542232D01*
X116073571Y-69543026D01*
X116084199Y-69543355D01*
X116099352Y-69543646D01*
X116118349Y-69543898D01*
X116140506Y-69544107D01*
X116165141Y-69544271D01*
X116191570Y-69544388D01*
X116219111Y-69544455D01*
X116247081Y-69544471D01*
X116274798Y-69544432D01*
X116301579Y-69544337D01*
X116326740Y-69544183D01*
X116349600Y-69543968D01*
X116349629Y-69543968D01*
X116365216Y-69543877D01*
X116379611Y-69543957D01*
X116391744Y-69544187D01*
X116400545Y-69544551D01*
X116404320Y-69544901D01*
X116412121Y-69546158D01*
X116418455Y-69547194D01*
X116418644Y-69547225D01*
X116423591Y-69548329D01*
X116431886Y-69550450D01*
X116441874Y-69553162D01*
X116443512Y-69553620D01*
X116453811Y-69556267D01*
X116462900Y-69558166D01*
X116469021Y-69558956D01*
X116469555Y-69558958D01*
X116478658Y-69559270D01*
X116490161Y-69560426D01*
X116501709Y-69562122D01*
X116510947Y-69564054D01*
X116512491Y-69564498D01*
X116520369Y-69566189D01*
X116526815Y-69566589D01*
X116533013Y-69567228D01*
X116541519Y-69569278D01*
X116546010Y-69570719D01*
X116555024Y-69573572D01*
X116563274Y-69575653D01*
X116566190Y-69576164D01*
X116573908Y-69577943D01*
X116582061Y-69580902D01*
X116589741Y-69584012D01*
X116599363Y-69587476D01*
X116603551Y-69588862D01*
X116613667Y-69592731D01*
X116624748Y-69597895D01*
X116629836Y-69600629D01*
X116637531Y-69606148D01*
X116647171Y-69614647D01*
X116657674Y-69624986D01*
X116667957Y-69636029D01*
X116676939Y-69646635D01*
X116683537Y-69655668D01*
X116685664Y-69659358D01*
X116689239Y-69664691D01*
X116695502Y-69672257D01*
X116703333Y-69680735D01*
X116706665Y-69684099D01*
X116713700Y-69691214D01*
X116719418Y-69697607D01*
X116724351Y-69704160D01*
X116729030Y-69711758D01*
X116733986Y-69721286D01*
X116739751Y-69733627D01*
X116746856Y-69749665D01*
X116748942Y-69754443D01*
X116755190Y-69768659D01*
X116761683Y-69783239D01*
X116767652Y-69796462D01*
X116772288Y-69806530D01*
X116776837Y-69816528D01*
X116780657Y-69825461D01*
X116783060Y-69831701D01*
X116783336Y-69832573D01*
X116785618Y-69838723D01*
X116789287Y-69847013D01*
X116791401Y-69851369D01*
X116795385Y-69860593D01*
X116798355Y-69869780D01*
X116799089Y-69873185D01*
X116800445Y-69881201D01*
X116801700Y-69887850D01*
X116801783Y-69888245D01*
X116803138Y-69895336D01*
X116804792Y-69904966D01*
X116806300Y-69914519D01*
X116806505Y-69915912D01*
X116807760Y-69921471D01*
X116809043Y-69925788D01*
X116810246Y-69930521D01*
X116811311Y-69937377D01*
X116812317Y-69947115D01*
X116813341Y-69960489D01*
X116814460Y-69978258D01*
X116814546Y-69979718D01*
X116815330Y-69992096D01*
X116816397Y-70007522D01*
X116817594Y-70023852D01*
X116818559Y-70036331D01*
X116819441Y-70050629D01*
X116820147Y-70068351D01*
X116820625Y-70087716D01*
X116820827Y-70106941D01*
X116820800Y-70117065D01*
X116820543Y-70135562D01*
X116820066Y-70149854D01*
X116819285Y-70160940D01*
X116818115Y-70169823D01*
X116816472Y-70177503D01*
X116815343Y-70181553D01*
X116811631Y-70194988D01*
X116809066Y-70207239D01*
X116807038Y-70221293D01*
X116806763Y-70223567D01*
X116805779Y-70230552D01*
X116804342Y-70239423D01*
X116803929Y-70241798D01*
X116802548Y-70249702D01*
X116801520Y-70255813D01*
X116801320Y-70257078D01*
X116800367Y-70263117D01*
X116798947Y-70271831D01*
X116797466Y-70280757D01*
X116796399Y-70287028D01*
X116795387Y-70292986D01*
X116794051Y-70301025D01*
X116793784Y-70302654D01*
X116791845Y-70312212D01*
X116789416Y-70321489D01*
X116789200Y-70322187D01*
X116787385Y-70328271D01*
X116786568Y-70331684D01*
X116786572Y-70331887D01*
X116785786Y-70334534D01*
X116783337Y-70341053D01*
X116779602Y-70350527D01*
X116774957Y-70362037D01*
X116769781Y-70374662D01*
X116764450Y-70387485D01*
X116759340Y-70399586D01*
X116754830Y-70410046D01*
X116751296Y-70417946D01*
X116751017Y-70418547D01*
X116735796Y-70446434D01*
X116718367Y-70469606D01*
X116698726Y-70488065D01*
X116676871Y-70501815D01*
X116672818Y-70503738D01*
X116662380Y-70508464D01*
X116652712Y-70512840D01*
X116645625Y-70516048D01*
X116644701Y-70516466D01*
X116637688Y-70518572D01*
X116627786Y-70520277D01*
X116618657Y-70521111D01*
X116607747Y-70521250D01*
X116599202Y-70520026D01*
X116590311Y-70516899D01*
X116584747Y-70514388D01*
X116575138Y-70509239D01*
X116566438Y-70503489D01*
X116561308Y-70499128D01*
X116554427Y-70490764D01*
X116546542Y-70479477D01*
X116538314Y-70466421D01*
X116530407Y-70452749D01*
X116523481Y-70439612D01*
X116518197Y-70428163D01*
X116515218Y-70419556D01*
X116514981Y-70418415D01*
X116513277Y-70411167D01*
X116511340Y-70405817D01*
X116509651Y-70401030D01*
X116507866Y-70393943D01*
X116506504Y-70386915D01*
X116506085Y-70382302D01*
X116506112Y-70382086D01*
X116505351Y-70379140D01*
X116503163Y-70372919D01*
X116501029Y-70367346D01*
X116497155Y-70356083D01*
X116492936Y-70341514D01*
X116488790Y-70325341D01*
X116485132Y-70309267D01*
X116482378Y-70294995D01*
X116481068Y-70285646D01*
X116480064Y-70275937D01*
X116479061Y-70267088D01*
X116478621Y-70263589D01*
X116477310Y-70251936D01*
X116476188Y-70237637D01*
X116475223Y-70220068D01*
X116474381Y-70198603D01*
X116473627Y-70172618D01*
X116473554Y-70169699D01*
X116473076Y-70153486D01*
X116472499Y-70138867D01*
X116471868Y-70126712D01*
X116471230Y-70117891D01*
X116470630Y-70113275D01*
X116470545Y-70112994D01*
X116467818Y-70110010D01*
X116461860Y-70108681D01*
X116456756Y-70108513D01*
X116418107Y-70108461D01*
X116380136Y-70108284D01*
X116343266Y-70107989D01*
X116307916Y-70107587D01*
X116274507Y-70107085D01*
X116243460Y-70106493D01*
X116215197Y-70105819D01*
X116190138Y-70105071D01*
X116168704Y-70104260D01*
X116151317Y-70103393D01*
X116138396Y-70102479D01*
X116131812Y-70101757D01*
X116124813Y-70101429D01*
X116116955Y-70102676D01*
X116106770Y-70105804D01*
X116099258Y-70108587D01*
X116082798Y-70115034D01*
X116068585Y-70120836D01*
X116057493Y-70125626D01*
X116050396Y-70129037D01*
X116050215Y-70129136D01*
X116047752Y-70132452D01*
X116044328Y-70139591D01*
X116040374Y-70149354D01*
X116036324Y-70160545D01*
X116032610Y-70171967D01*
X116029666Y-70182424D01*
X116027924Y-70190718D01*
X116027914Y-70190791D01*
X116026620Y-70199326D01*
X116025394Y-70206781D01*
X116025249Y-70207596D01*
X116023664Y-70219470D01*
X116022344Y-70235455D01*
X116021309Y-70254460D01*
X116020577Y-70275394D01*
X116020169Y-70297166D01*
X116020105Y-70318685D01*
X116020405Y-70338858D01*
X116021088Y-70356596D01*
X116022175Y-70370805D01*
X116022270Y-70371669D01*
X116023683Y-70382473D01*
X116025599Y-70394854D01*
X116027766Y-70407409D01*
X116029932Y-70418737D01*
X116031846Y-70427434D01*
X116033030Y-70431568D01*
X116034417Y-70436956D01*
X116035447Y-70443288D01*
X116036798Y-70451094D01*
X116038895Y-70460131D01*
X116039268Y-70461518D01*
X116041378Y-70469559D01*
X116044035Y-70480235D01*
X116046412Y-70490166D01*
X116048812Y-70499777D01*
X116051062Y-70507684D01*
X116052687Y-70512224D01*
X116052727Y-70512302D01*
X116054492Y-70517491D01*
X116055994Y-70524792D01*
X116056072Y-70525324D01*
X116059376Y-70542613D01*
X116064313Y-70561183D01*
X116068408Y-70573504D01*
X116071308Y-70581747D01*
X116075134Y-70593124D01*
X116079270Y-70605790D01*
X116081433Y-70612569D01*
X116087130Y-70628920D01*
X116092826Y-70640724D01*
X116099274Y-70648586D01*
X116107227Y-70653114D01*
X116117437Y-70654913D01*
X116130656Y-70654591D01*
X116133300Y-70654365D01*
X116145407Y-70653270D01*
X116157741Y-70652178D01*
X116167033Y-70651378D01*
X116175448Y-70650391D01*
X116181837Y-70649140D01*
X116183961Y-70648364D01*
X116187555Y-70647538D01*
X116195247Y-70646619D01*
X116205934Y-70645717D01*
X116218509Y-70644938D01*
X116219413Y-70644892D01*
X116248401Y-70642271D01*
X116274905Y-70637302D01*
X116279312Y-70636205D01*
X116291062Y-70633176D01*
X116301343Y-70630528D01*
X116308851Y-70628595D01*
X116311866Y-70627821D01*
X116316954Y-70626907D01*
X116325989Y-70625647D01*
X116337734Y-70624191D01*
X116350950Y-70622686D01*
X116364402Y-70621283D01*
X116373068Y-70620461D01*
X116382863Y-70619487D01*
X116394216Y-70618235D01*
X116399111Y-70617655D01*
X116420141Y-70615630D01*
X116437129Y-70615346D01*
X116450986Y-70616930D01*
X116462624Y-70620513D01*
X116472955Y-70626223D01*
X116476164Y-70628543D01*
X116482558Y-70634542D01*
X116488471Y-70642720D01*
X116494329Y-70653856D01*
X116500554Y-70668724D01*
X116505702Y-70682750D01*
X116509511Y-70693185D01*
X116512909Y-70701841D01*
X116515396Y-70707470D01*
X116516168Y-70708793D01*
X116518108Y-70712404D01*
X116521316Y-70719607D01*
X116525273Y-70729099D01*
X116529460Y-70739578D01*
X116533361Y-70749743D01*
X116536456Y-70758292D01*
X116538228Y-70763922D01*
X116538381Y-70764600D01*
X116540048Y-70769625D01*
X116543293Y-70777182D01*
X116545686Y-70782165D01*
X116550118Y-70791773D01*
X116554034Y-70801525D01*
X116555330Y-70805289D01*
X116557912Y-70812419D01*
X116560334Y-70817418D01*
X116560894Y-70818181D01*
X116562549Y-70822378D01*
X116563223Y-70828598D01*
X116563857Y-70835333D01*
X116565469Y-70844849D01*
X116567336Y-70853469D01*
X116569647Y-70863251D01*
X116571597Y-70871820D01*
X116572642Y-70876726D01*
X116574076Y-70882419D01*
X116575150Y-70885119D01*
X116576275Y-70888867D01*
X116577424Y-70895484D01*
X116577623Y-70897021D01*
X116578772Y-70906002D01*
X116579917Y-70914312D01*
X116579970Y-70914671D01*
X116582911Y-70938908D01*
X116584718Y-70963194D01*
X116585332Y-70986064D01*
X116584695Y-71006055D01*
X116583942Y-71014072D01*
X116582531Y-71025805D01*
X116581281Y-71036208D01*
X116580374Y-71043776D01*
X116580085Y-71046189D01*
X116579861Y-71050407D01*
X116579610Y-71059108D01*
X116579346Y-71071571D01*
X116579083Y-71087070D01*
X116578832Y-71104881D01*
X116578609Y-71124282D01*
X116578570Y-71128226D01*
X116578189Y-71155331D01*
X116577621Y-71177517D01*
X116576850Y-71195072D01*
X116575864Y-71208283D01*
X116574649Y-71217436D01*
X116574251Y-71219377D01*
X116572069Y-71230568D01*
X116570388Y-71242164D01*
X116569829Y-71248025D01*
X116569031Y-71257551D01*
X116567749Y-71265254D01*
X116565496Y-71273005D01*
X116561787Y-71282676D01*
X116559230Y-71288825D01*
X116555219Y-71298683D01*
X116550248Y-71311379D01*
X116545118Y-71324848D01*
X116542694Y-71331363D01*
X116536217Y-71347609D01*
X116529328Y-71361656D01*
X116521279Y-71374578D01*
X116511321Y-71387449D01*
X116498706Y-71401345D01*
X116482947Y-71417083D01*
X116463547Y-71435695D01*
X116447306Y-71450829D01*
X116433810Y-71462802D01*
X116422648Y-71471928D01*
X116413407Y-71478524D01*
X116405677Y-71482906D01*
X116399043Y-71485388D01*
X116393096Y-71486288D01*
X116392601Y-71486301D01*
X116387002Y-71487199D01*
X116379103Y-71489342D01*
X116375950Y-71490381D01*
X116367138Y-71492268D01*
X116354270Y-71493454D01*
X116338453Y-71493926D01*
X116330276Y-71493808D01*
X116320793Y-71493671D01*
X116302398Y-71492679D01*
X116288017Y-71491358D01*
X116270731Y-71487863D01*
X116256763Y-71481268D01*
X116245511Y-71471054D01*
X116236376Y-71456696D01*
X116229791Y-71440742D01*
X116226576Y-71430780D01*
X116222877Y-71418241D01*
X116218969Y-71404190D01*
X116215129Y-71389695D01*
X116211630Y-71375822D01*
X116208749Y-71363638D01*
X116206760Y-71354209D01*
X116205939Y-71348603D01*
X116205932Y-71348291D01*
X116205115Y-71341576D01*
X116203088Y-71333196D01*
X116202516Y-71331363D01*
X116200987Y-71326087D01*
X116199701Y-71320029D01*
X116198633Y-71312696D01*
X116197759Y-71303597D01*
X116197053Y-71292240D01*
X116196493Y-71278135D01*
X116196053Y-71260790D01*
X116195708Y-71239714D01*
X116195436Y-71214414D01*
X116195210Y-71184400D01*
X116195209Y-71184219D01*
X116195011Y-71156420D01*
X116194781Y-71133378D01*
X116194481Y-71114641D01*
X116194070Y-71099758D01*
X116193509Y-71088276D01*
X116192758Y-71079745D01*
X116191779Y-71073712D01*
X116190532Y-71069726D01*
X116188976Y-71067335D01*
X116187073Y-71066087D01*
X116184830Y-71065538D01*
X116180841Y-71064787D01*
X116172725Y-71063139D01*
X116161448Y-71060794D01*
X116147976Y-71057954D01*
X116135414Y-71055276D01*
X116130438Y-71053809D01*
X116128903Y-71053097D01*
X116125372Y-71052137D01*
X116118521Y-71051019D01*
X116113862Y-71050439D01*
X116103648Y-71048901D01*
X116091809Y-71046557D01*
X116085214Y-71045002D01*
X116075407Y-71042653D01*
X116066441Y-71040773D01*
X116061851Y-71040000D01*
X116054860Y-71038774D01*
X116050132Y-71037501D01*
X116045051Y-71036162D01*
X116037629Y-71034785D01*
X116036319Y-71034588D01*
X116029577Y-71033401D01*
X116019334Y-71031360D01*
X116007162Y-71028804D01*
X115994632Y-71026070D01*
X115983315Y-71023497D01*
X115974781Y-71021422D01*
X115973304Y-71021031D01*
X115966950Y-71019592D01*
X115956719Y-71017606D01*
X115943881Y-71015311D01*
X115934239Y-71013685D01*
X115924732Y-71011993D01*
X115917807Y-71010374D01*
X115913404Y-71009071D01*
X115907370Y-71007598D01*
X115899361Y-71006129D01*
X115898126Y-71005940D01*
X115891264Y-71004746D01*
X115886870Y-71003648D01*
X115886406Y-71003442D01*
X115882942Y-71002373D01*
X115876629Y-71001087D01*
X115875642Y-71000918D01*
X115867315Y-70999413D01*
X115860045Y-70997909D01*
X115860016Y-70997903D01*
X115852390Y-70996294D01*
X115845692Y-70995033D01*
X115838993Y-70993742D01*
X115829478Y-70991769D01*
X115820951Y-70989923D01*
X115811107Y-70987766D01*
X115802448Y-70985906D01*
X115797512Y-70984879D01*
X115789434Y-70983263D01*
X115784490Y-70982271D01*
X115776883Y-70980770D01*
X115770167Y-70979472D01*
X115763663Y-70978193D01*
X115758542Y-70977017D01*
X115751799Y-70975246D01*
X115750634Y-70974932D01*
X115742980Y-70973217D01*
X115736310Y-70972069D01*
X115710589Y-70967554D01*
X115699850Y-70965003D01*
X115691410Y-70962960D01*
X115683976Y-70961413D01*
X115682922Y-70961231D01*
X115676518Y-70960000D01*
X115667728Y-70958082D01*
X115663389Y-70957071D01*
X115655110Y-70955265D01*
X115648555Y-70954131D01*
X115646461Y-70953937D01*
X115642158Y-70952980D01*
X115641252Y-70952306D01*
X115638222Y-70951177D01*
X115631400Y-70949654D01*
X115622156Y-70948037D01*
X115620418Y-70947771D01*
X115610439Y-70946220D01*
X115602189Y-70944843D01*
X115597281Y-70943908D01*
X115596979Y-70943835D01*
X115591443Y-70942409D01*
X115586561Y-70941149D01*
X115575095Y-70938487D01*
X115564506Y-70936546D01*
X115559216Y-70935892D01*
X115553197Y-70934525D01*
X115550752Y-70933381D01*
X115547880Y-70932214D01*
X115547497Y-70932566D01*
X115545320Y-70932777D01*
X115539985Y-70931626D01*
X115539032Y-70931354D01*
X115530102Y-70929109D01*
X115521453Y-70927409D01*
X115513895Y-70926025D01*
X115502982Y-70923814D01*
X115490429Y-70921136D01*
X115477952Y-70918352D01*
X115474575Y-70917571D01*
X115469582Y-70916530D01*
X115462129Y-70915096D01*
X115460252Y-70914749D01*
X115448869Y-70912638D01*
X115440942Y-70911082D01*
X115434799Y-70909722D01*
X115428767Y-70908201D01*
X115425093Y-70907220D01*
X115417819Y-70905606D01*
X115409470Y-70904188D01*
X115409467Y-70904188D01*
X115401131Y-70903003D01*
X115393859Y-70901944D01*
X115393841Y-70901942D01*
X115388737Y-70900970D01*
X115379883Y-70899078D01*
X115368595Y-70896552D01*
X115358073Y-70894123D01*
X115345751Y-70891323D01*
X115334737Y-70888973D01*
X115326348Y-70887345D01*
X115322263Y-70886732D01*
X115317343Y-70885807D01*
X115315711Y-70884674D01*
X115313495Y-70883385D01*
X115309852Y-70882882D01*
X115302082Y-70882087D01*
X115291745Y-70880492D01*
X115280720Y-70878447D01*
X115270886Y-70876305D01*
X115264124Y-70874417D01*
X115263625Y-70874231D01*
X115255327Y-70871818D01*
X115244755Y-70869793D01*
X115234977Y-70868727D01*
X115230306Y-70867968D01*
X115222746Y-70866249D01*
X115218049Y-70865042D01*
X115208734Y-70862737D01*
X115200151Y-70860919D01*
X115197215Y-70860419D01*
X115189382Y-70858971D01*
X115180323Y-70856893D01*
X115178984Y-70856549D01*
X115169588Y-70854334D01*
X115160394Y-70852539D01*
X115159452Y-70852386D01*
X115154100Y-70851524D01*
X115148930Y-70850610D01*
X115142551Y-70849376D01*
X115133571Y-70847555D01*
X115123679Y-70845516D01*
X115115667Y-70843918D01*
X115109831Y-70842860D01*
X115108053Y-70842618D01*
X115104238Y-70841441D01*
X115102097Y-70840416D01*
X115097451Y-70838994D01*
X115089567Y-70837528D01*
X115082667Y-70836623D01*
X115071632Y-70834960D01*
X115058794Y-70832352D01*
X115049250Y-70829978D01*
X115040194Y-70827578D01*
X115033207Y-70825928D01*
X115029702Y-70825361D01*
X115029615Y-70825372D01*
X115026259Y-70824971D01*
X115019916Y-70823521D01*
X115017516Y-70822884D01*
X115009137Y-70821071D01*
X114998307Y-70819356D01*
X114990171Y-70818398D01*
X114973959Y-70816773D01*
X114961616Y-70815313D01*
X114951818Y-70813773D01*
X114943241Y-70811912D01*
X114934563Y-70809487D01*
X114925029Y-70806442D01*
X114913525Y-70802877D01*
X114902637Y-70799894D01*
X114894182Y-70797977D01*
X114892056Y-70797638D01*
X114883985Y-70796348D01*
X114873457Y-70794312D01*
X114865090Y-70792496D01*
X114851251Y-70789343D01*
X114841360Y-70787164D01*
X114834299Y-70785726D01*
X114828947Y-70784796D01*
X114826098Y-70784387D01*
X114821017Y-70783204D01*
X114812348Y-70780683D01*
X114801415Y-70777224D01*
X114792242Y-70774157D01*
X114780284Y-70770179D01*
X114769390Y-70766762D01*
X114760959Y-70764332D01*
X114757083Y-70763413D01*
X114748910Y-70761142D01*
X114741457Y-70758048D01*
X114735321Y-70755268D01*
X114726044Y-70751461D01*
X114715391Y-70747347D01*
X114712810Y-70746388D01*
X114695497Y-70739549D01*
X114677878Y-70731786D01*
X114661463Y-70723815D01*
X114647763Y-70716349D01*
X114642493Y-70713089D01*
X114634605Y-70708294D01*
X114624379Y-70702576D01*
X114615148Y-70697745D01*
X114600030Y-70688873D01*
X114582071Y-70676015D01*
X114561182Y-70659103D01*
X114538664Y-70639329D01*
X114529897Y-70631163D01*
X114523215Y-70624133D01*
X114517680Y-70616940D01*
X114512352Y-70608287D01*
X114506293Y-70596877D01*
X114502493Y-70589326D01*
X114495877Y-70576059D01*
X114489343Y-70562956D01*
X114483628Y-70551497D01*
X114479473Y-70543165D01*
X114479360Y-70542939D01*
X114475459Y-70534518D01*
X114472762Y-70527548D01*
X114471910Y-70523974D01*
X114470930Y-70519081D01*
X114468503Y-70512023D01*
X114467780Y-70510266D01*
X114463925Y-70499678D01*
X114459857Y-70486033D01*
X114456124Y-70471425D01*
X114453276Y-70457948D01*
X114452123Y-70450489D01*
X114450482Y-70441511D01*
X114448091Y-70433617D01*
X114447233Y-70431694D01*
X114444713Y-70425130D01*
X114442580Y-70415749D01*
X114440815Y-70403230D01*
X114439398Y-70387253D01*
X114438308Y-70367498D01*
X114437524Y-70343642D01*
X114437028Y-70315367D01*
X114436798Y-70282350D01*
X114436776Y-70266194D01*
X114436839Y-70243429D01*
X114513804Y-70243429D01*
X114513813Y-70265255D01*
X114513913Y-70294547D01*
X114514114Y-70319313D01*
X114514485Y-70340237D01*
X114515094Y-70358003D01*
X114516009Y-70373293D01*
X114517300Y-70386791D01*
X114519035Y-70399180D01*
X114521282Y-70411143D01*
X114524111Y-70423364D01*
X114527589Y-70436525D01*
X114531785Y-70451311D01*
X114532857Y-70455007D01*
X114539598Y-70477411D01*
X114545682Y-70495575D01*
X114551539Y-70510355D01*
X114557596Y-70522603D01*
X114564285Y-70533175D01*
X114572033Y-70542925D01*
X114581270Y-70552708D01*
X114582601Y-70554024D01*
X114592107Y-70563922D01*
X114601765Y-70574876D01*
X114609766Y-70584815D01*
X114611053Y-70586562D01*
X114620369Y-70598728D01*
X114629766Y-70609141D01*
X114640099Y-70618453D01*
X114652225Y-70627320D01*
X114667001Y-70636393D01*
X114685283Y-70646327D01*
X114697702Y-70652676D01*
X114729086Y-70667406D01*
X114761636Y-70680732D01*
X114793685Y-70692024D01*
X114823566Y-70700650D01*
X114826098Y-70701275D01*
X114843537Y-70705558D01*
X114856678Y-70708901D01*
X114866299Y-70711524D01*
X114873180Y-70713649D01*
X114878100Y-70715498D01*
X114881140Y-70716924D01*
X114886516Y-70718892D01*
X114895726Y-70721444D01*
X114907479Y-70724251D01*
X114920440Y-70726974D01*
X114933821Y-70729650D01*
X114946335Y-70732256D01*
X114956545Y-70734485D01*
X114962825Y-70735981D01*
X114967500Y-70737066D01*
X114976709Y-70739068D01*
X114989884Y-70741870D01*
X115006454Y-70745351D01*
X115025850Y-70749393D01*
X115047502Y-70753876D01*
X115070840Y-70758681D01*
X115089135Y-70762430D01*
X115113422Y-70767400D01*
X115136500Y-70772128D01*
X115157790Y-70776495D01*
X115176716Y-70780383D01*
X115192699Y-70783673D01*
X115205163Y-70786246D01*
X115213529Y-70787985D01*
X115216747Y-70788664D01*
X115225909Y-70790556D01*
X115234365Y-70792161D01*
X115236279Y-70792491D01*
X115244506Y-70794104D01*
X115253208Y-70796145D01*
X115261156Y-70798019D01*
X115273104Y-70800598D01*
X115287929Y-70803649D01*
X115304508Y-70806941D01*
X115317014Y-70809350D01*
X115329486Y-70811765D01*
X115346564Y-70815136D01*
X115367756Y-70819365D01*
X115392567Y-70824349D01*
X115420504Y-70829988D01*
X115451073Y-70836182D01*
X115483782Y-70842828D01*
X115518135Y-70849828D01*
X115553641Y-70857079D01*
X115589804Y-70864481D01*
X115626133Y-70871934D01*
X115662133Y-70879335D01*
X115697310Y-70886586D01*
X115731172Y-70893584D01*
X115763224Y-70900229D01*
X115792973Y-70906420D01*
X115819926Y-70912057D01*
X115822253Y-70912545D01*
X115837600Y-70915757D01*
X115851921Y-70918736D01*
X115864121Y-70921256D01*
X115873104Y-70923090D01*
X115876944Y-70923856D01*
X115884973Y-70925515D01*
X115895633Y-70927852D01*
X115905591Y-70930124D01*
X115916821Y-70932674D01*
X115927919Y-70935086D01*
X115935541Y-70936648D01*
X115940930Y-70937727D01*
X115950704Y-70939718D01*
X115964150Y-70942473D01*
X115980552Y-70945846D01*
X115999197Y-70949691D01*
X116019370Y-70953860D01*
X116030599Y-70956184D01*
X116057478Y-70961746D01*
X116079772Y-70966346D01*
X116097997Y-70970086D01*
X116112667Y-70973070D01*
X116124296Y-70975401D01*
X116133398Y-70977183D01*
X116140488Y-70978518D01*
X116146081Y-70979509D01*
X116150398Y-70980215D01*
X116157963Y-70981839D01*
X116163420Y-70983568D01*
X116169562Y-70985322D01*
X116180349Y-70987536D01*
X116195248Y-70990112D01*
X116213726Y-70992949D01*
X116214204Y-70993019D01*
X116230773Y-70997325D01*
X116244016Y-71005161D01*
X116254398Y-71016943D01*
X116262379Y-71033085D01*
X116264039Y-71037809D01*
X116265412Y-71042189D01*
X116266559Y-71046592D01*
X116267511Y-71051537D01*
X116268294Y-71057544D01*
X116268940Y-71065131D01*
X116269475Y-71074818D01*
X116269928Y-71087124D01*
X116270330Y-71102568D01*
X116270708Y-71121671D01*
X116271090Y-71144950D01*
X116271501Y-71172499D01*
X116271918Y-71200461D01*
X116272304Y-71223795D01*
X116272692Y-71243085D01*
X116273115Y-71258911D01*
X116273607Y-71271856D01*
X116274199Y-71282500D01*
X116274924Y-71291427D01*
X116275816Y-71299216D01*
X116276908Y-71306451D01*
X116278231Y-71313712D01*
X116279820Y-71321581D01*
X116279958Y-71322248D01*
X116284569Y-71343516D01*
X116289446Y-71364324D01*
X116294251Y-71383306D01*
X116298645Y-71399093D01*
X116300275Y-71404402D01*
X116303021Y-71409903D01*
X116307949Y-71413332D01*
X116314205Y-71415383D01*
X116330276Y-71417208D01*
X116348152Y-71414981D01*
X116366866Y-71409060D01*
X116385453Y-71399804D01*
X116402947Y-71387571D01*
X116412666Y-71378803D01*
X116431805Y-71358612D01*
X116447364Y-71339502D01*
X116460365Y-71320109D01*
X116470657Y-71301414D01*
X116479089Y-71283817D01*
X116485821Y-71267484D01*
X116491389Y-71250808D01*
X116496328Y-71232184D01*
X116501172Y-71210007D01*
X116501263Y-71209559D01*
X116502658Y-71202495D01*
X116503812Y-71195956D01*
X116504746Y-71189384D01*
X116505477Y-71182220D01*
X116506028Y-71173906D01*
X116506418Y-71163882D01*
X116506666Y-71151591D01*
X116506794Y-71136473D01*
X116506821Y-71117970D01*
X116506768Y-71095523D01*
X116506654Y-71068573D01*
X116506616Y-71060661D01*
X116506474Y-71032508D01*
X116506324Y-71008995D01*
X116506138Y-70989552D01*
X116505890Y-70973610D01*
X116505553Y-70960600D01*
X116505098Y-70949953D01*
X116504499Y-70941099D01*
X116503727Y-70933471D01*
X116502757Y-70926497D01*
X116501560Y-70919610D01*
X116500110Y-70912241D01*
X116499304Y-70908308D01*
X116490368Y-70868906D01*
X116480408Y-70833076D01*
X116468908Y-70799207D01*
X116455355Y-70765686D01*
X116449580Y-70752752D01*
X116445435Y-70743104D01*
X116440495Y-70730751D01*
X116435642Y-70717919D01*
X116434274Y-70714138D01*
X116425906Y-70690699D01*
X116393627Y-70690914D01*
X116376843Y-70691252D01*
X116363071Y-70692206D01*
X116350296Y-70694064D01*
X116336504Y-70697112D01*
X116320982Y-70701271D01*
X116309963Y-70704118D01*
X116298380Y-70706744D01*
X116293636Y-70707685D01*
X116284047Y-70709558D01*
X116272199Y-70712025D01*
X116262384Y-70714167D01*
X116251375Y-70716359D01*
X116236168Y-70718986D01*
X116217745Y-70721900D01*
X116197083Y-70724951D01*
X116175163Y-70727992D01*
X116152964Y-70730873D01*
X116149411Y-70731314D01*
X116135905Y-70732585D01*
X116124634Y-70732493D01*
X116112780Y-70730938D01*
X116106851Y-70729804D01*
X116094390Y-70727067D01*
X116085338Y-70724292D01*
X116077950Y-70720668D01*
X116070483Y-70715387D01*
X116063638Y-70709728D01*
X116052252Y-70698318D01*
X116041256Y-70683645D01*
X116030372Y-70665243D01*
X116019327Y-70642643D01*
X116007844Y-70615376D01*
X116007249Y-70613871D01*
X116003991Y-70605712D01*
X116001180Y-70598851D01*
X116000371Y-70596943D01*
X115998470Y-70591533D01*
X115996029Y-70583263D01*
X115994470Y-70577411D01*
X115991285Y-70566658D01*
X115987362Y-70555728D01*
X115985533Y-70551367D01*
X115982372Y-70543174D01*
X115978767Y-70532023D01*
X115975397Y-70520045D01*
X115974755Y-70517511D01*
X115971417Y-70504083D01*
X115967771Y-70489490D01*
X115964564Y-70476720D01*
X115964343Y-70475842D01*
X115961169Y-70460993D01*
X115957928Y-70441498D01*
X115954695Y-70417918D01*
X115951547Y-70390811D01*
X115948560Y-70360740D01*
X115948323Y-70358140D01*
X115947373Y-70343221D01*
X115946852Y-70324983D01*
X115946729Y-70304285D01*
X115946971Y-70281991D01*
X115947546Y-70258959D01*
X115948421Y-70236052D01*
X115949564Y-70214131D01*
X115950943Y-70194056D01*
X115952525Y-70176688D01*
X115954279Y-70162889D01*
X115955983Y-70154208D01*
X115958800Y-70144681D01*
X115962733Y-70132913D01*
X115967298Y-70120186D01*
X115972015Y-70107781D01*
X115976401Y-70096980D01*
X115979973Y-70089066D01*
X115981563Y-70086180D01*
X115989366Y-70077560D01*
X116001398Y-70068455D01*
X116016764Y-70059322D01*
X116034571Y-70050614D01*
X116053924Y-70042786D01*
X116073928Y-70036294D01*
X116085487Y-70033318D01*
X116091427Y-70032020D01*
X116097485Y-70030896D01*
X116104042Y-70029937D01*
X116111476Y-70029136D01*
X116120169Y-70028484D01*
X116130498Y-70027975D01*
X116142845Y-70027600D01*
X116157589Y-70027352D01*
X116175109Y-70027223D01*
X116195786Y-70027205D01*
X116219999Y-70027291D01*
X116248128Y-70027472D01*
X116280553Y-70027742D01*
X116317653Y-70028091D01*
X116334003Y-70028253D01*
X116367738Y-70028585D01*
X116396687Y-70028895D01*
X116421272Y-70029240D01*
X116441915Y-70029677D01*
X116459039Y-70030263D01*
X116473066Y-70031056D01*
X116484417Y-70032112D01*
X116493515Y-70033490D01*
X116500783Y-70035245D01*
X116506641Y-70037435D01*
X116511513Y-70040118D01*
X116515820Y-70043350D01*
X116519984Y-70047189D01*
X116524429Y-70051692D01*
X116527073Y-70054398D01*
X116532831Y-70060522D01*
X116537444Y-70066369D01*
X116541059Y-70072613D01*
X116543826Y-70079930D01*
X116545894Y-70088996D01*
X116547413Y-70100485D01*
X116548531Y-70115073D01*
X116549396Y-70133435D01*
X116550160Y-70156246D01*
X116550254Y-70159416D01*
X116551974Y-70199088D01*
X116554661Y-70235658D01*
X116558260Y-70268643D01*
X116562715Y-70297561D01*
X116567971Y-70321929D01*
X116569444Y-70327395D01*
X116576439Y-70350755D01*
X116583855Y-70373026D01*
X116591389Y-70393439D01*
X116598739Y-70411225D01*
X116605601Y-70425615D01*
X116611673Y-70435841D01*
X116612713Y-70437252D01*
X116615111Y-70440000D01*
X116617691Y-70441005D01*
X116621914Y-70440235D01*
X116629236Y-70437660D01*
X116631352Y-70436870D01*
X116643492Y-70430903D01*
X116654459Y-70422270D01*
X116664665Y-70410437D01*
X116674527Y-70394868D01*
X116684457Y-70375028D01*
X116691126Y-70359635D01*
X116699216Y-70339810D01*
X116705525Y-70323485D01*
X116710413Y-70309410D01*
X116714242Y-70296336D01*
X116717372Y-70283015D01*
X116720163Y-70268198D01*
X116722975Y-70250635D01*
X116723408Y-70247771D01*
X116726124Y-70230666D01*
X116729115Y-70213392D01*
X116732112Y-70197406D01*
X116734845Y-70184164D01*
X116736371Y-70177646D01*
X116739075Y-70164366D01*
X116741014Y-70148616D01*
X116742202Y-70129920D01*
X116742650Y-70107800D01*
X116742372Y-70081780D01*
X116741381Y-70051382D01*
X116740368Y-70029200D01*
X116738552Y-70002007D01*
X116735881Y-69974821D01*
X116732496Y-69948565D01*
X116728543Y-69924162D01*
X116724165Y-69902534D01*
X116719504Y-69884605D01*
X116716458Y-69875545D01*
X116712007Y-69863864D01*
X116708623Y-69855144D01*
X116705717Y-69848016D01*
X116702699Y-69841113D01*
X116698979Y-69833068D01*
X116693968Y-69822512D01*
X116690066Y-69814343D01*
X116683774Y-69800986D01*
X116677558Y-69787470D01*
X116672181Y-69775473D01*
X116668734Y-69767465D01*
X116658247Y-69748688D01*
X116647860Y-69736213D01*
X116639286Y-69726785D01*
X116629717Y-69715414D01*
X116621118Y-69704441D01*
X116620538Y-69703659D01*
X116610536Y-69690343D01*
X116602538Y-69680533D01*
X116595574Y-69673455D01*
X116588675Y-69668339D01*
X116580870Y-69664412D01*
X116571191Y-69660903D01*
X116563974Y-69658646D01*
X116531051Y-69649203D01*
X116500684Y-69641828D01*
X116470866Y-69636075D01*
X116443385Y-69631990D01*
X116431034Y-69630012D01*
X116417434Y-69627302D01*
X116409529Y-69625446D01*
X116405898Y-69624645D01*
X116401408Y-69623933D01*
X116395705Y-69623301D01*
X116388436Y-69622737D01*
X116379248Y-69622232D01*
X116367787Y-69621777D01*
X116353700Y-69621361D01*
X116336634Y-69620973D01*
X116316236Y-69620605D01*
X116292152Y-69620247D01*
X116264029Y-69619887D01*
X116231514Y-69619516D01*
X116194253Y-69619125D01*
X116181650Y-69618997D01*
X116147701Y-69618625D01*
X116114994Y-69618206D01*
X116083957Y-69617749D01*
X116055021Y-69617263D01*
X116028615Y-69616757D01*
X116005167Y-69616240D01*
X115985109Y-69615721D01*
X115968869Y-69615209D01*
X115956877Y-69614713D01*
X115949562Y-69614241D01*
X115948563Y-69614135D01*
X115936026Y-69612540D01*
X115920768Y-69610540D01*
X115905224Y-69608457D01*
X115897779Y-69607438D01*
X115879347Y-69605382D01*
X115856235Y-69603613D01*
X115828963Y-69602143D01*
X115798052Y-69600981D01*
X115764024Y-69600141D01*
X115727398Y-69599632D01*
X115688696Y-69599467D01*
X115648438Y-69599655D01*
X115607146Y-69600209D01*
X115583957Y-69600679D01*
X115541462Y-69601715D01*
X115504143Y-69602771D01*
X115471969Y-69603848D01*
X115444906Y-69604950D01*
X115422923Y-69606076D01*
X115405987Y-69607230D01*
X115394067Y-69608411D01*
X115387130Y-69609622D01*
X115385522Y-69610238D01*
X115381520Y-69611375D01*
X115373712Y-69612609D01*
X115363492Y-69613737D01*
X115358683Y-69614141D01*
X115346203Y-69615124D01*
X115330726Y-69616396D01*
X115314441Y-69617775D01*
X115302690Y-69618799D01*
X115286225Y-69620254D01*
X115267863Y-69621875D01*
X115250256Y-69623427D01*
X115240186Y-69624314D01*
X115224353Y-69626106D01*
X115206770Y-69628726D01*
X115190196Y-69631739D01*
X115182891Y-69633317D01*
X115168921Y-69636411D01*
X115154280Y-69639392D01*
X115141254Y-69641806D01*
X115136013Y-69642664D01*
X115125640Y-69644428D01*
X115116625Y-69646282D01*
X115110791Y-69647848D01*
X115110498Y-69647957D01*
X115103576Y-69649606D01*
X115095677Y-69650270D01*
X115089296Y-69650885D01*
X115085560Y-69652384D01*
X115085417Y-69652570D01*
X115082340Y-69653991D01*
X115075419Y-69655735D01*
X115065982Y-69657483D01*
X115062996Y-69657940D01*
X115051398Y-69659919D01*
X115040309Y-69662288D01*
X115031931Y-69664570D01*
X115031231Y-69664809D01*
X115020994Y-69668074D01*
X115008847Y-69671435D01*
X114996264Y-69674541D01*
X114984719Y-69677043D01*
X114975688Y-69678590D01*
X114971775Y-69678918D01*
X114966278Y-69679756D01*
X114957326Y-69682013D01*
X114946349Y-69685304D01*
X114938928Y-69687772D01*
X114928542Y-69691601D01*
X114915639Y-69696714D01*
X114901086Y-69702731D01*
X114885747Y-69709270D01*
X114870490Y-69715949D01*
X114856180Y-69722387D01*
X114843683Y-69728202D01*
X114833867Y-69733012D01*
X114827597Y-69736437D01*
X114826098Y-69737478D01*
X114821983Y-69740257D01*
X114814668Y-69744532D01*
X114805607Y-69749459D01*
X114803961Y-69750320D01*
X114780238Y-69763503D01*
X114759157Y-69777205D01*
X114743363Y-69788951D01*
X114735508Y-69794848D01*
X114729102Y-69799218D01*
X114725332Y-69801262D01*
X114725009Y-69801321D01*
X114721633Y-69802815D01*
X114715883Y-69806612D01*
X114712440Y-69809202D01*
X114705911Y-69814268D01*
X114696732Y-69821321D01*
X114686408Y-69829205D01*
X114681032Y-69833292D01*
X114659138Y-69850250D01*
X114641030Y-69865156D01*
X114626064Y-69878696D01*
X114613597Y-69891557D01*
X114602984Y-69904426D01*
X114593581Y-69917991D01*
X114584745Y-69932938D01*
X114580856Y-69940158D01*
X114574957Y-69951566D01*
X114569722Y-69962047D01*
X114565793Y-69970296D01*
X114564009Y-69974438D01*
X114561265Y-69981568D01*
X114557643Y-69990750D01*
X114555803Y-69995344D01*
X114553192Y-70002111D01*
X114550861Y-70008968D01*
X114548578Y-70016812D01*
X114546109Y-70026540D01*
X114543222Y-70039049D01*
X114539682Y-70055235D01*
X114537174Y-70066963D01*
X114533873Y-70082180D01*
X114530385Y-70097762D01*
X114527120Y-70111900D01*
X114524492Y-70122784D01*
X114524448Y-70122956D01*
X114521537Y-70135125D01*
X114519189Y-70146608D01*
X114517351Y-70158162D01*
X114515964Y-70170541D01*
X114514972Y-70184502D01*
X114514319Y-70200800D01*
X114513949Y-70220190D01*
X114513804Y-70243429D01*
X114436839Y-70243429D01*
X114436863Y-70234510D01*
X114437129Y-70207682D01*
X114437593Y-70185359D01*
X114438271Y-70167192D01*
X114439181Y-70152831D01*
X114440341Y-70141924D01*
X114441768Y-70134121D01*
X114443481Y-70129074D01*
X114443678Y-70128689D01*
X114445214Y-70124211D01*
X114444908Y-70122431D01*
X114445234Y-70119557D01*
X114447554Y-70113660D01*
X114449893Y-70108876D01*
X114454918Y-70096789D01*
X114458763Y-70081674D01*
X114461632Y-70062637D01*
X114462533Y-70053941D01*
X114464086Y-70042997D01*
X114466601Y-70030659D01*
X114468308Y-70023991D01*
X114470885Y-70013562D01*
X114472801Y-70003324D01*
X114473448Y-69997844D01*
X114475423Y-69986829D01*
X114479933Y-69972377D01*
X114486651Y-69955402D01*
X114495245Y-69936817D01*
X114495926Y-69935444D01*
X114500852Y-69925262D01*
X114505271Y-69915610D01*
X114508281Y-69908469D01*
X114508421Y-69908099D01*
X114511651Y-69900842D01*
X114514992Y-69895267D01*
X114515310Y-69894872D01*
X114518167Y-69890664D01*
X114518787Y-69888838D01*
X114520195Y-69885683D01*
X114523690Y-69880239D01*
X114524843Y-69878626D01*
X114536998Y-69862113D01*
X114546736Y-69849221D01*
X114554607Y-69839291D01*
X114561159Y-69831663D01*
X114566940Y-69825675D01*
X114572499Y-69820667D01*
X114574031Y-69819400D01*
X114581415Y-69813273D01*
X114587334Y-69808163D01*
X114590406Y-69805273D01*
X114593816Y-69802561D01*
X114600367Y-69798130D01*
X114608707Y-69792891D01*
X114609566Y-69792371D01*
X114620014Y-69785439D01*
X114631731Y-69776724D01*
X114642246Y-69768069D01*
X114642598Y-69767758D01*
X114653150Y-69759257D01*
X114665209Y-69750816D01*
X114676229Y-69744215D01*
X114676590Y-69744026D01*
X114687761Y-69737282D01*
X114699264Y-69728874D01*
X114707365Y-69721789D01*
X114716651Y-69713634D01*
X114727218Y-69705865D01*
X114734947Y-69701180D01*
X114744123Y-69696113D01*
X114755484Y-69689457D01*
X114766867Y-69682485D01*
X114769063Y-69681097D01*
X114778022Y-69675515D01*
X114785305Y-69671201D01*
X114789819Y-69668793D01*
X114790666Y-69668501D01*
X114793598Y-69667427D01*
X114800197Y-69664511D01*
X114809454Y-69660210D01*
X114819338Y-69655479D01*
X114830095Y-69650322D01*
X114839063Y-69646130D01*
X114845252Y-69643359D01*
X114847636Y-69642457D01*
X114850411Y-69641258D01*
X114856544Y-69638066D01*
X114864880Y-69633488D01*
X114867887Y-69631795D01*
X114882290Y-69624285D01*
X114896434Y-69618485D01*
X114912173Y-69613735D01*
X114930190Y-69609615D01*
X114936389Y-69607618D01*
X114939650Y-69605778D01*
X114944342Y-69603992D01*
X114950148Y-69603487D01*
X114955268Y-69602953D01*
X114963856Y-69601394D01*
X114974520Y-69599135D01*
X114985867Y-69596500D01*
X114996507Y-69593816D01*
X115005047Y-69591408D01*
X115010095Y-69589601D01*
X115010499Y-69589381D01*
X115014911Y-69587781D01*
X115023113Y-69585713D01*
X115033742Y-69583458D01*
X115045433Y-69581296D01*
X115056823Y-69579507D01*
X115061790Y-69578861D01*
X115070631Y-69577486D01*
X115082282Y-69575237D01*
X115094511Y-69572552D01*
X115096948Y-69571973D01*
X115108263Y-69569343D01*
X115118729Y-69567088D01*
X115126505Y-69565599D01*
X115127962Y-69565371D01*
X115134391Y-69564146D01*
X115144187Y-69561917D01*
X115155696Y-69559068D01*
X115161483Y-69557557D01*
X115170454Y-69555231D01*
X115178508Y-69553350D01*
X115186495Y-69551805D01*
X115195263Y-69550488D01*
X115205663Y-69549289D01*
X115218545Y-69548101D01*
X115234758Y-69546814D01*
X115255152Y-69545320D01*
X115259718Y-69544993D01*
X115271869Y-69544057D01*
X115285084Y-69542941D01*
X115290970Y-69542406D01*
X115301685Y-69541476D01*
X115314770Y-69540451D01*
X115327399Y-69539552D01*
X115327431Y-69539550D01*
X115345828Y-69538322D01*
X115360045Y-69537343D01*
X115371097Y-69536519D01*
X115380003Y-69535759D01*
X115387778Y-69534969D01*
X115395440Y-69534058D01*
X115404005Y-69532931D01*
X115412072Y-69531828D01*
X115417752Y-69531306D01*
X115427521Y-69530678D01*
X115440260Y-69530004D01*
X115454852Y-69529345D01*
X115464158Y-69528979D01*
X115480003Y-69528297D01*
X115495323Y-69527472D01*
X115508788Y-69526586D01*
X115519072Y-69525724D01*
X115522755Y-69525307D01*
X115533958Y-69524238D01*
X115549727Y-69523340D01*
X115569422Y-69522611D01*
X115592405Y-69522050D01*
X115618036Y-69521653D01*
X115645675Y-69521420D01*
X115674683Y-69521347D01*
X115704421Y-69521434D01*
G37*
%TO.C,R4*%
X102940000Y-53438641D02*
X102940000Y-53131359D01*
X103700000Y-53438641D02*
X103700000Y-53131359D01*
%TO.C,R6*%
X111763641Y-59400000D02*
X111456359Y-59400000D01*
X111763641Y-58640000D02*
X111456359Y-58640000D01*
D11*
%TO.C,LDO1*%
X103370000Y-62820000D02*
X104270000Y-62820000D01*
X104620000Y-62870000D02*
X105820000Y-62870000D01*
X104620000Y-65770000D02*
X104620000Y-62870000D01*
X105820000Y-62870000D02*
X105820000Y-65770000D01*
X105820000Y-65770000D02*
X104620000Y-65770000D01*
D10*
%TO.C,R7*%
X117113641Y-59690000D02*
X116806359Y-59690000D01*
X117113641Y-58930000D02*
X116806359Y-58930000D01*
D15*
%TO.C,IC1*%
X112565000Y-57550000D02*
G75*
G03*
X112565000Y-57550000I-125000J0D01*
G01*
D10*
%TO.C,C4*%
X108327164Y-66235000D02*
X108542836Y-66235000D01*
X108327164Y-66955000D02*
X108542836Y-66955000D01*
%TO.C,USB1*%
X97175000Y-52325000D02*
X98975000Y-52325000D01*
X97175000Y-61665000D02*
X98975000Y-61665000D01*
%TO.C,C6*%
X109202164Y-58430000D02*
X109417836Y-58430000D01*
X109202164Y-59150000D02*
X109417836Y-59150000D01*
%TO.C,G\u002A\u002A\u002A*%
G36*
X104154414Y-56149586D02*
G01*
X104154414Y-56289724D01*
X103880945Y-56289724D01*
X103732515Y-56286513D01*
X103631921Y-56273687D01*
X103557094Y-56246454D01*
X103493455Y-56205603D01*
X103379435Y-56121481D01*
X103459409Y-56065465D01*
X103528944Y-56034562D01*
X103637930Y-56016619D01*
X103799833Y-56009689D01*
X103846899Y-56009448D01*
X104154414Y-56009448D01*
X104154414Y-56149586D01*
G37*
G36*
X106391178Y-55980567D02*
G01*
X106482076Y-55998575D01*
X106497584Y-56006149D01*
X106528659Y-56055764D01*
X106524386Y-56151510D01*
X106522273Y-56163267D01*
X106498549Y-56289724D01*
X106246137Y-56288782D01*
X106107920Y-56285253D01*
X106015628Y-56271526D01*
X105945208Y-56240997D01*
X105872606Y-56187064D01*
X105871104Y-56185815D01*
X105748483Y-56083791D01*
X105878737Y-56029103D01*
X105982086Y-56000630D01*
X106117638Y-55982468D01*
X106261851Y-55975489D01*
X106391178Y-55980567D01*
G37*
G36*
X103274782Y-56698889D02*
G01*
X103342864Y-56760501D01*
X103436151Y-56850091D01*
X103489484Y-56902905D01*
X103717285Y-57130706D01*
X103956086Y-56915179D01*
X104194887Y-56699652D01*
X104282130Y-56786895D01*
X104369372Y-56874137D01*
X104032359Y-57183492D01*
X103894829Y-57308980D01*
X103798921Y-57392730D01*
X103734891Y-57440661D01*
X103692993Y-57458689D01*
X103663482Y-57452732D01*
X103636612Y-57428709D01*
X103633715Y-57425562D01*
X103584212Y-57372429D01*
X103499756Y-57282682D01*
X103393690Y-57170475D01*
X103315190Y-57087684D01*
X103058298Y-56817092D01*
X103142149Y-56747263D01*
X103206051Y-56697996D01*
X103243534Y-56676298D01*
X103243842Y-56676269D01*
X103274782Y-56698889D01*
G37*
G36*
X105833922Y-56910441D02*
G01*
X106092384Y-57146334D01*
X106323356Y-56896318D01*
X106429926Y-56781955D01*
X106500808Y-56712001D01*
X106547816Y-56679357D01*
X106582761Y-56676922D01*
X106617456Y-56697595D01*
X106633129Y-56710111D01*
X106690115Y-56765443D01*
X106711834Y-56803340D01*
X106689234Y-56838820D01*
X106627597Y-56914457D01*
X106536052Y-57019521D01*
X106423726Y-57143280D01*
X106411026Y-57156999D01*
X106296635Y-57282801D01*
X106212428Y-57371371D01*
X106145892Y-57421792D01*
X106084514Y-57433146D01*
X106015781Y-57404517D01*
X105927182Y-57334986D01*
X105806201Y-57223636D01*
X105676991Y-57103182D01*
X105401070Y-56848937D01*
X105488265Y-56761742D01*
X105575460Y-56674547D01*
X105833922Y-56910441D01*
G37*
G36*
X102756742Y-55100219D02*
G01*
X102823104Y-55119397D01*
X103222829Y-55226317D01*
X103675008Y-55307009D01*
X104166967Y-55361092D01*
X104686033Y-55388184D01*
X105219533Y-55387903D01*
X105754792Y-55359869D01*
X106279137Y-55303700D01*
X106694414Y-55235929D01*
X106843226Y-55207810D01*
X106965260Y-55185464D01*
X107044856Y-55171719D01*
X107066773Y-55168727D01*
X107090054Y-55198883D01*
X107114466Y-55271212D01*
X107133769Y-55358205D01*
X107141724Y-55432356D01*
X107134052Y-55465359D01*
X107084199Y-55480465D01*
X106978428Y-55502798D01*
X106830249Y-55530132D01*
X106653174Y-55560237D01*
X106460710Y-55590884D01*
X106266370Y-55619844D01*
X106083663Y-55644889D01*
X105941173Y-55662148D01*
X105697344Y-55682026D01*
X105405472Y-55694577D01*
X105084075Y-55699961D01*
X104751676Y-55698339D01*
X104426795Y-55689871D01*
X104127952Y-55674717D01*
X103873668Y-55653036D01*
X103796193Y-55643609D01*
X103579948Y-55609543D01*
X103333840Y-55563123D01*
X103095249Y-55511691D01*
X102973351Y-55482021D01*
X102804831Y-55441223D01*
X102653812Y-55409498D01*
X102537189Y-55390090D01*
X102473227Y-55386059D01*
X102385173Y-55396345D01*
X102388062Y-55921862D01*
X102404584Y-56341753D01*
X102448401Y-56716456D01*
X102518176Y-57042586D01*
X102612570Y-57316759D01*
X102730244Y-57535591D01*
X102869859Y-57695696D01*
X103030076Y-57793692D01*
X103139626Y-57821834D01*
X103225913Y-57836918D01*
X103266127Y-57865764D01*
X103277862Y-57930115D01*
X103278552Y-57993510D01*
X103275499Y-58088547D01*
X103256754Y-58132816D01*
X103207933Y-58145603D01*
X103164690Y-58146210D01*
X103019637Y-58120257D01*
X102855692Y-58051453D01*
X102697014Y-57952230D01*
X102574344Y-57842439D01*
X102427995Y-57636273D01*
X102303220Y-57369704D01*
X102201698Y-57049515D01*
X102125109Y-56682486D01*
X102075130Y-56275402D01*
X102053441Y-55835043D01*
X102052633Y-55734578D01*
X102057878Y-55526701D01*
X102077087Y-55374801D01*
X102114898Y-55265408D01*
X102175946Y-55185056D01*
X102263947Y-55120818D01*
X102396046Y-55076859D01*
X102567141Y-55069975D01*
X102756742Y-55100219D01*
G37*
%TO.C,R3*%
X98816359Y-69540000D02*
X99123641Y-69540000D01*
X98816359Y-70300000D02*
X99123641Y-70300000D01*
%TO.C,GnRF*%
G36*
X117832732Y-61737774D02*
G01*
X117832732Y-61807875D01*
X117564011Y-61807875D01*
X117295290Y-61807875D01*
X117295290Y-61737774D01*
X117295290Y-61667673D01*
X117564011Y-61667673D01*
X117832732Y-61667673D01*
X117832732Y-61737774D01*
G37*
G36*
X114234204Y-63910911D02*
G01*
X114234204Y-64121214D01*
X114315989Y-64121214D01*
X114397774Y-64121214D01*
X114397774Y-63934278D01*
X114397774Y-63747341D01*
X114479558Y-63747341D01*
X114561343Y-63747341D01*
X114561343Y-63934278D01*
X114561343Y-64121214D01*
X114713229Y-64121214D01*
X114865115Y-64121214D01*
X114865115Y-64214683D01*
X114865115Y-64308151D01*
X114467875Y-64308151D01*
X114070635Y-64308151D01*
X114070635Y-64004379D01*
X114070635Y-63700607D01*
X114152419Y-63700607D01*
X114234204Y-63700607D01*
X114234204Y-63910911D01*
G37*
G36*
X114865115Y-65359669D02*
G01*
X114865115Y-65453137D01*
X114672337Y-65453495D01*
X114578985Y-65455942D01*
X114501944Y-65462125D01*
X114454568Y-65470848D01*
X114448478Y-65473556D01*
X114427773Y-65509993D01*
X114425111Y-65560824D01*
X114432824Y-65628390D01*
X114648970Y-65635109D01*
X114865115Y-65641827D01*
X114865115Y-65734419D01*
X114865115Y-65827010D01*
X114561343Y-65827010D01*
X114257571Y-65827010D01*
X114257571Y-65733542D01*
X114263047Y-65675016D01*
X114276725Y-65642460D01*
X114282263Y-65640074D01*
X114289095Y-65624329D01*
X114270580Y-65588140D01*
X114236287Y-65503396D01*
X114247071Y-65416744D01*
X114302083Y-65334930D01*
X114302508Y-65334504D01*
X114334795Y-65304121D01*
X114365787Y-65284420D01*
X114406161Y-65273087D01*
X114466595Y-65267813D01*
X114557766Y-65266283D01*
X114617963Y-65266201D01*
X114865115Y-65266201D01*
X114865115Y-65359669D01*
G37*
G36*
X117719447Y-62874147D02*
G01*
X117779402Y-62914067D01*
X117822945Y-62980462D01*
X117844804Y-63063390D01*
X117839712Y-63152907D01*
X117823555Y-63201252D01*
X117789485Y-63264786D01*
X117758152Y-63288242D01*
X117720620Y-63276793D01*
X117707950Y-63268160D01*
X117679164Y-63234491D01*
X117689656Y-63191922D01*
X117690683Y-63189983D01*
X117709101Y-63132110D01*
X117715897Y-63069285D01*
X117708547Y-63016783D01*
X117689010Y-63005944D01*
X117661061Y-63034510D01*
X117628471Y-63100220D01*
X117617946Y-63127976D01*
X117583170Y-63210655D01*
X117546317Y-63256996D01*
X117496911Y-63276634D01*
X117453017Y-63279642D01*
X117379865Y-63259809D01*
X117326725Y-63205878D01*
X117297361Y-63127569D01*
X117295535Y-63034601D01*
X117322408Y-62942277D01*
X117348421Y-62895481D01*
X117375413Y-62888409D01*
X117419814Y-62916639D01*
X117448808Y-62951388D01*
X117438319Y-62994294D01*
X117437339Y-62996144D01*
X117415672Y-63057609D01*
X117415700Y-63109742D01*
X117436525Y-63138089D01*
X117446275Y-63139798D01*
X117474710Y-63118832D01*
X117500279Y-63064806D01*
X117504215Y-63051449D01*
X117539435Y-62956060D01*
X117586657Y-62898367D01*
X117648349Y-62870648D01*
X117719447Y-62874147D01*
G37*
G36*
X117832732Y-61933646D02*
G01*
X117825107Y-61992656D01*
X117794225Y-62034566D01*
X117750947Y-62064913D01*
X117695977Y-62109632D01*
X117669857Y-62153544D01*
X117669163Y-62160287D01*
X117679106Y-62191365D01*
X117716899Y-62203823D01*
X117750947Y-62205115D01*
X117806255Y-62209480D01*
X117828897Y-62229121D01*
X117832732Y-62263533D01*
X117832732Y-62321950D01*
X117564011Y-62321950D01*
X117482226Y-62321950D01*
X117295290Y-62321950D01*
X117295290Y-62174746D01*
X117414573Y-62174746D01*
X117428429Y-62199345D01*
X117468429Y-62205036D01*
X117482226Y-62205115D01*
X117529601Y-62201804D01*
X117548492Y-62182707D01*
X117549203Y-62134075D01*
X117547896Y-62117489D01*
X117538779Y-62059334D01*
X117517909Y-62034579D01*
X117482226Y-62029862D01*
X117442922Y-62036318D01*
X117424082Y-62064550D01*
X117416556Y-62117489D01*
X117414573Y-62174746D01*
X117295290Y-62174746D01*
X117295290Y-62161532D01*
X117298739Y-62064316D01*
X117311239Y-61998688D01*
X117336012Y-61949868D01*
X117343720Y-61939545D01*
X117408621Y-61891180D01*
X117489923Y-61876582D01*
X117570735Y-61896718D01*
X117610288Y-61924281D01*
X117642406Y-61951569D01*
X117669115Y-61956619D01*
X117706966Y-61937907D01*
X117746155Y-61911755D01*
X117832732Y-61852924D01*
X117832732Y-61933646D01*
G37*
G36*
X117715659Y-60706336D02*
G01*
X117786746Y-60746805D01*
X117818691Y-60783449D01*
X117850738Y-60862190D01*
X117845330Y-60957718D01*
X117817345Y-61042604D01*
X117788646Y-61103763D01*
X117763356Y-61126290D01*
X117730175Y-61115912D01*
X117705721Y-61099171D01*
X117677087Y-61066743D01*
X117685927Y-61025967D01*
X117689571Y-61018923D01*
X117707798Y-60965481D01*
X117715046Y-60904609D01*
X117711102Y-60852935D01*
X117695753Y-60827088D01*
X117692029Y-60826458D01*
X117667350Y-60845834D01*
X117642827Y-60890718D01*
X117603581Y-60988989D01*
X117574991Y-61051781D01*
X117550443Y-61087038D01*
X117523321Y-61102708D01*
X117487009Y-61106733D01*
X117462859Y-61106863D01*
X117373994Y-61088090D01*
X117313801Y-61035764D01*
X117286039Y-60955871D01*
X117294469Y-60854401D01*
X117297413Y-60843418D01*
X117324145Y-60762696D01*
X117349415Y-60723360D01*
X117378633Y-60720566D01*
X117409947Y-60742702D01*
X117442047Y-60784854D01*
X117435516Y-60826390D01*
X117434740Y-60827863D01*
X117415014Y-60889024D01*
X117416214Y-60946312D01*
X117435393Y-60978283D01*
X117449717Y-60981191D01*
X117464804Y-60965784D01*
X117484953Y-60924374D01*
X117514463Y-60849274D01*
X117528409Y-60811964D01*
X117575199Y-60740025D01*
X117641380Y-60704446D01*
X117715659Y-60706336D01*
G37*
G36*
X117801968Y-62393726D02*
G01*
X117819139Y-62404745D01*
X117828324Y-62434102D01*
X117832021Y-62490790D01*
X117832729Y-62583802D01*
X117832732Y-62602355D01*
X117832732Y-62812659D01*
X117564011Y-62812659D01*
X117295290Y-62812659D01*
X117295290Y-62602355D01*
X117295755Y-62502801D01*
X117298816Y-62440988D01*
X117306970Y-62407923D01*
X117322717Y-62394612D01*
X117348554Y-62392062D01*
X117353707Y-62392052D01*
X117386083Y-62395020D01*
X117403563Y-62411242D01*
X117410719Y-62451691D01*
X117412124Y-62527340D01*
X117412125Y-62532254D01*
X117413830Y-62610560D01*
X117421321Y-62652872D01*
X117438160Y-62669879D01*
X117458859Y-62672456D01*
X117486890Y-62666305D01*
X117500871Y-62640196D01*
X117505393Y-62582645D01*
X117505593Y-62555621D01*
X117507487Y-62486281D01*
X117517153Y-62451688D01*
X117540567Y-62439893D01*
X117564011Y-62438786D01*
X117598681Y-62442574D01*
X117615977Y-62461906D01*
X117621875Y-62508732D01*
X117622429Y-62555621D01*
X117624889Y-62625699D01*
X117635333Y-62660650D01*
X117658353Y-62671957D01*
X117669163Y-62672456D01*
X117695265Y-62667341D01*
X117709369Y-62644869D01*
X117715038Y-62594352D01*
X117715897Y-62532254D01*
X117717134Y-62454552D01*
X117723893Y-62412601D01*
X117740746Y-62395426D01*
X117772267Y-62392055D01*
X117774315Y-62392052D01*
X117801968Y-62393726D01*
G37*
G36*
X117801968Y-61155272D02*
G01*
X117819139Y-61166291D01*
X117828324Y-61195648D01*
X117832021Y-61252336D01*
X117832729Y-61345348D01*
X117832732Y-61363901D01*
X117832732Y-61574204D01*
X117564011Y-61574204D01*
X117295290Y-61574204D01*
X117295290Y-61363901D01*
X117295755Y-61264347D01*
X117298816Y-61202534D01*
X117306970Y-61169468D01*
X117322717Y-61156157D01*
X117348554Y-61153607D01*
X117353707Y-61153597D01*
X117385110Y-61156261D01*
X117402601Y-61171289D01*
X117410241Y-61209242D01*
X117412091Y-61280677D01*
X117412125Y-61305483D01*
X117413582Y-61387681D01*
X117420070Y-61433509D01*
X117434766Y-61453292D01*
X117458859Y-61457369D01*
X117485867Y-61451791D01*
X117499936Y-61427672D01*
X117505095Y-61373938D01*
X117505593Y-61328850D01*
X117507110Y-61255245D01*
X117515125Y-61216919D01*
X117534836Y-61202437D01*
X117564011Y-61200331D01*
X117597468Y-61203667D01*
X117614889Y-61221300D01*
X117621472Y-61264665D01*
X117622429Y-61328850D01*
X117624457Y-61403121D01*
X117633227Y-61441812D01*
X117652767Y-61455998D01*
X117669163Y-61457369D01*
X117694455Y-61452635D01*
X117708555Y-61431549D01*
X117714642Y-61383785D01*
X117715897Y-61305483D01*
X117716921Y-61223836D01*
X117722702Y-61178359D01*
X117737299Y-61158495D01*
X117764774Y-61153685D01*
X117774315Y-61153597D01*
X117801968Y-61155272D01*
G37*
G36*
X114864307Y-64469371D02*
G01*
X114865121Y-64521987D01*
X114865115Y-64528520D01*
X114862963Y-64587020D01*
X114850570Y-64627066D01*
X114819035Y-64661934D01*
X114759454Y-64704898D01*
X114736596Y-64720144D01*
X114659936Y-64776435D01*
X114619363Y-64821483D01*
X114608077Y-64860585D01*
X114611893Y-64892191D01*
X114630929Y-64908651D01*
X114676570Y-64914847D01*
X114736596Y-64915695D01*
X114865115Y-64915695D01*
X114865115Y-65020847D01*
X114865115Y-65125998D01*
X114465864Y-65125998D01*
X114234204Y-65125998D01*
X114066613Y-65125998D01*
X114072714Y-64915695D01*
X114234204Y-64915695D01*
X114339356Y-64915695D01*
X114444508Y-64915695D01*
X114444508Y-64803533D01*
X114438980Y-64731335D01*
X114424981Y-64677162D01*
X114416467Y-64663330D01*
X114362054Y-64632718D01*
X114309370Y-64642369D01*
X114265901Y-64686167D01*
X114239134Y-64757998D01*
X114234204Y-64812212D01*
X114234204Y-64915695D01*
X114072714Y-64915695D01*
X114074466Y-64855307D01*
X114082318Y-64584616D01*
X114158630Y-64516485D01*
X114252528Y-64459662D01*
X114353589Y-64444146D01*
X114451259Y-64469880D01*
X114518204Y-64518455D01*
X114563861Y-64561649D01*
X114594718Y-64586328D01*
X114599823Y-64588556D01*
X114624148Y-64576554D01*
X114673602Y-64545897D01*
X114709019Y-64522431D01*
X114786656Y-64470262D01*
X114833079Y-64443821D01*
X114856295Y-64443420D01*
X114864307Y-64469371D01*
G37*
G36*
X115261125Y-60690298D02*
G01*
X115367020Y-60697209D01*
X115462160Y-60710755D01*
X115551525Y-60733978D01*
X115640094Y-60769921D01*
X115732848Y-60821627D01*
X115834767Y-60892138D01*
X115950829Y-60984496D01*
X116086014Y-61101743D01*
X116245303Y-61246924D01*
X116383974Y-61376337D01*
X116505862Y-61490743D01*
X116645595Y-61621817D01*
X116786897Y-61754295D01*
X116913491Y-61872912D01*
X116927258Y-61885806D01*
X117201821Y-62142935D01*
X117201821Y-62688963D01*
X117201821Y-63234991D01*
X116661191Y-62737578D01*
X116426475Y-62521740D01*
X116223554Y-62335441D01*
X116049932Y-62176466D01*
X115903114Y-62042602D01*
X115780603Y-61931635D01*
X115679905Y-61841350D01*
X115598522Y-61769535D01*
X115533960Y-61713974D01*
X115483723Y-61672455D01*
X115445314Y-61642763D01*
X115416239Y-61622685D01*
X115394001Y-61610006D01*
X115385783Y-61606219D01*
X115281032Y-61579263D01*
X115165592Y-61576816D01*
X115059648Y-61598136D01*
X115012293Y-61619992D01*
X114928302Y-61696701D01*
X114878739Y-61798227D01*
X114866072Y-61915290D01*
X114892769Y-62038611D01*
X114897697Y-62050926D01*
X114958349Y-62142316D01*
X115050742Y-62200198D01*
X115127994Y-62220358D01*
X115215621Y-62234455D01*
X115215621Y-62675443D01*
X115215621Y-63116431D01*
X115134986Y-63116431D01*
X114934359Y-63093909D01*
X114742657Y-63029431D01*
X114565117Y-62927630D01*
X114406975Y-62793139D01*
X114273470Y-62630590D01*
X114169838Y-62444616D01*
X114101315Y-62239850D01*
X114091601Y-62193432D01*
X114079357Y-62088004D01*
X114075084Y-61956792D01*
X114078094Y-61813618D01*
X114087699Y-61672306D01*
X114103210Y-61546681D01*
X114123940Y-61450564D01*
X114129404Y-61434002D01*
X114229992Y-61216731D01*
X114359894Y-61035629D01*
X114517830Y-60891538D01*
X114702521Y-60785299D01*
X114912685Y-60717752D01*
X115147045Y-60689739D01*
X115261125Y-60690298D01*
G37*
G36*
X116685237Y-63450079D02*
G01*
X116685639Y-63450095D01*
X116891828Y-63464296D01*
X117061826Y-63491365D01*
X117205296Y-63535135D01*
X117331898Y-63599435D01*
X117451295Y-63688098D01*
X117568626Y-63800233D01*
X117674309Y-63920035D01*
X117750534Y-64033123D01*
X117807755Y-64157095D01*
X117842591Y-64261417D01*
X117862324Y-64352231D01*
X117878397Y-64471949D01*
X117889592Y-64604018D01*
X117894694Y-64731885D01*
X117892486Y-64838998D01*
X117888100Y-64880644D01*
X117857471Y-65019938D01*
X117809993Y-65170667D01*
X117754375Y-65305725D01*
X117746171Y-65322360D01*
X117670764Y-65441073D01*
X117568718Y-65560776D01*
X117453452Y-65667897D01*
X117338388Y-65748865D01*
X117308837Y-65764609D01*
X117185415Y-65815369D01*
X117045866Y-65857622D01*
X116909336Y-65886407D01*
X116798740Y-65896766D01*
X116711113Y-65897111D01*
X116711113Y-65453137D01*
X116711251Y-65299051D01*
X116712138Y-65185509D01*
X116714486Y-65106322D01*
X116719007Y-65055300D01*
X116726412Y-65026254D01*
X116737413Y-65012994D01*
X116752721Y-65009330D01*
X116762153Y-65009163D01*
X116841640Y-64992846D01*
X116929337Y-64951118D01*
X117006815Y-64894817D01*
X117054347Y-64837359D01*
X117083363Y-64748320D01*
X117091381Y-64647049D01*
X117077637Y-64555450D01*
X117065200Y-64525145D01*
X117028855Y-64477826D01*
X116973279Y-64425045D01*
X116958517Y-64413282D01*
X116868909Y-64368733D01*
X116748920Y-64341815D01*
X116611237Y-64332008D01*
X116468546Y-64338797D01*
X116333534Y-64361662D01*
X116218887Y-64400086D01*
X116144775Y-64446486D01*
X116099814Y-64494857D01*
X116075763Y-64549027D01*
X116064299Y-64628554D01*
X116063631Y-64637206D01*
X116071398Y-64771903D01*
X116116803Y-64878983D01*
X116199966Y-64958692D01*
X116226183Y-64974112D01*
X116313747Y-65020847D01*
X116313810Y-65423928D01*
X116313873Y-65827010D01*
X115636228Y-65827010D01*
X114958583Y-65827010D01*
X114958583Y-65429770D01*
X114958583Y-65032530D01*
X115192254Y-65032530D01*
X115290346Y-65031720D01*
X115368161Y-65029537D01*
X115415806Y-65026348D01*
X115425924Y-65023817D01*
X115417270Y-64999379D01*
X115395043Y-64945969D01*
X115375644Y-64901437D01*
X115340582Y-64792237D01*
X115319589Y-64651359D01*
X115314363Y-64577169D01*
X115321192Y-64341543D01*
X115367390Y-64130717D01*
X115452677Y-63945183D01*
X115576776Y-63785434D01*
X115739409Y-63651964D01*
X115881582Y-63571753D01*
X116014114Y-63516405D01*
X116150291Y-63478144D01*
X116300569Y-63455391D01*
X116475399Y-63446563D01*
X116685237Y-63450079D01*
G37*
%TD*%
M02*
