%TF.GenerationSoftware,KiCad,Pcbnew,7.0.5*%
%TF.CreationDate,2023-07-12T14:46:01+02:00*%
%TF.ProjectId,euroslimenRFV2,6575726f-736c-4696-9d65-6e524656322e,rev?*%
%TF.SameCoordinates,Original*%
%TF.FileFunction,Copper,L1,Top*%
%TF.FilePolarity,Positive*%
%FSLAX46Y46*%
G04 Gerber Fmt 4.6, Leading zero omitted, Abs format (unit mm)*
G04 Created by KiCad (PCBNEW 7.0.5) date 2023-07-12 14:46:01*
%MOMM*%
%LPD*%
G01*
G04 APERTURE LIST*
G04 Aperture macros list*
%AMRoundRect*
0 Rectangle with rounded corners*
0 $1 Rounding radius*
0 $2 $3 $4 $5 $6 $7 $8 $9 X,Y pos of 4 corners*
0 Add a 4 corners polygon primitive as box body*
4,1,4,$2,$3,$4,$5,$6,$7,$8,$9,$2,$3,0*
0 Add four circle primitives for the rounded corners*
1,1,$1+$1,$2,$3*
1,1,$1+$1,$4,$5*
1,1,$1+$1,$6,$7*
1,1,$1+$1,$8,$9*
0 Add four rect primitives between the rounded corners*
20,1,$1+$1,$2,$3,$4,$5,0*
20,1,$1+$1,$4,$5,$6,$7,0*
20,1,$1+$1,$6,$7,$8,$9,0*
20,1,$1+$1,$8,$9,$2,$3,0*%
G04 Aperture macros list end*
%TA.AperFunction,SMDPad,CuDef*%
%ADD10RoundRect,0.135000X-0.185000X0.135000X-0.185000X-0.135000X0.185000X-0.135000X0.185000X0.135000X0*%
%TD*%
%TA.AperFunction,SMDPad,CuDef*%
%ADD11RoundRect,0.135000X-0.135000X-0.185000X0.135000X-0.185000X0.135000X0.185000X-0.135000X0.185000X0*%
%TD*%
%TA.AperFunction,SMDPad,CuDef*%
%ADD12RoundRect,0.140000X-0.170000X0.140000X-0.170000X-0.140000X0.170000X-0.140000X0.170000X0.140000X0*%
%TD*%
%TA.AperFunction,SMDPad,CuDef*%
%ADD13RoundRect,0.135000X0.135000X0.185000X-0.135000X0.185000X-0.135000X-0.185000X0.135000X-0.185000X0*%
%TD*%
%TA.AperFunction,SMDPad,CuDef*%
%ADD14R,0.750000X1.500000*%
%TD*%
%TA.AperFunction,SMDPad,CuDef*%
%ADD15R,0.950000X0.950000*%
%TD*%
%TA.AperFunction,SMDPad,CuDef*%
%ADD16RoundRect,0.140000X-0.140000X-0.170000X0.140000X-0.170000X0.140000X0.170000X-0.140000X0.170000X0*%
%TD*%
%TA.AperFunction,SMDPad,CuDef*%
%ADD17RoundRect,0.140000X0.170000X-0.140000X0.170000X0.140000X-0.170000X0.140000X-0.170000X-0.140000X0*%
%TD*%
%TA.AperFunction,SMDPad,CuDef*%
%ADD18R,0.800000X0.800000*%
%TD*%
%TA.AperFunction,SMDPad,CuDef*%
%ADD19R,0.400000X0.400000*%
%TD*%
%TA.AperFunction,SMDPad,CuDef*%
%ADD20R,0.533400X0.304800*%
%TD*%
%TA.AperFunction,SMDPad,CuDef*%
%ADD21R,0.304800X0.533400*%
%TD*%
%TA.AperFunction,SMDPad,CuDef*%
%ADD22R,1.500000X0.700000*%
%TD*%
%TA.AperFunction,SMDPad,CuDef*%
%ADD23R,0.800000X1.000000*%
%TD*%
%TA.AperFunction,SMDPad,CuDef*%
%ADD24RoundRect,0.135000X0.185000X-0.135000X0.185000X0.135000X-0.185000X0.135000X-0.185000X-0.135000X0*%
%TD*%
%TA.AperFunction,SMDPad,CuDef*%
%ADD25RoundRect,0.140000X0.140000X0.170000X-0.140000X0.170000X-0.140000X-0.170000X0.140000X-0.170000X0*%
%TD*%
%TA.AperFunction,SMDPad,CuDef*%
%ADD26R,0.900000X1.400000*%
%TD*%
%TA.AperFunction,SMDPad,CuDef*%
%ADD27R,0.400000X0.600000*%
%TD*%
%TA.AperFunction,SMDPad,CuDef*%
%ADD28R,1.100000X1.100000*%
%TD*%
%TA.AperFunction,SMDPad,CuDef*%
%ADD29R,0.900000X0.600000*%
%TD*%
%TA.AperFunction,SMDPad,CuDef*%
%ADD30R,0.800000X0.300000*%
%TD*%
%TA.AperFunction,SMDPad,CuDef*%
%ADD31R,0.300000X0.800000*%
%TD*%
%TA.AperFunction,SMDPad,CuDef*%
%ADD32R,1.750000X1.750000*%
%TD*%
%TA.AperFunction,SMDPad,CuDef*%
%ADD33R,1.150000X0.600000*%
%TD*%
%TA.AperFunction,SMDPad,CuDef*%
%ADD34R,1.150000X0.300000*%
%TD*%
%TA.AperFunction,ComponentPad*%
%ADD35O,2.100000X1.000000*%
%TD*%
%TA.AperFunction,ComponentPad*%
%ADD36O,1.800000X1.000000*%
%TD*%
%TA.AperFunction,ComponentPad*%
%ADD37O,1.700000X1.700000*%
%TD*%
%TA.AperFunction,ComponentPad*%
%ADD38RoundRect,0.250000X0.625000X-0.350000X0.625000X0.350000X-0.625000X0.350000X-0.625000X-0.350000X0*%
%TD*%
%TA.AperFunction,ComponentPad*%
%ADD39O,1.750000X1.200000*%
%TD*%
%TA.AperFunction,ViaPad*%
%ADD40C,0.500000*%
%TD*%
%TA.AperFunction,Conductor*%
%ADD41C,0.200000*%
%TD*%
%TA.AperFunction,Conductor*%
%ADD42C,0.400000*%
%TD*%
G04 APERTURE END LIST*
D10*
%TO.P,R9,1*%
%TO.N,ADCBAT*%
X111125000Y-64145000D03*
%TO.P,R9,2*%
%TO.N,GND*%
X111125000Y-65165000D03*
%TD*%
D11*
%TO.P,R11,1*%
%TO.N,LEDSTBY*%
X113935000Y-59285000D03*
%TO.P,R11,2*%
%TO.N,/GREEN*%
X114955000Y-59285000D03*
%TD*%
D12*
%TO.P,C9,1*%
%TO.N,VDD*%
X103800000Y-66600000D03*
%TO.P,C9,2*%
%TO.N,GND*%
X103800000Y-67560000D03*
%TD*%
D13*
%TO.P,R10,1*%
%TO.N,LEDG*%
X103860000Y-74270000D03*
%TO.P,R10,2*%
%TO.N,/YELLOW*%
X102840000Y-74270000D03*
%TD*%
D14*
%TO.P,LED1,1,K_1*%
%TO.N,/RED*%
X117445000Y-53655000D03*
D15*
%TO.P,LED1,2,K_2*%
%TO.N,/GREEN*%
X116070000Y-54305000D03*
D14*
%TO.P,LED1,3,A*%
%TO.N,VBUS*%
X114695000Y-53655000D03*
%TD*%
D13*
%TO.P,R16,1*%
%TO.N,TS*%
X113560000Y-57820000D03*
%TO.P,R16,2*%
%TO.N,GND*%
X112540000Y-57820000D03*
%TD*%
D16*
%TO.P,C5,1*%
%TO.N,VDD*%
X107955000Y-67595000D03*
%TO.P,C5,2*%
%TO.N,GND*%
X108915000Y-67595000D03*
%TD*%
D17*
%TO.P,C7,1*%
%TO.N,BAT+*%
X113460000Y-56300000D03*
%TO.P,C7,2*%
%TO.N,GND*%
X113460000Y-55340000D03*
%TD*%
D12*
%TO.P,C2,1*%
%TO.N,VDD*%
X108685000Y-73165000D03*
%TO.P,C2,2*%
%TO.N,GND*%
X108685000Y-74125000D03*
%TD*%
D18*
%TO.P,nRF1,1,VSS_1*%
%TO.N,GND*%
X110350000Y-73830000D03*
D19*
%TO.P,nRF1,3,P0_12*%
%TO.N,SDAAUX*%
X111575000Y-73380000D03*
%TO.P,nRF1,5,P0_14/TRACE/DATA3*%
%TO.N,SCLAUX*%
X112225000Y-73380000D03*
%TO.P,nRF1,6,P0_26*%
%TO.N,INT2*%
X112550000Y-74030000D03*
D18*
%TO.P,nRF1,7,VSS_2*%
%TO.N,GND*%
X113450000Y-73830000D03*
D19*
%TO.P,nRF1,8,VSS_3*%
X113650000Y-72930000D03*
%TO.P,nRF1,10,VSS_4*%
X113650000Y-72280000D03*
%TO.P,nRF1,12,VSS_5*%
X113650000Y-71630000D03*
%TO.P,nRF1,13,P0_21/RESET*%
%TO.N,RST*%
X113000000Y-71305000D03*
%TO.P,nRF1,14,VSS_6*%
%TO.N,GND*%
X113650000Y-70980000D03*
%TO.P,nRF1,15,P0_20/TRACE/CLK*%
%TO.N,unconnected-(nRF1-P0_20{slash}TRACE{slash}CLK-Pad15)*%
X113000000Y-70655000D03*
%TO.P,nRF1,16,VSS_7*%
%TO.N,GND*%
X113650000Y-70330000D03*
%TO.P,nRF1,17,P0_22*%
%TO.N,unconnected-(nRF1-P0_22-Pad17)*%
X113000000Y-70005000D03*
%TO.P,nRF1,18,VSS_8*%
%TO.N,GND*%
X113650000Y-69680000D03*
%TO.P,nRF1,19,P0_24*%
X113000000Y-69355000D03*
%TO.P,nRF1,20,OUT_ANT*%
%TO.N,Net-(nRF1-OUT_ANT)*%
X113650000Y-69030000D03*
%TO.P,nRF1,21,VSS_9*%
%TO.N,GND*%
X113000000Y-68705000D03*
%TO.P,nRF1,22,OUT_MOD*%
%TO.N,Net-(nRF1-OUT_ANT)*%
X113650000Y-68380000D03*
%TO.P,nRF1,23,VSS_10*%
%TO.N,GND*%
X113000000Y-68055000D03*
%TO.P,nRF1,24,VSS_11*%
X113650000Y-67730000D03*
D18*
%TO.P,nRF1,25,VSS_12*%
X113450000Y-66830000D03*
D19*
%TO.P,nRF1,26,VCC*%
%TO.N,VDD*%
X112550000Y-66630000D03*
%TO.P,nRF1,28,SWDIO*%
%TO.N,SWDIO*%
X111900000Y-66630000D03*
%TO.P,nRF1,30,SWDCLK*%
%TO.N,SWDCLK*%
X111250000Y-66630000D03*
D18*
%TO.P,nRF1,31,VSS_13*%
%TO.N,GND*%
X110350000Y-66830000D03*
D19*
%TO.P,nRF1,32,P0_08*%
%TO.N,unconnected-(nRF1-P0_08-Pad32)*%
X110150000Y-67730000D03*
%TO.P,nRF1,33,P0_07*%
%TO.N,EN1*%
X110800000Y-68055000D03*
%TO.P,nRF1,34,P0_06*%
%TO.N,unconnected-(nRF1-P0_06-Pad34)*%
X110150000Y-68380000D03*
%TO.P,nRF1,35,P0_04/AIN2*%
%TO.N,unconnected-(nRF1-P0_04{slash}AIN2-Pad35)*%
X110800000Y-68705000D03*
%TO.P,nRF1,36,P0_05/AIN3*%
%TO.N,unconnected-(nRF1-P0_05{slash}AIN3-Pad36)*%
X110150000Y-69030000D03*
%TO.P,nRF1,37,P0_15/TRACE/DATA2*%
%TO.N,unconnected-(nRF1-P0_15{slash}TRACE{slash}DATA2-Pad37)*%
X110800000Y-69355000D03*
%TO.P,nRF1,38,P0_03/AIN1*%
%TO.N,ADCBAT*%
X110150000Y-69680000D03*
%TO.P,nRF1,39,P0_27*%
%TO.N,EN2*%
X110800000Y-70005000D03*
%TO.P,nRF1,40,P0_02/AIN0*%
%TO.N,unconnected-(nRF1-P0_02{slash}AIN0-Pad40)*%
X110150000Y-70330000D03*
%TO.P,nRF1,41,P0_25*%
%TO.N,LEDG*%
X110800000Y-70655000D03*
%TO.P,nRF1,42,P0_31/AIN7*%
%TO.N,unconnected-(nRF1-P0_31{slash}AIN7-Pad42)*%
X110150000Y-70980000D03*
%TO.P,nRF1,43,P0_11*%
%TO.N,INT*%
X110800000Y-71305000D03*
%TO.P,nRF1,44,P0_30/AIN6*%
%TO.N,unconnected-(nRF1-P0_30{slash}AIN6-Pad44)*%
X110150000Y-71630000D03*
%TO.P,nRF1,45,P0_19*%
%TO.N,SDA*%
X110800000Y-71955000D03*
%TO.P,nRF1,46,P0_29/QIN5*%
%TO.N,unconnected-(nRF1-P0_29{slash}QIN5-Pad46)*%
X110150000Y-72280000D03*
%TO.P,nRF1,47,P0_23*%
%TO.N,SCL*%
X110800000Y-72605000D03*
%TO.P,nRF1,48,P0_28/AIN4*%
%TO.N,unconnected-(nRF1-P0_28{slash}AIN4-Pad48)*%
X110150000Y-72930000D03*
%TO.P,nRF1,49,NC_1*%
%TO.N,unconnected-(nRF1-NC_1-Pad49)*%
X114400000Y-74030000D03*
%TO.P,nRF1,50,NC_2*%
%TO.N,unconnected-(nRF1-NC_2-Pad50)*%
X115400000Y-74030000D03*
%TO.P,nRF1,51,NC_3*%
%TO.N,unconnected-(nRF1-NC_3-Pad51)*%
X116400000Y-74030000D03*
D18*
%TO.P,nRF1,52,NC_4*%
%TO.N,unconnected-(nRF1-NC_4-Pad52)*%
X117350000Y-73830000D03*
D19*
%TO.P,nRF1,53,NC_5*%
%TO.N,unconnected-(nRF1-NC_5-Pad53)*%
X117550000Y-72830000D03*
%TO.P,nRF1,54,NC_6*%
%TO.N,unconnected-(nRF1-NC_6-Pad54)*%
X117550000Y-71830000D03*
%TO.P,nRF1,55,NC_7*%
%TO.N,unconnected-(nRF1-NC_7-Pad55)*%
X117550000Y-70830000D03*
%TO.P,nRF1,56,NC_8*%
%TO.N,unconnected-(nRF1-NC_8-Pad56)*%
X117550000Y-69830000D03*
%TO.P,nRF1,57,NC_9*%
%TO.N,unconnected-(nRF1-NC_9-Pad57)*%
X117550000Y-68830000D03*
%TO.P,nRF1,58,NC_10*%
%TO.N,unconnected-(nRF1-NC_10-Pad58)*%
X117550000Y-67830000D03*
D18*
%TO.P,nRF1,59,NC_11*%
%TO.N,unconnected-(nRF1-NC_11-Pad59)*%
X117350000Y-66830000D03*
D19*
%TO.P,nRF1,60,NC_12*%
%TO.N,unconnected-(nRF1-NC_12-Pad60)*%
X116400000Y-66630000D03*
%TO.P,nRF1,61,NC_13*%
%TO.N,unconnected-(nRF1-NC_13-Pad61)*%
X115400000Y-66630000D03*
%TO.P,nRF1,62,NC_14*%
%TO.N,unconnected-(nRF1-NC_14-Pad62)*%
X114400000Y-66630000D03*
%TD*%
D16*
%TO.P,C1,1*%
%TO.N,VDD*%
X105325000Y-74300000D03*
%TO.P,C1,2*%
%TO.N,GND*%
X106285000Y-74300000D03*
%TD*%
%TO.P,C3,1*%
%TO.N,Net-(MAG1-C1)*%
X105795000Y-69015000D03*
%TO.P,C3,2*%
%TO.N,GND*%
X106755000Y-69015000D03*
%TD*%
%TO.P,C11,1*%
%TO.N,VDD*%
X107955000Y-65595000D03*
%TO.P,C11,2*%
%TO.N,GND*%
X108915000Y-65595000D03*
%TD*%
D19*
%TO.P,MAG1,1,SCL/SPC*%
%TO.N,SCX*%
X105260000Y-66410000D03*
%TO.P,MAG1,2,NC_1*%
%TO.N,unconnected-(MAG1-NC_1-Pad2)*%
X105260000Y-66910000D03*
%TO.P,MAG1,3,CS*%
%TO.N,unconnected-(MAG1-CS-Pad3)*%
X105260000Y-67410000D03*
%TO.P,MAG1,4,SDA/SDI/SDO*%
%TO.N,SDX*%
X105260000Y-67910000D03*
%TO.P,MAG1,5,C1*%
%TO.N,Net-(MAG1-C1)*%
X105810000Y-67910000D03*
%TO.P,MAG1,6,GND_1*%
%TO.N,GND*%
X106310000Y-67910000D03*
%TO.P,MAG1,7,INT/DRDY*%
%TO.N,INTX*%
X106860000Y-67910000D03*
%TO.P,MAG1,8,GND_2*%
%TO.N,GND*%
X106860000Y-67410000D03*
%TO.P,MAG1,9,VDD*%
%TO.N,VDD*%
X106860000Y-66910000D03*
%TO.P,MAG1,10,VDD_IO*%
X106860000Y-66410000D03*
%TO.P,MAG1,11,NC_2*%
%TO.N,unconnected-(MAG1-NC_2-Pad11)*%
X106310000Y-66410000D03*
%TO.P,MAG1,12,NC_3*%
%TO.N,unconnected-(MAG1-NC_3-Pad12)*%
X105810000Y-66410000D03*
%TD*%
D11*
%TO.P,R2,1*%
%TO.N,SCL*%
X106815000Y-70055000D03*
%TO.P,R2,2*%
%TO.N,VDD*%
X107835000Y-70055000D03*
%TD*%
D20*
%TO.P,IMU1,1,SDO/SA0*%
%TO.N,GND*%
X104900900Y-71475411D03*
%TO.P,IMU1,2,SDx/AH1/QVAR1*%
%TO.N,SCX*%
X104900900Y-71975537D03*
%TO.P,IMU1,3,SCx/AH2/QVAR2*%
%TO.N,SDX*%
X104900900Y-72475663D03*
%TO.P,IMU1,4,INT1*%
%TO.N,INT*%
X104900900Y-72975789D03*
D21*
%TO.P,IMU1,5,VDD_IO*%
%TO.N,VDD*%
X105581874Y-73152700D03*
%TO.P,IMU1,6,GND*%
%TO.N,GND*%
X106082000Y-73152700D03*
%TO.P,IMU1,7,GND*%
X106582126Y-73152700D03*
D20*
%TO.P,IMU1,8,VDD*%
%TO.N,VDD*%
X107263100Y-72975789D03*
%TO.P,IMU1,9,INT2*%
%TO.N,INTX*%
X107263100Y-72475663D03*
%TO.P,IMU1,10,OCS_AUX*%
%TO.N,VDD*%
X107263100Y-71975537D03*
%TO.P,IMU1,11,SDO_AUX*%
X107263100Y-71475411D03*
D21*
%TO.P,IMU1,12,CS*%
X106582126Y-71298500D03*
%TO.P,IMU1,13,SCL*%
%TO.N,SCL*%
X106082000Y-71298500D03*
%TO.P,IMU1,14,SDA*%
%TO.N,SDA*%
X105581874Y-71298500D03*
%TD*%
D22*
%TO.P,S1,1,NC_1*%
%TO.N,unconnected-(S1-NC_1-Pad1)*%
X98482000Y-64832000D03*
%TO.P,S1,2,COM*%
%TO.N,VCC*%
X98482000Y-65832000D03*
%TO.P,S1,3,NC_2*%
%TO.N,VIN*%
X98482000Y-66832000D03*
D23*
%TO.P,S1,MP1,MP1*%
%TO.N,GND*%
X97732000Y-63032000D03*
%TO.P,S1,MP2,MP2*%
X97732000Y-68632000D03*
%TO.P,S1,MP3,MP3*%
X95532000Y-63032000D03*
%TO.P,S1,MP4,MP4*%
X95532000Y-68632000D03*
%TD*%
D24*
%TO.P,R5,1*%
%TO.N,CC2*%
X104530000Y-53795000D03*
%TO.P,R5,2*%
%TO.N,GND*%
X104530000Y-52775000D03*
%TD*%
D25*
%TO.P,C8,1*%
%TO.N,VIN*%
X105630000Y-62040000D03*
%TO.P,C8,2*%
%TO.N,GND*%
X104670000Y-62040000D03*
%TD*%
D10*
%TO.P,R17,1*%
%TO.N,ILIM*%
X107790000Y-58790000D03*
%TO.P,R17,2*%
%TO.N,GND*%
X107790000Y-59810000D03*
%TD*%
D26*
%TO.P,RST1,1,1*%
%TO.N,RST*%
X95970000Y-70520000D03*
%TO.P,RST1,2,2*%
X95970000Y-74120000D03*
%TO.P,RST1,3,3*%
%TO.N,GND*%
X97270000Y-70520000D03*
%TO.P,RST1,4,4*%
X97270000Y-74120000D03*
D27*
%TO.P,RST1,MP1,MP1*%
X98420000Y-72320000D03*
%TD*%
D17*
%TO.P,C10,1*%
%TO.N,VCC*%
X108000000Y-55800000D03*
%TO.P,C10,2*%
%TO.N,GND*%
X108000000Y-54840000D03*
%TD*%
D13*
%TO.P,R1,1*%
%TO.N,SDA*%
X105035000Y-70055000D03*
%TO.P,R1,2*%
%TO.N,VDD*%
X104015000Y-70055000D03*
%TD*%
D28*
%TO.P,LED2,1,A*%
%TO.N,VDD*%
X99470000Y-74120000D03*
%TO.P,LED2,2,K*%
%TO.N,/YELLOW*%
X101470000Y-74120000D03*
%TD*%
D24*
%TO.P,R8,1*%
%TO.N,VIN*%
X110020000Y-65165000D03*
%TO.P,R8,2*%
%TO.N,ADCBAT*%
X110020000Y-64145000D03*
%TD*%
%TO.P,R4,1*%
%TO.N,CC1*%
X103320000Y-53795000D03*
%TO.P,R4,2*%
%TO.N,GND*%
X103320000Y-52775000D03*
%TD*%
D13*
%TO.P,R6,1*%
%TO.N,CHRGSET*%
X112120000Y-59020000D03*
%TO.P,R6,2*%
%TO.N,GND*%
X111100000Y-59020000D03*
%TD*%
D29*
%TO.P,LDO1,1,VSS*%
%TO.N,GND*%
X103820000Y-63370000D03*
%TO.P,LDO1,2,VOUT*%
%TO.N,VDD*%
X103820000Y-65270000D03*
%TO.P,LDO1,3,VIN*%
%TO.N,VIN*%
X106620000Y-64320000D03*
%TD*%
D13*
%TO.P,R7,1*%
%TO.N,/RED*%
X117470000Y-59310000D03*
%TO.P,R7,2*%
%TO.N,LEDCHG*%
X116450000Y-59310000D03*
%TD*%
D30*
%TO.P,IC1,1,TS*%
%TO.N,TS*%
X112040000Y-56800000D03*
%TO.P,IC1,2,BAT_1*%
%TO.N,BAT+*%
X112040000Y-56300000D03*
%TO.P,IC1,3,BAT_2*%
X112040000Y-55800000D03*
%TO.P,IC1,4,~{CE}*%
%TO.N,GND*%
X112040000Y-55300000D03*
D31*
%TO.P,IC1,5,EN2*%
%TO.N,EN2*%
X111290000Y-54550000D03*
%TO.P,IC1,6,EN1*%
%TO.N,EN1*%
X110790000Y-54550000D03*
%TO.P,IC1,7,~{PGOOD}*%
%TO.N,LEDSTBY*%
X110290000Y-54550000D03*
%TO.P,IC1,8,VSS_1*%
%TO.N,GND*%
X109790000Y-54550000D03*
D30*
%TO.P,IC1,9,~{CHG}*%
%TO.N,LEDCHG*%
X109040000Y-55300000D03*
%TO.P,IC1,10,OUT_1*%
%TO.N,VCC*%
X109040000Y-55800000D03*
%TO.P,IC1,11,OUT_2*%
X109040000Y-56300000D03*
%TO.P,IC1,12,ILIM*%
%TO.N,ILIM*%
X109040000Y-56800000D03*
D31*
%TO.P,IC1,13,IN*%
%TO.N,VBUS*%
X109790000Y-57550000D03*
%TO.P,IC1,14,TMR*%
%TO.N,unconnected-(IC1-TMR-Pad14)*%
X110290000Y-57550000D03*
%TO.P,IC1,15,TD*%
%TO.N,GND*%
X110790000Y-57550000D03*
%TO.P,IC1,16,ISET*%
%TO.N,CHRGSET*%
X111290000Y-57550000D03*
D32*
%TO.P,IC1,17,VSS_2*%
%TO.N,GND*%
X110540000Y-56050000D03*
%TD*%
D16*
%TO.P,C4,1*%
%TO.N,VDD*%
X107955000Y-66595000D03*
%TO.P,C4,2*%
%TO.N,GND*%
X108915000Y-66595000D03*
%TD*%
D33*
%TO.P,USB1,A1,GND*%
%TO.N,GND*%
X100855000Y-53795000D03*
%TO.P,USB1,A4,VBUS*%
%TO.N,VBUS*%
X100855000Y-54595000D03*
D34*
%TO.P,USB1,A5,CC1*%
%TO.N,CC1*%
X100855000Y-55745000D03*
%TO.P,USB1,A6,D+*%
%TO.N,unconnected-(USB1-D+-PadA6)*%
X100855000Y-56745000D03*
%TO.P,USB1,A7,D-*%
%TO.N,unconnected-(USB1-D--PadA7)*%
X100855000Y-57245000D03*
%TO.P,USB1,A8,SBU1*%
%TO.N,unconnected-(USB1-SBU1-PadA8)*%
X100855000Y-58245000D03*
D33*
%TO.P,USB1,A9,VBUS*%
%TO.N,VBUS*%
X100855000Y-59395000D03*
%TO.P,USB1,A12,GND*%
%TO.N,GND*%
X100855000Y-60195000D03*
%TO.P,USB1,B1,GND*%
X100855000Y-60195000D03*
%TO.P,USB1,B4,VBUS*%
%TO.N,VBUS*%
X100855000Y-59395000D03*
D34*
%TO.P,USB1,B5,CC2*%
%TO.N,CC2*%
X100855000Y-58745000D03*
%TO.P,USB1,B6,D+*%
%TO.N,unconnected-(USB1-D+-PadB6)*%
X100855000Y-57745000D03*
%TO.P,USB1,B7,D-*%
%TO.N,unconnected-(USB1-D--PadB7)*%
X100855000Y-56245000D03*
%TO.P,USB1,B8,SBU2*%
%TO.N,unconnected-(USB1-SBU2-PadB8)*%
X100855000Y-55245000D03*
D33*
%TO.P,USB1,B9,VBUS*%
%TO.N,VBUS*%
X100855000Y-54595000D03*
%TO.P,USB1,B12,GND*%
%TO.N,GND*%
X100855000Y-53795000D03*
D35*
%TO.P,USB1,S1,SHIELD*%
X100280000Y-52675000D03*
D36*
X96100000Y-52675000D03*
D35*
X100280000Y-61315000D03*
D36*
X96100000Y-61315000D03*
%TD*%
D16*
%TO.P,C6,1*%
%TO.N,GND*%
X108830000Y-58790000D03*
%TO.P,C6,2*%
%TO.N,VBUS*%
X109790000Y-58790000D03*
%TD*%
D11*
%TO.P,R3,1*%
%TO.N,RST*%
X98460000Y-69920000D03*
%TO.P,R3,2*%
%TO.N,VDD*%
X99480000Y-69920000D03*
%TD*%
D37*
%TO.P,PROG1,1,Pin_1*%
%TO.N,SWDCLK*%
X107510000Y-61760000D03*
%TO.P,PROG1,2,Pin_2*%
%TO.N,GND*%
X110050000Y-61760000D03*
%TO.P,PROG1,3,Pin_3*%
%TO.N,SWDIO*%
X112590000Y-61760000D03*
%TD*%
D38*
%TO.P,EXT1,1,Pin_1*%
%TO.N,SDAAUX*%
X101470000Y-72510000D03*
D39*
%TO.P,EXT1,2,Pin_2*%
%TO.N,VDD*%
X101470000Y-70510000D03*
%TO.P,EXT1,3,Pin_3*%
%TO.N,INT2*%
X101470000Y-68510000D03*
%TO.P,EXT1,4,Pin_4*%
%TO.N,GND*%
X101470000Y-66510000D03*
%TO.P,EXT1,5,Pin_5*%
%TO.N,SCLAUX*%
X101470000Y-64510000D03*
%TD*%
D38*
%TO.P,BAT1,1,Pin_1*%
%TO.N,BAT+*%
X116430000Y-57770000D03*
D39*
%TO.P,BAT1,2,Pin_2*%
%TO.N,GND*%
X116430000Y-55770000D03*
%TD*%
D40*
%TO.N,GND*%
X102760000Y-72650000D03*
X112090000Y-67310000D03*
X112550000Y-60120000D03*
X98410000Y-71000000D03*
X114474556Y-58138494D03*
X100050000Y-73000000D03*
X104850000Y-65090000D03*
X103900000Y-71340000D03*
X112400000Y-69030000D03*
X103970000Y-73130000D03*
X110540000Y-56050000D03*
%TO.N,INT*%
X111380000Y-71310000D03*
X104810000Y-73510000D03*
%TO.N,VDD*%
X108020000Y-64380000D03*
X112780000Y-65290000D03*
X109400000Y-70520000D03*
%TO.N,SCL*%
X111380000Y-72610000D03*
X106090000Y-71950000D03*
%TO.N,SDA*%
X106080000Y-70050000D03*
X111380000Y-71960000D03*
%TO.N,SDAAUX*%
X111160000Y-73910000D03*
%TO.N,INT2*%
X111860000Y-73990000D03*
%TO.N,SCLAUX*%
X112920000Y-72860000D03*
%TO.N,RST*%
X99770000Y-71280000D03*
X112980000Y-72190000D03*
%TO.N,ADCBAT*%
X109910000Y-65880000D03*
X109570000Y-69670000D03*
%TO.N,VBUS*%
X113820000Y-53350000D03*
X106180000Y-58090000D03*
X108870000Y-57820000D03*
%TO.N,SDX*%
X104260000Y-72480000D03*
X105060000Y-68510000D03*
%TO.N,INTX*%
X108700000Y-71810000D03*
X108860000Y-68550000D03*
%TO.N,LEDG*%
X111380000Y-70660000D03*
X103330000Y-73680000D03*
%TO.N,LEDCHG*%
X109040000Y-54730000D03*
X115760000Y-59310000D03*
%TO.N,/GREEN*%
X114960000Y-58570000D03*
X116070000Y-53160000D03*
%TO.N,LEDSTBY*%
X110290000Y-53560000D03*
X113300000Y-58560000D03*
%TO.N,EN2*%
X111670000Y-68890000D03*
X112040000Y-54550000D03*
%TO.N,EN1*%
X111380000Y-68060000D03*
X112040000Y-53650000D03*
%TD*%
D41*
%TO.N,GND*%
X112040000Y-55300000D02*
X113420000Y-55300000D01*
X111100000Y-59020000D02*
X110790000Y-58710000D01*
X100855000Y-53795000D02*
X100855000Y-53250000D01*
X110350000Y-66830000D02*
X110350000Y-66300000D01*
X103800000Y-67560000D02*
X104423000Y-66937000D01*
X108685000Y-74125000D02*
X108510000Y-74300000D01*
X108510000Y-74300000D02*
X106285000Y-74300000D01*
X96100000Y-52675000D02*
X100280000Y-52675000D01*
X108980000Y-73830000D02*
X108685000Y-74125000D01*
X100855000Y-53250000D02*
X100280000Y-52675000D01*
X110790000Y-58710000D02*
X110790000Y-57550000D01*
X111290000Y-55300000D02*
X112040000Y-55300000D01*
X98410000Y-71000000D02*
X97750000Y-71000000D01*
X95582000Y-68632000D02*
X95582000Y-63032000D01*
X109457000Y-54217000D02*
X108403000Y-54217000D01*
X112800000Y-58080000D02*
X112800000Y-59300000D01*
X113667000Y-61237000D02*
X113100000Y-60670000D01*
X111125000Y-65525000D02*
X111125000Y-65165000D01*
X111690000Y-59610000D02*
X111100000Y-59020000D01*
X96100000Y-61315000D02*
X96100000Y-52675000D01*
X113450000Y-66830000D02*
X113667000Y-66613000D01*
X110050000Y-60810000D02*
X108830000Y-59590000D01*
X110790000Y-57550000D02*
X110790000Y-56300000D01*
X110350000Y-73830000D02*
X111010000Y-74490000D01*
X110540000Y-56050000D02*
X111290000Y-55300000D01*
X101470000Y-66510000D02*
X103820000Y-64160000D01*
X104850000Y-65370000D02*
X104850000Y-65090000D01*
X108337000Y-58973000D02*
X108520000Y-58790000D01*
X95532000Y-61883000D02*
X96100000Y-61315000D01*
X112490000Y-59610000D02*
X111690000Y-59610000D01*
X113650000Y-73630000D02*
X113450000Y-73830000D01*
X107448000Y-67644000D02*
X107448000Y-67917016D01*
X100855000Y-60195000D02*
X100855000Y-60740000D01*
X106860000Y-67410000D02*
X107214000Y-67410000D01*
X110050000Y-61760000D02*
X110050000Y-60810000D01*
X103900000Y-71340000D02*
X104035411Y-71475411D01*
X112800000Y-59300000D02*
X112490000Y-59610000D01*
X107790000Y-59810000D02*
X108337000Y-59263000D01*
X98420000Y-72970000D02*
X98420000Y-72320000D01*
X106410000Y-67410000D02*
X106860000Y-67410000D01*
X97750000Y-71000000D02*
X97270000Y-70520000D01*
X106310000Y-68570000D02*
X106755000Y-69015000D01*
X113667000Y-66613000D02*
X113667000Y-61237000D01*
X98420000Y-71010000D02*
X98420000Y-72320000D01*
X110830000Y-67310000D02*
X110350000Y-66830000D01*
X113548000Y-69578000D02*
X113223000Y-69578000D01*
X95532000Y-63032000D02*
X95532000Y-61883000D01*
X111140000Y-60670000D02*
X110050000Y-61760000D01*
X108520000Y-58790000D02*
X108830000Y-58790000D01*
X110790000Y-56300000D02*
X110540000Y-56050000D01*
X113650000Y-67030000D02*
X113450000Y-66830000D01*
X97782000Y-68632000D02*
X95582000Y-68632000D01*
X107214000Y-67410000D02*
X107448000Y-67644000D01*
X113650000Y-72930000D02*
X113650000Y-73630000D01*
X109790000Y-55300000D02*
X110540000Y-56050000D01*
X108403000Y-54217000D02*
X108000000Y-54620000D01*
X110350000Y-66300000D02*
X111125000Y-65525000D01*
X110350000Y-73830000D02*
X108980000Y-73830000D01*
X108830000Y-59590000D02*
X108830000Y-58790000D01*
X113000000Y-68055000D02*
X113325000Y-67730000D01*
X100855000Y-60740000D02*
X100280000Y-61315000D01*
X113650000Y-67730000D02*
X113650000Y-67030000D01*
X110115000Y-66595000D02*
X110350000Y-66830000D01*
X112890000Y-74490000D02*
X113450000Y-73930000D01*
X109480000Y-59440000D02*
X110680000Y-59440000D01*
X108330000Y-68180000D02*
X108915000Y-67595000D01*
X113420000Y-55300000D02*
X113460000Y-55340000D01*
X113100000Y-60670000D02*
X111140000Y-60670000D01*
X109790000Y-54550000D02*
X109790000Y-55300000D01*
X106082000Y-73152700D02*
X106582126Y-73152700D01*
X104423000Y-66937000D02*
X104423000Y-65797000D01*
X104035411Y-71475411D02*
X104900900Y-71475411D01*
X113223000Y-69578000D02*
X113000000Y-69355000D01*
X113000000Y-69355000D02*
X113000000Y-68055000D01*
X106180000Y-74300000D02*
X106140000Y-74260000D01*
X112540000Y-57820000D02*
X112800000Y-58080000D01*
X108337000Y-59263000D02*
X108337000Y-58973000D01*
X113650000Y-72930000D02*
X113650000Y-69680000D01*
X106082000Y-74097000D02*
X106285000Y-74300000D01*
X107448000Y-67917016D02*
X107710984Y-68180000D01*
X113890000Y-55770000D02*
X116430000Y-55770000D01*
X113650000Y-69680000D02*
X113548000Y-69578000D01*
X108000000Y-54620000D02*
X108000000Y-54840000D01*
X108830000Y-58790000D02*
X109480000Y-59440000D01*
X109790000Y-54550000D02*
X109457000Y-54217000D01*
X113460000Y-55340000D02*
X113890000Y-55770000D01*
X104423000Y-65797000D02*
X104850000Y-65370000D01*
X106310000Y-67910000D02*
X106310000Y-68570000D01*
X97270000Y-74120000D02*
X98420000Y-72970000D01*
X106310000Y-67910000D02*
X106310000Y-67510000D01*
X108915000Y-67595000D02*
X108915000Y-65595000D01*
X113450000Y-73930000D02*
X113450000Y-73830000D01*
X97782000Y-63032000D02*
X95582000Y-63032000D01*
X112090000Y-67310000D02*
X110830000Y-67310000D01*
X107710984Y-68180000D02*
X108330000Y-68180000D01*
X98410000Y-71000000D02*
X98420000Y-71010000D01*
X110680000Y-59440000D02*
X111100000Y-59020000D01*
X100280000Y-61315000D02*
X96100000Y-61315000D01*
X106310000Y-67510000D02*
X106410000Y-67410000D01*
X108915000Y-66595000D02*
X110115000Y-66595000D01*
X106082000Y-73152700D02*
X106082000Y-74097000D01*
X113325000Y-67730000D02*
X113650000Y-67730000D01*
X111010000Y-74490000D02*
X112890000Y-74490000D01*
X103820000Y-64160000D02*
X103820000Y-63370000D01*
%TO.N,INT*%
X110800000Y-71305000D02*
X111375000Y-71305000D01*
X104810000Y-73510000D02*
X104810000Y-73066689D01*
X104810000Y-73066689D02*
X104900900Y-72975789D01*
X111375000Y-71305000D02*
X111380000Y-71310000D01*
%TO.N,VDD*%
X109200000Y-72650000D02*
X109200000Y-71602893D01*
X107640000Y-65280000D02*
X107955000Y-65595000D01*
X105290000Y-64590000D02*
X105980000Y-65280000D01*
X107270000Y-66910000D02*
X107955000Y-67595000D01*
X102780000Y-69200000D02*
X102780000Y-67620000D01*
X107955000Y-67595000D02*
X107955000Y-66595000D01*
X105325000Y-73409574D02*
X105581874Y-73152700D01*
X108907107Y-71310000D02*
X108240000Y-71310000D01*
X107835000Y-70055000D02*
X108090000Y-69800000D01*
X101470000Y-70510000D02*
X102780000Y-69200000D01*
X105325000Y-74300000D02*
X105325000Y-73409574D01*
X112780000Y-65290000D02*
X112780000Y-66400000D01*
X103247552Y-70510000D02*
X103702552Y-70055000D01*
X108240000Y-71310000D02*
X107574463Y-71975537D01*
X102780000Y-67620000D02*
X103800000Y-66600000D01*
X99480000Y-69920000D02*
X100070000Y-70510000D01*
X105581874Y-73152700D02*
X105581874Y-72686000D01*
X103702552Y-70055000D02*
X104015000Y-70055000D01*
X106860000Y-66910000D02*
X106860000Y-66410000D01*
X105980000Y-65280000D02*
X107640000Y-65280000D01*
X103820000Y-65270000D02*
X104500000Y-64590000D01*
X105581874Y-72686000D02*
X105817874Y-72450000D01*
X101470000Y-70510000D02*
X103247552Y-70510000D01*
X103800000Y-66600000D02*
X103800000Y-65290000D01*
X99470000Y-74120000D02*
X99470000Y-72510000D01*
X107835000Y-70055000D02*
X107835000Y-70903511D01*
X108020000Y-64380000D02*
X108020000Y-65530000D01*
X108090000Y-69800000D02*
X108910000Y-69800000D01*
X107530000Y-66020000D02*
X107250000Y-66020000D01*
X107835000Y-70903511D02*
X107263100Y-71475411D01*
X109400000Y-70290000D02*
X109400000Y-70520000D01*
X112780000Y-66400000D02*
X112550000Y-66630000D01*
X109200000Y-71602893D02*
X108907107Y-71310000D01*
X107452311Y-73165000D02*
X107263100Y-72975789D01*
X106814463Y-71975537D02*
X107263100Y-71975537D01*
X108685000Y-73165000D02*
X109200000Y-72650000D01*
X99470000Y-72510000D02*
X101470000Y-70510000D01*
X107955000Y-65595000D02*
X107530000Y-66020000D01*
X108020000Y-65530000D02*
X107955000Y-65595000D01*
X107574463Y-71975537D02*
X107263100Y-71975537D01*
X107263100Y-71475411D02*
X107263100Y-71975537D01*
X106340000Y-72450000D02*
X106814463Y-71975537D01*
X107250000Y-66020000D02*
X106860000Y-66410000D01*
X108685000Y-73165000D02*
X107452311Y-73165000D01*
X108910000Y-69800000D02*
X109400000Y-70290000D01*
X107086189Y-71298500D02*
X107263100Y-71475411D01*
X100070000Y-70510000D02*
X101470000Y-70510000D01*
X106860000Y-66910000D02*
X107270000Y-66910000D01*
X103800000Y-65290000D02*
X103820000Y-65270000D01*
X104500000Y-64590000D02*
X105290000Y-64590000D01*
X105817874Y-72450000D02*
X106340000Y-72450000D01*
X106582126Y-71298500D02*
X107086189Y-71298500D01*
%TO.N,SCL*%
X106082000Y-71298500D02*
X106082000Y-70788000D01*
X106082000Y-70788000D02*
X106815000Y-70055000D01*
X110800000Y-72605000D02*
X111375000Y-72605000D01*
X106082000Y-71298500D02*
X106082000Y-71942000D01*
X111375000Y-72605000D02*
X111380000Y-72610000D01*
X106082000Y-71942000D02*
X106090000Y-71950000D01*
%TO.N,SDA*%
X105581874Y-71298500D02*
X105581874Y-70601874D01*
X106075000Y-70055000D02*
X105035000Y-70055000D01*
X110800000Y-71955000D02*
X111375000Y-71955000D01*
X111375000Y-71955000D02*
X111380000Y-71960000D01*
X105581874Y-70601874D02*
X105035000Y-70055000D01*
X106080000Y-70050000D02*
X106075000Y-70055000D01*
%TO.N,BAT+*%
X114930000Y-57770000D02*
X116430000Y-57770000D01*
X113460000Y-56300000D02*
X114930000Y-57770000D01*
X112040000Y-56300000D02*
X113460000Y-56300000D01*
X112040000Y-55800000D02*
X112040000Y-56300000D01*
%TO.N,VIN*%
X99148000Y-66832000D02*
X98532000Y-66832000D01*
X106620000Y-64320000D02*
X107060000Y-63880000D01*
X101807000Y-65683000D02*
X100297000Y-65683000D01*
X105630000Y-62040000D02*
X105630000Y-63330000D01*
X102820000Y-63040000D02*
X102820000Y-64670000D01*
X105093000Y-61503000D02*
X104357000Y-61503000D01*
X108735000Y-63880000D02*
X110020000Y-65165000D01*
X104357000Y-61503000D02*
X102820000Y-63040000D01*
X105630000Y-62040000D02*
X105093000Y-61503000D01*
X102820000Y-64670000D02*
X101807000Y-65683000D01*
X105630000Y-63330000D02*
X106620000Y-64320000D01*
X107060000Y-63880000D02*
X108735000Y-63880000D01*
X100297000Y-65683000D02*
X99148000Y-66832000D01*
%TO.N,SDAAUX*%
X111575000Y-73495000D02*
X111160000Y-73910000D01*
X111575000Y-73380000D02*
X111575000Y-73495000D01*
%TO.N,INT2*%
X112550000Y-74030000D02*
X111900000Y-74030000D01*
X111900000Y-74030000D02*
X111860000Y-73990000D01*
%TO.N,SCLAUX*%
X112400000Y-73380000D02*
X112225000Y-73380000D01*
X112920000Y-72860000D02*
X112400000Y-73380000D01*
%TO.N,RST*%
X95970000Y-70270000D02*
X96647000Y-69593000D01*
X95970000Y-70520000D02*
X95970000Y-70270000D01*
X113000000Y-72170000D02*
X113000000Y-71305000D01*
X98460000Y-69970000D02*
X98460000Y-69920000D01*
X96470000Y-73620000D02*
X96470000Y-71020000D01*
X98133000Y-69593000D02*
X98460000Y-69920000D01*
X99770000Y-71280000D02*
X98460000Y-69970000D01*
X112980000Y-72190000D02*
X113000000Y-72170000D01*
X95970000Y-74120000D02*
X96470000Y-73620000D01*
X96647000Y-69593000D02*
X98133000Y-69593000D01*
X96470000Y-71020000D02*
X95970000Y-70520000D01*
%TO.N,SWDIO*%
X112590000Y-61760000D02*
X112230000Y-62120000D01*
X111900000Y-66337552D02*
X111900000Y-66630000D01*
X112230000Y-62120000D02*
X112230000Y-66007552D01*
X112230000Y-66007552D02*
X111900000Y-66337552D01*
%TO.N,SWDCLK*%
X111672000Y-65808000D02*
X111250000Y-66230000D01*
X109398000Y-63648000D02*
X111498000Y-63648000D01*
X111250000Y-66230000D02*
X111250000Y-66630000D01*
X111672000Y-63822000D02*
X111672000Y-65808000D01*
X111498000Y-63648000D02*
X111672000Y-63822000D01*
X107510000Y-61760000D02*
X109398000Y-63648000D01*
%TO.N,ADCBAT*%
X109910000Y-65880000D02*
X110147945Y-65880000D01*
X110150000Y-69680000D02*
X109580000Y-69680000D01*
X110020000Y-64145000D02*
X111125000Y-64145000D01*
X109580000Y-69680000D02*
X109570000Y-69670000D01*
X110147945Y-65880000D02*
X110578000Y-65449945D01*
X110578000Y-65449945D02*
X110578000Y-64703000D01*
X110578000Y-64703000D02*
X110020000Y-64145000D01*
%TO.N,CHRGSET*%
X112120000Y-58380000D02*
X111290000Y-57550000D01*
X112120000Y-59020000D02*
X112120000Y-58380000D01*
%TO.N,CC1*%
X101630000Y-55745000D02*
X100855000Y-55745000D01*
X103320000Y-54055000D02*
X101630000Y-55745000D01*
X103320000Y-53795000D02*
X103320000Y-54055000D01*
%TO.N,CC2*%
X102097500Y-56882500D02*
X104530000Y-54450000D01*
X102097500Y-58277500D02*
X102097500Y-56882500D01*
X102097500Y-58277500D02*
X101630000Y-58745000D01*
X101630000Y-58745000D02*
X100855000Y-58745000D01*
X104530000Y-53795000D02*
X104530000Y-54450000D01*
%TO.N,VBUS*%
X100855000Y-54595000D02*
X100326000Y-54595000D01*
X114390000Y-53350000D02*
X114695000Y-53655000D01*
X100326000Y-59395000D02*
X100855000Y-59395000D01*
X104875000Y-59395000D02*
X100855000Y-59395000D01*
X109790000Y-58790000D02*
X109790000Y-57550000D01*
X100053000Y-54868000D02*
X100053000Y-59122000D01*
X113820000Y-53350000D02*
X114390000Y-53350000D01*
X106180000Y-58090000D02*
X104875000Y-59395000D01*
X109790000Y-57550000D02*
X109140000Y-57550000D01*
X100053000Y-59122000D02*
X100326000Y-59395000D01*
X100326000Y-54595000D02*
X100053000Y-54868000D01*
X109140000Y-57550000D02*
X108870000Y-57820000D01*
%TO.N,Net-(MAG1-C1)*%
X105795000Y-69015000D02*
X105795000Y-67925000D01*
X105795000Y-67925000D02*
X105810000Y-67910000D01*
%TO.N,SCX*%
X104900900Y-71975537D02*
X103635537Y-71975537D01*
X104538000Y-68324893D02*
X104750000Y-68112893D01*
X104750000Y-66660000D02*
X105000000Y-66410000D01*
X104750000Y-68112893D02*
X104750000Y-66660000D01*
X105000000Y-66410000D02*
X105260000Y-66410000D01*
X104538000Y-70363945D02*
X104538000Y-68324893D01*
X103400000Y-71740000D02*
X103400000Y-70820000D01*
X103618000Y-70602000D02*
X104299945Y-70602000D01*
X103400000Y-70820000D02*
X103618000Y-70602000D01*
X104299945Y-70602000D02*
X104538000Y-70363945D01*
X103635537Y-71975537D02*
X103400000Y-71740000D01*
%TO.N,SDX*%
X104896563Y-72480000D02*
X104900900Y-72475663D01*
X105260000Y-67910000D02*
X105260000Y-68310000D01*
X105260000Y-68310000D02*
X105060000Y-68510000D01*
X104260000Y-72480000D02*
X104896563Y-72480000D01*
%TO.N,INTX*%
X108860000Y-68550000D02*
X107270000Y-68550000D01*
X107270000Y-68550000D02*
X106860000Y-68140000D01*
X108034337Y-72475663D02*
X107263100Y-72475663D01*
X106860000Y-68140000D02*
X106860000Y-67910000D01*
X108700000Y-71810000D02*
X108034337Y-72475663D01*
%TO.N,TS*%
X112540000Y-56800000D02*
X112040000Y-56800000D01*
X113560000Y-57820000D02*
X112540000Y-56800000D01*
D42*
%TO.N,Net-(nRF1-OUT_ANT)*%
X113650000Y-69030000D02*
X113650000Y-68380000D01*
D41*
%TO.N,LEDG*%
X110800000Y-70655000D02*
X111375000Y-70655000D01*
X103330000Y-73680000D02*
X103330000Y-73740000D01*
X103330000Y-73740000D02*
X103860000Y-74270000D01*
X111375000Y-70655000D02*
X111380000Y-70660000D01*
%TO.N,LEDCHG*%
X116450000Y-59310000D02*
X115760000Y-59310000D01*
X109040000Y-55300000D02*
X109040000Y-54730000D01*
%TO.N,/RED*%
X117600000Y-59180000D02*
X117600000Y-53810000D01*
X117600000Y-53810000D02*
X117445000Y-53655000D01*
X117470000Y-59310000D02*
X117600000Y-59180000D01*
%TO.N,/GREEN*%
X114955000Y-58575000D02*
X114960000Y-58570000D01*
X114955000Y-59285000D02*
X114955000Y-58575000D01*
X116070000Y-53160000D02*
X116070000Y-54305000D01*
%TO.N,LEDSTBY*%
X110290000Y-54550000D02*
X110290000Y-53560000D01*
X113300000Y-58560000D02*
X113935000Y-59195000D01*
X113935000Y-59195000D02*
X113935000Y-59285000D01*
%TO.N,EN2*%
X110800000Y-70005000D02*
X111004000Y-70005000D01*
X111290000Y-54550000D02*
X112040000Y-54550000D01*
X111004000Y-70005000D02*
X111670000Y-69339000D01*
X111670000Y-69339000D02*
X111670000Y-68890000D01*
%TO.N,EN1*%
X110790000Y-53950000D02*
X111090000Y-53650000D01*
X111375000Y-68055000D02*
X111380000Y-68060000D01*
X111090000Y-53650000D02*
X112040000Y-53650000D01*
X110790000Y-54550000D02*
X110790000Y-53950000D01*
X110800000Y-68055000D02*
X111375000Y-68055000D01*
%TO.N,ILIM*%
X107790000Y-58790000D02*
X107790000Y-58050000D01*
X107790000Y-58050000D02*
X109040000Y-56800000D01*
%TO.N,VCC*%
X103580000Y-60190000D02*
X106410000Y-60190000D01*
X106410000Y-60190000D02*
X106750000Y-59850000D01*
X98532000Y-65832000D02*
X99198000Y-65832000D01*
X99459000Y-65571000D02*
X99459000Y-64311000D01*
X99198000Y-65832000D02*
X99459000Y-65571000D01*
X106750000Y-57050000D02*
X108000000Y-55800000D01*
X99459000Y-64311000D02*
X103580000Y-60190000D01*
X109040000Y-55800000D02*
X109040000Y-56300000D01*
X106750000Y-59850000D02*
X106750000Y-57050000D01*
X108000000Y-55800000D02*
X109040000Y-55800000D01*
%TO.N,/YELLOW*%
X101620000Y-74270000D02*
X102840000Y-74270000D01*
X101470000Y-74120000D02*
X101620000Y-74270000D01*
%TD*%
%TA.AperFunction,Conductor*%
%TO.N,GND*%
G36*
X98005539Y-69840185D02*
G01*
X98051294Y-69892989D01*
X98062500Y-69944500D01*
X98062500Y-70130860D01*
X98077728Y-70207418D01*
X98077729Y-70207421D01*
X98077730Y-70207423D01*
X98086468Y-70220500D01*
X98135747Y-70294252D01*
X98161851Y-70311694D01*
X98222577Y-70352270D01*
X98222580Y-70352270D01*
X98222581Y-70352271D01*
X98299139Y-70367499D01*
X98299143Y-70367500D01*
X98299144Y-70367500D01*
X98484405Y-70367500D01*
X98551444Y-70387185D01*
X98572086Y-70403819D01*
X99331284Y-71163017D01*
X99364769Y-71224340D01*
X99366077Y-71270094D01*
X99364508Y-71280001D01*
X99364508Y-71280003D01*
X99384352Y-71405300D01*
X99384352Y-71405301D01*
X99391836Y-71419989D01*
X99441950Y-71518342D01*
X99441952Y-71518344D01*
X99441954Y-71518347D01*
X99531652Y-71608045D01*
X99531654Y-71608046D01*
X99531658Y-71608050D01*
X99644696Y-71665646D01*
X99644697Y-71665646D01*
X99644699Y-71665647D01*
X99704680Y-71675147D01*
X99767815Y-71705076D01*
X99804747Y-71764387D01*
X99803749Y-71834250D01*
X99772964Y-71885301D01*
X99314484Y-72343781D01*
X99312130Y-72346015D01*
X99281837Y-72373290D01*
X99273416Y-72392203D01*
X99264137Y-72409292D01*
X99252867Y-72426647D01*
X99252866Y-72426649D01*
X99252865Y-72426650D01*
X99252866Y-72426650D01*
X99252598Y-72428346D01*
X99252541Y-72428704D01*
X99243351Y-72459732D01*
X99242500Y-72461643D01*
X99242500Y-72482342D01*
X99240973Y-72501740D01*
X99237934Y-72520931D01*
X99237737Y-72522172D01*
X99238274Y-72524177D01*
X99242500Y-72556272D01*
X99242500Y-73318500D01*
X99222815Y-73385539D01*
X99170011Y-73431294D01*
X99118500Y-73442500D01*
X98907441Y-73442500D01*
X98870250Y-73449898D01*
X98828077Y-73478077D01*
X98799898Y-73520250D01*
X98792500Y-73557441D01*
X98792500Y-74682558D01*
X98799898Y-74719749D01*
X98828077Y-74761922D01*
X98843756Y-74772398D01*
X98888561Y-74826010D01*
X98897268Y-74895335D01*
X98867114Y-74958362D01*
X98807671Y-74995082D01*
X98774865Y-74999500D01*
X96665387Y-74999500D01*
X96598348Y-74979815D01*
X96552593Y-74927011D01*
X96542649Y-74857853D01*
X96543771Y-74851304D01*
X96547500Y-74832561D01*
X96547500Y-73915595D01*
X96567185Y-73848556D01*
X96583818Y-73827915D01*
X96611266Y-73800466D01*
X96625529Y-73786202D01*
X96627849Y-73784001D01*
X96658163Y-73756708D01*
X96666580Y-73737801D01*
X96675866Y-73720698D01*
X96687134Y-73703349D01*
X96687458Y-73701297D01*
X96696654Y-73670254D01*
X96697500Y-73668357D01*
X96697500Y-73647663D01*
X96699027Y-73628263D01*
X96702264Y-73607828D01*
X96702135Y-73607349D01*
X96701725Y-73605814D01*
X96697500Y-73573723D01*
X96697500Y-73125081D01*
X96697500Y-72664766D01*
X96717183Y-72597731D01*
X96769987Y-72551976D01*
X96839146Y-72542032D01*
X96902702Y-72571057D01*
X96926195Y-72598327D01*
X97014797Y-72737940D01*
X97134603Y-72850445D01*
X97134611Y-72850451D01*
X97270401Y-72925102D01*
X97278632Y-72929627D01*
X97437823Y-72970500D01*
X97437827Y-72970500D01*
X97560923Y-72970500D01*
X97560925Y-72970500D01*
X97560930Y-72970499D01*
X97560934Y-72970499D01*
X97574174Y-72968826D01*
X97683058Y-72955071D01*
X97835871Y-72894568D01*
X97883446Y-72860003D01*
X97968835Y-72797965D01*
X97968835Y-72797963D01*
X97968837Y-72797963D01*
X98073600Y-72671326D01*
X98143579Y-72522613D01*
X98174376Y-72361170D01*
X98164056Y-72197140D01*
X98113268Y-72040829D01*
X98100155Y-72020167D01*
X98067477Y-71968674D01*
X98025202Y-71902060D01*
X98008216Y-71886109D01*
X97905396Y-71789554D01*
X97905388Y-71789548D01*
X97761371Y-71710374D01*
X97761361Y-71710371D01*
X97602180Y-71669500D01*
X97602177Y-71669500D01*
X97479075Y-71669500D01*
X97479065Y-71669500D01*
X97356942Y-71684929D01*
X97356939Y-71684929D01*
X97204130Y-71745431D01*
X97204121Y-71745436D01*
X97071164Y-71842034D01*
X97071162Y-71842037D01*
X96966401Y-71968672D01*
X96966400Y-71968673D01*
X96966400Y-71968674D01*
X96934912Y-72035591D01*
X96933699Y-72038168D01*
X96887344Y-72090445D01*
X96820084Y-72109363D01*
X96753273Y-72088914D01*
X96708125Y-72035591D01*
X96697500Y-71985371D01*
X96697500Y-71027576D01*
X96697585Y-71024330D01*
X96697852Y-71019241D01*
X96699719Y-70983616D01*
X96692297Y-70964281D01*
X96686775Y-70945637D01*
X96682474Y-70925400D01*
X96682474Y-70925399D01*
X96681255Y-70923722D01*
X96665806Y-70895269D01*
X96665060Y-70893325D01*
X96650426Y-70878692D01*
X96637790Y-70863898D01*
X96625628Y-70847158D01*
X96625623Y-70847154D01*
X96623823Y-70846115D01*
X96598145Y-70826411D01*
X96583819Y-70812085D01*
X96550334Y-70750762D01*
X96547500Y-70724404D01*
X96547500Y-70065595D01*
X96567185Y-69998556D01*
X96583819Y-69977914D01*
X96704914Y-69856819D01*
X96766237Y-69823334D01*
X96792595Y-69820500D01*
X97938500Y-69820500D01*
X98005539Y-69840185D01*
G37*
%TD.AperFunction*%
%TA.AperFunction,Conductor*%
G36*
X100386834Y-72017412D02*
G01*
X100442767Y-72059284D01*
X100467184Y-72124748D01*
X100467500Y-72133594D01*
X100467500Y-72895820D01*
X100467501Y-72895826D01*
X100478191Y-72969204D01*
X100518912Y-73052500D01*
X100533525Y-73082392D01*
X100622607Y-73171474D01*
X100622608Y-73171474D01*
X100622610Y-73171476D01*
X100735796Y-73226809D01*
X100800964Y-73236304D01*
X100864462Y-73265446D01*
X100902126Y-73324295D01*
X100901996Y-73394164D01*
X100864112Y-73452871D01*
X100851977Y-73462108D01*
X100828077Y-73478077D01*
X100799898Y-73520250D01*
X100792500Y-73557441D01*
X100792500Y-74682558D01*
X100799898Y-74719749D01*
X100828077Y-74761922D01*
X100843756Y-74772398D01*
X100888561Y-74826010D01*
X100897268Y-74895335D01*
X100867114Y-74958362D01*
X100807671Y-74995082D01*
X100774865Y-74999500D01*
X100165135Y-74999500D01*
X100098096Y-74979815D01*
X100052341Y-74927011D01*
X100042397Y-74857853D01*
X100071422Y-74794297D01*
X100096244Y-74772398D01*
X100111922Y-74761922D01*
X100138610Y-74721981D01*
X100140102Y-74719748D01*
X100147500Y-74682558D01*
X100147500Y-73557442D01*
X100140102Y-73520252D01*
X100139725Y-73519688D01*
X100111922Y-73478077D01*
X100069749Y-73449898D01*
X100032559Y-73442500D01*
X100032558Y-73442500D01*
X99821500Y-73442500D01*
X99754461Y-73422815D01*
X99708706Y-73370011D01*
X99697500Y-73318500D01*
X99697500Y-72655594D01*
X99717185Y-72588555D01*
X99733814Y-72567918D01*
X100255820Y-72045912D01*
X100317142Y-72012428D01*
X100386834Y-72017412D01*
G37*
%TD.AperFunction*%
%TA.AperFunction,Conductor*%
G36*
X105007959Y-52001985D02*
G01*
X105008001Y-52001991D01*
X105009740Y-52002266D01*
X105011957Y-52002660D01*
X105049852Y-52010194D01*
X105081950Y-52021322D01*
X105088408Y-52024612D01*
X105088414Y-52024615D01*
X105094703Y-52028300D01*
X105117266Y-52043373D01*
X105136057Y-52058795D01*
X105139800Y-52062538D01*
X105155219Y-52081325D01*
X105170278Y-52103860D01*
X105173972Y-52110163D01*
X105177255Y-52116605D01*
X105188396Y-52148746D01*
X105195701Y-52185523D01*
X105198077Y-52209681D01*
X105198078Y-53189608D01*
X105187656Y-53225101D01*
X105195695Y-53265512D01*
X105198078Y-53289704D01*
X105198078Y-53292222D01*
X105198100Y-53292445D01*
X105198100Y-53317932D01*
X105195018Y-53328426D01*
X105202034Y-53338927D01*
X105216859Y-53369492D01*
X105217724Y-53372154D01*
X105255050Y-53423534D01*
X105306426Y-53460866D01*
X105309083Y-53461729D01*
X105339654Y-53476560D01*
X105349520Y-53483153D01*
X105360638Y-53480496D01*
X105366822Y-53480496D01*
X105366824Y-53480497D01*
X105373818Y-53480497D01*
X105373831Y-53480500D01*
X105388894Y-53480500D01*
X105413062Y-53482878D01*
X105449103Y-53490040D01*
X105458557Y-53484408D01*
X105489442Y-53480500D01*
X108159045Y-53480500D01*
X108194762Y-53490987D01*
X108235507Y-53482883D01*
X108259699Y-53480500D01*
X108287734Y-53480500D01*
X108298342Y-53483614D01*
X108308857Y-53476589D01*
X108339429Y-53461760D01*
X108342160Y-53460873D01*
X108393542Y-53423542D01*
X108430873Y-53372160D01*
X108431760Y-53369429D01*
X108446589Y-53338857D01*
X108453188Y-53328980D01*
X108450500Y-53317738D01*
X108450500Y-53311754D01*
X108450500Y-53289691D01*
X108452882Y-53265505D01*
X108460061Y-53229416D01*
X108454406Y-53219924D01*
X108450500Y-53189045D01*
X108450500Y-52209756D01*
X108451993Y-52190573D01*
X108452001Y-52190521D01*
X108452256Y-52188908D01*
X108452668Y-52186582D01*
X108460197Y-52148734D01*
X108471316Y-52116658D01*
X108474631Y-52110153D01*
X108478303Y-52103888D01*
X108493385Y-52081316D01*
X108508788Y-52062549D01*
X108512549Y-52058788D01*
X108531316Y-52043385D01*
X108553901Y-52028295D01*
X108560140Y-52024638D01*
X108566658Y-52021317D01*
X108598727Y-52010198D01*
X108636610Y-52002663D01*
X108638860Y-52002264D01*
X108640549Y-52001996D01*
X108640625Y-52001985D01*
X108659755Y-52000500D01*
X117875500Y-52000500D01*
X117942539Y-52020185D01*
X117988294Y-52072989D01*
X117999500Y-52124500D01*
X117999500Y-52659612D01*
X117979815Y-52726651D01*
X117927011Y-52772406D01*
X117857853Y-52782350D01*
X117851308Y-52781229D01*
X117832561Y-52777500D01*
X117832558Y-52777500D01*
X117057442Y-52777500D01*
X117057441Y-52777500D01*
X117020250Y-52784898D01*
X116978077Y-52813077D01*
X116949898Y-52855250D01*
X116942500Y-52892441D01*
X116942500Y-54417558D01*
X116949898Y-54454749D01*
X116978077Y-54496922D01*
X117020250Y-54525101D01*
X117020252Y-54525102D01*
X117048205Y-54530662D01*
X117057441Y-54532500D01*
X117057442Y-54532500D01*
X117248500Y-54532500D01*
X117315539Y-54552185D01*
X117361294Y-54604989D01*
X117372500Y-54656500D01*
X117372500Y-56956376D01*
X117352815Y-57023415D01*
X117300011Y-57069170D01*
X117230853Y-57079114D01*
X117194040Y-57067777D01*
X117174198Y-57058077D01*
X117164204Y-57053191D01*
X117164202Y-57053190D01*
X117090827Y-57042500D01*
X115769174Y-57042500D01*
X115695795Y-57053191D01*
X115582607Y-57108525D01*
X115493525Y-57197607D01*
X115438190Y-57310797D01*
X115427500Y-57384172D01*
X115427500Y-57418500D01*
X115407815Y-57485539D01*
X115355011Y-57531294D01*
X115303500Y-57542500D01*
X115075595Y-57542500D01*
X115008556Y-57522815D01*
X114987914Y-57506181D01*
X113933819Y-56452085D01*
X113900334Y-56390762D01*
X113897500Y-56364404D01*
X113897500Y-56133651D01*
X113897499Y-56133647D01*
X113881981Y-56055629D01*
X113881980Y-56055628D01*
X113881980Y-56055627D01*
X113822857Y-55967143D01*
X113734373Y-55908020D01*
X113734372Y-55908019D01*
X113734371Y-55908019D01*
X113734370Y-55908018D01*
X113656352Y-55892500D01*
X113656348Y-55892500D01*
X113263652Y-55892500D01*
X113263647Y-55892500D01*
X113185629Y-55908018D01*
X113185628Y-55908019D01*
X113102139Y-55963805D01*
X113097143Y-55967143D01*
X113063568Y-56017392D01*
X113009955Y-56062196D01*
X112960466Y-56072500D01*
X112691500Y-56072500D01*
X112624461Y-56052815D01*
X112578706Y-56000011D01*
X112567500Y-55948500D01*
X112567500Y-55637441D01*
X112560102Y-55600254D01*
X112560102Y-55600252D01*
X112553830Y-55590865D01*
X112531922Y-55558077D01*
X112489749Y-55529898D01*
X112452559Y-55522500D01*
X112452558Y-55522500D01*
X111627442Y-55522500D01*
X111627441Y-55522500D01*
X111590250Y-55529898D01*
X111548077Y-55558077D01*
X111519898Y-55600250D01*
X111512499Y-55637441D01*
X111512499Y-55962558D01*
X111519898Y-55999749D01*
X111521059Y-56002551D01*
X111521767Y-56009144D01*
X111522281Y-56011725D01*
X111522049Y-56011770D01*
X111528525Y-56072021D01*
X111521059Y-56097449D01*
X111519898Y-56100250D01*
X111512499Y-56137441D01*
X111512499Y-56462558D01*
X111519898Y-56499749D01*
X111521059Y-56502551D01*
X111521767Y-56509144D01*
X111522281Y-56511725D01*
X111522049Y-56511770D01*
X111528525Y-56572021D01*
X111521059Y-56597449D01*
X111519898Y-56600250D01*
X111512500Y-56637441D01*
X111512500Y-56898500D01*
X111492815Y-56965539D01*
X111440011Y-57011294D01*
X111388500Y-57022500D01*
X111127441Y-57022500D01*
X111090250Y-57029898D01*
X111048077Y-57058077D01*
X111019898Y-57100250D01*
X111012500Y-57137441D01*
X111012500Y-57962558D01*
X111019898Y-57999749D01*
X111048077Y-58041922D01*
X111090250Y-58070101D01*
X111090252Y-58070102D01*
X111118205Y-58075662D01*
X111127441Y-58077500D01*
X111444405Y-58077500D01*
X111511444Y-58097185D01*
X111532086Y-58113819D01*
X111849722Y-58431455D01*
X111883207Y-58492778D01*
X111878223Y-58562470D01*
X111836351Y-58618403D01*
X111830932Y-58622238D01*
X111795747Y-58645747D01*
X111737730Y-58732577D01*
X111737728Y-58732581D01*
X111722500Y-58809139D01*
X111722500Y-59230860D01*
X111737728Y-59307418D01*
X111737729Y-59307421D01*
X111737730Y-59307423D01*
X111760968Y-59342201D01*
X111795747Y-59394252D01*
X111830526Y-59417490D01*
X111882577Y-59452270D01*
X111882580Y-59452270D01*
X111882581Y-59452271D01*
X111959139Y-59467499D01*
X111959143Y-59467500D01*
X111959144Y-59467500D01*
X112280857Y-59467500D01*
X112280858Y-59467499D01*
X112357423Y-59452270D01*
X112444252Y-59394252D01*
X112502270Y-59307423D01*
X112517500Y-59230856D01*
X112517500Y-58809144D01*
X112502270Y-58732577D01*
X112444252Y-58645748D01*
X112402608Y-58617922D01*
X112357804Y-58564309D01*
X112347500Y-58514820D01*
X112347500Y-58387563D01*
X112347585Y-58384318D01*
X112347906Y-58378197D01*
X112349718Y-58343616D01*
X112342302Y-58324297D01*
X112336775Y-58305638D01*
X112335958Y-58301795D01*
X112332474Y-58285400D01*
X112331248Y-58283713D01*
X112315802Y-58255260D01*
X112315059Y-58253325D01*
X112300428Y-58238694D01*
X112287790Y-58223898D01*
X112275628Y-58207158D01*
X112275627Y-58207157D01*
X112275626Y-58207156D01*
X112273821Y-58206114D01*
X112248145Y-58186411D01*
X111603819Y-57542084D01*
X111570334Y-57480761D01*
X111567500Y-57454403D01*
X111567500Y-57201500D01*
X111587185Y-57134461D01*
X111639989Y-57088706D01*
X111691500Y-57077500D01*
X112444405Y-57077500D01*
X112511444Y-57097185D01*
X112532086Y-57113819D01*
X113126181Y-57707913D01*
X113159666Y-57769236D01*
X113162500Y-57795594D01*
X113162500Y-58030856D01*
X113165364Y-58045252D01*
X113171227Y-58074730D01*
X113164998Y-58144321D01*
X113122135Y-58199498D01*
X113105906Y-58209404D01*
X113061657Y-58231950D01*
X113061652Y-58231954D01*
X112971954Y-58321652D01*
X112971951Y-58321657D01*
X112971950Y-58321658D01*
X112960762Y-58343616D01*
X112914352Y-58434698D01*
X112914352Y-58434699D01*
X112894508Y-58559996D01*
X112894508Y-58560003D01*
X112914352Y-58685300D01*
X112914352Y-58685301D01*
X112919449Y-58695304D01*
X112971950Y-58798342D01*
X112971952Y-58798344D01*
X112971954Y-58798347D01*
X113061652Y-58888045D01*
X113061654Y-58888046D01*
X113061658Y-58888050D01*
X113174696Y-58945646D01*
X113174697Y-58945646D01*
X113174699Y-58945647D01*
X113299997Y-58965492D01*
X113300000Y-58965492D01*
X113309898Y-58963924D01*
X113379191Y-58972875D01*
X113416982Y-58998715D01*
X113501181Y-59082914D01*
X113534666Y-59144237D01*
X113537500Y-59170595D01*
X113537500Y-59495860D01*
X113552728Y-59572418D01*
X113552729Y-59572421D01*
X113552730Y-59572423D01*
X113564515Y-59590060D01*
X113610747Y-59659252D01*
X113636425Y-59676409D01*
X113697577Y-59717270D01*
X113697580Y-59717270D01*
X113697581Y-59717271D01*
X113774139Y-59732499D01*
X113774143Y-59732500D01*
X113774144Y-59732500D01*
X114095857Y-59732500D01*
X114095858Y-59732499D01*
X114172423Y-59717270D01*
X114259252Y-59659252D01*
X114317270Y-59572423D01*
X114323382Y-59541692D01*
X114355767Y-59479782D01*
X114416482Y-59445208D01*
X114486252Y-59448947D01*
X114542924Y-59489813D01*
X114566617Y-59541692D01*
X114572730Y-59572423D01*
X114584515Y-59590060D01*
X114630747Y-59659252D01*
X114656425Y-59676409D01*
X114717577Y-59717270D01*
X114717580Y-59717270D01*
X114717581Y-59717271D01*
X114794139Y-59732499D01*
X114794143Y-59732500D01*
X114794144Y-59732500D01*
X115115857Y-59732500D01*
X115115858Y-59732499D01*
X115192423Y-59717270D01*
X115279252Y-59659252D01*
X115300895Y-59626860D01*
X115354506Y-59582056D01*
X115423831Y-59573349D01*
X115486859Y-59603503D01*
X115491678Y-59608071D01*
X115521652Y-59638045D01*
X115521654Y-59638046D01*
X115521658Y-59638050D01*
X115634696Y-59695646D01*
X115634697Y-59695646D01*
X115634699Y-59695647D01*
X115759997Y-59715492D01*
X115760000Y-59715492D01*
X115760003Y-59715492D01*
X115885300Y-59695647D01*
X115885302Y-59695646D01*
X115885304Y-59695646D01*
X115972179Y-59651380D01*
X116040846Y-59638484D01*
X116105587Y-59664760D01*
X116116319Y-59676409D01*
X116117112Y-59675617D01*
X116125746Y-59684251D01*
X116142800Y-59695646D01*
X116212577Y-59742270D01*
X116212580Y-59742270D01*
X116212581Y-59742271D01*
X116289139Y-59757499D01*
X116289143Y-59757500D01*
X116289144Y-59757500D01*
X116610857Y-59757500D01*
X116610858Y-59757499D01*
X116687423Y-59742270D01*
X116774252Y-59684252D01*
X116832270Y-59597423D01*
X116838382Y-59566692D01*
X116870767Y-59504782D01*
X116931482Y-59470208D01*
X117001252Y-59473947D01*
X117057924Y-59514813D01*
X117081617Y-59566692D01*
X117087730Y-59597423D01*
X117105968Y-59624718D01*
X117145747Y-59684252D01*
X117175352Y-59704033D01*
X117232577Y-59742270D01*
X117232580Y-59742270D01*
X117232581Y-59742271D01*
X117309139Y-59757499D01*
X117309143Y-59757500D01*
X117309144Y-59757500D01*
X117630857Y-59757500D01*
X117630858Y-59757499D01*
X117707423Y-59742270D01*
X117794252Y-59684252D01*
X117794251Y-59684252D01*
X117804407Y-59677467D01*
X117806445Y-59680517D01*
X117849114Y-59657206D01*
X117918807Y-59662174D01*
X117974750Y-59704033D01*
X117999182Y-59769492D01*
X117999500Y-59778366D01*
X117999500Y-60086000D01*
X117979815Y-60153039D01*
X117927011Y-60198794D01*
X117875500Y-60210000D01*
X114050000Y-60210000D01*
X114050000Y-67938690D01*
X114030315Y-68005729D01*
X113977511Y-68051484D01*
X113908353Y-68061428D01*
X113901808Y-68060307D01*
X113862561Y-68052500D01*
X113862558Y-68052500D01*
X113437442Y-68052500D01*
X113437441Y-68052500D01*
X113400250Y-68059898D01*
X113358077Y-68088077D01*
X113329898Y-68130250D01*
X113322500Y-68167441D01*
X113322500Y-69242558D01*
X113329898Y-69279749D01*
X113358077Y-69321922D01*
X113400250Y-69350101D01*
X113400252Y-69350102D01*
X113428205Y-69355662D01*
X113437441Y-69357500D01*
X113437442Y-69357500D01*
X113862558Y-69357500D01*
X113899748Y-69350102D01*
X113899749Y-69350100D01*
X113901805Y-69349692D01*
X113971397Y-69355918D01*
X114026576Y-69398779D01*
X114049822Y-69464668D01*
X114050000Y-69471309D01*
X114050000Y-74875500D01*
X114030315Y-74942539D01*
X113977511Y-74988294D01*
X113926000Y-74999500D01*
X102165135Y-74999500D01*
X102098096Y-74979815D01*
X102052341Y-74927011D01*
X102042397Y-74857853D01*
X102071422Y-74794297D01*
X102096244Y-74772398D01*
X102111922Y-74761922D01*
X102138610Y-74721981D01*
X102140102Y-74719748D01*
X102147500Y-74682558D01*
X102147500Y-74621500D01*
X102167185Y-74554461D01*
X102219989Y-74508706D01*
X102271500Y-74497500D01*
X102351412Y-74497500D01*
X102418451Y-74517185D01*
X102454514Y-74552609D01*
X102457729Y-74557421D01*
X102457730Y-74557423D01*
X102469056Y-74574373D01*
X102515747Y-74644252D01*
X102543592Y-74662857D01*
X102602577Y-74702270D01*
X102602580Y-74702270D01*
X102602581Y-74702271D01*
X102679139Y-74717499D01*
X102679143Y-74717500D01*
X102679144Y-74717500D01*
X103000857Y-74717500D01*
X103000858Y-74717499D01*
X103077423Y-74702270D01*
X103164252Y-74644252D01*
X103222270Y-74557423D01*
X103228382Y-74526692D01*
X103260767Y-74464782D01*
X103321482Y-74430208D01*
X103391252Y-74433947D01*
X103447924Y-74474813D01*
X103471617Y-74526692D01*
X103477730Y-74557423D01*
X103489056Y-74574373D01*
X103535747Y-74644252D01*
X103563592Y-74662857D01*
X103622577Y-74702270D01*
X103622580Y-74702270D01*
X103622581Y-74702271D01*
X103699139Y-74717499D01*
X103699143Y-74717500D01*
X103699144Y-74717500D01*
X104020857Y-74717500D01*
X104020858Y-74717499D01*
X104097423Y-74702270D01*
X104184252Y-74644252D01*
X104242270Y-74557423D01*
X104257500Y-74480856D01*
X104257500Y-74059144D01*
X104242270Y-73982577D01*
X104193775Y-73910000D01*
X104184252Y-73895747D01*
X104132201Y-73860968D01*
X104097423Y-73837730D01*
X104097421Y-73837729D01*
X104097418Y-73837728D01*
X104020860Y-73822500D01*
X104020856Y-73822500D01*
X103858108Y-73822500D01*
X103791069Y-73802815D01*
X103745314Y-73750011D01*
X103736651Y-73689759D01*
X103735492Y-73689759D01*
X103735492Y-73681701D01*
X103735370Y-73680853D01*
X103735492Y-73680046D01*
X103735492Y-73679996D01*
X103715647Y-73554699D01*
X103715647Y-73554698D01*
X103705930Y-73535628D01*
X103658050Y-73441658D01*
X103658046Y-73441654D01*
X103658045Y-73441652D01*
X103568347Y-73351954D01*
X103568344Y-73351952D01*
X103568342Y-73351950D01*
X103455304Y-73294354D01*
X103455303Y-73294353D01*
X103455300Y-73294352D01*
X103330003Y-73274508D01*
X103329997Y-73274508D01*
X103204699Y-73294352D01*
X103204698Y-73294352D01*
X103132084Y-73331352D01*
X103091658Y-73351950D01*
X103091656Y-73351951D01*
X103091657Y-73351951D01*
X103091652Y-73351954D01*
X103001954Y-73441652D01*
X103001951Y-73441657D01*
X103001950Y-73441658D01*
X102996792Y-73451782D01*
X102944352Y-73554698D01*
X102944352Y-73554699D01*
X102924508Y-73679996D01*
X102924508Y-73689759D01*
X102922989Y-73689759D01*
X102915408Y-73748401D01*
X102870409Y-73801851D01*
X102803657Y-73822487D01*
X102801892Y-73822500D01*
X102679139Y-73822500D01*
X102602581Y-73837728D01*
X102602577Y-73837730D01*
X102515747Y-73895747D01*
X102471715Y-73961645D01*
X102457730Y-73982577D01*
X102457729Y-73982578D01*
X102454514Y-73987391D01*
X102400902Y-74032196D01*
X102351412Y-74042500D01*
X102271500Y-74042500D01*
X102204461Y-74022815D01*
X102158706Y-73970011D01*
X102147500Y-73918500D01*
X102147500Y-73557441D01*
X102143931Y-73539501D01*
X102140102Y-73520252D01*
X102125137Y-73497856D01*
X102111922Y-73478078D01*
X102088023Y-73462109D01*
X102043219Y-73408496D01*
X102034512Y-73339171D01*
X102064667Y-73276144D01*
X102124111Y-73239425D01*
X102139031Y-73236303D01*
X102204204Y-73226809D01*
X102317390Y-73171476D01*
X102406476Y-73082390D01*
X102461809Y-72969204D01*
X102472500Y-72895827D01*
X102472499Y-72124174D01*
X102461809Y-72050796D01*
X102406476Y-71937610D01*
X102406474Y-71937608D01*
X102406474Y-71937607D01*
X102317392Y-71848525D01*
X102204202Y-71793190D01*
X102130828Y-71782500D01*
X100818593Y-71782500D01*
X100751554Y-71762815D01*
X100705799Y-71710011D01*
X100695855Y-71640853D01*
X100724880Y-71577297D01*
X100730895Y-71570837D01*
X101027913Y-71273818D01*
X101089236Y-71240334D01*
X101115594Y-71237500D01*
X101787369Y-71237500D01*
X101787376Y-71237500D01*
X101913915Y-71222710D01*
X102073724Y-71164544D01*
X102215812Y-71071092D01*
X102332518Y-70947391D01*
X102417550Y-70800110D01*
X102417550Y-70800109D01*
X102417902Y-70799500D01*
X102468469Y-70751285D01*
X102525289Y-70737500D01*
X103047221Y-70737500D01*
X103114260Y-70757185D01*
X103160015Y-70809989D01*
X103166994Y-70829398D01*
X103167737Y-70832170D01*
X103167737Y-70832172D01*
X103168273Y-70834174D01*
X103172500Y-70866272D01*
X103172500Y-71732435D01*
X103172415Y-71735680D01*
X103170282Y-71776382D01*
X103170283Y-71776389D01*
X103177698Y-71795707D01*
X103183223Y-71814357D01*
X103187526Y-71834601D01*
X103188750Y-71836285D01*
X103204192Y-71864726D01*
X103204938Y-71866669D01*
X103204940Y-71866673D01*
X103204942Y-71866675D01*
X103219568Y-71881301D01*
X103232206Y-71896097D01*
X103244372Y-71912842D01*
X103246172Y-71913881D01*
X103271856Y-71933589D01*
X103469306Y-72131039D01*
X103471541Y-72133394D01*
X103498828Y-72163699D01*
X103498829Y-72163700D01*
X103517736Y-72172118D01*
X103534831Y-72181399D01*
X103552188Y-72192671D01*
X103554241Y-72192996D01*
X103585274Y-72202189D01*
X103587177Y-72203036D01*
X103587180Y-72203037D01*
X103607874Y-72203037D01*
X103627272Y-72204563D01*
X103647709Y-72207801D01*
X103649721Y-72207261D01*
X103681813Y-72203037D01*
X103753189Y-72203037D01*
X103820228Y-72222722D01*
X103865983Y-72275526D01*
X103875927Y-72344684D01*
X103875662Y-72346435D01*
X103854508Y-72479997D01*
X103854508Y-72480003D01*
X103874352Y-72605300D01*
X103874352Y-72605301D01*
X103880716Y-72617790D01*
X103931950Y-72718342D01*
X103931952Y-72718344D01*
X103931954Y-72718347D01*
X104021652Y-72808045D01*
X104021654Y-72808046D01*
X104021658Y-72808050D01*
X104134696Y-72865646D01*
X104134697Y-72865646D01*
X104134699Y-72865647D01*
X104259997Y-72885492D01*
X104260000Y-72885492D01*
X104260002Y-72885492D01*
X104363302Y-72869131D01*
X104432596Y-72878086D01*
X104486048Y-72923082D01*
X104506687Y-72989833D01*
X104506700Y-72991604D01*
X104506700Y-73140750D01*
X104511382Y-73164288D01*
X104505155Y-73233880D01*
X104486256Y-73262724D01*
X104487686Y-73263763D01*
X104481952Y-73271655D01*
X104481950Y-73271657D01*
X104481950Y-73271658D01*
X104470387Y-73294352D01*
X104424352Y-73384698D01*
X104424352Y-73384699D01*
X104404508Y-73509996D01*
X104404508Y-73510003D01*
X104424352Y-73635300D01*
X104424352Y-73635301D01*
X104430651Y-73647663D01*
X104481950Y-73748342D01*
X104481952Y-73748344D01*
X104481954Y-73748347D01*
X104571652Y-73838045D01*
X104571654Y-73838046D01*
X104571658Y-73838050D01*
X104684696Y-73895646D01*
X104684697Y-73895646D01*
X104684699Y-73895647D01*
X104819638Y-73917019D01*
X104819166Y-73919994D01*
X104870872Y-73935177D01*
X104916627Y-73987981D01*
X104926571Y-74057139D01*
X104925450Y-74063684D01*
X104917500Y-74103650D01*
X104917500Y-74496352D01*
X104933018Y-74574370D01*
X104933019Y-74574371D01*
X104933019Y-74574372D01*
X104933020Y-74574373D01*
X104992143Y-74662857D01*
X105080627Y-74721980D01*
X105080628Y-74721980D01*
X105080629Y-74721981D01*
X105158647Y-74737499D01*
X105158651Y-74737500D01*
X105158652Y-74737500D01*
X105491349Y-74737500D01*
X105491350Y-74737499D01*
X105517591Y-74732279D01*
X105569370Y-74721981D01*
X105569370Y-74721980D01*
X105569373Y-74721980D01*
X105657857Y-74662857D01*
X105716980Y-74574373D01*
X105732500Y-74496348D01*
X105732500Y-74103652D01*
X105723248Y-74057139D01*
X105716981Y-74025629D01*
X105716980Y-74025628D01*
X105716980Y-74025627D01*
X105657857Y-73937143D01*
X105607607Y-73903567D01*
X105562804Y-73849955D01*
X105552500Y-73800466D01*
X105552500Y-73670900D01*
X105572185Y-73603861D01*
X105624989Y-73558106D01*
X105676500Y-73546900D01*
X105746833Y-73546900D01*
X105754231Y-73545428D01*
X105784022Y-73539502D01*
X105826196Y-73511322D01*
X105854376Y-73469148D01*
X105861774Y-73431958D01*
X105861774Y-72873442D01*
X105854376Y-72836252D01*
X105854374Y-72836250D01*
X105852275Y-72825695D01*
X105858501Y-72756103D01*
X105901362Y-72700924D01*
X105967251Y-72677678D01*
X105973892Y-72677500D01*
X106332435Y-72677500D01*
X106335678Y-72677584D01*
X106376384Y-72679718D01*
X106395700Y-72672302D01*
X106414352Y-72666777D01*
X106434600Y-72662474D01*
X106436275Y-72661256D01*
X106464735Y-72645803D01*
X106466673Y-72645060D01*
X106481308Y-72630424D01*
X106496097Y-72617793D01*
X106512842Y-72605628D01*
X106513883Y-72603823D01*
X106533583Y-72578148D01*
X106657221Y-72454510D01*
X106718542Y-72421028D01*
X106788234Y-72426012D01*
X106844167Y-72467884D01*
X106868584Y-72533348D01*
X106868900Y-72542193D01*
X106868900Y-72640621D01*
X106876267Y-72677657D01*
X106876299Y-72677814D01*
X106876491Y-72678278D01*
X106876608Y-72679368D01*
X106878681Y-72689788D01*
X106877747Y-72689973D01*
X106883957Y-72747747D01*
X106876491Y-72773174D01*
X106876299Y-72773637D01*
X106868899Y-72810830D01*
X106868899Y-73140747D01*
X106876298Y-73177938D01*
X106904477Y-73220111D01*
X106946650Y-73248290D01*
X106946652Y-73248291D01*
X106974605Y-73253851D01*
X106983841Y-73255689D01*
X106983842Y-73255689D01*
X107169905Y-73255689D01*
X107236944Y-73275374D01*
X107257586Y-73292008D01*
X107286080Y-73320502D01*
X107288315Y-73322857D01*
X107315602Y-73353162D01*
X107315603Y-73353163D01*
X107334510Y-73361581D01*
X107351605Y-73370862D01*
X107368962Y-73382134D01*
X107371015Y-73382459D01*
X107402048Y-73391652D01*
X107403951Y-73392499D01*
X107403954Y-73392500D01*
X107424648Y-73392500D01*
X107444046Y-73394026D01*
X107464483Y-73397264D01*
X107466495Y-73396724D01*
X107498587Y-73392500D01*
X108185466Y-73392500D01*
X108252505Y-73412185D01*
X108288567Y-73447607D01*
X108322143Y-73497857D01*
X108410627Y-73556980D01*
X108410628Y-73556980D01*
X108410629Y-73556981D01*
X108488647Y-73572499D01*
X108488651Y-73572500D01*
X108488652Y-73572500D01*
X108881349Y-73572500D01*
X108881350Y-73572499D01*
X108907591Y-73567279D01*
X108959370Y-73556981D01*
X108959370Y-73556980D01*
X108959373Y-73556980D01*
X109047857Y-73497857D01*
X109106980Y-73409373D01*
X109107155Y-73408496D01*
X109122499Y-73331352D01*
X109122500Y-73331348D01*
X109122500Y-73100595D01*
X109142185Y-73033556D01*
X109158819Y-73012914D01*
X109204582Y-72967151D01*
X109355550Y-72816182D01*
X109357829Y-72814019D01*
X109388163Y-72786708D01*
X109396582Y-72767798D01*
X109405864Y-72750702D01*
X109417134Y-72733349D01*
X109417457Y-72731304D01*
X109426655Y-72700254D01*
X109427500Y-72698357D01*
X109427500Y-72677657D01*
X109429027Y-72658258D01*
X109430463Y-72649190D01*
X109432263Y-72637828D01*
X109431725Y-72635820D01*
X109427499Y-72603735D01*
X109427499Y-71610458D01*
X109427584Y-71607213D01*
X109427797Y-71603145D01*
X109429718Y-71566509D01*
X109422300Y-71547185D01*
X109416776Y-71528536D01*
X109412474Y-71508293D01*
X109411251Y-71506610D01*
X109395804Y-71478158D01*
X109395060Y-71476220D01*
X109395057Y-71476217D01*
X109395058Y-71476217D01*
X109380426Y-71461585D01*
X109367793Y-71446794D01*
X109366346Y-71444802D01*
X109355628Y-71430051D01*
X109355627Y-71430050D01*
X109355626Y-71430049D01*
X109355625Y-71430048D01*
X109353825Y-71429009D01*
X109328143Y-71409303D01*
X109201804Y-71282964D01*
X109073327Y-71154486D01*
X109071092Y-71152131D01*
X109043815Y-71121837D01*
X109043813Y-71121835D01*
X109024904Y-71113416D01*
X109007809Y-71104134D01*
X108990457Y-71092865D01*
X108990454Y-71092864D01*
X108988403Y-71092540D01*
X108957372Y-71083348D01*
X108955470Y-71082501D01*
X108955464Y-71082500D01*
X108934764Y-71082500D01*
X108915367Y-71080973D01*
X108894935Y-71077737D01*
X108892926Y-71078275D01*
X108860834Y-71082500D01*
X108247565Y-71082500D01*
X108244321Y-71082415D01*
X108203616Y-71080282D01*
X108190602Y-71079600D01*
X108190688Y-71077955D01*
X108136600Y-71070963D01*
X108083150Y-71025965D01*
X108062513Y-70959213D01*
X108062500Y-70957447D01*
X108062500Y-70931174D01*
X108064027Y-70911774D01*
X108064227Y-70910512D01*
X108067264Y-70891339D01*
X108067135Y-70890860D01*
X108066725Y-70889325D01*
X108062500Y-70857234D01*
X108062500Y-70560179D01*
X108082185Y-70493140D01*
X108117608Y-70457077D01*
X108159252Y-70429252D01*
X108217270Y-70342423D01*
X108232500Y-70265856D01*
X108232500Y-70151500D01*
X108252185Y-70084461D01*
X108304989Y-70038706D01*
X108356500Y-70027500D01*
X108764405Y-70027500D01*
X108831444Y-70047185D01*
X108852086Y-70063819D01*
X109007562Y-70219295D01*
X109041047Y-70280618D01*
X109036063Y-70350310D01*
X109030368Y-70363265D01*
X109018181Y-70387185D01*
X109014353Y-70394698D01*
X109014352Y-70394699D01*
X108994508Y-70519997D01*
X108994508Y-70520003D01*
X109014352Y-70645300D01*
X109014352Y-70645301D01*
X109025851Y-70667868D01*
X109071950Y-70758342D01*
X109071952Y-70758344D01*
X109071954Y-70758347D01*
X109161652Y-70848045D01*
X109161654Y-70848046D01*
X109161658Y-70848050D01*
X109274696Y-70905646D01*
X109274697Y-70905646D01*
X109274699Y-70905647D01*
X109399997Y-70925492D01*
X109400000Y-70925492D01*
X109400003Y-70925492D01*
X109525300Y-70905647D01*
X109525301Y-70905646D01*
X109525304Y-70905646D01*
X109638342Y-70848050D01*
X109638343Y-70848048D01*
X109642205Y-70846081D01*
X109710874Y-70833185D01*
X109775614Y-70859461D01*
X109815872Y-70916567D01*
X109822500Y-70956566D01*
X109822499Y-71192558D01*
X109829898Y-71229749D01*
X109834148Y-71236109D01*
X109855026Y-71302787D01*
X109836541Y-71370167D01*
X109834148Y-71373891D01*
X109829898Y-71380250D01*
X109822500Y-71417441D01*
X109822500Y-71842558D01*
X109829898Y-71879749D01*
X109834148Y-71886109D01*
X109855026Y-71952787D01*
X109836541Y-72020167D01*
X109834148Y-72023891D01*
X109829898Y-72030250D01*
X109822500Y-72067441D01*
X109822500Y-72492558D01*
X109829898Y-72529749D01*
X109834148Y-72536109D01*
X109855026Y-72602787D01*
X109836541Y-72670167D01*
X109834148Y-72673891D01*
X109829898Y-72680250D01*
X109822500Y-72717441D01*
X109822500Y-73142558D01*
X109829898Y-73179749D01*
X109858077Y-73221922D01*
X109900250Y-73250101D01*
X109900252Y-73250102D01*
X109928205Y-73255662D01*
X109937441Y-73257500D01*
X109937442Y-73257500D01*
X110362559Y-73257500D01*
X110371662Y-73255689D01*
X110399748Y-73250102D01*
X110441922Y-73221922D01*
X110470102Y-73179748D01*
X110477500Y-73142558D01*
X110477500Y-73056499D01*
X110497185Y-72989461D01*
X110549989Y-72943706D01*
X110601500Y-72932500D01*
X111012557Y-72932500D01*
X111012558Y-72932500D01*
X111049748Y-72925102D01*
X111049750Y-72925100D01*
X111055398Y-72923977D01*
X111124990Y-72930203D01*
X111135889Y-72935110D01*
X111141657Y-72938049D01*
X111141658Y-72938050D01*
X111174295Y-72954679D01*
X111198771Y-72967151D01*
X111249567Y-73015126D01*
X111266361Y-73082947D01*
X111257039Y-73125081D01*
X111254899Y-73130247D01*
X111247500Y-73167441D01*
X111247500Y-73384743D01*
X111227815Y-73451782D01*
X111175011Y-73497537D01*
X111142898Y-73507216D01*
X111034698Y-73524352D01*
X110970664Y-73556980D01*
X110921658Y-73581950D01*
X110921657Y-73581951D01*
X110921652Y-73581954D01*
X110831954Y-73671652D01*
X110831951Y-73671657D01*
X110831950Y-73671658D01*
X110822727Y-73689759D01*
X110774352Y-73784698D01*
X110774352Y-73784699D01*
X110754508Y-73909996D01*
X110754508Y-73910003D01*
X110774352Y-74035300D01*
X110774352Y-74035301D01*
X110786501Y-74059144D01*
X110831950Y-74148342D01*
X110831952Y-74148344D01*
X110831954Y-74148347D01*
X110921652Y-74238045D01*
X110921654Y-74238046D01*
X110921658Y-74238050D01*
X111034696Y-74295646D01*
X111034697Y-74295646D01*
X111034699Y-74295647D01*
X111159997Y-74315492D01*
X111160000Y-74315492D01*
X111160003Y-74315492D01*
X111285300Y-74295647D01*
X111285301Y-74295647D01*
X111285302Y-74295646D01*
X111285304Y-74295646D01*
X111398342Y-74238050D01*
X111398343Y-74238048D01*
X111407037Y-74233619D01*
X111408036Y-74235580D01*
X111461460Y-74216512D01*
X111529515Y-74232329D01*
X111556235Y-74252628D01*
X111621652Y-74318045D01*
X111621654Y-74318046D01*
X111621658Y-74318050D01*
X111734696Y-74375646D01*
X111734697Y-74375646D01*
X111734699Y-74375647D01*
X111859997Y-74395492D01*
X111860000Y-74395492D01*
X111860003Y-74395492D01*
X111985300Y-74375647D01*
X111985301Y-74375647D01*
X111985302Y-74375646D01*
X111985304Y-74375646D01*
X112098342Y-74318050D01*
X112098345Y-74318046D01*
X112102934Y-74314713D01*
X112168740Y-74291231D01*
X112236794Y-74307055D01*
X112247757Y-74315384D01*
X112247923Y-74315137D01*
X112300250Y-74350101D01*
X112300252Y-74350102D01*
X112328205Y-74355662D01*
X112337441Y-74357500D01*
X112337442Y-74357500D01*
X112762559Y-74357500D01*
X112769957Y-74356028D01*
X112799748Y-74350102D01*
X112841922Y-74321922D01*
X112870102Y-74279748D01*
X112877500Y-74242558D01*
X112877500Y-73817442D01*
X112870102Y-73780252D01*
X112870101Y-73780250D01*
X112841922Y-73738077D01*
X112799749Y-73709898D01*
X112762559Y-73702500D01*
X112762558Y-73702500D01*
X112698594Y-73702500D01*
X112631555Y-73682815D01*
X112585800Y-73630011D01*
X112575856Y-73560853D01*
X112604881Y-73497297D01*
X112610913Y-73490819D01*
X112705007Y-73396725D01*
X112803018Y-73298713D01*
X112864339Y-73265230D01*
X112910095Y-73263923D01*
X112920000Y-73265492D01*
X112920001Y-73265491D01*
X112920003Y-73265492D01*
X113045300Y-73245647D01*
X113045301Y-73245647D01*
X113045302Y-73245646D01*
X113045304Y-73245646D01*
X113158342Y-73188050D01*
X113248050Y-73098342D01*
X113305646Y-72985304D01*
X113305646Y-72985302D01*
X113305647Y-72985301D01*
X113305647Y-72985300D01*
X113325492Y-72860003D01*
X113325492Y-72859996D01*
X113305647Y-72734699D01*
X113305646Y-72734697D01*
X113305646Y-72734696D01*
X113248050Y-72621658D01*
X113248048Y-72621656D01*
X113243950Y-72613613D01*
X113231054Y-72544944D01*
X113257330Y-72480204D01*
X113266747Y-72469644D01*
X113308050Y-72428342D01*
X113365646Y-72315304D01*
X113365646Y-72315302D01*
X113365647Y-72315301D01*
X113365647Y-72315300D01*
X113385492Y-72190003D01*
X113385492Y-72189996D01*
X113365647Y-72064699D01*
X113365647Y-72064698D01*
X113362888Y-72059284D01*
X113308050Y-71951658D01*
X113308046Y-71951654D01*
X113308045Y-71951652D01*
X113263819Y-71907426D01*
X113230334Y-71846103D01*
X113227500Y-71819745D01*
X113227500Y-71706247D01*
X113247185Y-71639208D01*
X113282610Y-71603145D01*
X113291921Y-71596923D01*
X113293606Y-71594402D01*
X113320102Y-71554748D01*
X113327500Y-71517558D01*
X113327500Y-71092442D01*
X113320102Y-71055252D01*
X113315853Y-71048894D01*
X113294973Y-70982219D01*
X113313455Y-70914838D01*
X113315854Y-70911105D01*
X113320102Y-70904748D01*
X113327500Y-70867558D01*
X113327500Y-70442442D01*
X113320102Y-70405252D01*
X113319144Y-70403819D01*
X113315852Y-70398891D01*
X113294973Y-70332214D01*
X113313457Y-70264834D01*
X113315830Y-70261141D01*
X113320102Y-70254748D01*
X113327500Y-70217558D01*
X113327500Y-69792442D01*
X113320102Y-69755252D01*
X113312976Y-69744587D01*
X113291922Y-69713077D01*
X113249749Y-69684898D01*
X113212559Y-69677500D01*
X113212558Y-69677500D01*
X112787442Y-69677500D01*
X112787441Y-69677500D01*
X112750250Y-69684898D01*
X112708077Y-69713077D01*
X112679898Y-69755250D01*
X112672751Y-69791181D01*
X112672500Y-69792442D01*
X112672500Y-70217558D01*
X112679898Y-70254748D01*
X112683282Y-70259813D01*
X112684146Y-70261105D01*
X112705026Y-70327782D01*
X112686543Y-70395163D01*
X112684150Y-70398887D01*
X112679898Y-70405249D01*
X112673852Y-70435646D01*
X112672500Y-70442442D01*
X112672500Y-70867558D01*
X112679898Y-70904748D01*
X112683749Y-70910512D01*
X112684146Y-70911105D01*
X112705026Y-70977782D01*
X112686543Y-71045163D01*
X112684150Y-71048887D01*
X112679898Y-71055249D01*
X112672500Y-71092441D01*
X112672500Y-71517558D01*
X112679898Y-71554749D01*
X112708078Y-71596923D01*
X112717390Y-71603145D01*
X112762196Y-71656757D01*
X112772500Y-71706247D01*
X112772500Y-71779745D01*
X112752815Y-71846784D01*
X112736181Y-71867426D01*
X112651954Y-71951652D01*
X112651951Y-71951657D01*
X112651950Y-71951658D01*
X112647702Y-71959996D01*
X112594352Y-72064698D01*
X112594352Y-72064699D01*
X112574508Y-72189996D01*
X112574508Y-72190003D01*
X112594352Y-72315300D01*
X112594352Y-72315301D01*
X112617395Y-72360524D01*
X112651087Y-72426649D01*
X112656049Y-72436386D01*
X112668945Y-72505055D01*
X112642669Y-72569796D01*
X112633245Y-72580362D01*
X112591954Y-72621652D01*
X112591951Y-72621657D01*
X112591950Y-72621658D01*
X112577922Y-72649190D01*
X112534352Y-72734698D01*
X112534352Y-72734699D01*
X112514508Y-72859996D01*
X112514508Y-72860002D01*
X112516076Y-72869902D01*
X112507121Y-72939196D01*
X112481285Y-72976980D01*
X112442086Y-73016180D01*
X112380764Y-73049666D01*
X112354404Y-73052500D01*
X112012441Y-73052500D01*
X111975250Y-73059898D01*
X111968891Y-73064148D01*
X111902213Y-73085026D01*
X111834833Y-73066541D01*
X111831109Y-73064148D01*
X111824749Y-73059898D01*
X111781582Y-73051311D01*
X111781956Y-73049426D01*
X111725427Y-73026582D01*
X111685083Y-72969537D01*
X111681985Y-72899736D01*
X111705326Y-72858431D01*
X111702311Y-72856241D01*
X111708042Y-72848349D01*
X111708050Y-72848342D01*
X111765646Y-72735304D01*
X111765646Y-72735302D01*
X111765647Y-72735301D01*
X111765647Y-72735300D01*
X111785492Y-72610003D01*
X111785492Y-72609996D01*
X111765647Y-72484699D01*
X111765647Y-72484698D01*
X111763252Y-72479997D01*
X111708050Y-72371658D01*
X111708045Y-72371653D01*
X111702311Y-72363759D01*
X111703665Y-72362774D01*
X111675590Y-72311368D01*
X111680569Y-72241676D01*
X111703013Y-72206751D01*
X111702311Y-72206241D01*
X111708042Y-72198349D01*
X111708050Y-72198342D01*
X111765646Y-72085304D01*
X111765646Y-72085302D01*
X111765647Y-72085301D01*
X111765647Y-72085300D01*
X111785492Y-71960003D01*
X111785492Y-71959996D01*
X111765647Y-71834699D01*
X111765647Y-71834698D01*
X111765419Y-71834250D01*
X111708050Y-71721658D01*
X111708046Y-71721654D01*
X111702314Y-71713763D01*
X111703666Y-71712780D01*
X111675588Y-71661358D01*
X111680572Y-71591666D01*
X111703012Y-71556750D01*
X111702311Y-71556241D01*
X111708042Y-71548349D01*
X111708050Y-71548342D01*
X111765646Y-71435304D01*
X111765646Y-71435302D01*
X111765647Y-71435301D01*
X111765647Y-71435300D01*
X111785492Y-71310003D01*
X111785492Y-71309996D01*
X111765647Y-71184699D01*
X111765647Y-71184698D01*
X111754600Y-71163017D01*
X111708050Y-71071658D01*
X111708045Y-71071653D01*
X111702311Y-71063759D01*
X111703665Y-71062774D01*
X111675590Y-71011368D01*
X111680569Y-70941676D01*
X111703013Y-70906751D01*
X111702311Y-70906241D01*
X111708042Y-70898349D01*
X111708050Y-70898342D01*
X111765646Y-70785304D01*
X111765646Y-70785302D01*
X111765647Y-70785301D01*
X111765647Y-70785300D01*
X111785492Y-70660003D01*
X111785492Y-70659996D01*
X111765647Y-70534699D01*
X111765647Y-70534698D01*
X111759271Y-70522185D01*
X111708050Y-70421658D01*
X111708046Y-70421654D01*
X111708045Y-70421652D01*
X111618347Y-70331954D01*
X111618344Y-70331952D01*
X111618342Y-70331950D01*
X111505304Y-70274354D01*
X111505303Y-70274353D01*
X111505300Y-70274352D01*
X111380003Y-70254508D01*
X111375587Y-70254508D01*
X111370415Y-70252989D01*
X111370362Y-70252981D01*
X111370363Y-70252974D01*
X111308548Y-70234823D01*
X111262793Y-70182019D01*
X111252849Y-70112861D01*
X111281874Y-70049305D01*
X111287906Y-70042827D01*
X111415422Y-69915311D01*
X111825550Y-69505182D01*
X111827829Y-69503019D01*
X111858163Y-69475708D01*
X111866585Y-69456790D01*
X111875859Y-69439711D01*
X111887134Y-69422350D01*
X111887458Y-69420303D01*
X111896655Y-69389254D01*
X111897500Y-69387357D01*
X111897500Y-69366657D01*
X111899027Y-69347258D01*
X111899867Y-69341954D01*
X111902263Y-69326828D01*
X111901725Y-69324819D01*
X111897500Y-69292727D01*
X111897500Y-69280254D01*
X111917185Y-69213215D01*
X111933814Y-69192577D01*
X111998050Y-69128342D01*
X112055646Y-69015304D01*
X112055646Y-69015302D01*
X112055647Y-69015301D01*
X112055647Y-69015300D01*
X112075492Y-68890003D01*
X112075492Y-68889996D01*
X112055647Y-68764699D01*
X112055647Y-68764698D01*
X112043383Y-68740629D01*
X111998050Y-68651658D01*
X111998046Y-68651654D01*
X111998045Y-68651652D01*
X111908347Y-68561954D01*
X111908344Y-68561952D01*
X111908342Y-68561950D01*
X111795304Y-68504354D01*
X111795303Y-68504353D01*
X111795300Y-68504352D01*
X111782504Y-68502326D01*
X111719369Y-68472397D01*
X111682437Y-68413086D01*
X111683435Y-68343224D01*
X111704704Y-68307979D01*
X111702311Y-68306241D01*
X111708042Y-68298349D01*
X111708050Y-68298342D01*
X111765646Y-68185304D01*
X111765646Y-68185302D01*
X111765647Y-68185301D01*
X111765647Y-68185300D01*
X111785492Y-68060003D01*
X111785492Y-68059996D01*
X111765647Y-67934699D01*
X111765647Y-67934698D01*
X111765646Y-67934696D01*
X111708050Y-67821658D01*
X111708046Y-67821654D01*
X111708045Y-67821652D01*
X111618347Y-67731954D01*
X111618344Y-67731952D01*
X111618342Y-67731950D01*
X111505304Y-67674354D01*
X111505303Y-67674353D01*
X111505300Y-67674352D01*
X111380003Y-67654508D01*
X111379997Y-67654508D01*
X111254699Y-67674352D01*
X111254698Y-67674352D01*
X111148187Y-67728623D01*
X111079517Y-67741519D01*
X111061769Y-67737056D01*
X111061725Y-67737281D01*
X111049748Y-67734898D01*
X111026923Y-67730357D01*
X111012559Y-67727500D01*
X111012558Y-67727500D01*
X110601500Y-67727500D01*
X110534461Y-67707815D01*
X110488706Y-67655011D01*
X110477500Y-67603500D01*
X110477500Y-67517441D01*
X110475662Y-67508205D01*
X110470102Y-67480252D01*
X110465199Y-67472914D01*
X110441922Y-67438077D01*
X110399749Y-67409898D01*
X110362559Y-67402500D01*
X110362558Y-67402500D01*
X109937442Y-67402500D01*
X109937441Y-67402500D01*
X109900250Y-67409898D01*
X109858077Y-67438077D01*
X109829898Y-67480250D01*
X109822500Y-67517441D01*
X109822500Y-67942558D01*
X109829898Y-67979749D01*
X109834148Y-67986109D01*
X109855026Y-68052787D01*
X109836541Y-68120167D01*
X109834148Y-68123891D01*
X109829898Y-68130250D01*
X109822500Y-68167441D01*
X109822500Y-68592558D01*
X109829898Y-68629749D01*
X109834148Y-68636109D01*
X109855026Y-68702787D01*
X109836541Y-68770167D01*
X109834148Y-68773891D01*
X109829898Y-68780250D01*
X109822500Y-68817441D01*
X109822500Y-69159314D01*
X109802815Y-69226353D01*
X109750011Y-69272108D01*
X109680853Y-69282052D01*
X109679103Y-69281787D01*
X109570003Y-69264508D01*
X109569997Y-69264508D01*
X109444699Y-69284352D01*
X109444698Y-69284352D01*
X109379047Y-69317804D01*
X109331658Y-69341950D01*
X109331656Y-69341951D01*
X109331657Y-69341951D01*
X109331652Y-69341954D01*
X109241954Y-69431652D01*
X109241949Y-69431659D01*
X109184773Y-69543871D01*
X109136798Y-69594667D01*
X109068977Y-69611461D01*
X109006755Y-69591571D01*
X108993350Y-69582865D01*
X108993347Y-69582864D01*
X108991296Y-69582540D01*
X108960265Y-69573348D01*
X108958363Y-69572501D01*
X108958357Y-69572500D01*
X108937657Y-69572500D01*
X108918260Y-69570973D01*
X108897828Y-69567737D01*
X108895819Y-69568275D01*
X108863727Y-69572500D01*
X108097564Y-69572500D01*
X108094320Y-69572415D01*
X108092259Y-69572307D01*
X108053613Y-69570281D01*
X108034285Y-69577700D01*
X108015642Y-69583222D01*
X107995400Y-69587525D01*
X107983495Y-69592826D01*
X107982365Y-69590289D01*
X107934695Y-69607298D01*
X107927618Y-69607500D01*
X107674139Y-69607500D01*
X107597581Y-69622728D01*
X107597577Y-69622730D01*
X107510747Y-69680747D01*
X107452730Y-69767577D01*
X107452728Y-69767581D01*
X107446617Y-69798306D01*
X107414233Y-69860217D01*
X107353517Y-69894791D01*
X107283747Y-69891052D01*
X107227075Y-69850186D01*
X107203383Y-69798306D01*
X107197271Y-69767581D01*
X107197270Y-69767580D01*
X107197270Y-69767577D01*
X107162262Y-69715184D01*
X107139252Y-69680747D01*
X107083259Y-69643334D01*
X107052423Y-69622730D01*
X107052421Y-69622729D01*
X107052418Y-69622728D01*
X106975860Y-69607500D01*
X106975856Y-69607500D01*
X106654144Y-69607500D01*
X106654139Y-69607500D01*
X106577581Y-69622728D01*
X106577577Y-69622730D01*
X106490746Y-69680748D01*
X106487519Y-69685579D01*
X106433905Y-69730382D01*
X106364580Y-69739088D01*
X106328261Y-69723977D01*
X106327037Y-69726381D01*
X106318343Y-69721951D01*
X106318342Y-69721950D01*
X106205304Y-69664354D01*
X106205303Y-69664353D01*
X106205300Y-69664352D01*
X106109001Y-69649100D01*
X106045866Y-69619171D01*
X106008935Y-69559859D01*
X106009933Y-69489996D01*
X106048543Y-69431764D01*
X106059489Y-69423538D01*
X106127857Y-69377857D01*
X106186980Y-69289373D01*
X106187979Y-69284354D01*
X106201196Y-69217904D01*
X106202500Y-69211348D01*
X106202500Y-68818652D01*
X106194862Y-68780252D01*
X106186981Y-68740629D01*
X106186980Y-68740628D01*
X106186980Y-68740627D01*
X106127857Y-68652143D01*
X106077607Y-68618567D01*
X106032804Y-68564955D01*
X106022500Y-68515466D01*
X106022500Y-68288798D01*
X106042185Y-68221759D01*
X106077614Y-68185693D01*
X106082457Y-68182457D01*
X106082456Y-68182457D01*
X106104669Y-68149213D01*
X106110500Y-68119899D01*
X106110500Y-68119894D01*
X106559500Y-68119894D01*
X106559501Y-68119902D01*
X106565330Y-68149212D01*
X106587542Y-68182457D01*
X106602838Y-68192676D01*
X106612075Y-68198848D01*
X106643511Y-68229073D01*
X106648753Y-68236289D01*
X106664192Y-68264726D01*
X106664938Y-68266669D01*
X106664940Y-68266673D01*
X106664942Y-68266675D01*
X106679568Y-68281301D01*
X106692206Y-68296097D01*
X106704372Y-68312842D01*
X106706172Y-68313881D01*
X106731856Y-68333589D01*
X107103769Y-68705502D01*
X107106004Y-68707857D01*
X107133291Y-68738162D01*
X107133292Y-68738163D01*
X107152199Y-68746581D01*
X107169294Y-68755862D01*
X107186651Y-68767134D01*
X107188704Y-68767459D01*
X107219737Y-68776652D01*
X107221640Y-68777499D01*
X107221643Y-68777500D01*
X107242337Y-68777500D01*
X107261735Y-68779026D01*
X107282172Y-68782264D01*
X107284184Y-68781724D01*
X107316276Y-68777500D01*
X108469746Y-68777500D01*
X108536785Y-68797185D01*
X108557422Y-68813814D01*
X108621658Y-68878050D01*
X108734696Y-68935646D01*
X108734697Y-68935646D01*
X108734699Y-68935647D01*
X108859997Y-68955492D01*
X108860000Y-68955492D01*
X108860003Y-68955492D01*
X108985300Y-68935647D01*
X108985301Y-68935647D01*
X108985302Y-68935646D01*
X108985304Y-68935646D01*
X109098342Y-68878050D01*
X109188050Y-68788342D01*
X109245646Y-68675304D01*
X109245646Y-68675302D01*
X109245647Y-68675301D01*
X109245647Y-68675300D01*
X109265492Y-68550003D01*
X109265492Y-68549996D01*
X109245647Y-68424699D01*
X109245647Y-68424698D01*
X109239726Y-68413078D01*
X109188050Y-68311658D01*
X109188046Y-68311654D01*
X109188045Y-68311652D01*
X109098347Y-68221954D01*
X109098344Y-68221952D01*
X109098342Y-68221950D01*
X108985304Y-68164354D01*
X108985303Y-68164353D01*
X108985300Y-68164352D01*
X108860003Y-68144508D01*
X108859997Y-68144508D01*
X108734699Y-68164352D01*
X108734698Y-68164352D01*
X108687925Y-68188185D01*
X108621658Y-68221950D01*
X108621657Y-68221951D01*
X108621656Y-68221951D01*
X108602068Y-68241540D01*
X108557425Y-68286182D01*
X108496105Y-68319666D01*
X108469746Y-68322500D01*
X107415596Y-68322500D01*
X107348557Y-68302815D01*
X107327915Y-68286181D01*
X107196818Y-68155084D01*
X107163333Y-68093761D01*
X107160499Y-68067403D01*
X107160499Y-67700105D01*
X107160498Y-67700097D01*
X107154669Y-67670787D01*
X107132457Y-67637542D01*
X107099214Y-67615332D01*
X107099215Y-67615332D01*
X107099213Y-67615331D01*
X107099211Y-67615330D01*
X107099208Y-67615329D01*
X107069901Y-67609500D01*
X106650105Y-67609500D01*
X106650097Y-67609501D01*
X106620787Y-67615330D01*
X106587542Y-67637542D01*
X106565332Y-67670785D01*
X106565329Y-67670791D01*
X106559500Y-67700098D01*
X106559500Y-68119894D01*
X106110500Y-68119894D01*
X106110499Y-67700102D01*
X106104669Y-67670787D01*
X106101652Y-67666272D01*
X106082457Y-67637542D01*
X106049214Y-67615332D01*
X106049215Y-67615332D01*
X106049213Y-67615331D01*
X106049211Y-67615330D01*
X106049208Y-67615329D01*
X106019901Y-67609500D01*
X105684499Y-67609500D01*
X105617460Y-67589815D01*
X105571705Y-67537011D01*
X105560499Y-67485503D01*
X105560499Y-67200102D01*
X105557334Y-67184187D01*
X105557335Y-67135808D01*
X105560500Y-67119899D01*
X105560499Y-66834497D01*
X105580183Y-66767460D01*
X105632987Y-66721705D01*
X105684495Y-66710499D01*
X106019898Y-66710499D01*
X106035812Y-66707334D01*
X106084189Y-66707334D01*
X106100101Y-66710500D01*
X106435500Y-66710499D01*
X106502539Y-66730183D01*
X106548294Y-66782987D01*
X106559500Y-66834499D01*
X106559500Y-67119894D01*
X106559501Y-67119902D01*
X106565330Y-67149212D01*
X106587542Y-67182457D01*
X106604219Y-67193599D01*
X106620787Y-67204669D01*
X106620790Y-67204669D01*
X106620791Y-67204670D01*
X106630647Y-67206630D01*
X106650101Y-67210500D01*
X107069898Y-67210499D01*
X107084555Y-67207584D01*
X107099209Y-67204670D01*
X107099209Y-67204669D01*
X107099213Y-67204669D01*
X107100751Y-67203640D01*
X107104624Y-67202428D01*
X107110496Y-67199996D01*
X107110713Y-67200521D01*
X107167425Y-67182760D01*
X107234806Y-67201241D01*
X107257326Y-67219059D01*
X107511181Y-67472914D01*
X107544666Y-67534237D01*
X107547500Y-67560595D01*
X107547500Y-67791352D01*
X107563018Y-67869370D01*
X107563019Y-67869371D01*
X107563019Y-67869372D01*
X107563020Y-67869373D01*
X107622143Y-67957857D01*
X107710627Y-68016980D01*
X107710628Y-68016980D01*
X107710629Y-68016981D01*
X107788647Y-68032499D01*
X107788651Y-68032500D01*
X107788652Y-68032500D01*
X108121349Y-68032500D01*
X108121350Y-68032499D01*
X108147591Y-68027279D01*
X108199370Y-68016981D01*
X108199370Y-68016980D01*
X108199373Y-68016980D01*
X108287857Y-67957857D01*
X108346980Y-67869373D01*
X108349749Y-67855456D01*
X108362499Y-67791352D01*
X108362500Y-67791348D01*
X108362500Y-67398651D01*
X108362499Y-67398647D01*
X108346981Y-67320629D01*
X108346980Y-67320628D01*
X108346980Y-67320627D01*
X108287857Y-67232143D01*
X108237607Y-67198567D01*
X108192804Y-67144955D01*
X108182500Y-67095466D01*
X108182500Y-67094533D01*
X108202185Y-67027494D01*
X108237610Y-66991431D01*
X108243883Y-66987239D01*
X108287857Y-66957857D01*
X108346980Y-66869373D01*
X108351954Y-66844370D01*
X108362499Y-66791352D01*
X108362500Y-66791348D01*
X108362500Y-66398651D01*
X108362499Y-66398647D01*
X108346981Y-66320629D01*
X108346980Y-66320628D01*
X108346980Y-66320627D01*
X108287857Y-66232143D01*
X108236909Y-66198100D01*
X108192105Y-66144490D01*
X108183398Y-66075166D01*
X108213552Y-66012138D01*
X108236906Y-65991901D01*
X108287857Y-65957857D01*
X108346980Y-65869373D01*
X108348162Y-65863434D01*
X108360289Y-65802463D01*
X108362500Y-65791348D01*
X108362500Y-65398652D01*
X108360795Y-65390078D01*
X108346981Y-65320629D01*
X108346980Y-65320628D01*
X108346980Y-65320627D01*
X108287857Y-65232143D01*
X108287856Y-65232142D01*
X108283815Y-65228101D01*
X108250333Y-65166776D01*
X108247500Y-65140423D01*
X108247500Y-64770254D01*
X108267185Y-64703215D01*
X108283814Y-64682577D01*
X108348050Y-64618342D01*
X108405646Y-64505304D01*
X108405646Y-64505302D01*
X108405647Y-64505301D01*
X108405647Y-64505300D01*
X108425492Y-64380003D01*
X108425492Y-64379997D01*
X108405045Y-64250898D01*
X108414000Y-64181604D01*
X108458996Y-64128152D01*
X108525748Y-64107513D01*
X108527518Y-64107500D01*
X108589405Y-64107500D01*
X108656444Y-64127185D01*
X108677086Y-64143819D01*
X109536181Y-65002914D01*
X109569666Y-65064237D01*
X109572500Y-65090595D01*
X109572500Y-65325860D01*
X109587728Y-65402418D01*
X109587731Y-65402425D01*
X109624701Y-65457755D01*
X109645579Y-65524432D01*
X109627094Y-65591812D01*
X109609282Y-65614325D01*
X109581952Y-65641655D01*
X109581951Y-65641657D01*
X109581950Y-65641658D01*
X109576528Y-65652299D01*
X109524352Y-65754698D01*
X109524352Y-65754699D01*
X109504508Y-65879996D01*
X109504508Y-65880003D01*
X109524352Y-66005300D01*
X109524352Y-66005301D01*
X109534620Y-66025452D01*
X109581950Y-66118342D01*
X109581952Y-66118344D01*
X109581954Y-66118347D01*
X109671652Y-66208045D01*
X109671654Y-66208046D01*
X109671658Y-66208050D01*
X109784696Y-66265646D01*
X109784697Y-66265646D01*
X109784699Y-66265647D01*
X109909997Y-66285492D01*
X109910000Y-66285492D01*
X109910003Y-66285492D01*
X110035300Y-66265647D01*
X110035301Y-66265647D01*
X110035302Y-66265646D01*
X110035304Y-66265646D01*
X110148342Y-66208050D01*
X110238050Y-66118342D01*
X110238053Y-66118335D01*
X110243787Y-66110445D01*
X110244717Y-66111120D01*
X110267233Y-66086116D01*
X110265397Y-66084281D01*
X110274616Y-66075060D01*
X110274618Y-66075060D01*
X110289256Y-66060420D01*
X110304039Y-66047794D01*
X110320787Y-66035628D01*
X110321827Y-66033825D01*
X110341532Y-66008144D01*
X110733539Y-65616137D01*
X110735838Y-65613956D01*
X110766163Y-65586653D01*
X110774585Y-65567736D01*
X110783863Y-65550648D01*
X110795134Y-65533294D01*
X110795458Y-65531242D01*
X110804654Y-65500199D01*
X110805500Y-65498302D01*
X110805500Y-65477608D01*
X110807027Y-65458208D01*
X110807456Y-65455500D01*
X110810264Y-65437773D01*
X110809967Y-65436664D01*
X110809725Y-65435759D01*
X110805500Y-65403668D01*
X110805500Y-65059987D01*
X110805500Y-64710523D01*
X110805582Y-64707362D01*
X110807718Y-64666616D01*
X110807717Y-64666615D01*
X110808064Y-64660008D01*
X110831231Y-64594091D01*
X110886358Y-64551164D01*
X110931894Y-64542500D01*
X111320499Y-64542500D01*
X111387538Y-64562185D01*
X111433293Y-64614989D01*
X111444499Y-64666500D01*
X111444499Y-65662403D01*
X111424814Y-65729442D01*
X111408180Y-65750084D01*
X111094484Y-66063781D01*
X111092130Y-66066014D01*
X111061837Y-66093290D01*
X111053416Y-66112203D01*
X111044137Y-66129292D01*
X111032867Y-66146647D01*
X111032866Y-66146649D01*
X111032541Y-66148704D01*
X111023351Y-66179732D01*
X111022500Y-66181643D01*
X111022500Y-66202342D01*
X111020973Y-66221736D01*
X111019168Y-66233137D01*
X111016294Y-66251280D01*
X110986362Y-66314414D01*
X110962718Y-66334976D01*
X110958078Y-66338076D01*
X110929898Y-66380250D01*
X110922500Y-66417441D01*
X110922500Y-66842558D01*
X110929898Y-66879749D01*
X110958077Y-66921922D01*
X111000250Y-66950101D01*
X111000252Y-66950102D01*
X111028205Y-66955662D01*
X111037441Y-66957500D01*
X111037442Y-66957500D01*
X111462559Y-66957500D01*
X111468729Y-66956272D01*
X111499748Y-66950102D01*
X111506105Y-66945853D01*
X111572781Y-66924973D01*
X111640162Y-66943455D01*
X111643881Y-66945845D01*
X111650252Y-66950102D01*
X111680042Y-66956028D01*
X111687441Y-66957500D01*
X111687442Y-66957500D01*
X112112559Y-66957500D01*
X112118729Y-66956272D01*
X112149748Y-66950102D01*
X112156105Y-66945853D01*
X112222781Y-66924973D01*
X112290162Y-66943455D01*
X112293881Y-66945845D01*
X112300252Y-66950102D01*
X112330042Y-66956028D01*
X112337441Y-66957500D01*
X112337442Y-66957500D01*
X112762559Y-66957500D01*
X112769957Y-66956028D01*
X112799748Y-66950102D01*
X112841922Y-66921922D01*
X112870102Y-66879748D01*
X112877500Y-66842558D01*
X112877500Y-66675594D01*
X112897185Y-66608556D01*
X112913817Y-66587916D01*
X112923029Y-66578704D01*
X112935529Y-66566203D01*
X112937849Y-66564001D01*
X112968163Y-66536708D01*
X112976585Y-66517790D01*
X112985859Y-66500711D01*
X112997134Y-66483350D01*
X112997458Y-66481303D01*
X113006655Y-66450254D01*
X113007500Y-66448357D01*
X113007500Y-66427657D01*
X113009027Y-66408258D01*
X113010194Y-66400890D01*
X113012263Y-66387828D01*
X113011725Y-66385821D01*
X113007500Y-66353734D01*
X113007500Y-65680253D01*
X113027185Y-65613214D01*
X113043814Y-65592577D01*
X113108050Y-65528342D01*
X113165646Y-65415304D01*
X113165646Y-65415302D01*
X113165647Y-65415301D01*
X113165647Y-65415300D01*
X113185492Y-65290003D01*
X113185492Y-65289996D01*
X113165647Y-65164699D01*
X113165647Y-65164698D01*
X113153278Y-65140423D01*
X113108050Y-65051658D01*
X113108046Y-65051654D01*
X113108045Y-65051652D01*
X113018347Y-64961954D01*
X113018344Y-64961952D01*
X113018342Y-64961950D01*
X112905304Y-64904354D01*
X112905303Y-64904353D01*
X112905300Y-64904352D01*
X112780003Y-64884508D01*
X112779997Y-64884508D01*
X112654699Y-64904352D01*
X112654695Y-64904354D01*
X112637793Y-64912966D01*
X112569123Y-64925862D01*
X112504383Y-64899585D01*
X112464127Y-64842478D01*
X112457499Y-64802481D01*
X112457499Y-63889666D01*
X112457499Y-62865988D01*
X112477184Y-62798953D01*
X112529988Y-62753198D01*
X112583908Y-62744221D01*
X112583908Y-62742230D01*
X112590000Y-62742230D01*
X112781624Y-62723357D01*
X112965883Y-62667462D01*
X113135698Y-62576694D01*
X113284541Y-62454541D01*
X113406694Y-62305698D01*
X113497462Y-62135883D01*
X113553357Y-61951624D01*
X113572230Y-61760000D01*
X113553357Y-61568376D01*
X113497462Y-61384117D01*
X113492510Y-61374853D01*
X113406697Y-61214307D01*
X113406693Y-61214300D01*
X113284541Y-61065458D01*
X113135699Y-60943306D01*
X113135692Y-60943302D01*
X112965884Y-60852538D01*
X112781626Y-60796643D01*
X112590000Y-60777770D01*
X112398373Y-60796643D01*
X112214115Y-60852538D01*
X112044307Y-60943302D01*
X112044300Y-60943306D01*
X111895458Y-61065458D01*
X111773306Y-61214300D01*
X111773302Y-61214307D01*
X111682538Y-61384115D01*
X111626643Y-61568373D01*
X111607770Y-61760000D01*
X111626643Y-61951626D01*
X111682538Y-62135884D01*
X111773302Y-62305692D01*
X111773306Y-62305699D01*
X111895457Y-62454540D01*
X111917335Y-62472494D01*
X111957165Y-62505181D01*
X111996499Y-62562925D01*
X112002500Y-62601034D01*
X112002500Y-63531403D01*
X111982815Y-63598442D01*
X111930011Y-63644197D01*
X111860853Y-63654141D01*
X111797297Y-63625116D01*
X111790819Y-63619084D01*
X111664211Y-63492476D01*
X111661976Y-63490121D01*
X111634708Y-63459837D01*
X111634706Y-63459835D01*
X111615797Y-63451416D01*
X111598702Y-63442134D01*
X111581350Y-63430865D01*
X111581347Y-63430864D01*
X111579296Y-63430540D01*
X111548265Y-63421348D01*
X111546363Y-63420501D01*
X111546357Y-63420500D01*
X111525657Y-63420500D01*
X111506260Y-63418973D01*
X111485828Y-63415737D01*
X111483819Y-63416275D01*
X111451727Y-63420500D01*
X109543595Y-63420500D01*
X109476556Y-63400815D01*
X109455914Y-63384181D01*
X108409396Y-62337662D01*
X108375911Y-62276339D01*
X108380895Y-62206647D01*
X108387719Y-62191527D01*
X108417461Y-62135884D01*
X108417462Y-62135883D01*
X108473357Y-61951624D01*
X108492230Y-61760000D01*
X108473357Y-61568376D01*
X108417462Y-61384117D01*
X108412510Y-61374853D01*
X108326697Y-61214307D01*
X108326693Y-61214300D01*
X108204541Y-61065458D01*
X108055699Y-60943306D01*
X108055692Y-60943302D01*
X107885884Y-60852538D01*
X107701626Y-60796643D01*
X107510000Y-60777770D01*
X107318373Y-60796643D01*
X107134115Y-60852538D01*
X106964307Y-60943302D01*
X106964300Y-60943306D01*
X106815458Y-61065458D01*
X106693306Y-61214300D01*
X106693302Y-61214307D01*
X106602538Y-61384115D01*
X106546643Y-61568373D01*
X106527770Y-61760000D01*
X106546643Y-61951626D01*
X106602538Y-62135884D01*
X106693302Y-62305692D01*
X106693306Y-62305699D01*
X106815458Y-62454541D01*
X106964300Y-62576693D01*
X106964307Y-62576697D01*
X107134115Y-62667461D01*
X107134117Y-62667462D01*
X107318376Y-62723357D01*
X107510000Y-62742230D01*
X107701624Y-62723357D01*
X107885883Y-62667462D01*
X107941528Y-62637718D01*
X108009929Y-62623477D01*
X108075173Y-62648476D01*
X108087662Y-62659396D01*
X108869085Y-63440819D01*
X108902570Y-63502142D01*
X108897586Y-63571834D01*
X108855714Y-63627767D01*
X108790250Y-63652184D01*
X108781404Y-63652500D01*
X108762657Y-63652500D01*
X108743260Y-63650973D01*
X108722828Y-63647737D01*
X108720819Y-63648275D01*
X108688727Y-63652500D01*
X107067577Y-63652500D01*
X107064333Y-63652415D01*
X107036819Y-63650973D01*
X107023617Y-63650281D01*
X107023616Y-63650281D01*
X107023615Y-63650281D01*
X107023611Y-63650282D01*
X107004287Y-63657699D01*
X106985640Y-63663223D01*
X106965400Y-63667525D01*
X106965396Y-63667527D01*
X106963705Y-63668756D01*
X106935285Y-63684187D01*
X106933331Y-63684937D01*
X106933327Y-63684939D01*
X106918692Y-63699574D01*
X106903903Y-63712204D01*
X106887161Y-63724368D01*
X106887155Y-63724374D01*
X106886115Y-63726177D01*
X106866415Y-63751849D01*
X106762086Y-63856180D01*
X106700763Y-63889666D01*
X106674404Y-63892500D01*
X106565596Y-63892500D01*
X106498557Y-63872815D01*
X106477915Y-63856181D01*
X105893819Y-63272085D01*
X105860334Y-63210762D01*
X105857500Y-63184404D01*
X105857500Y-62539533D01*
X105877185Y-62472494D01*
X105912610Y-62436431D01*
X105918883Y-62432239D01*
X105962857Y-62402857D01*
X106021980Y-62314373D01*
X106023706Y-62305699D01*
X106037499Y-62236352D01*
X106037500Y-62236348D01*
X106037500Y-61843651D01*
X106037499Y-61843647D01*
X106021981Y-61765629D01*
X106021980Y-61765628D01*
X106021980Y-61765627D01*
X105962857Y-61677143D01*
X105874373Y-61618020D01*
X105874372Y-61618019D01*
X105874371Y-61618019D01*
X105874370Y-61618018D01*
X105796352Y-61602500D01*
X105796348Y-61602500D01*
X105565596Y-61602500D01*
X105498557Y-61582815D01*
X105477915Y-61566181D01*
X105259219Y-61347485D01*
X105256984Y-61345130D01*
X105229706Y-61314835D01*
X105210797Y-61306416D01*
X105193702Y-61297134D01*
X105176350Y-61285865D01*
X105176347Y-61285864D01*
X105174296Y-61285540D01*
X105143265Y-61276348D01*
X105141363Y-61275501D01*
X105141357Y-61275500D01*
X105120657Y-61275500D01*
X105101260Y-61273973D01*
X105080828Y-61270737D01*
X105078819Y-61271275D01*
X105046727Y-61275500D01*
X104364565Y-61275500D01*
X104361321Y-61275415D01*
X104348589Y-61274747D01*
X104320618Y-61273282D01*
X104320617Y-61273282D01*
X104320616Y-61273282D01*
X104320614Y-61273282D01*
X104320611Y-61273283D01*
X104301293Y-61280698D01*
X104282647Y-61286221D01*
X104262400Y-61290525D01*
X104262394Y-61290528D01*
X104260707Y-61291754D01*
X104232279Y-61307189D01*
X104230333Y-61307936D01*
X104230327Y-61307940D01*
X104215692Y-61322574D01*
X104200903Y-61335204D01*
X104184159Y-61347369D01*
X104184157Y-61347372D01*
X104183113Y-61349181D01*
X104163412Y-61374853D01*
X102664484Y-62873781D01*
X102662130Y-62876015D01*
X102631837Y-62903290D01*
X102623416Y-62922203D01*
X102614137Y-62939292D01*
X102602867Y-62956647D01*
X102602866Y-62956649D01*
X102602541Y-62958704D01*
X102593351Y-62989732D01*
X102592500Y-62991643D01*
X102592500Y-63012342D01*
X102590973Y-63031740D01*
X102587736Y-63052171D01*
X102587737Y-63052174D01*
X102588275Y-63054182D01*
X102592499Y-63086272D01*
X102592500Y-64055909D01*
X102572816Y-64122948D01*
X102520012Y-64168703D01*
X102450853Y-64178647D01*
X102387297Y-64149622D01*
X102369036Y-64129956D01*
X102277769Y-64007363D01*
X102277766Y-64007359D01*
X102147489Y-63898044D01*
X102147487Y-63898043D01*
X101995517Y-63821720D01*
X101995515Y-63821719D01*
X101995514Y-63821719D01*
X101830033Y-63782500D01*
X101152624Y-63782500D01*
X101041902Y-63795441D01*
X101026084Y-63797290D01*
X100866277Y-63855455D01*
X100724186Y-63948909D01*
X100607484Y-64072605D01*
X100522451Y-64219887D01*
X100473675Y-64382809D01*
X100473674Y-64382815D01*
X100463786Y-64552587D01*
X100463786Y-64552588D01*
X100493316Y-64720063D01*
X100493317Y-64720066D01*
X100493318Y-64720070D01*
X100544907Y-64839666D01*
X100560677Y-64876226D01*
X100620674Y-64956817D01*
X100662233Y-65012640D01*
X100792511Y-65121956D01*
X100944486Y-65198281D01*
X100997489Y-65210842D01*
X101058181Y-65245456D01*
X101090525Y-65307388D01*
X101084252Y-65376976D01*
X101041353Y-65432125D01*
X100975448Y-65455327D01*
X100968892Y-65455500D01*
X100304565Y-65455500D01*
X100301321Y-65455415D01*
X100288589Y-65454747D01*
X100260618Y-65453282D01*
X100260613Y-65453282D01*
X100241291Y-65460699D01*
X100222648Y-65466221D01*
X100202399Y-65470526D01*
X100202395Y-65470528D01*
X100200709Y-65471753D01*
X100172275Y-65487191D01*
X100170330Y-65487937D01*
X100170325Y-65487941D01*
X100155691Y-65502574D01*
X100140904Y-65515203D01*
X100124159Y-65527370D01*
X100124154Y-65527374D01*
X100123112Y-65529181D01*
X100103412Y-65554852D01*
X99884302Y-65773962D01*
X99822979Y-65807447D01*
X99753287Y-65802463D01*
X99697354Y-65760591D01*
X99672937Y-65695127D01*
X99674147Y-65666885D01*
X99676131Y-65654352D01*
X99676134Y-65654349D01*
X99676460Y-65652286D01*
X99685654Y-65621254D01*
X99686500Y-65619357D01*
X99686500Y-65598663D01*
X99688027Y-65579263D01*
X99691264Y-65558828D01*
X99691135Y-65558349D01*
X99690725Y-65556814D01*
X99686500Y-65524723D01*
X99686500Y-64456595D01*
X99706185Y-64389556D01*
X99722819Y-64368914D01*
X103637915Y-60453819D01*
X103699238Y-60420334D01*
X103725596Y-60417500D01*
X106402435Y-60417500D01*
X106405678Y-60417584D01*
X106446384Y-60419718D01*
X106465700Y-60412302D01*
X106484352Y-60406777D01*
X106504600Y-60402474D01*
X106506275Y-60401256D01*
X106534735Y-60385803D01*
X106536673Y-60385060D01*
X106551311Y-60370420D01*
X106566094Y-60357794D01*
X106582842Y-60345628D01*
X106583882Y-60343825D01*
X106603587Y-60318144D01*
X106905539Y-60016192D01*
X106907838Y-60014011D01*
X106938163Y-59986708D01*
X106946580Y-59967801D01*
X106955866Y-59950698D01*
X106967134Y-59933349D01*
X106967459Y-59931292D01*
X106976654Y-59900256D01*
X106977500Y-59898357D01*
X106977499Y-59877661D01*
X106979026Y-59858262D01*
X106982264Y-59837828D01*
X106981725Y-59835815D01*
X106977500Y-59803724D01*
X106977500Y-57195595D01*
X106997185Y-57128556D01*
X107013819Y-57107914D01*
X107877915Y-56243819D01*
X107939238Y-56210334D01*
X107965596Y-56207500D01*
X108196349Y-56207500D01*
X108196350Y-56207499D01*
X108222591Y-56202279D01*
X108274370Y-56191981D01*
X108274371Y-56191980D01*
X108274373Y-56191980D01*
X108319610Y-56161753D01*
X108386285Y-56140875D01*
X108453666Y-56159359D01*
X108500356Y-56211337D01*
X108512500Y-56264855D01*
X108512500Y-56462558D01*
X108519898Y-56499749D01*
X108521059Y-56502551D01*
X108521767Y-56509144D01*
X108522281Y-56511725D01*
X108522049Y-56511770D01*
X108528525Y-56572021D01*
X108521059Y-56597449D01*
X108519898Y-56600250D01*
X108512500Y-56637441D01*
X108512500Y-56954403D01*
X108492815Y-57021442D01*
X108476181Y-57042084D01*
X107634484Y-57883781D01*
X107632130Y-57886015D01*
X107601837Y-57913290D01*
X107593416Y-57932203D01*
X107584137Y-57949292D01*
X107572867Y-57966647D01*
X107572866Y-57966649D01*
X107572865Y-57966650D01*
X107572866Y-57966650D01*
X107572539Y-57968708D01*
X107563351Y-57999731D01*
X107562499Y-58001643D01*
X107562499Y-58022344D01*
X107560973Y-58041731D01*
X107557736Y-58062170D01*
X107557736Y-58062171D01*
X107558273Y-58064172D01*
X107562500Y-58096272D01*
X107562500Y-58301411D01*
X107542815Y-58368450D01*
X107507391Y-58404513D01*
X107415747Y-58465747D01*
X107357730Y-58552577D01*
X107357728Y-58552581D01*
X107342500Y-58629139D01*
X107342500Y-58950860D01*
X107357728Y-59027418D01*
X107357729Y-59027421D01*
X107357730Y-59027423D01*
X107369643Y-59045252D01*
X107415747Y-59114252D01*
X107450526Y-59137490D01*
X107502577Y-59172270D01*
X107502580Y-59172270D01*
X107502581Y-59172271D01*
X107579139Y-59187499D01*
X107579143Y-59187500D01*
X107579144Y-59187500D01*
X108000857Y-59187500D01*
X108000858Y-59187499D01*
X108077423Y-59172270D01*
X108164252Y-59114252D01*
X108222270Y-59027423D01*
X108237500Y-58950856D01*
X108237500Y-58629144D01*
X108236126Y-58622238D01*
X108222271Y-58552581D01*
X108222270Y-58552580D01*
X108222270Y-58552577D01*
X108184127Y-58495492D01*
X108164252Y-58465747D01*
X108072609Y-58404513D01*
X108027804Y-58350900D01*
X108017500Y-58301412D01*
X108017500Y-58252269D01*
X108017500Y-58195592D01*
X108037183Y-58128557D01*
X108053813Y-58107919D01*
X108275638Y-57886094D01*
X108336959Y-57852611D01*
X108406651Y-57857595D01*
X108462584Y-57899467D01*
X108478453Y-57936957D01*
X108481337Y-57936020D01*
X108484352Y-57945301D01*
X108498459Y-57972987D01*
X108541950Y-58058342D01*
X108541952Y-58058344D01*
X108541954Y-58058347D01*
X108631652Y-58148045D01*
X108631654Y-58148046D01*
X108631658Y-58148050D01*
X108744696Y-58205646D01*
X108744697Y-58205646D01*
X108744699Y-58205647D01*
X108869997Y-58225492D01*
X108870000Y-58225492D01*
X108870003Y-58225492D01*
X108995300Y-58205647D01*
X108995301Y-58205647D01*
X108995302Y-58205646D01*
X108995304Y-58205646D01*
X109108342Y-58148050D01*
X109198050Y-58058342D01*
X109255646Y-57945304D01*
X109255646Y-57945302D01*
X109255647Y-57945301D01*
X109265657Y-57882102D01*
X109295586Y-57818967D01*
X109354898Y-57782036D01*
X109388130Y-57777500D01*
X109388500Y-57777500D01*
X109455539Y-57797185D01*
X109501294Y-57849989D01*
X109512500Y-57901500D01*
X109512500Y-57962558D01*
X109519898Y-57999748D01*
X109541601Y-58032229D01*
X109562480Y-58098904D01*
X109562500Y-58101120D01*
X109562500Y-58290466D01*
X109542815Y-58357505D01*
X109507392Y-58393567D01*
X109459727Y-58425417D01*
X109457142Y-58427144D01*
X109398019Y-58515628D01*
X109398018Y-58515629D01*
X109382500Y-58593647D01*
X109382500Y-58986352D01*
X109398018Y-59064370D01*
X109398019Y-59064371D01*
X109398019Y-59064372D01*
X109398020Y-59064373D01*
X109457143Y-59152857D01*
X109545627Y-59211980D01*
X109545628Y-59211980D01*
X109545629Y-59211981D01*
X109623647Y-59227499D01*
X109623651Y-59227500D01*
X109623652Y-59227500D01*
X109956349Y-59227500D01*
X109956350Y-59227499D01*
X109982591Y-59222279D01*
X110034370Y-59211981D01*
X110034370Y-59211980D01*
X110034373Y-59211980D01*
X110122857Y-59152857D01*
X110181980Y-59064373D01*
X110184182Y-59053306D01*
X110197499Y-58986352D01*
X110197500Y-58986348D01*
X110197500Y-58593651D01*
X110197499Y-58593647D01*
X110181981Y-58515629D01*
X110181980Y-58515628D01*
X110181980Y-58515627D01*
X110122857Y-58427143D01*
X110072607Y-58393567D01*
X110027804Y-58339955D01*
X110017500Y-58290466D01*
X110017500Y-58201500D01*
X110037185Y-58134461D01*
X110089989Y-58088706D01*
X110141500Y-58077500D01*
X110452559Y-58077500D01*
X110459957Y-58076028D01*
X110489748Y-58070102D01*
X110531922Y-58041922D01*
X110560102Y-57999748D01*
X110567500Y-57962558D01*
X110567500Y-57137442D01*
X110560102Y-57100252D01*
X110557443Y-57096272D01*
X110531922Y-57058077D01*
X110489749Y-57029898D01*
X110452559Y-57022500D01*
X110452558Y-57022500D01*
X110127442Y-57022500D01*
X110127441Y-57022500D01*
X110090250Y-57029898D01*
X110087449Y-57031059D01*
X110080855Y-57031767D01*
X110078275Y-57032281D01*
X110078229Y-57032049D01*
X110017979Y-57038525D01*
X109992551Y-57031059D01*
X109989749Y-57029898D01*
X109952559Y-57022500D01*
X109952558Y-57022500D01*
X109691500Y-57022500D01*
X109624461Y-57002815D01*
X109578706Y-56950011D01*
X109567500Y-56898500D01*
X109567500Y-56637441D01*
X109565034Y-56625045D01*
X109560102Y-56600252D01*
X109560099Y-56600248D01*
X109558943Y-56597456D01*
X109558234Y-56590865D01*
X109557719Y-56588275D01*
X109557950Y-56588228D01*
X109551473Y-56527987D01*
X109558943Y-56502544D01*
X109560098Y-56499752D01*
X109560102Y-56499748D01*
X109567500Y-56462558D01*
X109567500Y-56137442D01*
X109560102Y-56100252D01*
X109560099Y-56100248D01*
X109558943Y-56097456D01*
X109558234Y-56090865D01*
X109557719Y-56088275D01*
X109557950Y-56088228D01*
X109551473Y-56027987D01*
X109558943Y-56002544D01*
X109560098Y-55999752D01*
X109560102Y-55999748D01*
X109567500Y-55962558D01*
X109567500Y-55637442D01*
X109560102Y-55600252D01*
X109560099Y-55600248D01*
X109558943Y-55597456D01*
X109558234Y-55590865D01*
X109557719Y-55588275D01*
X109557950Y-55588228D01*
X109551473Y-55527987D01*
X109558943Y-55502544D01*
X109560098Y-55499752D01*
X109560102Y-55499748D01*
X109567500Y-55462558D01*
X109567500Y-55137442D01*
X109560102Y-55100252D01*
X109548201Y-55082441D01*
X109531922Y-55058077D01*
X109489747Y-55029897D01*
X109487289Y-55028879D01*
X109482755Y-55025225D01*
X109479594Y-55023113D01*
X109479783Y-55022830D01*
X109432887Y-54985037D01*
X109410823Y-54918743D01*
X109422797Y-54864636D01*
X109422631Y-54864583D01*
X109423189Y-54862864D01*
X109424261Y-54858021D01*
X109425646Y-54855304D01*
X109425647Y-54855299D01*
X109445492Y-54730003D01*
X109445492Y-54729996D01*
X109425647Y-54604699D01*
X109425647Y-54604698D01*
X109425646Y-54604696D01*
X109368050Y-54491658D01*
X109368046Y-54491654D01*
X109368045Y-54491652D01*
X109278347Y-54401954D01*
X109278344Y-54401952D01*
X109278342Y-54401950D01*
X109165304Y-54344354D01*
X109165303Y-54344353D01*
X109165300Y-54344352D01*
X109040003Y-54324508D01*
X109039997Y-54324508D01*
X108914699Y-54344352D01*
X108914698Y-54344352D01*
X108839337Y-54382751D01*
X108801658Y-54401950D01*
X108801656Y-54401951D01*
X108801657Y-54401951D01*
X108801652Y-54401954D01*
X108711954Y-54491652D01*
X108711951Y-54491657D01*
X108711950Y-54491658D01*
X108699827Y-54515450D01*
X108654352Y-54604698D01*
X108654352Y-54604699D01*
X108634508Y-54729996D01*
X108634508Y-54730003D01*
X108654352Y-54855300D01*
X108654353Y-54855302D01*
X108655741Y-54858026D01*
X108656429Y-54861690D01*
X108657369Y-54864583D01*
X108656995Y-54864704D01*
X108668636Y-54926695D01*
X108642358Y-54991435D01*
X108600389Y-55023088D01*
X108600406Y-55023113D01*
X108599973Y-55023401D01*
X108592713Y-55028878D01*
X108590252Y-55029897D01*
X108548077Y-55058077D01*
X108519898Y-55100250D01*
X108512500Y-55137441D01*
X108512500Y-55335144D01*
X108492815Y-55402183D01*
X108440011Y-55447938D01*
X108370853Y-55457882D01*
X108319609Y-55438246D01*
X108274373Y-55408020D01*
X108274372Y-55408019D01*
X108274371Y-55408019D01*
X108274370Y-55408018D01*
X108196352Y-55392500D01*
X108196348Y-55392500D01*
X107803652Y-55392500D01*
X107803647Y-55392500D01*
X107725629Y-55408018D01*
X107725628Y-55408019D01*
X107637143Y-55467143D01*
X107578019Y-55555628D01*
X107578018Y-55555629D01*
X107562500Y-55633647D01*
X107562500Y-55864403D01*
X107542815Y-55931442D01*
X107526181Y-55952084D01*
X106594484Y-56883781D01*
X106592130Y-56886015D01*
X106561837Y-56913290D01*
X106553416Y-56932203D01*
X106544137Y-56949292D01*
X106532867Y-56966647D01*
X106532866Y-56966649D01*
X106532865Y-56966650D01*
X106532866Y-56966650D01*
X106532539Y-56968708D01*
X106523351Y-56999731D01*
X106522499Y-57001643D01*
X106522499Y-57022344D01*
X106520973Y-57041731D01*
X106517736Y-57062170D01*
X106517736Y-57062171D01*
X106518273Y-57064172D01*
X106522500Y-57096272D01*
X106522500Y-57612671D01*
X106502815Y-57679710D01*
X106450011Y-57725465D01*
X106380853Y-57735409D01*
X106342206Y-57723156D01*
X106305304Y-57704353D01*
X106305300Y-57704352D01*
X106180003Y-57684508D01*
X106179997Y-57684508D01*
X106054699Y-57704352D01*
X106054698Y-57704352D01*
X105993747Y-57735409D01*
X105941658Y-57761950D01*
X105941657Y-57761951D01*
X105941652Y-57761954D01*
X105851954Y-57851652D01*
X105851951Y-57851657D01*
X105851950Y-57851658D01*
X105834997Y-57884930D01*
X105794352Y-57964698D01*
X105794352Y-57964699D01*
X105774508Y-58089996D01*
X105774508Y-58090000D01*
X105776076Y-58099900D01*
X105767122Y-58169194D01*
X105741284Y-58206980D01*
X104817085Y-59131181D01*
X104755762Y-59164666D01*
X104729404Y-59167500D01*
X101825063Y-59167500D01*
X101758024Y-59147815D01*
X101712269Y-59095011D01*
X101702325Y-59025853D01*
X101731350Y-58962297D01*
X101755196Y-58941535D01*
X101756669Y-58940061D01*
X101756673Y-58940060D01*
X101771311Y-58925420D01*
X101786094Y-58912794D01*
X101802842Y-58900628D01*
X101803882Y-58898825D01*
X101823587Y-58873144D01*
X102253039Y-58443692D01*
X102255338Y-58441511D01*
X102285663Y-58414208D01*
X102294082Y-58395295D01*
X102303364Y-58378202D01*
X102314634Y-58360849D01*
X102314957Y-58358804D01*
X102324155Y-58327754D01*
X102325000Y-58325857D01*
X102325000Y-58305156D01*
X102326527Y-58285758D01*
X102326792Y-58284085D01*
X102329763Y-58265328D01*
X102329225Y-58263320D01*
X102324999Y-58231235D01*
X102324999Y-57028093D01*
X102344684Y-56961055D01*
X102361313Y-56940418D01*
X104685549Y-54616183D01*
X104687848Y-54614002D01*
X104718163Y-54586708D01*
X104726585Y-54567790D01*
X104735859Y-54550711D01*
X104747134Y-54533350D01*
X104747458Y-54531303D01*
X104756655Y-54500254D01*
X104757500Y-54498357D01*
X104757500Y-54477657D01*
X104759027Y-54458258D01*
X104759583Y-54454748D01*
X104762263Y-54437828D01*
X104761725Y-54435819D01*
X104757500Y-54403727D01*
X104757500Y-54283588D01*
X104777185Y-54216549D01*
X104812609Y-54180486D01*
X104817421Y-54177270D01*
X104817423Y-54177270D01*
X104904252Y-54119252D01*
X104962270Y-54032423D01*
X104977500Y-53955856D01*
X104977500Y-53634144D01*
X104971166Y-53602300D01*
X104962753Y-53560003D01*
X109884508Y-53560003D01*
X109904352Y-53685300D01*
X109904352Y-53685301D01*
X109912636Y-53701558D01*
X109961950Y-53798342D01*
X110026181Y-53862573D01*
X110059665Y-53923894D01*
X110062499Y-53950253D01*
X110062499Y-53998879D01*
X110042814Y-54065918D01*
X110041602Y-54067769D01*
X110019898Y-54100251D01*
X110012500Y-54137441D01*
X110012500Y-54962558D01*
X110019898Y-54999749D01*
X110048077Y-55041922D01*
X110090250Y-55070101D01*
X110090252Y-55070102D01*
X110118205Y-55075662D01*
X110127441Y-55077500D01*
X110127442Y-55077500D01*
X110452559Y-55077500D01*
X110461855Y-55075650D01*
X110489748Y-55070102D01*
X110489752Y-55070098D01*
X110492544Y-55068943D01*
X110499134Y-55068234D01*
X110501725Y-55067719D01*
X110501771Y-55067950D01*
X110562013Y-55061473D01*
X110587456Y-55068943D01*
X110590248Y-55070099D01*
X110590252Y-55070102D01*
X110615045Y-55075034D01*
X110627441Y-55077500D01*
X110627442Y-55077500D01*
X110952559Y-55077500D01*
X110961855Y-55075650D01*
X110989748Y-55070102D01*
X110989752Y-55070098D01*
X110992544Y-55068943D01*
X110999134Y-55068234D01*
X111001725Y-55067719D01*
X111001771Y-55067950D01*
X111062013Y-55061473D01*
X111087456Y-55068943D01*
X111090248Y-55070099D01*
X111090252Y-55070102D01*
X111115045Y-55075034D01*
X111127441Y-55077500D01*
X111127442Y-55077500D01*
X111452559Y-55077500D01*
X111459957Y-55076028D01*
X111489748Y-55070102D01*
X111531922Y-55041922D01*
X111560102Y-54999748D01*
X111567500Y-54962558D01*
X111567500Y-54943254D01*
X111587185Y-54876215D01*
X111639989Y-54830460D01*
X111709147Y-54820516D01*
X111772703Y-54849541D01*
X111779168Y-54855560D01*
X111801658Y-54878050D01*
X111914696Y-54935646D01*
X111914697Y-54935646D01*
X111914699Y-54935647D01*
X112039997Y-54955492D01*
X112040000Y-54955492D01*
X112040003Y-54955492D01*
X112165300Y-54935647D01*
X112165301Y-54935647D01*
X112165302Y-54935646D01*
X112165304Y-54935646D01*
X112278342Y-54878050D01*
X112363834Y-54792558D01*
X115467500Y-54792558D01*
X115474898Y-54829749D01*
X115503077Y-54871922D01*
X115545250Y-54900101D01*
X115545252Y-54900102D01*
X115573205Y-54905662D01*
X115582441Y-54907500D01*
X115582442Y-54907500D01*
X116557559Y-54907500D01*
X116564957Y-54906028D01*
X116594748Y-54900102D01*
X116636922Y-54871922D01*
X116665102Y-54829748D01*
X116672500Y-54792558D01*
X116672500Y-53817442D01*
X116671968Y-53814770D01*
X116668701Y-53798343D01*
X116665102Y-53780252D01*
X116661794Y-53775301D01*
X116636922Y-53738077D01*
X116594749Y-53709898D01*
X116557559Y-53702500D01*
X116557558Y-53702500D01*
X116421500Y-53702500D01*
X116354461Y-53682815D01*
X116308706Y-53630011D01*
X116297500Y-53578500D01*
X116297500Y-53550254D01*
X116317185Y-53483215D01*
X116333814Y-53462577D01*
X116398050Y-53398342D01*
X116455646Y-53285304D01*
X116455646Y-53285302D01*
X116455647Y-53285301D01*
X116455647Y-53285300D01*
X116475492Y-53160003D01*
X116475492Y-53159996D01*
X116455647Y-53034699D01*
X116455647Y-53034698D01*
X116455646Y-53034696D01*
X116398050Y-52921658D01*
X116398046Y-52921654D01*
X116398045Y-52921652D01*
X116308347Y-52831954D01*
X116308344Y-52831952D01*
X116308342Y-52831950D01*
X116195304Y-52774354D01*
X116195303Y-52774353D01*
X116195300Y-52774352D01*
X116070003Y-52754508D01*
X116069997Y-52754508D01*
X115944699Y-52774352D01*
X115944698Y-52774352D01*
X115869337Y-52812751D01*
X115831658Y-52831950D01*
X115831657Y-52831951D01*
X115831652Y-52831954D01*
X115741954Y-52921652D01*
X115741951Y-52921657D01*
X115684352Y-53034698D01*
X115684352Y-53034699D01*
X115664508Y-53159996D01*
X115664508Y-53160003D01*
X115684352Y-53285300D01*
X115684352Y-53285301D01*
X115697831Y-53311754D01*
X115741950Y-53398342D01*
X115806182Y-53462574D01*
X115839666Y-53523895D01*
X115842500Y-53550254D01*
X115842500Y-53578500D01*
X115822815Y-53645539D01*
X115770011Y-53691294D01*
X115718500Y-53702500D01*
X115582441Y-53702500D01*
X115545250Y-53709898D01*
X115503077Y-53738077D01*
X115474898Y-53780250D01*
X115467500Y-53817441D01*
X115467500Y-54792558D01*
X112363834Y-54792558D01*
X112368050Y-54788342D01*
X112425646Y-54675304D01*
X112425646Y-54675302D01*
X112425647Y-54675301D01*
X112425647Y-54675300D01*
X112445492Y-54550003D01*
X112445492Y-54549996D01*
X112425647Y-54424699D01*
X112425647Y-54424698D01*
X112422009Y-54417558D01*
X112368050Y-54311658D01*
X112368046Y-54311654D01*
X112368045Y-54311652D01*
X112278347Y-54221954D01*
X112278343Y-54221951D01*
X112278342Y-54221950D01*
X112255839Y-54210484D01*
X112205043Y-54162511D01*
X112188248Y-54094690D01*
X112210785Y-54028555D01*
X112255838Y-53989515D01*
X112278342Y-53978050D01*
X112368050Y-53888342D01*
X112425646Y-53775304D01*
X112425646Y-53775302D01*
X112425647Y-53775301D01*
X112425647Y-53775300D01*
X112445492Y-53650003D01*
X112445492Y-53649996D01*
X112425647Y-53524699D01*
X112425647Y-53524698D01*
X112408470Y-53490987D01*
X112368050Y-53411658D01*
X112368046Y-53411654D01*
X112368045Y-53411652D01*
X112306396Y-53350003D01*
X113414508Y-53350003D01*
X113434352Y-53475300D01*
X113434352Y-53475301D01*
X113444992Y-53496182D01*
X113491950Y-53588342D01*
X113491952Y-53588344D01*
X113491954Y-53588347D01*
X113581652Y-53678045D01*
X113581654Y-53678046D01*
X113581658Y-53678050D01*
X113694696Y-53735646D01*
X113694697Y-53735646D01*
X113694699Y-53735647D01*
X113819997Y-53755492D01*
X113820000Y-53755492D01*
X113820003Y-53755492D01*
X113945300Y-53735647D01*
X113945302Y-53735646D01*
X113945304Y-53735646D01*
X114012205Y-53701557D01*
X114080873Y-53688661D01*
X114145614Y-53714937D01*
X114185871Y-53772043D01*
X114192500Y-53812042D01*
X114192500Y-54417558D01*
X114199898Y-54454749D01*
X114228077Y-54496922D01*
X114270250Y-54525101D01*
X114270252Y-54525102D01*
X114298205Y-54530662D01*
X114307441Y-54532500D01*
X114307442Y-54532500D01*
X115082559Y-54532500D01*
X115089957Y-54531028D01*
X115119748Y-54525102D01*
X115161922Y-54496922D01*
X115190102Y-54454748D01*
X115197500Y-54417558D01*
X115197500Y-52892442D01*
X115190102Y-52855252D01*
X115174532Y-52831950D01*
X115161922Y-52813077D01*
X115119749Y-52784898D01*
X115082559Y-52777500D01*
X115082558Y-52777500D01*
X114307442Y-52777500D01*
X114307441Y-52777500D01*
X114270250Y-52784898D01*
X114228077Y-52813077D01*
X114199898Y-52855250D01*
X114192499Y-52892444D01*
X114191903Y-52898501D01*
X114189474Y-52898261D01*
X114172815Y-52954996D01*
X114120011Y-53000751D01*
X114050853Y-53010695D01*
X114012205Y-52998442D01*
X113945300Y-52964352D01*
X113820003Y-52944508D01*
X113819997Y-52944508D01*
X113694699Y-52964352D01*
X113694698Y-52964352D01*
X113627795Y-52998442D01*
X113581658Y-53021950D01*
X113581656Y-53021951D01*
X113581657Y-53021951D01*
X113581652Y-53021954D01*
X113491954Y-53111652D01*
X113491951Y-53111657D01*
X113434352Y-53224698D01*
X113434352Y-53224699D01*
X113414508Y-53349996D01*
X113414508Y-53350003D01*
X112306396Y-53350003D01*
X112278347Y-53321954D01*
X112278344Y-53321952D01*
X112278342Y-53321950D01*
X112165304Y-53264354D01*
X112165303Y-53264353D01*
X112165300Y-53264352D01*
X112040003Y-53244508D01*
X112039997Y-53244508D01*
X111914699Y-53264352D01*
X111914698Y-53264352D01*
X111839337Y-53302751D01*
X111801658Y-53321950D01*
X111801657Y-53321951D01*
X111801656Y-53321951D01*
X111784751Y-53338857D01*
X111737425Y-53386182D01*
X111676105Y-53419666D01*
X111649746Y-53422500D01*
X111097565Y-53422500D01*
X111094321Y-53422415D01*
X111081589Y-53421747D01*
X111053618Y-53420282D01*
X111053617Y-53420282D01*
X111053616Y-53420282D01*
X111053614Y-53420282D01*
X111053611Y-53420283D01*
X111034293Y-53427698D01*
X111015647Y-53433221D01*
X110995401Y-53437525D01*
X110995399Y-53437526D01*
X110995400Y-53437526D01*
X110993710Y-53438753D01*
X110965274Y-53454192D01*
X110963330Y-53454938D01*
X110963326Y-53454940D01*
X110948692Y-53469574D01*
X110933906Y-53482202D01*
X110917157Y-53494372D01*
X110917153Y-53494376D01*
X110916111Y-53496182D01*
X110896418Y-53521847D01*
X110889839Y-53528427D01*
X110828518Y-53561916D01*
X110758826Y-53556937D01*
X110702890Y-53515070D01*
X110679678Y-53460149D01*
X110675647Y-53434699D01*
X110675647Y-53434698D01*
X110669962Y-53423541D01*
X110618050Y-53321658D01*
X110618046Y-53321654D01*
X110618045Y-53321652D01*
X110528347Y-53231954D01*
X110528344Y-53231952D01*
X110528342Y-53231950D01*
X110415304Y-53174354D01*
X110415303Y-53174353D01*
X110415300Y-53174352D01*
X110290003Y-53154508D01*
X110289997Y-53154508D01*
X110164699Y-53174352D01*
X110164698Y-53174352D01*
X110089337Y-53212751D01*
X110051658Y-53231950D01*
X110051656Y-53231951D01*
X110051657Y-53231951D01*
X110051652Y-53231954D01*
X109961954Y-53321652D01*
X109961951Y-53321657D01*
X109961950Y-53321658D01*
X109942751Y-53359337D01*
X109904352Y-53434698D01*
X109904352Y-53434699D01*
X109884508Y-53559996D01*
X109884508Y-53560003D01*
X104962753Y-53560003D01*
X104962271Y-53557581D01*
X104962270Y-53557580D01*
X104962270Y-53557577D01*
X104919504Y-53493574D01*
X104904252Y-53470747D01*
X104852201Y-53435968D01*
X104817423Y-53412730D01*
X104817421Y-53412729D01*
X104817418Y-53412728D01*
X104740860Y-53397500D01*
X104740856Y-53397500D01*
X104319144Y-53397500D01*
X104319139Y-53397500D01*
X104242581Y-53412728D01*
X104242577Y-53412730D01*
X104155747Y-53470747D01*
X104097730Y-53557577D01*
X104097728Y-53557581D01*
X104082500Y-53634139D01*
X104082500Y-53955860D01*
X104097728Y-54032418D01*
X104097729Y-54032421D01*
X104097730Y-54032423D01*
X104115946Y-54059685D01*
X104155747Y-54119252D01*
X104182969Y-54137441D01*
X104242577Y-54177270D01*
X104242578Y-54177270D01*
X104247391Y-54180486D01*
X104292196Y-54234098D01*
X104302500Y-54283588D01*
X104302500Y-54304403D01*
X104282815Y-54371442D01*
X104266181Y-54392084D01*
X101941993Y-56716271D01*
X101939640Y-56718505D01*
X101909337Y-56745790D01*
X101900916Y-56764703D01*
X101891637Y-56781792D01*
X101880367Y-56799147D01*
X101880366Y-56799149D01*
X101880041Y-56801204D01*
X101870851Y-56832232D01*
X101870000Y-56834143D01*
X101870000Y-56854842D01*
X101868472Y-56874240D01*
X101865237Y-56894672D01*
X101865774Y-56896677D01*
X101870000Y-56928772D01*
X101870000Y-58131904D01*
X101850315Y-58198943D01*
X101833681Y-58219585D01*
X101769181Y-58284085D01*
X101707858Y-58317570D01*
X101638166Y-58312586D01*
X101582233Y-58270714D01*
X101557816Y-58205250D01*
X101557500Y-58196404D01*
X101557500Y-58082441D01*
X101553468Y-58062172D01*
X101550102Y-58045252D01*
X101550099Y-58045248D01*
X101548943Y-58042456D01*
X101548234Y-58035865D01*
X101547719Y-58033275D01*
X101547950Y-58033228D01*
X101541473Y-57972987D01*
X101548943Y-57947544D01*
X101550098Y-57944752D01*
X101550102Y-57944748D01*
X101557500Y-57907558D01*
X101557500Y-57582442D01*
X101550102Y-57545252D01*
X101550099Y-57545248D01*
X101548943Y-57542456D01*
X101548234Y-57535865D01*
X101547719Y-57533275D01*
X101547950Y-57533228D01*
X101541473Y-57472987D01*
X101548943Y-57447544D01*
X101550098Y-57444752D01*
X101550102Y-57444748D01*
X101557500Y-57407558D01*
X101557500Y-57082442D01*
X101550102Y-57045252D01*
X101550099Y-57045248D01*
X101548943Y-57042456D01*
X101548234Y-57035865D01*
X101547719Y-57033275D01*
X101547950Y-57033228D01*
X101541473Y-56972987D01*
X101548943Y-56947544D01*
X101550098Y-56944752D01*
X101550102Y-56944748D01*
X101557500Y-56907558D01*
X101557500Y-56582442D01*
X101550102Y-56545252D01*
X101550099Y-56545248D01*
X101548943Y-56542456D01*
X101548234Y-56535865D01*
X101547719Y-56533275D01*
X101547950Y-56533228D01*
X101541473Y-56472987D01*
X101548943Y-56447544D01*
X101550098Y-56444752D01*
X101550102Y-56444748D01*
X101557500Y-56407558D01*
X101557500Y-56097868D01*
X101577185Y-56030830D01*
X101629989Y-55985075D01*
X101662104Y-55975395D01*
X101666376Y-55974717D01*
X101666384Y-55974718D01*
X101685700Y-55967302D01*
X101704352Y-55961777D01*
X101724600Y-55957474D01*
X101726275Y-55956256D01*
X101754735Y-55940803D01*
X101756673Y-55940060D01*
X101771311Y-55925420D01*
X101786094Y-55912794D01*
X101802842Y-55900628D01*
X101803882Y-55898825D01*
X101823587Y-55873144D01*
X103471026Y-54225706D01*
X103532347Y-54192223D01*
X103534411Y-54191792D01*
X103607423Y-54177270D01*
X103694252Y-54119252D01*
X103752270Y-54032423D01*
X103767500Y-53955856D01*
X103767500Y-53634144D01*
X103761166Y-53602300D01*
X103752271Y-53557581D01*
X103752270Y-53557580D01*
X103752270Y-53557577D01*
X103709504Y-53493574D01*
X103694252Y-53470747D01*
X103642201Y-53435968D01*
X103607423Y-53412730D01*
X103607421Y-53412729D01*
X103607418Y-53412728D01*
X103530860Y-53397500D01*
X103530856Y-53397500D01*
X103109144Y-53397500D01*
X103109139Y-53397500D01*
X103032581Y-53412728D01*
X103032577Y-53412730D01*
X102945747Y-53470747D01*
X102887730Y-53557577D01*
X102887728Y-53557581D01*
X102872500Y-53634139D01*
X102872500Y-53955860D01*
X102887728Y-54032418D01*
X102892403Y-54043703D01*
X102889879Y-54044748D01*
X102905388Y-54094288D01*
X102886900Y-54161667D01*
X102869089Y-54184176D01*
X101769181Y-55284085D01*
X101707858Y-55317570D01*
X101638166Y-55312586D01*
X101582233Y-55270714D01*
X101557816Y-55205250D01*
X101557500Y-55196404D01*
X101557500Y-55082441D01*
X101550102Y-55045254D01*
X101550102Y-55045252D01*
X101550099Y-55045248D01*
X101548943Y-55042456D01*
X101548234Y-55035865D01*
X101547719Y-55033275D01*
X101547950Y-55033228D01*
X101541473Y-54972987D01*
X101548943Y-54947544D01*
X101550098Y-54944752D01*
X101550102Y-54944748D01*
X101557500Y-54907558D01*
X101557500Y-54282442D01*
X101550102Y-54245252D01*
X101534532Y-54221950D01*
X101521922Y-54203077D01*
X101479749Y-54174898D01*
X101442559Y-54167500D01*
X101442558Y-54167500D01*
X100477439Y-54167500D01*
X100410400Y-54147815D01*
X100364645Y-54095011D01*
X100354500Y-54059685D01*
X100354288Y-54058078D01*
X100340687Y-53954764D01*
X100282698Y-53814767D01*
X100190451Y-53694549D01*
X100070233Y-53602302D01*
X100070229Y-53602300D01*
X99972733Y-53561916D01*
X99930236Y-53544313D01*
X99916171Y-53542461D01*
X99817727Y-53529500D01*
X99817720Y-53529500D01*
X99742280Y-53529500D01*
X99742272Y-53529500D01*
X99629764Y-53544313D01*
X99629763Y-53544313D01*
X99489770Y-53602300D01*
X99489767Y-53602301D01*
X99489767Y-53602302D01*
X99369549Y-53694549D01*
X99289906Y-53798342D01*
X99277300Y-53814770D01*
X99219313Y-53954763D01*
X99219312Y-53954765D01*
X99199534Y-54104999D01*
X99199534Y-54105000D01*
X99219312Y-54255234D01*
X99219313Y-54255236D01*
X99275997Y-54392084D01*
X99277302Y-54395233D01*
X99369549Y-54515451D01*
X99489767Y-54607698D01*
X99629764Y-54665687D01*
X99719011Y-54677436D01*
X99782907Y-54705702D01*
X99821378Y-54764026D01*
X99823256Y-54806611D01*
X99825500Y-54806611D01*
X99825500Y-54840342D01*
X99823973Y-54859740D01*
X99821364Y-54876215D01*
X99820737Y-54880172D01*
X99821274Y-54882177D01*
X99825500Y-54914272D01*
X99825500Y-59114435D01*
X99825415Y-59117680D01*
X99823281Y-59158388D01*
X99825160Y-59170250D01*
X99816202Y-59239543D01*
X99771203Y-59292993D01*
X99718872Y-59312581D01*
X99643554Y-59322497D01*
X99629764Y-59324313D01*
X99629763Y-59324313D01*
X99489770Y-59382300D01*
X99489767Y-59382301D01*
X99489767Y-59382302D01*
X99369549Y-59474549D01*
X99280916Y-59590058D01*
X99277300Y-59594770D01*
X99219313Y-59734763D01*
X99219312Y-59734765D01*
X99199534Y-59884999D01*
X99199534Y-59885000D01*
X99219312Y-60035234D01*
X99219313Y-60035236D01*
X99277302Y-60175233D01*
X99369549Y-60295451D01*
X99489767Y-60387698D01*
X99629764Y-60445687D01*
X99742280Y-60460500D01*
X99742287Y-60460500D01*
X99817713Y-60460500D01*
X99817720Y-60460500D01*
X99930236Y-60445687D01*
X100070233Y-60387698D01*
X100190451Y-60295451D01*
X100282698Y-60175233D01*
X100340687Y-60035236D01*
X100354500Y-59930314D01*
X100382766Y-59866418D01*
X100441091Y-59827947D01*
X100477439Y-59822500D01*
X101442559Y-59822500D01*
X101454884Y-59820048D01*
X101479748Y-59815102D01*
X101521922Y-59786922D01*
X101550102Y-59744748D01*
X101554566Y-59722306D01*
X101586952Y-59660396D01*
X101647669Y-59625823D01*
X101676183Y-59622500D01*
X104867435Y-59622500D01*
X104870678Y-59622584D01*
X104911384Y-59624718D01*
X104930700Y-59617302D01*
X104949352Y-59611777D01*
X104969600Y-59607474D01*
X104971275Y-59606256D01*
X104999735Y-59590803D01*
X105001673Y-59590060D01*
X105016311Y-59575420D01*
X105031094Y-59562794D01*
X105047842Y-59550628D01*
X105048882Y-59548825D01*
X105068587Y-59523144D01*
X106063018Y-58528713D01*
X106124339Y-58495230D01*
X106170095Y-58493923D01*
X106180000Y-58495492D01*
X106180001Y-58495491D01*
X106180003Y-58495492D01*
X106305300Y-58475647D01*
X106305302Y-58475646D01*
X106305304Y-58475646D01*
X106342205Y-58456843D01*
X106410873Y-58443947D01*
X106475614Y-58470222D01*
X106515871Y-58527328D01*
X106522500Y-58567328D01*
X106522500Y-59704404D01*
X106502815Y-59771443D01*
X106486181Y-59792085D01*
X106352085Y-59926181D01*
X106290762Y-59959666D01*
X106264404Y-59962500D01*
X103587565Y-59962500D01*
X103584321Y-59962415D01*
X103571589Y-59961747D01*
X103543618Y-59960282D01*
X103543617Y-59960282D01*
X103543616Y-59960282D01*
X103543614Y-59960282D01*
X103543611Y-59960283D01*
X103524293Y-59967698D01*
X103505647Y-59973221D01*
X103485400Y-59977525D01*
X103485394Y-59977528D01*
X103483707Y-59978754D01*
X103455279Y-59994189D01*
X103453333Y-59994936D01*
X103453327Y-59994940D01*
X103438692Y-60009574D01*
X103423903Y-60022204D01*
X103407159Y-60034369D01*
X103407157Y-60034372D01*
X103406113Y-60036181D01*
X103386412Y-60061853D01*
X99303484Y-64144781D01*
X99301130Y-64147014D01*
X99270837Y-64174290D01*
X99262416Y-64193203D01*
X99253137Y-64210292D01*
X99241867Y-64227647D01*
X99241866Y-64227649D01*
X99241541Y-64229704D01*
X99232351Y-64260732D01*
X99226202Y-64274545D01*
X99223613Y-64273392D01*
X99199659Y-64317763D01*
X99138496Y-64351540D01*
X99111562Y-64354500D01*
X97719441Y-64354500D01*
X97682250Y-64361898D01*
X97640077Y-64390077D01*
X97611898Y-64432250D01*
X97604500Y-64469441D01*
X97604500Y-65194558D01*
X97611898Y-65231748D01*
X97632853Y-65263110D01*
X97653730Y-65329788D01*
X97635245Y-65397168D01*
X97632853Y-65400890D01*
X97611898Y-65432251D01*
X97604500Y-65469441D01*
X97604500Y-66194558D01*
X97611898Y-66231748D01*
X97632853Y-66263110D01*
X97653730Y-66329788D01*
X97635245Y-66397168D01*
X97632853Y-66400890D01*
X97611898Y-66432251D01*
X97604500Y-66469441D01*
X97604500Y-67194558D01*
X97611898Y-67231749D01*
X97640077Y-67273922D01*
X97682250Y-67302101D01*
X97682252Y-67302102D01*
X97710205Y-67307662D01*
X97719441Y-67309500D01*
X97719442Y-67309500D01*
X99244559Y-67309500D01*
X99251957Y-67308028D01*
X99281748Y-67302102D01*
X99323922Y-67273922D01*
X99352102Y-67231748D01*
X99359500Y-67194558D01*
X99359500Y-66993595D01*
X99379185Y-66926556D01*
X99395819Y-66905914D01*
X100354915Y-65946819D01*
X100416238Y-65913334D01*
X100442596Y-65910500D01*
X101799435Y-65910500D01*
X101802678Y-65910584D01*
X101843384Y-65912718D01*
X101862700Y-65905302D01*
X101881352Y-65899777D01*
X101901600Y-65895474D01*
X101903275Y-65894256D01*
X101931735Y-65878803D01*
X101933673Y-65878060D01*
X101948311Y-65863420D01*
X101963094Y-65850794D01*
X101979842Y-65838628D01*
X101980884Y-65836821D01*
X102000585Y-65811147D01*
X102975550Y-64836182D01*
X102977829Y-64834019D01*
X103008163Y-64806708D01*
X103016585Y-64787790D01*
X103025859Y-64770711D01*
X103037134Y-64753350D01*
X103037458Y-64751303D01*
X103046655Y-64720254D01*
X103047500Y-64718357D01*
X103047500Y-64697657D01*
X103049027Y-64678258D01*
X103052263Y-64657828D01*
X103051725Y-64655819D01*
X103047500Y-64623727D01*
X103047500Y-63185595D01*
X103067185Y-63118556D01*
X103083819Y-63097914D01*
X104414915Y-61766819D01*
X104476238Y-61733334D01*
X104502596Y-61730500D01*
X104947405Y-61730500D01*
X105014444Y-61750185D01*
X105035086Y-61766819D01*
X105186181Y-61917914D01*
X105219666Y-61979237D01*
X105222500Y-62005595D01*
X105222500Y-62236352D01*
X105238018Y-62314370D01*
X105238019Y-62314371D01*
X105238019Y-62314372D01*
X105238020Y-62314373D01*
X105297143Y-62402857D01*
X105347391Y-62436431D01*
X105392194Y-62490041D01*
X105402499Y-62539532D01*
X105402499Y-63322434D01*
X105402414Y-63325678D01*
X105400281Y-63366380D01*
X105400283Y-63366389D01*
X105407698Y-63385707D01*
X105413223Y-63404357D01*
X105417526Y-63424601D01*
X105418750Y-63426285D01*
X105434192Y-63454726D01*
X105434938Y-63456669D01*
X105434940Y-63456673D01*
X105434942Y-63456675D01*
X105449567Y-63471300D01*
X105462205Y-63486096D01*
X105474372Y-63502842D01*
X105476173Y-63503882D01*
X105501853Y-63523587D01*
X105763882Y-63785616D01*
X106006181Y-64027914D01*
X106039666Y-64089237D01*
X106042500Y-64115595D01*
X106042500Y-64632558D01*
X106049898Y-64669748D01*
X106072172Y-64703084D01*
X106074815Y-64711523D01*
X106077452Y-64712097D01*
X106086917Y-64717828D01*
X106120250Y-64740101D01*
X106120252Y-64740102D01*
X106148205Y-64745662D01*
X106157441Y-64747500D01*
X106157442Y-64747500D01*
X107082559Y-64747500D01*
X107089957Y-64746028D01*
X107119748Y-64740102D01*
X107161922Y-64711922D01*
X107190102Y-64669748D01*
X107197500Y-64632558D01*
X107197500Y-64231500D01*
X107217185Y-64164461D01*
X107269989Y-64118706D01*
X107321500Y-64107500D01*
X107512482Y-64107500D01*
X107579521Y-64127185D01*
X107625276Y-64179989D01*
X107635220Y-64249147D01*
X107634955Y-64250898D01*
X107614508Y-64379997D01*
X107614508Y-64380003D01*
X107634352Y-64505300D01*
X107634352Y-64505301D01*
X107645546Y-64527270D01*
X107691950Y-64618342D01*
X107756182Y-64682574D01*
X107789666Y-64743895D01*
X107792500Y-64770254D01*
X107792500Y-64928500D01*
X107772815Y-64995539D01*
X107720011Y-65041294D01*
X107668500Y-65052500D01*
X107667657Y-65052500D01*
X107648260Y-65050973D01*
X107627828Y-65047737D01*
X107625819Y-65048275D01*
X107593727Y-65052500D01*
X106125595Y-65052500D01*
X106058556Y-65032815D01*
X106037918Y-65016185D01*
X105930342Y-64908609D01*
X105913343Y-64877476D01*
X105889554Y-64867122D01*
X105881389Y-64859655D01*
X105456220Y-64434486D01*
X105453985Y-64432131D01*
X105426708Y-64401837D01*
X105426706Y-64401835D01*
X105407797Y-64393416D01*
X105390702Y-64384134D01*
X105373350Y-64372865D01*
X105373347Y-64372864D01*
X105371296Y-64372540D01*
X105340265Y-64363348D01*
X105338363Y-64362501D01*
X105338357Y-64362500D01*
X105317657Y-64362500D01*
X105298260Y-64360973D01*
X105277828Y-64357737D01*
X105275819Y-64358275D01*
X105243727Y-64362500D01*
X104507565Y-64362500D01*
X104504321Y-64362415D01*
X104491589Y-64361747D01*
X104463618Y-64360282D01*
X104463617Y-64360282D01*
X104463616Y-64360282D01*
X104463614Y-64360282D01*
X104463611Y-64360283D01*
X104444293Y-64367698D01*
X104425647Y-64373221D01*
X104405400Y-64377525D01*
X104405394Y-64377528D01*
X104403707Y-64378754D01*
X104375279Y-64394189D01*
X104373333Y-64394936D01*
X104373325Y-64394941D01*
X104358693Y-64409573D01*
X104343902Y-64422206D01*
X104327158Y-64434371D01*
X104327156Y-64434374D01*
X104326114Y-64436179D01*
X104306413Y-64461851D01*
X103962085Y-64806181D01*
X103900762Y-64839666D01*
X103874404Y-64842500D01*
X103357441Y-64842500D01*
X103320250Y-64849898D01*
X103278077Y-64878077D01*
X103249898Y-64920250D01*
X103242500Y-64957441D01*
X103242500Y-65582558D01*
X103249898Y-65619749D01*
X103278077Y-65661922D01*
X103320250Y-65690101D01*
X103320252Y-65690102D01*
X103345513Y-65695127D01*
X103357441Y-65697500D01*
X103357442Y-65697500D01*
X103448500Y-65697500D01*
X103515539Y-65717185D01*
X103561294Y-65769989D01*
X103572500Y-65821500D01*
X103572500Y-66110421D01*
X103552815Y-66177460D01*
X103517391Y-66213523D01*
X103437143Y-66267143D01*
X103378019Y-66355628D01*
X103378018Y-66355629D01*
X103362500Y-66433647D01*
X103362500Y-66664403D01*
X103342815Y-66731442D01*
X103326181Y-66752084D01*
X102624484Y-67453781D01*
X102622130Y-67456015D01*
X102591837Y-67483290D01*
X102583416Y-67502203D01*
X102574137Y-67519292D01*
X102562867Y-67536647D01*
X102562866Y-67536649D01*
X102562541Y-67538704D01*
X102553351Y-67569732D01*
X102552500Y-67571643D01*
X102552500Y-67592342D01*
X102550973Y-67611740D01*
X102547736Y-67632171D01*
X102547737Y-67632174D01*
X102548275Y-67634182D01*
X102552499Y-67666272D01*
X102552500Y-68002179D01*
X102532816Y-68069218D01*
X102480012Y-68114973D01*
X102410853Y-68124917D01*
X102347298Y-68095892D01*
X102329037Y-68076226D01*
X102277774Y-68007368D01*
X102277766Y-68007359D01*
X102147489Y-67898044D01*
X102147487Y-67898043D01*
X101995517Y-67821720D01*
X101995515Y-67821719D01*
X101995514Y-67821719D01*
X101830033Y-67782500D01*
X101152624Y-67782500D01*
X101041902Y-67795441D01*
X101026084Y-67797290D01*
X100866277Y-67855455D01*
X100724186Y-67948909D01*
X100607484Y-68072605D01*
X100522451Y-68219887D01*
X100522450Y-68219889D01*
X100522450Y-68219890D01*
X100515968Y-68241540D01*
X100473675Y-68382809D01*
X100473674Y-68382815D01*
X100463786Y-68552587D01*
X100463786Y-68552588D01*
X100493316Y-68720063D01*
X100493317Y-68720066D01*
X100493318Y-68720070D01*
X100560677Y-68876226D01*
X100662233Y-69012640D01*
X100792511Y-69121956D01*
X100944486Y-69198281D01*
X101109967Y-69237500D01*
X101109970Y-69237500D01*
X101787369Y-69237500D01*
X101787376Y-69237500D01*
X101913915Y-69222710D01*
X102073724Y-69164544D01*
X102215812Y-69071092D01*
X102287629Y-68994971D01*
X102337475Y-68942138D01*
X102339589Y-68944132D01*
X102384821Y-68910063D01*
X102454497Y-68904871D01*
X102515920Y-68938173D01*
X102549587Y-68999396D01*
X102552500Y-69026115D01*
X102552500Y-69054403D01*
X102532815Y-69121442D01*
X102516181Y-69142084D01*
X101912084Y-69746181D01*
X101850761Y-69779666D01*
X101824403Y-69782500D01*
X101152624Y-69782500D01*
X101041902Y-69795441D01*
X101026084Y-69797290D01*
X100866277Y-69855455D01*
X100724186Y-69948909D01*
X100607484Y-70072605D01*
X100561935Y-70151500D01*
X100522995Y-70218947D01*
X100522098Y-70220500D01*
X100471531Y-70268715D01*
X100414711Y-70282500D01*
X100215595Y-70282500D01*
X100148556Y-70262815D01*
X100127914Y-70246181D01*
X99913819Y-70032085D01*
X99880334Y-69970762D01*
X99877500Y-69944404D01*
X99877500Y-69709143D01*
X99877499Y-69709139D01*
X99862271Y-69632581D01*
X99862270Y-69632580D01*
X99862270Y-69632577D01*
X99807753Y-69550987D01*
X99804252Y-69545747D01*
X99743598Y-69505220D01*
X99717423Y-69487730D01*
X99717421Y-69487729D01*
X99717418Y-69487728D01*
X99640860Y-69472500D01*
X99640856Y-69472500D01*
X99319144Y-69472500D01*
X99319139Y-69472500D01*
X99242581Y-69487728D01*
X99242577Y-69487730D01*
X99155747Y-69545747D01*
X99097730Y-69632577D01*
X99097728Y-69632580D01*
X99091616Y-69663309D01*
X99059230Y-69725219D01*
X98998513Y-69759792D01*
X98928744Y-69756051D01*
X98872073Y-69715184D01*
X98848382Y-69663305D01*
X98842270Y-69632577D01*
X98787753Y-69550987D01*
X98784252Y-69545747D01*
X98723598Y-69505220D01*
X98697423Y-69487730D01*
X98697421Y-69487729D01*
X98697418Y-69487728D01*
X98620860Y-69472500D01*
X98620856Y-69472500D01*
X98385840Y-69472500D01*
X98318801Y-69452815D01*
X98293689Y-69431471D01*
X98292591Y-69430252D01*
X98282888Y-69419475D01*
X98269708Y-69404836D01*
X98269706Y-69404835D01*
X98250797Y-69396416D01*
X98233702Y-69387134D01*
X98216350Y-69375865D01*
X98216347Y-69375864D01*
X98214296Y-69375540D01*
X98183265Y-69366348D01*
X98181363Y-69365501D01*
X98181357Y-69365500D01*
X98160657Y-69365500D01*
X98141260Y-69363973D01*
X98120828Y-69360737D01*
X98118819Y-69361275D01*
X98086727Y-69365500D01*
X96654577Y-69365500D01*
X96651333Y-69365415D01*
X96639561Y-69364798D01*
X96610619Y-69363281D01*
X96610618Y-69363281D01*
X96610616Y-69363281D01*
X96610614Y-69363281D01*
X96610612Y-69363282D01*
X96591285Y-69370700D01*
X96572642Y-69376222D01*
X96552401Y-69380525D01*
X96552399Y-69380526D01*
X96550712Y-69381752D01*
X96522273Y-69397192D01*
X96520327Y-69397938D01*
X96520327Y-69397939D01*
X96505691Y-69412574D01*
X96490904Y-69425203D01*
X96474159Y-69437370D01*
X96474154Y-69437374D01*
X96473112Y-69439181D01*
X96453412Y-69464852D01*
X96262083Y-69656182D01*
X96200763Y-69689666D01*
X96174404Y-69692500D01*
X95507441Y-69692500D01*
X95470250Y-69699898D01*
X95428077Y-69728077D01*
X95399898Y-69770250D01*
X95392500Y-69807441D01*
X95392500Y-71232558D01*
X95399898Y-71269749D01*
X95428077Y-71311922D01*
X95470250Y-71340101D01*
X95470252Y-71340102D01*
X95498205Y-71345662D01*
X95507441Y-71347500D01*
X95507442Y-71347500D01*
X96118500Y-71347500D01*
X96185539Y-71367185D01*
X96231294Y-71419989D01*
X96242500Y-71471500D01*
X96242500Y-71655254D01*
X96222815Y-71722293D01*
X96170011Y-71768048D01*
X96100853Y-71777992D01*
X96058763Y-71763916D01*
X95961371Y-71710374D01*
X95961361Y-71710371D01*
X95802180Y-71669500D01*
X95802177Y-71669500D01*
X95679075Y-71669500D01*
X95679065Y-71669500D01*
X95556942Y-71684929D01*
X95556939Y-71684929D01*
X95404130Y-71745431D01*
X95404121Y-71745436D01*
X95271164Y-71842034D01*
X95271161Y-71842038D01*
X95220043Y-71903829D01*
X95162143Y-71942936D01*
X95092292Y-71944532D01*
X95032666Y-71908110D01*
X95002197Y-71845234D01*
X95000500Y-71824788D01*
X95000500Y-67417056D01*
X95931500Y-67417056D01*
X95945268Y-67472914D01*
X95972210Y-67582226D01*
X96051263Y-67732849D01*
X96058944Y-67741519D01*
X96164071Y-67860183D01*
X96218922Y-67898044D01*
X96304068Y-67956817D01*
X96304069Y-67956817D01*
X96304070Y-67956818D01*
X96364532Y-67979748D01*
X96462708Y-68016981D01*
X96463128Y-68017140D01*
X96539028Y-68026356D01*
X96589626Y-68032500D01*
X96589628Y-68032500D01*
X96674374Y-68032500D01*
X96716538Y-68027380D01*
X96800872Y-68017140D01*
X96959930Y-67956818D01*
X97099929Y-67860183D01*
X97212734Y-67732852D01*
X97213206Y-67731954D01*
X97256246Y-67649947D01*
X97291790Y-67582225D01*
X97332500Y-67417056D01*
X97332500Y-67246944D01*
X97291790Y-67081775D01*
X97257783Y-67016980D01*
X97212736Y-66931150D01*
X97189813Y-66905275D01*
X97099929Y-66803817D01*
X97026794Y-66753335D01*
X96959931Y-66707182D01*
X96800874Y-66646860D01*
X96800868Y-66646859D01*
X96674374Y-66631500D01*
X96674372Y-66631500D01*
X96589628Y-66631500D01*
X96589626Y-66631500D01*
X96463131Y-66646859D01*
X96463125Y-66646860D01*
X96304068Y-66707182D01*
X96164072Y-66803816D01*
X96051263Y-66931150D01*
X95972210Y-67081773D01*
X95938373Y-67219059D01*
X95931500Y-67246944D01*
X95931500Y-67417056D01*
X95000500Y-67417056D01*
X95000500Y-64417056D01*
X95931500Y-64417056D01*
X95944188Y-64468534D01*
X95972210Y-64582226D01*
X96051263Y-64732849D01*
X96080026Y-64765316D01*
X96164071Y-64860183D01*
X96251095Y-64920252D01*
X96304068Y-64956817D01*
X96304069Y-64956817D01*
X96304070Y-64956818D01*
X96317605Y-64961951D01*
X96455462Y-65014233D01*
X96463128Y-65017140D01*
X96539028Y-65026356D01*
X96589626Y-65032500D01*
X96589628Y-65032500D01*
X96674374Y-65032500D01*
X96716538Y-65027380D01*
X96800872Y-65017140D01*
X96959930Y-64956818D01*
X97099929Y-64860183D01*
X97212734Y-64732852D01*
X97219350Y-64720248D01*
X97261440Y-64640052D01*
X97291790Y-64582225D01*
X97332500Y-64417056D01*
X97332500Y-64246944D01*
X97291790Y-64081775D01*
X97282583Y-64064233D01*
X97212736Y-63931150D01*
X97191852Y-63907577D01*
X97099929Y-63803817D01*
X97024641Y-63751849D01*
X96959931Y-63707182D01*
X96800874Y-63646860D01*
X96800868Y-63646859D01*
X96674374Y-63631500D01*
X96674372Y-63631500D01*
X96589628Y-63631500D01*
X96589626Y-63631500D01*
X96463131Y-63646859D01*
X96463125Y-63646860D01*
X96304068Y-63707182D01*
X96164072Y-63803816D01*
X96051263Y-63931150D01*
X95972210Y-64081773D01*
X95944746Y-64193203D01*
X95931500Y-64246944D01*
X95931500Y-64417056D01*
X95000500Y-64417056D01*
X95000500Y-52124500D01*
X95020185Y-52057461D01*
X95072989Y-52011706D01*
X95124500Y-52000500D01*
X104988829Y-52000500D01*
X105007959Y-52001985D01*
G37*
%TD.AperFunction*%
%TA.AperFunction,Conductor*%
G36*
X104812225Y-70490184D02*
G01*
X104851528Y-70498001D01*
X104874141Y-70502499D01*
X104874143Y-70502500D01*
X104874144Y-70502500D01*
X105109405Y-70502500D01*
X105176444Y-70522185D01*
X105197081Y-70538814D01*
X105318056Y-70659788D01*
X105351540Y-70721109D01*
X105354374Y-70747468D01*
X105354374Y-70877087D01*
X105334689Y-70944126D01*
X105333476Y-70945978D01*
X105309372Y-70982050D01*
X105301974Y-71019241D01*
X105301974Y-71571637D01*
X105282289Y-71638676D01*
X105229485Y-71684431D01*
X105177974Y-71695637D01*
X104621641Y-71695637D01*
X104584450Y-71703035D01*
X104548378Y-71727139D01*
X104481701Y-71748017D01*
X104479487Y-71748037D01*
X103781134Y-71748037D01*
X103714095Y-71728352D01*
X103693451Y-71711717D01*
X103663817Y-71682082D01*
X103630333Y-71620758D01*
X103627500Y-71594402D01*
X103627500Y-70965595D01*
X103647185Y-70898556D01*
X103663819Y-70877914D01*
X103675914Y-70865819D01*
X103737237Y-70832334D01*
X103763595Y-70829500D01*
X104292380Y-70829500D01*
X104295623Y-70829584D01*
X104336329Y-70831718D01*
X104355645Y-70824302D01*
X104374297Y-70818777D01*
X104394545Y-70814474D01*
X104396220Y-70813256D01*
X104424680Y-70797803D01*
X104426618Y-70797060D01*
X104441256Y-70782420D01*
X104456039Y-70769794D01*
X104472787Y-70757628D01*
X104473827Y-70755825D01*
X104493532Y-70730144D01*
X104693520Y-70530156D01*
X104695839Y-70527955D01*
X104705065Y-70519648D01*
X104768055Y-70489421D01*
X104812225Y-70490184D01*
G37*
%TD.AperFunction*%
%TA.AperFunction,Conductor*%
G36*
X105211444Y-64837185D02*
G01*
X105232085Y-64853818D01*
X105542962Y-65164696D01*
X105813778Y-65435512D01*
X105816013Y-65437867D01*
X105834328Y-65458208D01*
X105843292Y-65468163D01*
X105860532Y-65475839D01*
X105862192Y-65476578D01*
X105879288Y-65485860D01*
X105891640Y-65493880D01*
X105896648Y-65497133D01*
X105896650Y-65497134D01*
X105898696Y-65497458D01*
X105929744Y-65506655D01*
X105931641Y-65507499D01*
X105931642Y-65507500D01*
X105931643Y-65507500D01*
X105952343Y-65507500D01*
X105971739Y-65509026D01*
X105992172Y-65512263D01*
X105994180Y-65511724D01*
X106026273Y-65507500D01*
X107421402Y-65507500D01*
X107488441Y-65527185D01*
X107534196Y-65579989D01*
X107544140Y-65649147D01*
X107515115Y-65712703D01*
X107509084Y-65719180D01*
X107472085Y-65756180D01*
X107410763Y-65789666D01*
X107384403Y-65792500D01*
X107257565Y-65792500D01*
X107254321Y-65792415D01*
X107241589Y-65791747D01*
X107213618Y-65790282D01*
X107213617Y-65790282D01*
X107213616Y-65790282D01*
X107213614Y-65790282D01*
X107213611Y-65790283D01*
X107194293Y-65797698D01*
X107175647Y-65803221D01*
X107155400Y-65807525D01*
X107155394Y-65807528D01*
X107153707Y-65808754D01*
X107125279Y-65824189D01*
X107123333Y-65824936D01*
X107123327Y-65824940D01*
X107108692Y-65839574D01*
X107093903Y-65852204D01*
X107077161Y-65864368D01*
X107077157Y-65864373D01*
X107076115Y-65866178D01*
X107056413Y-65891852D01*
X106875083Y-66073181D01*
X106813760Y-66106666D01*
X106787403Y-66109500D01*
X106650105Y-66109500D01*
X106650102Y-66109501D01*
X106609183Y-66117638D01*
X106560809Y-66117637D01*
X106528043Y-66111120D01*
X106519899Y-66109500D01*
X106519898Y-66109500D01*
X106100105Y-66109500D01*
X106100099Y-66109501D01*
X106084185Y-66112666D01*
X106035813Y-66112665D01*
X106019900Y-66109500D01*
X105600105Y-66109500D01*
X105600102Y-66109501D01*
X105559183Y-66117638D01*
X105510809Y-66117637D01*
X105478043Y-66111120D01*
X105469899Y-66109500D01*
X105469898Y-66109500D01*
X105050105Y-66109500D01*
X105050097Y-66109501D01*
X105020787Y-66115330D01*
X104987542Y-66137542D01*
X104982436Y-66145186D01*
X104928824Y-66189991D01*
X104905643Y-66197417D01*
X104905395Y-66197528D01*
X104903709Y-66198753D01*
X104875275Y-66214191D01*
X104873330Y-66214937D01*
X104873325Y-66214941D01*
X104858691Y-66229574D01*
X104843904Y-66242203D01*
X104827159Y-66254370D01*
X104827154Y-66254374D01*
X104826112Y-66256181D01*
X104806412Y-66281852D01*
X104594493Y-66493771D01*
X104592140Y-66496005D01*
X104561837Y-66523290D01*
X104553416Y-66542203D01*
X104544137Y-66559292D01*
X104532867Y-66576647D01*
X104532866Y-66576649D01*
X104532541Y-66578704D01*
X104523351Y-66609732D01*
X104522500Y-66611643D01*
X104522500Y-66632342D01*
X104520972Y-66651740D01*
X104517737Y-66672172D01*
X104518274Y-66674177D01*
X104522500Y-66706272D01*
X104522500Y-67967295D01*
X104502815Y-68034334D01*
X104486181Y-68054977D01*
X104382475Y-68158682D01*
X104380121Y-68160916D01*
X104349837Y-68188183D01*
X104341416Y-68207096D01*
X104332137Y-68224185D01*
X104320867Y-68241540D01*
X104320866Y-68241542D01*
X104320541Y-68243597D01*
X104311351Y-68274625D01*
X104310500Y-68276536D01*
X104310500Y-68297235D01*
X104308973Y-68316633D01*
X104306288Y-68333589D01*
X104305737Y-68337065D01*
X104306274Y-68339070D01*
X104310500Y-68371165D01*
X104310500Y-69483948D01*
X104290815Y-69550987D01*
X104238011Y-69596742D01*
X104181948Y-69606086D01*
X104181948Y-69607500D01*
X103854139Y-69607500D01*
X103777581Y-69622728D01*
X103777577Y-69622730D01*
X103690747Y-69680747D01*
X103632729Y-69767577D01*
X103632729Y-69767578D01*
X103630271Y-69779935D01*
X103597885Y-69841846D01*
X103576198Y-69859732D01*
X103575881Y-69859937D01*
X103561244Y-69874574D01*
X103546455Y-69887204D01*
X103529713Y-69899368D01*
X103529709Y-69899373D01*
X103528667Y-69901178D01*
X103508965Y-69926852D01*
X103189637Y-70246181D01*
X103128314Y-70279666D01*
X103101956Y-70282500D01*
X102520719Y-70282500D01*
X102453680Y-70262815D01*
X102407925Y-70210011D01*
X102406881Y-70207662D01*
X102379323Y-70143774D01*
X102348843Y-70102833D01*
X102324600Y-70037306D01*
X102339632Y-69969072D01*
X102360622Y-69941109D01*
X102935539Y-69366192D01*
X102937838Y-69364011D01*
X102968163Y-69336708D01*
X102976580Y-69317801D01*
X102985866Y-69300698D01*
X102997134Y-69283349D01*
X102997458Y-69281297D01*
X103006654Y-69250254D01*
X103007500Y-69248357D01*
X103007500Y-69227663D01*
X103009027Y-69208263D01*
X103010608Y-69198281D01*
X103012264Y-69187828D01*
X103012135Y-69187349D01*
X103011725Y-69185814D01*
X103007500Y-69153723D01*
X103007500Y-67765595D01*
X103027185Y-67698556D01*
X103043819Y-67677914D01*
X103677914Y-67043819D01*
X103739237Y-67010334D01*
X103765595Y-67007500D01*
X103996349Y-67007500D01*
X103996350Y-67007499D01*
X104022591Y-67002279D01*
X104074370Y-66991981D01*
X104074370Y-66991980D01*
X104074373Y-66991980D01*
X104162857Y-66932857D01*
X104221980Y-66844373D01*
X104237500Y-66766348D01*
X104237500Y-66433652D01*
X104234276Y-66417442D01*
X104221981Y-66355629D01*
X104221980Y-66355628D01*
X104221980Y-66355627D01*
X104162857Y-66267143D01*
X104082609Y-66213523D01*
X104037804Y-66159911D01*
X104027500Y-66110421D01*
X104027500Y-65821500D01*
X104047185Y-65754461D01*
X104099989Y-65708706D01*
X104151500Y-65697500D01*
X104282559Y-65697500D01*
X104294487Y-65695127D01*
X104319748Y-65690102D01*
X104361922Y-65661922D01*
X104390102Y-65619748D01*
X104397500Y-65582558D01*
X104397500Y-65065595D01*
X104417185Y-64998556D01*
X104433814Y-64977919D01*
X104557916Y-64853817D01*
X104619238Y-64820334D01*
X104645596Y-64817500D01*
X105144405Y-64817500D01*
X105211444Y-64837185D01*
G37*
%TD.AperFunction*%
%TA.AperFunction,Conductor*%
G36*
X113027505Y-56547185D02*
G01*
X113063567Y-56582607D01*
X113097143Y-56632857D01*
X113185627Y-56691980D01*
X113185628Y-56691980D01*
X113185629Y-56691981D01*
X113263647Y-56707499D01*
X113263651Y-56707500D01*
X113263652Y-56707500D01*
X113494405Y-56707500D01*
X113561444Y-56727185D01*
X113582085Y-56743818D01*
X114174447Y-57336181D01*
X114763778Y-57925512D01*
X114766013Y-57927867D01*
X114793290Y-57958162D01*
X114793291Y-57958162D01*
X114793292Y-57958163D01*
X114812203Y-57966583D01*
X114829286Y-57975857D01*
X114831448Y-57977261D01*
X114876947Y-58030282D01*
X114886560Y-58099487D01*
X114857231Y-58162903D01*
X114820204Y-58191737D01*
X114721659Y-58241949D01*
X114721652Y-58241954D01*
X114631954Y-58331652D01*
X114631951Y-58331657D01*
X114631950Y-58331658D01*
X114626482Y-58342390D01*
X114574352Y-58444698D01*
X114574352Y-58444699D01*
X114554508Y-58569996D01*
X114554508Y-58570003D01*
X114574352Y-58695300D01*
X114574353Y-58695303D01*
X114574354Y-58695304D01*
X114628039Y-58800667D01*
X114640935Y-58869334D01*
X114620656Y-58925851D01*
X114572730Y-58997577D01*
X114572728Y-58997581D01*
X114566617Y-59028306D01*
X114534233Y-59090217D01*
X114473517Y-59124791D01*
X114403747Y-59121052D01*
X114347075Y-59080186D01*
X114323383Y-59028306D01*
X114317271Y-58997581D01*
X114317270Y-58997580D01*
X114317270Y-58997577D01*
X114281726Y-58944383D01*
X114259252Y-58910747D01*
X114197272Y-58869334D01*
X114172423Y-58852730D01*
X114172421Y-58852729D01*
X114172418Y-58852728D01*
X114095860Y-58837500D01*
X114095856Y-58837500D01*
X113950596Y-58837500D01*
X113883557Y-58817815D01*
X113862915Y-58801181D01*
X113738715Y-58676981D01*
X113705230Y-58615658D01*
X113703924Y-58569898D01*
X113705492Y-58560000D01*
X113705492Y-58559997D01*
X113685647Y-58434699D01*
X113682631Y-58425417D01*
X113683983Y-58424977D01*
X113673005Y-58366536D01*
X113699279Y-58301795D01*
X113756383Y-58261535D01*
X113772190Y-58257289D01*
X113797423Y-58252270D01*
X113884252Y-58194252D01*
X113942270Y-58107423D01*
X113957500Y-58030856D01*
X113957500Y-57609144D01*
X113952189Y-57582442D01*
X113942271Y-57532581D01*
X113942270Y-57532580D01*
X113942270Y-57532577D01*
X113902453Y-57472987D01*
X113884252Y-57445747D01*
X113807363Y-57394372D01*
X113797423Y-57387730D01*
X113797421Y-57387729D01*
X113797418Y-57387728D01*
X113720860Y-57372500D01*
X113720856Y-57372500D01*
X113485595Y-57372500D01*
X113418556Y-57352815D01*
X113397914Y-57336181D01*
X112800915Y-56739181D01*
X112767430Y-56677858D01*
X112772414Y-56608166D01*
X112814286Y-56552233D01*
X112879750Y-56527816D01*
X112888596Y-56527500D01*
X112960466Y-56527500D01*
X113027505Y-56547185D01*
G37*
%TD.AperFunction*%
%TD*%
M02*
