%TF.GenerationSoftware,KiCad,Pcbnew,7.0.5*%
%TF.CreationDate,2023-07-12T14:46:01+02:00*%
%TF.ProjectId,euroslimenRFV2,6575726f-736c-4696-9d65-6e524656322e,rev?*%
%TF.SameCoordinates,Original*%
%TF.FileFunction,Copper,L2,Bot*%
%TF.FilePolarity,Positive*%
%FSLAX46Y46*%
G04 Gerber Fmt 4.6, Leading zero omitted, Abs format (unit mm)*
G04 Created by KiCad (PCBNEW 7.0.5) date 2023-07-12 14:46:01*
%MOMM*%
%LPD*%
G01*
G04 APERTURE LIST*
G04 Aperture macros list*
%AMRoundRect*
0 Rectangle with rounded corners*
0 $1 Rounding radius*
0 $2 $3 $4 $5 $6 $7 $8 $9 X,Y pos of 4 corners*
0 Add a 4 corners polygon primitive as box body*
4,1,4,$2,$3,$4,$5,$6,$7,$8,$9,$2,$3,0*
0 Add four circle primitives for the rounded corners*
1,1,$1+$1,$2,$3*
1,1,$1+$1,$4,$5*
1,1,$1+$1,$6,$7*
1,1,$1+$1,$8,$9*
0 Add four rect primitives between the rounded corners*
20,1,$1+$1,$2,$3,$4,$5,0*
20,1,$1+$1,$4,$5,$6,$7,0*
20,1,$1+$1,$6,$7,$8,$9,0*
20,1,$1+$1,$8,$9,$2,$3,0*%
G04 Aperture macros list end*
%TA.AperFunction,ComponentPad*%
%ADD10O,2.100000X1.000000*%
%TD*%
%TA.AperFunction,ComponentPad*%
%ADD11O,1.800000X1.000000*%
%TD*%
%TA.AperFunction,ComponentPad*%
%ADD12O,1.700000X1.700000*%
%TD*%
%TA.AperFunction,ComponentPad*%
%ADD13RoundRect,0.250000X0.625000X-0.350000X0.625000X0.350000X-0.625000X0.350000X-0.625000X-0.350000X0*%
%TD*%
%TA.AperFunction,ComponentPad*%
%ADD14O,1.750000X1.200000*%
%TD*%
%TA.AperFunction,ViaPad*%
%ADD15C,0.500000*%
%TD*%
%TA.AperFunction,Conductor*%
%ADD16C,0.200000*%
%TD*%
G04 APERTURE END LIST*
D10*
%TO.P,USB1,S1,SHIELD*%
%TO.N,GND*%
X100280000Y-52675000D03*
D11*
X96100000Y-52675000D03*
D10*
X100280000Y-61315000D03*
D11*
X96100000Y-61315000D03*
%TD*%
D12*
%TO.P,PROG1,1,Pin_1*%
%TO.N,SWDCLK*%
X107510000Y-61760000D03*
%TO.P,PROG1,2,Pin_2*%
%TO.N,GND*%
X110050000Y-61760000D03*
%TO.P,PROG1,3,Pin_3*%
%TO.N,SWDIO*%
X112590000Y-61760000D03*
%TD*%
D13*
%TO.P,EXT1,1,Pin_1*%
%TO.N,SDAAUX*%
X101470000Y-72510000D03*
D14*
%TO.P,EXT1,2,Pin_2*%
%TO.N,VDD*%
X101470000Y-70510000D03*
%TO.P,EXT1,3,Pin_3*%
%TO.N,INT2*%
X101470000Y-68510000D03*
%TO.P,EXT1,4,Pin_4*%
%TO.N,GND*%
X101470000Y-66510000D03*
%TO.P,EXT1,5,Pin_5*%
%TO.N,SCLAUX*%
X101470000Y-64510000D03*
%TD*%
D13*
%TO.P,BAT1,1,Pin_1*%
%TO.N,BAT+*%
X116430000Y-57770000D03*
D14*
%TO.P,BAT1,2,Pin_2*%
%TO.N,GND*%
X116430000Y-55770000D03*
%TD*%
D15*
%TO.N,GND*%
X102760000Y-72650000D03*
X112090000Y-67310000D03*
X112550000Y-60120000D03*
X98410000Y-71000000D03*
X114474556Y-58138494D03*
X100050000Y-73000000D03*
X104850000Y-65090000D03*
X103900000Y-71340000D03*
X112400000Y-69030000D03*
X103970000Y-73130000D03*
X110540000Y-56050000D03*
%TO.N,INT*%
X111380000Y-71310000D03*
X104810000Y-73510000D03*
%TO.N,VDD*%
X108020000Y-64380000D03*
X112780000Y-65290000D03*
X109400000Y-70520000D03*
%TO.N,SCL*%
X111380000Y-72610000D03*
X106090000Y-71950000D03*
%TO.N,SDA*%
X106080000Y-70050000D03*
X111380000Y-71960000D03*
%TO.N,SDAAUX*%
X111160000Y-73910000D03*
%TO.N,INT2*%
X111860000Y-73990000D03*
%TO.N,SCLAUX*%
X112920000Y-72860000D03*
%TO.N,RST*%
X99770000Y-71280000D03*
X112980000Y-72190000D03*
%TO.N,ADCBAT*%
X109910000Y-65880000D03*
X109570000Y-69670000D03*
%TO.N,VBUS*%
X113820000Y-53350000D03*
X106180000Y-58090000D03*
X108870000Y-57820000D03*
%TO.N,SDX*%
X104260000Y-72480000D03*
X105060000Y-68510000D03*
%TO.N,INTX*%
X108700000Y-71810000D03*
X108860000Y-68550000D03*
%TO.N,LEDG*%
X111380000Y-70660000D03*
X103330000Y-73680000D03*
%TO.N,LEDCHG*%
X109040000Y-54730000D03*
X115760000Y-59310000D03*
%TO.N,/GREEN*%
X114960000Y-58570000D03*
X116070000Y-53160000D03*
%TO.N,LEDSTBY*%
X110290000Y-53560000D03*
X113300000Y-58560000D03*
%TO.N,EN2*%
X111670000Y-68890000D03*
X112040000Y-54550000D03*
%TO.N,EN1*%
X111380000Y-68060000D03*
X112040000Y-53650000D03*
%TD*%
D16*
%TO.N,*%
X104320665Y-55069398D02*
X104320665Y-55219484D01*
X104713299Y-55612119D02*
X104838238Y-55612119D01*
X105930664Y-55442118D02*
X106047527Y-55325256D01*
X105875309Y-54652119D02*
X104888446Y-54652119D01*
X106065665Y-54797119D02*
X105970665Y-54702119D01*
X105375395Y-55672119D02*
X104983091Y-55672119D01*
X104600665Y-54762119D02*
X104622883Y-54762119D01*
X106160665Y-55026469D02*
X106160665Y-55052119D01*
X104429954Y-54832829D02*
X104410665Y-54852119D01*
X105935665Y-54677119D02*
X105960665Y-54702119D01*
X104320677Y-55219484D02*
G75*
G03*
X104435666Y-55497118I392623J-16D01*
G01*
X104410675Y-54852129D02*
G75*
G03*
X104320665Y-55069398I217225J-217271D01*
G01*
X106047516Y-55325245D02*
G75*
G03*
X106160665Y-55052119I-273116J273145D01*
G01*
X104910636Y-55642148D02*
G75*
G03*
X104838238Y-55612119I-72436J-72352D01*
G01*
X106160682Y-55026469D02*
G75*
G03*
X106065665Y-54797119I-324382J-31D01*
G01*
X105935665Y-54677119D02*
G75*
G03*
X105875309Y-54652119I-60365J-60381D01*
G01*
X104910671Y-55642113D02*
G75*
G03*
X104983091Y-55672119I72429J72413D01*
G01*
X104600665Y-54762082D02*
G75*
G03*
X104429954Y-54832829I35J-241418D01*
G01*
X104888446Y-54652152D02*
G75*
G03*
X104755665Y-54707119I-46J-187748D01*
G01*
X104435668Y-55497116D02*
G75*
G03*
X104713299Y-55612119I277632J277616D01*
G01*
X104622883Y-54762096D02*
G75*
G03*
X104755665Y-54707119I17J187796D01*
G01*
X105375395Y-55672100D02*
G75*
G03*
X105930664Y-55442118I5J785300D01*
G01*
%TO.N,GND*%
X108850000Y-60560000D02*
X110050000Y-61760000D01*
X100667107Y-71470000D02*
X103770000Y-71470000D01*
X100260000Y-62015000D02*
X101715000Y-60560000D01*
X101715000Y-60560000D02*
X108850000Y-60560000D01*
X100260000Y-65300000D02*
X100260000Y-62015000D01*
X98160000Y-70750000D02*
X98160000Y-69820000D01*
X98410000Y-71000000D02*
X98630000Y-70780000D01*
X103770000Y-71470000D02*
X103900000Y-71340000D01*
X98630000Y-70780000D02*
X99977107Y-70780000D01*
X98160000Y-69820000D02*
X101470000Y-66510000D01*
X98410000Y-71000000D02*
X98160000Y-70750000D01*
X99977107Y-70780000D02*
X100667107Y-71470000D01*
X101470000Y-66510000D02*
X100260000Y-65300000D01*
%TO.N,INT*%
X109580000Y-72810000D02*
X111080000Y-71310000D01*
X104810000Y-73510000D02*
X105090000Y-73230000D01*
X105090000Y-73230000D02*
X105090000Y-69470000D01*
X111080000Y-71310000D02*
X111380000Y-71310000D01*
X107640000Y-72230000D02*
X108220000Y-72810000D01*
X106540000Y-69000000D02*
X107640000Y-70100000D01*
X105560000Y-69000000D02*
X106540000Y-69000000D01*
X107640000Y-70100000D02*
X107640000Y-72230000D01*
X108220000Y-72810000D02*
X109580000Y-72810000D01*
X105090000Y-69470000D02*
X105560000Y-69000000D01*
%TO.N,VDD*%
X112200000Y-64710000D02*
X112780000Y-65290000D01*
X108350000Y-64710000D02*
X112200000Y-64710000D01*
X109360000Y-68340000D02*
X109360000Y-68760000D01*
X108020000Y-64380000D02*
X108350000Y-64710000D01*
X109070000Y-69050000D02*
X109070000Y-70190000D01*
X109070000Y-70190000D02*
X109400000Y-70520000D01*
X109360000Y-68760000D02*
X109070000Y-69050000D01*
X108240000Y-67220000D02*
X109360000Y-68340000D01*
X101470000Y-70510000D02*
X104760000Y-67220000D01*
X104760000Y-67220000D02*
X108240000Y-67220000D01*
%TO.N,SCL*%
X106090000Y-73290000D02*
X106860000Y-74060000D01*
X106860000Y-74060000D02*
X109930000Y-74060000D01*
X106090000Y-71950000D02*
X106090000Y-73290000D01*
X109930000Y-74060000D02*
X111380000Y-72610000D01*
%TO.N,SDA*%
X106080000Y-70050000D02*
X106080000Y-70520000D01*
X106080000Y-70520000D02*
X106960000Y-71400000D01*
X107510000Y-73310000D02*
X109830000Y-73310000D01*
X111180000Y-71960000D02*
X111380000Y-71960000D01*
X109830000Y-73310000D02*
X111180000Y-71960000D01*
X106960000Y-72760000D02*
X107510000Y-73310000D01*
X106960000Y-71400000D02*
X106960000Y-72760000D01*
%TO.N,SDAAUX*%
X103329893Y-74387000D02*
X101470000Y-72527107D01*
X110683000Y-74387000D02*
X103329893Y-74387000D01*
X101470000Y-72527107D02*
X101470000Y-72510000D01*
X111160000Y-73910000D02*
X110683000Y-74387000D01*
%TO.N,INT2*%
X103480000Y-66500000D02*
X101470000Y-68510000D01*
X111570000Y-70090000D02*
X110850000Y-70090000D01*
X110410000Y-69650000D02*
X110410000Y-65672893D01*
X111880000Y-73970000D02*
X111880000Y-70400000D01*
X108420000Y-66500000D02*
X103480000Y-66500000D01*
X110117107Y-65380000D02*
X109540000Y-65380000D01*
X111880000Y-70400000D02*
X111570000Y-70090000D01*
X110850000Y-70090000D02*
X110410000Y-69650000D01*
X110410000Y-65672893D02*
X110117107Y-65380000D01*
X109540000Y-65380000D02*
X108420000Y-66500000D01*
X111860000Y-73990000D02*
X111880000Y-73970000D01*
%TO.N,SCLAUX*%
X107527000Y-65053000D02*
X106990000Y-65590000D01*
X112920000Y-72860000D02*
X112207000Y-72147000D01*
X110760000Y-69300000D02*
X110760000Y-65560445D01*
X110252555Y-65053000D02*
X107527000Y-65053000D01*
X110760000Y-65560445D02*
X110252555Y-65053000D01*
X102550000Y-65590000D02*
X101470000Y-64510000D01*
X112207000Y-70264552D02*
X111492448Y-69550000D01*
X112207000Y-72147000D02*
X112207000Y-70264552D01*
X111492448Y-69550000D02*
X111010000Y-69550000D01*
X106990000Y-65590000D02*
X102550000Y-65590000D01*
X111010000Y-69550000D02*
X110760000Y-69300000D01*
%TO.N,RST*%
X99770000Y-71280000D02*
X99420000Y-71630000D01*
X100836893Y-74714000D02*
X111906000Y-74714000D01*
X113420000Y-72630000D02*
X112980000Y-72190000D01*
X113420000Y-73200000D02*
X113420000Y-72630000D01*
X99420000Y-73297107D02*
X100836893Y-74714000D01*
X99420000Y-71630000D02*
X99420000Y-73297107D01*
X111906000Y-74714000D02*
X113420000Y-73200000D01*
%TO.N,ADCBAT*%
X109900000Y-69340000D02*
X109900000Y-65890000D01*
X109900000Y-65890000D02*
X109910000Y-65880000D01*
X109570000Y-69670000D02*
X109900000Y-69340000D01*
%TO.N,VBUS*%
X106165262Y-58090000D02*
X106041714Y-57966452D01*
X107360000Y-58100000D02*
X107398076Y-58138076D01*
X105870796Y-57940000D02*
X105183847Y-57940000D01*
X109570000Y-59320000D02*
X109570000Y-58520000D01*
X106849511Y-58930000D02*
X106680000Y-58930000D01*
X107230000Y-57140416D02*
X107230000Y-57786152D01*
X108213000Y-54387445D02*
X109890445Y-52710000D01*
X106890000Y-55384142D02*
X106890000Y-56319583D01*
X103500000Y-55588078D02*
X103500000Y-55059705D01*
X109570000Y-58520000D02*
X108870000Y-57820000D01*
X108213000Y-57163000D02*
X108213000Y-54387445D01*
X106870000Y-54848614D02*
X106870000Y-55335857D01*
X103810710Y-54379289D02*
X104150190Y-54039809D01*
X109890445Y-52710000D02*
X113180000Y-52710000D01*
X107490000Y-59390000D02*
X107140000Y-59040000D01*
X106600000Y-58850000D02*
X106600000Y-59390000D01*
X106180000Y-58090000D02*
X106165262Y-58090000D01*
X108900000Y-59990000D02*
X109570000Y-59320000D01*
X103370000Y-58887954D02*
X103370000Y-55901923D01*
X104705000Y-53810000D02*
X104952218Y-53810000D01*
X106680000Y-58930000D02*
X106600000Y-58850000D01*
X107140000Y-59040000D02*
X106959511Y-59040000D01*
X108580502Y-59039497D02*
X108430000Y-59190000D01*
X105077659Y-60100000D02*
X104582045Y-60100000D01*
X106600000Y-59390000D02*
X107200000Y-59990000D01*
X104740000Y-58383847D02*
X104740000Y-59246360D01*
X108870000Y-57820000D02*
X108213000Y-57163000D01*
X106959511Y-59040000D02*
X106849511Y-58930000D01*
X107200000Y-59990000D02*
X108900000Y-59990000D01*
X108193137Y-58650000D02*
X108288578Y-58650000D01*
X113180000Y-52710000D02*
X113820000Y-53350000D01*
X108530000Y-58750000D02*
X108580502Y-58800502D01*
X107947157Y-59390000D02*
X107490000Y-59390000D01*
X106222842Y-53982842D02*
X106292842Y-53982842D01*
X106412339Y-54032339D02*
X106616421Y-54236421D01*
X107620000Y-58490000D02*
X107806862Y-58490000D01*
X105217781Y-53700000D02*
X105540000Y-53700000D01*
X105765003Y-59744997D02*
X105645000Y-59865000D01*
X103620000Y-54770000D02*
X103669289Y-54720710D01*
X104893639Y-59400000D02*
X105487365Y-59400000D01*
X103619998Y-54769998D02*
G75*
G03*
X103500000Y-55059705I289702J-289702D01*
G01*
X103810715Y-54379294D02*
G75*
G03*
X103740000Y-54550000I170685J-170706D01*
G01*
X107490000Y-58360000D02*
G75*
G03*
X107620000Y-58490000I130000J0D01*
G01*
X104869986Y-58069986D02*
G75*
G03*
X104740000Y-58383847I313814J-313814D01*
G01*
X103669285Y-54720706D02*
G75*
G03*
X103740000Y-54550000I-170685J170706D01*
G01*
X103435007Y-55745007D02*
G75*
G03*
X103500000Y-55588078I-156907J156907D01*
G01*
X107489984Y-58360000D02*
G75*
G03*
X107398076Y-58138076I-313884J0D01*
G01*
X106222845Y-53982839D02*
G75*
G03*
X105540000Y-53700000I-682845J-682861D01*
G01*
X106869981Y-54848614D02*
G75*
G03*
X106616421Y-54236421I-865781J14D01*
G01*
X104740017Y-59246360D02*
G75*
G03*
X104785000Y-59355000I153583J-40D01*
G01*
X103434993Y-55744993D02*
G75*
G03*
X103370000Y-55901923I156907J-156907D01*
G01*
X105217781Y-53699993D02*
G75*
G03*
X105085000Y-53755000I19J-187807D01*
G01*
X108629998Y-58920000D02*
G75*
G03*
X108580502Y-58800502I-168998J0D01*
G01*
X106889982Y-55384142D02*
G75*
G03*
X106880000Y-55360000I-34082J42D01*
G01*
X106870018Y-55335857D02*
G75*
G03*
X106880000Y-55360000I34082J-43D01*
G01*
X104784988Y-59355012D02*
G75*
G03*
X104893639Y-59400000I108612J108612D01*
G01*
X106890007Y-56319583D02*
G75*
G03*
X107060000Y-56730000I580393J-17D01*
G01*
X106412310Y-54032368D02*
G75*
G03*
X106292842Y-53982842I-119510J-119432D01*
G01*
X103724987Y-59745013D02*
G75*
G03*
X104582045Y-60100000I857013J857013D01*
G01*
X107230020Y-57786152D02*
G75*
G03*
X107360000Y-58100000I443780J-48D01*
G01*
X105765010Y-59514990D02*
G75*
G03*
X105487365Y-59400000I-277610J-277610D01*
G01*
X104952218Y-53810007D02*
G75*
G03*
X105085000Y-53755000I-18J187807D01*
G01*
X107999989Y-58570011D02*
G75*
G03*
X108193137Y-58650000I193111J193111D01*
G01*
X105183847Y-57940020D02*
G75*
G03*
X104870000Y-58070000I-47J-443780D01*
G01*
X108000011Y-58569989D02*
G75*
G03*
X107806862Y-58490000I-193111J-193111D01*
G01*
X108530006Y-58749994D02*
G75*
G03*
X108288578Y-58650000I-241406J-241406D01*
G01*
X105765003Y-59744997D02*
G75*
G03*
X105765000Y-59515000I-115003J114997D01*
G01*
X105077659Y-60099954D02*
G75*
G03*
X105645000Y-59865000I41J802354D01*
G01*
X104705000Y-53809994D02*
G75*
G03*
X104150190Y-54039809I0J-784606D01*
G01*
X108580504Y-59039499D02*
G75*
G03*
X108630000Y-58920000I-119504J119499D01*
G01*
X103370019Y-58887954D02*
G75*
G03*
X103725000Y-59745000I1211981J-46D01*
G01*
X106041715Y-57966449D02*
G75*
G03*
X105870796Y-57940000I-183115J-617851D01*
G01*
X107947157Y-59389953D02*
G75*
G03*
X108430000Y-59190000I43J682853D01*
G01*
X107229993Y-57140416D02*
G75*
G03*
X107060000Y-56730000I-580393J16D01*
G01*
%TO.N,SDX*%
X104750000Y-71990000D02*
X104750000Y-68820000D01*
X104260000Y-72480000D02*
X104750000Y-71990000D01*
X104750000Y-68820000D02*
X105060000Y-68510000D01*
%TO.N,INTX*%
X108730000Y-70557107D02*
X108730000Y-68680000D01*
X109150000Y-71360000D02*
X109150000Y-70977107D01*
X109150000Y-70977107D02*
X108730000Y-70557107D01*
X108730000Y-68680000D02*
X108860000Y-68550000D01*
X108700000Y-71810000D02*
X109150000Y-71360000D01*
%TO.N,LEDG*%
X103330000Y-73680000D02*
X103330000Y-72617107D01*
X104852893Y-68010000D02*
X106012448Y-68010000D01*
X104400000Y-71547107D02*
X104400000Y-68462893D01*
X104400000Y-68462893D02*
X104852893Y-68010000D01*
X109280000Y-72350000D02*
X110970000Y-70660000D01*
X108400000Y-72350000D02*
X109280000Y-72350000D01*
X106012448Y-68010000D02*
X107967000Y-69964552D01*
X107967000Y-71917000D02*
X108400000Y-72350000D01*
X107967000Y-69964552D02*
X107967000Y-71917000D01*
X103330000Y-72617107D02*
X104400000Y-71547107D01*
X110970000Y-70660000D02*
X111380000Y-70660000D01*
%TO.N,LEDCHG*%
X115760000Y-59310000D02*
X115550000Y-59520000D01*
X115550000Y-59520000D02*
X113000000Y-59520000D01*
X109040000Y-55560000D02*
X109040000Y-54730000D01*
X113000000Y-59520000D02*
X109040000Y-55560000D01*
%TO.N,/GREEN*%
X115070000Y-58460000D02*
X115070000Y-54160000D01*
X115070000Y-54160000D02*
X116070000Y-53160000D01*
X114960000Y-58570000D02*
X115070000Y-58460000D01*
%TO.N,LEDSTBY*%
X111400000Y-54670000D02*
X110290000Y-53560000D01*
X111400000Y-56730000D02*
X111400000Y-54670000D01*
X113300000Y-58560000D02*
X113230000Y-58560000D01*
X113230000Y-58560000D02*
X111400000Y-56730000D01*
%TO.N,EN2*%
X115552893Y-58810000D02*
X115169893Y-59193000D01*
X114743000Y-59193000D02*
X112040000Y-56490000D01*
X113667000Y-60323000D02*
X113940000Y-60050000D01*
X112030000Y-68530000D02*
X112510000Y-68530000D01*
X116260000Y-59517107D02*
X116260000Y-59102893D01*
X113667000Y-67373000D02*
X113667000Y-60323000D01*
X115727107Y-60050000D02*
X116260000Y-59517107D01*
X115967107Y-58810000D02*
X115552893Y-58810000D01*
X115169893Y-59193000D02*
X114743000Y-59193000D01*
X116260000Y-59102893D02*
X115967107Y-58810000D01*
X112510000Y-68530000D02*
X113667000Y-67373000D01*
X112040000Y-56490000D02*
X112040000Y-54550000D01*
X111670000Y-68890000D02*
X112030000Y-68530000D01*
X113940000Y-60050000D02*
X115727107Y-60050000D01*
%TO.N,EN1*%
X111380000Y-68060000D02*
X112120000Y-68060000D01*
X112120000Y-68060000D02*
X113280000Y-66900000D01*
X111450000Y-53060000D02*
X112040000Y-53650000D01*
X108540000Y-56630000D02*
X108540000Y-54522893D01*
X110002893Y-53060000D02*
X111450000Y-53060000D01*
X113280000Y-64690000D02*
X111340000Y-62750000D01*
X113280000Y-66900000D02*
X113280000Y-64690000D01*
X111340000Y-62750000D02*
X111340000Y-59430000D01*
X108540000Y-54522893D02*
X110002893Y-53060000D01*
X111340000Y-59430000D02*
X108540000Y-56630000D01*
%TD*%
%TA.AperFunction,Conductor*%
%TO.N,GND*%
G36*
X105007959Y-52001985D02*
G01*
X105008001Y-52001991D01*
X105009740Y-52002266D01*
X105011957Y-52002660D01*
X105049852Y-52010194D01*
X105081950Y-52021322D01*
X105088408Y-52024612D01*
X105088414Y-52024615D01*
X105094703Y-52028300D01*
X105117266Y-52043373D01*
X105136057Y-52058795D01*
X105139800Y-52062538D01*
X105155219Y-52081325D01*
X105170278Y-52103860D01*
X105173972Y-52110163D01*
X105177255Y-52116605D01*
X105188396Y-52148746D01*
X105195701Y-52185523D01*
X105198077Y-52209681D01*
X105198078Y-53189608D01*
X105187656Y-53225101D01*
X105195695Y-53265512D01*
X105198078Y-53289704D01*
X105198078Y-53292222D01*
X105198100Y-53292445D01*
X105198100Y-53317932D01*
X105189809Y-53346167D01*
X105195640Y-53364793D01*
X105177152Y-53432172D01*
X105125170Y-53478859D01*
X105102385Y-53486443D01*
X105102461Y-53486693D01*
X105096631Y-53488461D01*
X105021065Y-53519768D01*
X104970295Y-53553691D01*
X104962648Y-53557780D01*
X104956939Y-53561596D01*
X104953499Y-53562673D01*
X104948915Y-53565125D01*
X104944889Y-53566795D01*
X104944365Y-53565534D01*
X104890263Y-53582480D01*
X104888039Y-53582500D01*
X104756368Y-53582500D01*
X104756348Y-53582494D01*
X104705000Y-53582494D01*
X104625344Y-53582494D01*
X104588421Y-53588342D01*
X104467997Y-53607415D01*
X104467994Y-53607415D01*
X104316475Y-53656648D01*
X104174530Y-53728975D01*
X104045643Y-53822619D01*
X104045640Y-53822622D01*
X104006761Y-53861503D01*
X104006757Y-53861505D01*
X103980219Y-53888047D01*
X103630691Y-54237572D01*
X103630599Y-54237674D01*
X103617203Y-54251068D01*
X103617195Y-54251077D01*
X103565876Y-54327872D01*
X103530523Y-54413216D01*
X103512500Y-54503813D01*
X103512500Y-54504399D01*
X103512412Y-54504696D01*
X103511903Y-54509873D01*
X103510921Y-54509776D01*
X103492815Y-54571438D01*
X103476181Y-54592080D01*
X103472785Y-54595475D01*
X103472766Y-54595497D01*
X103414756Y-54653506D01*
X103414753Y-54653510D01*
X103345020Y-54757872D01*
X103345019Y-54757874D01*
X103296989Y-54873829D01*
X103296984Y-54873845D01*
X103272499Y-54996945D01*
X103272500Y-55029384D01*
X103272500Y-55530997D01*
X103272495Y-55531049D01*
X103272495Y-55534417D01*
X103272020Y-55536034D01*
X103270269Y-55554414D01*
X103270264Y-55554440D01*
X103266810Y-55553775D01*
X103252810Y-55601456D01*
X103247705Y-55607795D01*
X103235903Y-55625458D01*
X103235022Y-55627104D01*
X103193641Y-55689040D01*
X103193638Y-55689046D01*
X103159762Y-55770839D01*
X103146670Y-55836682D01*
X103144910Y-55842225D01*
X103142500Y-55853568D01*
X103142500Y-55854712D01*
X103142495Y-55854811D01*
X103142500Y-55899606D01*
X103142500Y-58914945D01*
X103142516Y-58915283D01*
X103142515Y-58965492D01*
X103142515Y-58982299D01*
X103150370Y-59041977D01*
X103167140Y-59169388D01*
X103167141Y-59169391D01*
X103212288Y-59337900D01*
X103215977Y-59351669D01*
X103288184Y-59526004D01*
X103288188Y-59526012D01*
X103382539Y-59689438D01*
X103382543Y-59689443D01*
X103497412Y-59839146D01*
X103497414Y-59839148D01*
X103497415Y-59839149D01*
X103527801Y-59869535D01*
X103527831Y-59869590D01*
X103564120Y-59905879D01*
X103564120Y-59905880D01*
X103630838Y-59972599D01*
X103646085Y-59984298D01*
X103780543Y-60087470D01*
X103780549Y-60087474D01*
X103780552Y-60087476D01*
X103943979Y-60181829D01*
X104118325Y-60254041D01*
X104300604Y-60302878D01*
X104487699Y-60327504D01*
X104582047Y-60327500D01*
X104582055Y-60327500D01*
X105104407Y-60327500D01*
X105105242Y-60327455D01*
X105158695Y-60327459D01*
X105318796Y-60302111D01*
X105472960Y-60252031D01*
X105617394Y-60178452D01*
X105748539Y-60083186D01*
X105759741Y-60071984D01*
X105759771Y-60071962D01*
X105799485Y-60032248D01*
X105799489Y-60032252D01*
X105799507Y-60032224D01*
X105805853Y-60025881D01*
X105837854Y-59993885D01*
X105837854Y-59993883D01*
X105847441Y-59984298D01*
X105847469Y-59984262D01*
X105881953Y-59949778D01*
X105881963Y-59949771D01*
X105893874Y-59937859D01*
X105893876Y-59937859D01*
X105925874Y-59905860D01*
X105925874Y-59905859D01*
X105943314Y-59888419D01*
X105943322Y-59888410D01*
X105949837Y-59881895D01*
X105949846Y-59881884D01*
X105962190Y-59869540D01*
X105962192Y-59869536D01*
X105962195Y-59869533D01*
X106013547Y-59780584D01*
X106013548Y-59780583D01*
X106013548Y-59780582D01*
X106013550Y-59780579D01*
X106040134Y-59681356D01*
X106040133Y-59578634D01*
X106013546Y-59479412D01*
X105962184Y-59390452D01*
X105962183Y-59390451D01*
X105962152Y-59390397D01*
X105919409Y-59347656D01*
X105882685Y-59310933D01*
X105781109Y-59243065D01*
X105781105Y-59243063D01*
X105781103Y-59243062D01*
X105781101Y-59243061D01*
X105668249Y-59196322D01*
X105668245Y-59196320D01*
X105668243Y-59196320D01*
X105668239Y-59196319D01*
X105668235Y-59196318D01*
X105548428Y-59172496D01*
X105548426Y-59172496D01*
X105528065Y-59172497D01*
X105487341Y-59172500D01*
X105091500Y-59172500D01*
X105024461Y-59152815D01*
X104978706Y-59100011D01*
X104967500Y-59048500D01*
X104967500Y-58441373D01*
X104967505Y-58441312D01*
X104967503Y-58429077D01*
X104967505Y-58429075D01*
X104967500Y-58387887D01*
X104968029Y-58379798D01*
X104972737Y-58344018D01*
X104981111Y-58312751D01*
X104990231Y-58290732D01*
X105006410Y-58262708D01*
X105020869Y-58243863D01*
X105043755Y-58220978D01*
X105062714Y-58206430D01*
X105090752Y-58190244D01*
X105104976Y-58184354D01*
X105112759Y-58181131D01*
X105144019Y-58172756D01*
X105179956Y-58168028D01*
X105188034Y-58167500D01*
X105229075Y-58167505D01*
X105229077Y-58167503D01*
X105241312Y-58167505D01*
X105241373Y-58167500D01*
X105694010Y-58167500D01*
X105761049Y-58187185D01*
X105804492Y-58235202D01*
X105851950Y-58328342D01*
X105851951Y-58328343D01*
X105851954Y-58328347D01*
X105941652Y-58418045D01*
X105941654Y-58418046D01*
X105941658Y-58418050D01*
X106054696Y-58475646D01*
X106054697Y-58475646D01*
X106054699Y-58475647D01*
X106179997Y-58495492D01*
X106180000Y-58495492D01*
X106180003Y-58495492D01*
X106305300Y-58475647D01*
X106305301Y-58475646D01*
X106305304Y-58475646D01*
X106319466Y-58468429D01*
X106388134Y-58455532D01*
X106389231Y-58455977D01*
X106413504Y-58427013D01*
X106411442Y-58424951D01*
X106508045Y-58328347D01*
X106508050Y-58328342D01*
X106565646Y-58215304D01*
X106565646Y-58215302D01*
X106565647Y-58215301D01*
X106565647Y-58215300D01*
X106585492Y-58090003D01*
X106585492Y-58089996D01*
X106565647Y-57964699D01*
X106565647Y-57964698D01*
X106555765Y-57945304D01*
X106508050Y-57851658D01*
X106508046Y-57851654D01*
X106508045Y-57851652D01*
X106418347Y-57761954D01*
X106418344Y-57761952D01*
X106418342Y-57761950D01*
X106305304Y-57704354D01*
X106305303Y-57704353D01*
X106305300Y-57704352D01*
X106180003Y-57684508D01*
X106179998Y-57684508D01*
X106054700Y-57704352D01*
X106054694Y-57704354D01*
X106048452Y-57707535D01*
X105979782Y-57720426D01*
X105978715Y-57720314D01*
X105934982Y-57715543D01*
X105928813Y-57714553D01*
X105919153Y-57712500D01*
X105872949Y-57712500D01*
X105833157Y-57711746D01*
X105829857Y-57711684D01*
X105829856Y-57711684D01*
X105824575Y-57711584D01*
X105814279Y-57712500D01*
X105156885Y-57712500D01*
X105156552Y-57712516D01*
X105117747Y-57712514D01*
X105117744Y-57712514D01*
X104988034Y-57738304D01*
X104865854Y-57788906D01*
X104865852Y-57788907D01*
X104755897Y-57862372D01*
X104755886Y-57862380D01*
X104745453Y-57872812D01*
X104745391Y-57872845D01*
X104662361Y-57955877D01*
X104588889Y-58065842D01*
X104588889Y-58065843D01*
X104538285Y-58188028D01*
X104512493Y-58317747D01*
X104512500Y-58380670D01*
X104512500Y-59273449D01*
X104512510Y-59273668D01*
X104512505Y-59296488D01*
X104530900Y-59365183D01*
X104537666Y-59390452D01*
X104538468Y-59393445D01*
X104538471Y-59393453D01*
X104588644Y-59480372D01*
X104588752Y-59480512D01*
X104659609Y-59551362D01*
X104659608Y-59551362D01*
X104659610Y-59551363D01*
X104659612Y-59551365D01*
X104716685Y-59584310D01*
X104746546Y-59601547D01*
X104848025Y-59628720D01*
X104907692Y-59665075D01*
X104938232Y-59727917D01*
X104929948Y-59797293D01*
X104885472Y-59851179D01*
X104818924Y-59872464D01*
X104815952Y-59872500D01*
X104639132Y-59872500D01*
X104639099Y-59872497D01*
X104584472Y-59872499D01*
X104579605Y-59872308D01*
X104437751Y-59861149D01*
X104418531Y-59858106D01*
X104287280Y-59826599D01*
X104268774Y-59820586D01*
X104144077Y-59768938D01*
X104126738Y-59760104D01*
X104011652Y-59689581D01*
X103995910Y-59678144D01*
X103994165Y-59676654D01*
X103893369Y-59590566D01*
X103879610Y-59576807D01*
X103853857Y-59546654D01*
X103791869Y-59474075D01*
X103780434Y-59458335D01*
X103767713Y-59437576D01*
X103709909Y-59343247D01*
X103701078Y-59325913D01*
X103649428Y-59201212D01*
X103643420Y-59182720D01*
X103611911Y-59051459D01*
X103608869Y-59032245D01*
X103606852Y-59006609D01*
X103597691Y-58890149D01*
X103597500Y-58885282D01*
X103597500Y-58877500D01*
X103597502Y-58842710D01*
X103597501Y-58842708D01*
X103597502Y-58830899D01*
X103597500Y-58830867D01*
X103597500Y-55959450D01*
X103597505Y-55959389D01*
X103597505Y-55955631D01*
X103598068Y-55953710D01*
X103599908Y-55935132D01*
X103599914Y-55935102D01*
X103603326Y-55935784D01*
X103617172Y-55888587D01*
X103622167Y-55882392D01*
X103627861Y-55873871D01*
X103627865Y-55873868D01*
X103627866Y-55873863D01*
X103634142Y-55864474D01*
X103635023Y-55862824D01*
X103676361Y-55800956D01*
X103710237Y-55719158D01*
X103723326Y-55653329D01*
X103725084Y-55647797D01*
X103727500Y-55636434D01*
X103727500Y-55635381D01*
X103727502Y-55635324D01*
X103727501Y-55632328D01*
X103727503Y-55632323D01*
X103727500Y-55588055D01*
X103727500Y-55583909D01*
X103727500Y-55246606D01*
X104093165Y-55246606D01*
X104093174Y-55246805D01*
X104093174Y-55280554D01*
X104117000Y-55400360D01*
X104163743Y-55513217D01*
X104163746Y-55513223D01*
X104231606Y-55614790D01*
X104232582Y-55615766D01*
X104232591Y-55615777D01*
X104274792Y-55657979D01*
X104274793Y-55657981D01*
X104315357Y-55698547D01*
X104315402Y-55698584D01*
X104317984Y-55701166D01*
X104317992Y-55701173D01*
X104379160Y-55742045D01*
X104419553Y-55769036D01*
X104419555Y-55769036D01*
X104419557Y-55769038D01*
X104532404Y-55815783D01*
X104532414Y-55815786D01*
X104652219Y-55839618D01*
X104652226Y-55839619D01*
X104664942Y-55839619D01*
X104713298Y-55839619D01*
X104757550Y-55839619D01*
X104819562Y-55856239D01*
X104855725Y-55877123D01*
X104917879Y-55893782D01*
X104933783Y-55899416D01*
X104934734Y-55899619D01*
X104983065Y-55899619D01*
X104983094Y-55899619D01*
X105028324Y-55899623D01*
X105028326Y-55899622D01*
X105040120Y-55899623D01*
X105040173Y-55899619D01*
X105402430Y-55899619D01*
X105402777Y-55899600D01*
X105455098Y-55899601D01*
X105612546Y-55874666D01*
X105764155Y-55825409D01*
X105906192Y-55753044D01*
X106035161Y-55659350D01*
X106045411Y-55649100D01*
X106045423Y-55649091D01*
X106057334Y-55637179D01*
X106057336Y-55637179D01*
X106083803Y-55610712D01*
X106091523Y-55602993D01*
X106123523Y-55570996D01*
X106123523Y-55570995D01*
X106133715Y-55560805D01*
X106133734Y-55560780D01*
X106225300Y-55469217D01*
X106225303Y-55469211D01*
X106227458Y-55467057D01*
X106227633Y-55466863D01*
X106251122Y-55443378D01*
X106318297Y-55342855D01*
X106364570Y-55231159D01*
X106388162Y-55112581D01*
X106388162Y-55112580D01*
X106388165Y-55112553D01*
X106388165Y-55084728D01*
X106388169Y-55084681D01*
X106388169Y-55077836D01*
X106388186Y-55077774D01*
X106388181Y-55026447D01*
X106388182Y-55026447D01*
X106388177Y-54972096D01*
X106387481Y-54968601D01*
X106366962Y-54865488D01*
X106366962Y-54865486D01*
X106360101Y-54848926D01*
X106335002Y-54788342D01*
X106325357Y-54765060D01*
X106325355Y-54765056D01*
X106264964Y-54674684D01*
X106264959Y-54674677D01*
X106226527Y-54636247D01*
X106226522Y-54636243D01*
X106211922Y-54621643D01*
X106211920Y-54621640D01*
X106114626Y-54524346D01*
X106100928Y-54515451D01*
X106097035Y-54512923D01*
X106085581Y-54503647D01*
X106085369Y-54503915D01*
X106082532Y-54501669D01*
X106077179Y-54496902D01*
X106067390Y-54487115D01*
X105996064Y-54445940D01*
X105996061Y-54445939D01*
X105943914Y-54431964D01*
X105925589Y-54425475D01*
X105923666Y-54424619D01*
X105923665Y-54424619D01*
X105875341Y-54424619D01*
X105875197Y-54424618D01*
X105830080Y-54424614D01*
X105830079Y-54424614D01*
X105817842Y-54424613D01*
X105817782Y-54424619D01*
X104861517Y-54424619D01*
X104861007Y-54424644D01*
X104847604Y-54424642D01*
X104847597Y-54424643D01*
X104767365Y-54440583D01*
X104691782Y-54471871D01*
X104691777Y-54471874D01*
X104641002Y-54505786D01*
X104633357Y-54509872D01*
X104627622Y-54513703D01*
X104624170Y-54514783D01*
X104619615Y-54517218D01*
X104615591Y-54518886D01*
X104615070Y-54517630D01*
X104560941Y-54534569D01*
X104558774Y-54534588D01*
X104554441Y-54534588D01*
X104463846Y-54552625D01*
X104463842Y-54552626D01*
X104378506Y-54587992D01*
X104378504Y-54587993D01*
X104316581Y-54629385D01*
X104314165Y-54630637D01*
X104314195Y-54630682D01*
X104303240Y-54637794D01*
X104271896Y-54669152D01*
X104230751Y-54710299D01*
X104230615Y-54710449D01*
X104212579Y-54728483D01*
X104212571Y-54728493D01*
X104171972Y-54789245D01*
X104118356Y-54834047D01*
X104113935Y-54834601D01*
X104116453Y-54838677D01*
X104115221Y-54907492D01*
X104115490Y-54907574D01*
X104115203Y-54908518D01*
X104115203Y-54908535D01*
X104115173Y-54908615D01*
X104113722Y-54913399D01*
X104093165Y-55016725D01*
X104093165Y-55246606D01*
X103727500Y-55246606D01*
X103727500Y-55104957D01*
X103727501Y-55104955D01*
X103727500Y-55063766D01*
X103728031Y-55055666D01*
X103728500Y-55052108D01*
X103731577Y-55028727D01*
X103739953Y-54997467D01*
X103745665Y-54983677D01*
X103761843Y-54955655D01*
X103772043Y-54942361D01*
X103778378Y-54934104D01*
X103783730Y-54928002D01*
X103813317Y-54898415D01*
X103847064Y-54864669D01*
X103847066Y-54864664D01*
X103852773Y-54858958D01*
X103852807Y-54858918D01*
X103862802Y-54848926D01*
X103893771Y-54802581D01*
X103947385Y-54757779D01*
X103951810Y-54757223D01*
X103949291Y-54753144D01*
X103950100Y-54693119D01*
X103948288Y-54692759D01*
X103951761Y-54675304D01*
X103967500Y-54596186D01*
X103967500Y-54595597D01*
X103967587Y-54595297D01*
X103968097Y-54590127D01*
X103969077Y-54590223D01*
X103987185Y-54528558D01*
X104003827Y-54507908D01*
X104014727Y-54497009D01*
X104014744Y-54496986D01*
X104261620Y-54250111D01*
X104261627Y-54250107D01*
X104279061Y-54232672D01*
X104279062Y-54232672D01*
X104308919Y-54202813D01*
X104313396Y-54198755D01*
X104386047Y-54139130D01*
X104406251Y-54125631D01*
X104481035Y-54085658D01*
X104503490Y-54076356D01*
X104584623Y-54051744D01*
X104608462Y-54047002D01*
X104643412Y-54043560D01*
X104701907Y-54037799D01*
X104707988Y-54037500D01*
X104750253Y-54037500D01*
X104895138Y-54037500D01*
X104895190Y-54037504D01*
X104900856Y-54037504D01*
X104900883Y-54037511D01*
X104952240Y-54037505D01*
X104952240Y-54037507D01*
X104993139Y-54037503D01*
X105073364Y-54021539D01*
X105148935Y-53990233D01*
X105199674Y-53956326D01*
X105207301Y-53952251D01*
X105213085Y-53948388D01*
X105216579Y-53947294D01*
X105221166Y-53944844D01*
X105225181Y-53943183D01*
X105225700Y-53944439D01*
X105279766Y-53927519D01*
X105281962Y-53927500D01*
X105494747Y-53927500D01*
X105536952Y-53927500D01*
X105543033Y-53927799D01*
X105671860Y-53940487D01*
X105695700Y-53945229D01*
X105810806Y-53980145D01*
X105833262Y-53989446D01*
X105939349Y-54046150D01*
X105959554Y-54059651D01*
X106039953Y-54125631D01*
X106053122Y-54136438D01*
X106066607Y-54149319D01*
X106086131Y-54171003D01*
X106090540Y-54174206D01*
X106091121Y-54174526D01*
X106093975Y-54175708D01*
X106093976Y-54175709D01*
X106132327Y-54191594D01*
X106133755Y-54192208D01*
X106174485Y-54210342D01*
X106174489Y-54210342D01*
X106177590Y-54210342D01*
X106177592Y-54210343D01*
X106217245Y-54210342D01*
X106284285Y-54230025D01*
X106304928Y-54246661D01*
X106453383Y-54395116D01*
X106457463Y-54399617D01*
X106516759Y-54471873D01*
X106527173Y-54484563D01*
X106540676Y-54504774D01*
X106588142Y-54593581D01*
X106597444Y-54616040D01*
X106626674Y-54712407D01*
X106631416Y-54736248D01*
X106642200Y-54845766D01*
X106642499Y-54851846D01*
X106642499Y-54908303D01*
X106642500Y-55131490D01*
X106642500Y-55352768D01*
X106642482Y-55370063D01*
X106645436Y-55381123D01*
X106652884Y-55409018D01*
X106653627Y-55412120D01*
X106659789Y-55441103D01*
X106662500Y-55466889D01*
X106662500Y-56347051D01*
X106662505Y-56347166D01*
X106662505Y-56383160D01*
X106682395Y-56508765D01*
X106682397Y-56508770D01*
X106721689Y-56629706D01*
X106721691Y-56629711D01*
X106721692Y-56629712D01*
X106779424Y-56743022D01*
X106854172Y-56845905D01*
X106854174Y-56845907D01*
X106867133Y-56858866D01*
X106867134Y-56858868D01*
X106867135Y-56858868D01*
X106896259Y-56887994D01*
X106901607Y-56894092D01*
X106918688Y-56916352D01*
X106945276Y-56951003D01*
X106961462Y-56979037D01*
X106984222Y-57033986D01*
X106992600Y-57065256D01*
X107001968Y-57136433D01*
X107002499Y-57144533D01*
X107002498Y-57200093D01*
X107002500Y-57200102D01*
X107002500Y-57813136D01*
X107002516Y-57813463D01*
X107002514Y-57852251D01*
X107002514Y-57852257D01*
X107028304Y-57981963D01*
X107028304Y-57981965D01*
X107078675Y-58103587D01*
X107078907Y-58104146D01*
X107152377Y-58214109D01*
X107199133Y-58260867D01*
X107215793Y-58277526D01*
X107226178Y-58287911D01*
X107259665Y-58349230D01*
X107262500Y-58375594D01*
X107262500Y-58407066D01*
X107286863Y-58497990D01*
X107333929Y-58579510D01*
X107333931Y-58579512D01*
X107397646Y-58643227D01*
X107405964Y-58658460D01*
X107434845Y-58665906D01*
X107482010Y-58693137D01*
X107560272Y-58714107D01*
X107567168Y-58716549D01*
X107571641Y-58717500D01*
X107571643Y-58717500D01*
X107572934Y-58717500D01*
X107620000Y-58717500D01*
X107665253Y-58717500D01*
X107749020Y-58717500D01*
X107749098Y-58717507D01*
X107761639Y-58717505D01*
X107761641Y-58717506D01*
X107774368Y-58717504D01*
X107841410Y-58737178D01*
X107862062Y-58753817D01*
X107873993Y-58765747D01*
X107931496Y-58804166D01*
X107955998Y-58820537D01*
X107955999Y-58820537D01*
X107956000Y-58820538D01*
X107968593Y-58825753D01*
X108047116Y-58858273D01*
X108128876Y-58874528D01*
X108190790Y-58906908D01*
X108225370Y-58967620D01*
X108221637Y-59037390D01*
X108180776Y-59094066D01*
X108163140Y-59105511D01*
X108132195Y-59122048D01*
X108109736Y-59131349D01*
X108047686Y-59150166D01*
X108023847Y-59154906D01*
X107949728Y-59162201D01*
X107943648Y-59162499D01*
X107889349Y-59162496D01*
X107889311Y-59162500D01*
X107635596Y-59162500D01*
X107568557Y-59142815D01*
X107547915Y-59126181D01*
X107428343Y-59006609D01*
X107306199Y-58884465D01*
X107303983Y-58882129D01*
X107280694Y-58856263D01*
X107276311Y-58847131D01*
X107259519Y-58844183D01*
X107257790Y-58843413D01*
X107240702Y-58834134D01*
X107223350Y-58822865D01*
X107223347Y-58822864D01*
X107221296Y-58822540D01*
X107190265Y-58813348D01*
X107188363Y-58812501D01*
X107188357Y-58812500D01*
X107167657Y-58812500D01*
X107148260Y-58810973D01*
X107146197Y-58810646D01*
X107127828Y-58807736D01*
X107114812Y-58808419D01*
X107114651Y-58805347D01*
X107065090Y-58804166D01*
X107010701Y-58769027D01*
X106986219Y-58741837D01*
X106986217Y-58741835D01*
X106967308Y-58733416D01*
X106950213Y-58724134D01*
X106932861Y-58712865D01*
X106932858Y-58712864D01*
X106930807Y-58712540D01*
X106899776Y-58703348D01*
X106897874Y-58702501D01*
X106897868Y-58702500D01*
X106877168Y-58702500D01*
X106857771Y-58700973D01*
X106837339Y-58697737D01*
X106837333Y-58697736D01*
X106831778Y-58698027D01*
X106763801Y-58681874D01*
X106763296Y-58681584D01*
X106720314Y-58656769D01*
X106717547Y-58655073D01*
X106683348Y-58632864D01*
X106679203Y-58631273D01*
X106678466Y-58630921D01*
X106676890Y-58630363D01*
X106676089Y-58630171D01*
X106671871Y-58628800D01*
X106631313Y-58624537D01*
X106628098Y-58624113D01*
X106587826Y-58617736D01*
X106583399Y-58617968D01*
X106582581Y-58617946D01*
X106580912Y-58618077D01*
X106580107Y-58618227D01*
X106575690Y-58618691D01*
X106536888Y-58631298D01*
X106533773Y-58632220D01*
X106531492Y-58632831D01*
X106530120Y-58633198D01*
X106482501Y-58632062D01*
X106460907Y-58669060D01*
X106458729Y-58671068D01*
X106453403Y-58675863D01*
X106450939Y-58677968D01*
X106419250Y-58703630D01*
X106416448Y-58707090D01*
X106415877Y-58707691D01*
X106414884Y-58708986D01*
X106414451Y-58709693D01*
X106411838Y-58713289D01*
X106395248Y-58750550D01*
X106393851Y-58753479D01*
X106375340Y-58789806D01*
X106374195Y-58794082D01*
X106373922Y-58794852D01*
X106373527Y-58796497D01*
X106373421Y-58797306D01*
X106372500Y-58801639D01*
X106372500Y-58842435D01*
X106372415Y-58845680D01*
X106370282Y-58886381D01*
X106370973Y-58890743D01*
X106372500Y-58910144D01*
X106372500Y-59382435D01*
X106372415Y-59385680D01*
X106370282Y-59426382D01*
X106370283Y-59426389D01*
X106377698Y-59445707D01*
X106383223Y-59464357D01*
X106387526Y-59484601D01*
X106388750Y-59486285D01*
X106404192Y-59514726D01*
X106404938Y-59516669D01*
X106404940Y-59516673D01*
X106404942Y-59516675D01*
X106419567Y-59531300D01*
X106432205Y-59546097D01*
X106444369Y-59562839D01*
X106444370Y-59562840D01*
X106444372Y-59562842D01*
X106446171Y-59563880D01*
X106471854Y-59583587D01*
X106757799Y-59869533D01*
X107033778Y-60145512D01*
X107036013Y-60147867D01*
X107056333Y-60170434D01*
X107063292Y-60178163D01*
X107078778Y-60185058D01*
X107082192Y-60186578D01*
X107099288Y-60195860D01*
X107109474Y-60202474D01*
X107116648Y-60207133D01*
X107116650Y-60207134D01*
X107118696Y-60207458D01*
X107149744Y-60216655D01*
X107151641Y-60217499D01*
X107151642Y-60217500D01*
X107151643Y-60217500D01*
X107172343Y-60217500D01*
X107191739Y-60219026D01*
X107212172Y-60222263D01*
X107214180Y-60221724D01*
X107246273Y-60217500D01*
X108892435Y-60217500D01*
X108895678Y-60217584D01*
X108936384Y-60219718D01*
X108955700Y-60212302D01*
X108974352Y-60206777D01*
X108994600Y-60202474D01*
X108996275Y-60201256D01*
X109024735Y-60185803D01*
X109026673Y-60185060D01*
X109041311Y-60170420D01*
X109056094Y-60157794D01*
X109072842Y-60145628D01*
X109073884Y-60143821D01*
X109093585Y-60118147D01*
X109725550Y-59486182D01*
X109727829Y-59484019D01*
X109758163Y-59456708D01*
X109766585Y-59437790D01*
X109775859Y-59420711D01*
X109787134Y-59403350D01*
X109787458Y-59401303D01*
X109796655Y-59370254D01*
X109797500Y-59368357D01*
X109797500Y-59347656D01*
X109799027Y-59328258D01*
X109802263Y-59307828D01*
X109801724Y-59305818D01*
X109797499Y-59273725D01*
X109797500Y-58906908D01*
X109797499Y-58527557D01*
X109797585Y-58524312D01*
X109797818Y-58519878D01*
X109798695Y-58503129D01*
X109821861Y-58437213D01*
X109876987Y-58394285D01*
X109946571Y-58387974D01*
X110008521Y-58420285D01*
X110010206Y-58421939D01*
X111076181Y-59487914D01*
X111109666Y-59549237D01*
X111112500Y-59575595D01*
X111112500Y-62742435D01*
X111112415Y-62745680D01*
X111110282Y-62786382D01*
X111110283Y-62786389D01*
X111117698Y-62805707D01*
X111123223Y-62824357D01*
X111127526Y-62844601D01*
X111128750Y-62846285D01*
X111144192Y-62874726D01*
X111144938Y-62876669D01*
X111144940Y-62876673D01*
X111144942Y-62876675D01*
X111159568Y-62891301D01*
X111172206Y-62906097D01*
X111184372Y-62922842D01*
X111186172Y-62923881D01*
X111211856Y-62943589D01*
X112953072Y-64684805D01*
X112986557Y-64746128D01*
X112981573Y-64815820D01*
X112939701Y-64871753D01*
X112874237Y-64896170D01*
X112845995Y-64894960D01*
X112789906Y-64886077D01*
X112780000Y-64884508D01*
X112779999Y-64884508D01*
X112775612Y-64885203D01*
X112770093Y-64886076D01*
X112700801Y-64877121D01*
X112663017Y-64851284D01*
X112531803Y-64720070D01*
X112366220Y-64554486D01*
X112363985Y-64552131D01*
X112336708Y-64521837D01*
X112336706Y-64521835D01*
X112317797Y-64513416D01*
X112300702Y-64504134D01*
X112283350Y-64492865D01*
X112283347Y-64492864D01*
X112281296Y-64492540D01*
X112250265Y-64483348D01*
X112248363Y-64482501D01*
X112248357Y-64482500D01*
X112227657Y-64482500D01*
X112208260Y-64480973D01*
X112187828Y-64477737D01*
X112185819Y-64478275D01*
X112153727Y-64482500D01*
X108547632Y-64482500D01*
X108480593Y-64462815D01*
X108434838Y-64410011D01*
X108425159Y-64377897D01*
X108405647Y-64254699D01*
X108405647Y-64254698D01*
X108387911Y-64219890D01*
X108348050Y-64141658D01*
X108348046Y-64141654D01*
X108348045Y-64141652D01*
X108258347Y-64051954D01*
X108258344Y-64051952D01*
X108258342Y-64051950D01*
X108145304Y-63994354D01*
X108145303Y-63994353D01*
X108145300Y-63994352D01*
X108020003Y-63974508D01*
X108019997Y-63974508D01*
X107894699Y-63994352D01*
X107894698Y-63994352D01*
X107819337Y-64032751D01*
X107781658Y-64051950D01*
X107781656Y-64051951D01*
X107781657Y-64051951D01*
X107781652Y-64051954D01*
X107691954Y-64141652D01*
X107691951Y-64141657D01*
X107691950Y-64141658D01*
X107690872Y-64143774D01*
X107634352Y-64254698D01*
X107634352Y-64254699D01*
X107614508Y-64379996D01*
X107614508Y-64380003D01*
X107634352Y-64505300D01*
X107634352Y-64505301D01*
X107638487Y-64513416D01*
X107691950Y-64618342D01*
X107691953Y-64618345D01*
X107697689Y-64626241D01*
X107695197Y-64628051D01*
X107720911Y-64675142D01*
X107715927Y-64744834D01*
X107674055Y-64800767D01*
X107608591Y-64825184D01*
X107599745Y-64825500D01*
X107534577Y-64825500D01*
X107531333Y-64825415D01*
X107519561Y-64824798D01*
X107490619Y-64823281D01*
X107490618Y-64823281D01*
X107490616Y-64823281D01*
X107490614Y-64823281D01*
X107490612Y-64823282D01*
X107471285Y-64830700D01*
X107452642Y-64836222D01*
X107432401Y-64840525D01*
X107432399Y-64840526D01*
X107430712Y-64841752D01*
X107402273Y-64857192D01*
X107400327Y-64857938D01*
X107400327Y-64857939D01*
X107385691Y-64872574D01*
X107370904Y-64885203D01*
X107354159Y-64897370D01*
X107354154Y-64897374D01*
X107353112Y-64899181D01*
X107333412Y-64924852D01*
X106932085Y-65326181D01*
X106870762Y-65359666D01*
X106844404Y-65362500D01*
X102695596Y-65362500D01*
X102628557Y-65342815D01*
X102607915Y-65326181D01*
X102361953Y-65080219D01*
X102328468Y-65018896D01*
X102333452Y-64949204D01*
X102342242Y-64930547D01*
X102417550Y-64800110D01*
X102466325Y-64637189D01*
X102476214Y-64467412D01*
X102446682Y-64299930D01*
X102379323Y-64143774D01*
X102277767Y-64007360D01*
X102238615Y-63974508D01*
X102147489Y-63898044D01*
X102147487Y-63898043D01*
X101995517Y-63821720D01*
X101995515Y-63821719D01*
X101995514Y-63821719D01*
X101830033Y-63782500D01*
X101152624Y-63782500D01*
X101041902Y-63795441D01*
X101026084Y-63797290D01*
X100866277Y-63855455D01*
X100724186Y-63948909D01*
X100607484Y-64072605D01*
X100522451Y-64219887D01*
X100473675Y-64382809D01*
X100473674Y-64382815D01*
X100463786Y-64552587D01*
X100463786Y-64552588D01*
X100493316Y-64720063D01*
X100493317Y-64720066D01*
X100493318Y-64720070D01*
X100549918Y-64851284D01*
X100560677Y-64876226D01*
X100620674Y-64956817D01*
X100662233Y-65012640D01*
X100792511Y-65121956D01*
X100944486Y-65198281D01*
X101109967Y-65237500D01*
X101109970Y-65237500D01*
X101787370Y-65237500D01*
X101787376Y-65237500D01*
X101806887Y-65235219D01*
X101875759Y-65246986D01*
X101908966Y-65270699D01*
X102383769Y-65745502D01*
X102386004Y-65747857D01*
X102413291Y-65778162D01*
X102413292Y-65778163D01*
X102432199Y-65786581D01*
X102449294Y-65795862D01*
X102466651Y-65807134D01*
X102468704Y-65807459D01*
X102499737Y-65816652D01*
X102501640Y-65817499D01*
X102501643Y-65817500D01*
X102522337Y-65817500D01*
X102541735Y-65819026D01*
X102562172Y-65822264D01*
X102564184Y-65821724D01*
X102596276Y-65817500D01*
X106982435Y-65817500D01*
X106985678Y-65817584D01*
X107026384Y-65819718D01*
X107045700Y-65812302D01*
X107064352Y-65806777D01*
X107084600Y-65802474D01*
X107086275Y-65801256D01*
X107114735Y-65785803D01*
X107116673Y-65785060D01*
X107131311Y-65770420D01*
X107146094Y-65757794D01*
X107162842Y-65745628D01*
X107163882Y-65743825D01*
X107183587Y-65718144D01*
X107584913Y-65316819D01*
X107646237Y-65283334D01*
X107672595Y-65280500D01*
X109018405Y-65280500D01*
X109085444Y-65300185D01*
X109131199Y-65352989D01*
X109141143Y-65422147D01*
X109112118Y-65485703D01*
X109106088Y-65492177D01*
X108718266Y-65880000D01*
X108362085Y-66236181D01*
X108300762Y-66269666D01*
X108274404Y-66272500D01*
X103487565Y-66272500D01*
X103484321Y-66272415D01*
X103471589Y-66271747D01*
X103443618Y-66270282D01*
X103443617Y-66270282D01*
X103443616Y-66270282D01*
X103443614Y-66270282D01*
X103443611Y-66270283D01*
X103424293Y-66277698D01*
X103405647Y-66283221D01*
X103385400Y-66287525D01*
X103385394Y-66287528D01*
X103383707Y-66288754D01*
X103355279Y-66304189D01*
X103353333Y-66304936D01*
X103353327Y-66304940D01*
X103338692Y-66319574D01*
X103323903Y-66332204D01*
X103307159Y-66344369D01*
X103307157Y-66344372D01*
X103306113Y-66346181D01*
X103286412Y-66371853D01*
X101912085Y-67746181D01*
X101850762Y-67779666D01*
X101824404Y-67782500D01*
X101152624Y-67782500D01*
X101041902Y-67795441D01*
X101026084Y-67797290D01*
X100866277Y-67855455D01*
X100724186Y-67948909D01*
X100607484Y-68072605D01*
X100522451Y-68219887D01*
X100473675Y-68382809D01*
X100473674Y-68382815D01*
X100463786Y-68552587D01*
X100463786Y-68552588D01*
X100493316Y-68720063D01*
X100493317Y-68720066D01*
X100493318Y-68720070D01*
X100560677Y-68876226D01*
X100662233Y-69012640D01*
X100792511Y-69121956D01*
X100944486Y-69198281D01*
X101109967Y-69237500D01*
X101109970Y-69237500D01*
X101787369Y-69237500D01*
X101787376Y-69237500D01*
X101913915Y-69222710D01*
X102073724Y-69164544D01*
X102215812Y-69071092D01*
X102332518Y-68947391D01*
X102417550Y-68800110D01*
X102466325Y-68637189D01*
X102476214Y-68467412D01*
X102446682Y-68299930D01*
X102379323Y-68143774D01*
X102348843Y-68102833D01*
X102324600Y-68037306D01*
X102339632Y-67969072D01*
X102360622Y-67941109D01*
X103537914Y-66763819D01*
X103599238Y-66730334D01*
X103625596Y-66727500D01*
X108412435Y-66727500D01*
X108415678Y-66727584D01*
X108456384Y-66729718D01*
X108475700Y-66722302D01*
X108494352Y-66716777D01*
X108514600Y-66712474D01*
X108516275Y-66711256D01*
X108544735Y-66695803D01*
X108546673Y-66695060D01*
X108561311Y-66680420D01*
X108576094Y-66667794D01*
X108592842Y-66655628D01*
X108593882Y-66653825D01*
X108613587Y-66628144D01*
X109312904Y-65928827D01*
X109374225Y-65895344D01*
X109443917Y-65900328D01*
X109499850Y-65942200D01*
X109523056Y-65997111D01*
X109524354Y-66005304D01*
X109581950Y-66118342D01*
X109636182Y-66172574D01*
X109669666Y-66233895D01*
X109672500Y-66260254D01*
X109672500Y-68031404D01*
X109652815Y-68098443D01*
X109600011Y-68144198D01*
X109530853Y-68154142D01*
X109467297Y-68125117D01*
X109460819Y-68119085D01*
X108406220Y-67064486D01*
X108403985Y-67062131D01*
X108376708Y-67031837D01*
X108376706Y-67031835D01*
X108357797Y-67023416D01*
X108340702Y-67014134D01*
X108323350Y-67002865D01*
X108323347Y-67002864D01*
X108321296Y-67002540D01*
X108290265Y-66993348D01*
X108288363Y-66992501D01*
X108288357Y-66992500D01*
X108267657Y-66992500D01*
X108248260Y-66990973D01*
X108227828Y-66987737D01*
X108225819Y-66988275D01*
X108193727Y-66992500D01*
X104767577Y-66992500D01*
X104764333Y-66992415D01*
X104752561Y-66991798D01*
X104723619Y-66990281D01*
X104723618Y-66990281D01*
X104723616Y-66990281D01*
X104723614Y-66990281D01*
X104723612Y-66990282D01*
X104704285Y-66997700D01*
X104685642Y-67003222D01*
X104665401Y-67007525D01*
X104665399Y-67007526D01*
X104663712Y-67008752D01*
X104635273Y-67024192D01*
X104633327Y-67024938D01*
X104633327Y-67024939D01*
X104618691Y-67039574D01*
X104603904Y-67052203D01*
X104587159Y-67064370D01*
X104587154Y-67064374D01*
X104586112Y-67066181D01*
X104566412Y-67091852D01*
X101912084Y-69746181D01*
X101850761Y-69779666D01*
X101824403Y-69782500D01*
X101152624Y-69782500D01*
X101043085Y-69795303D01*
X101026084Y-69797290D01*
X100866277Y-69855455D01*
X100724186Y-69948909D01*
X100607484Y-70072605D01*
X100522451Y-70219887D01*
X100473675Y-70382809D01*
X100473674Y-70382815D01*
X100463786Y-70552587D01*
X100463786Y-70552588D01*
X100493316Y-70720063D01*
X100493317Y-70720066D01*
X100493318Y-70720070D01*
X100560677Y-70876226D01*
X100662233Y-71012640D01*
X100792511Y-71121956D01*
X100944486Y-71198281D01*
X101109967Y-71237500D01*
X101109970Y-71237500D01*
X101787369Y-71237500D01*
X101787376Y-71237500D01*
X101913915Y-71222710D01*
X102073724Y-71164544D01*
X102215812Y-71071092D01*
X102332518Y-70947391D01*
X102417550Y-70800110D01*
X102466325Y-70637189D01*
X102476214Y-70467412D01*
X102446682Y-70299930D01*
X102379323Y-70143774D01*
X102376373Y-70139812D01*
X102348844Y-70102834D01*
X102324600Y-70037306D01*
X102339632Y-69969072D01*
X102360622Y-69941109D01*
X103960820Y-68340912D01*
X104022142Y-68307428D01*
X104091834Y-68312412D01*
X104147767Y-68354284D01*
X104172184Y-68419748D01*
X104172500Y-68428594D01*
X104172500Y-68435235D01*
X104170972Y-68454633D01*
X104167737Y-68475065D01*
X104168274Y-68477070D01*
X104172500Y-68509165D01*
X104172499Y-71401510D01*
X104152814Y-71468549D01*
X104136180Y-71489191D01*
X103174493Y-72450878D01*
X103172140Y-72453112D01*
X103141837Y-72480397D01*
X103133416Y-72499310D01*
X103124137Y-72516399D01*
X103112867Y-72533754D01*
X103112866Y-72533756D01*
X103112541Y-72535811D01*
X103103351Y-72566837D01*
X103102500Y-72568750D01*
X103102500Y-72589449D01*
X103100972Y-72608847D01*
X103097737Y-72629279D01*
X103098274Y-72631284D01*
X103102500Y-72663379D01*
X103102500Y-73289745D01*
X103082815Y-73356784D01*
X103066181Y-73377426D01*
X103001954Y-73441652D01*
X103001948Y-73441660D01*
X102979633Y-73485456D01*
X102931658Y-73536252D01*
X102863837Y-73553046D01*
X102797702Y-73530508D01*
X102781468Y-73516841D01*
X102449556Y-73184929D01*
X102416071Y-73123606D01*
X102421055Y-73053914D01*
X102425836Y-73042788D01*
X102439180Y-73015492D01*
X102461809Y-72969204D01*
X102472500Y-72895827D01*
X102472499Y-72124174D01*
X102461809Y-72050796D01*
X102406476Y-71937610D01*
X102406474Y-71937608D01*
X102406474Y-71937607D01*
X102317392Y-71848525D01*
X102204202Y-71793190D01*
X102130827Y-71782500D01*
X100809174Y-71782500D01*
X100735795Y-71793191D01*
X100622607Y-71848525D01*
X100533525Y-71937607D01*
X100478190Y-72050797D01*
X100467500Y-72124172D01*
X100467500Y-72895820D01*
X100467501Y-72895826D01*
X100478191Y-72969204D01*
X100533423Y-73082184D01*
X100533525Y-73082392D01*
X100622607Y-73171474D01*
X100622608Y-73171474D01*
X100622610Y-73171476D01*
X100735796Y-73226809D01*
X100809173Y-73237500D01*
X101807296Y-73237499D01*
X101874335Y-73257183D01*
X101894977Y-73273818D01*
X102895978Y-74274819D01*
X102929463Y-74336142D01*
X102924479Y-74405834D01*
X102882607Y-74461767D01*
X102817143Y-74486184D01*
X102808297Y-74486500D01*
X100982488Y-74486500D01*
X100915449Y-74466815D01*
X100894807Y-74450181D01*
X99683819Y-73239192D01*
X99650334Y-73177869D01*
X99647500Y-73151511D01*
X99647500Y-71809492D01*
X99667185Y-71742453D01*
X99719989Y-71696698D01*
X99760499Y-71687885D01*
X99760362Y-71687019D01*
X99895300Y-71665647D01*
X99895301Y-71665647D01*
X99895302Y-71665646D01*
X99895304Y-71665646D01*
X100008342Y-71608050D01*
X100098050Y-71518342D01*
X100155646Y-71405304D01*
X100155646Y-71405302D01*
X100155647Y-71405301D01*
X100155647Y-71405300D01*
X100175492Y-71280003D01*
X100175492Y-71279996D01*
X100155647Y-71154699D01*
X100155647Y-71154698D01*
X100138964Y-71121956D01*
X100098050Y-71041658D01*
X100098046Y-71041654D01*
X100098045Y-71041652D01*
X100008347Y-70951954D01*
X100008344Y-70951952D01*
X100008342Y-70951950D01*
X99895304Y-70894354D01*
X99895303Y-70894353D01*
X99895300Y-70894352D01*
X99770003Y-70874508D01*
X99769997Y-70874508D01*
X99644699Y-70894352D01*
X99644698Y-70894352D01*
X99569337Y-70932751D01*
X99531658Y-70951950D01*
X99531656Y-70951951D01*
X99531657Y-70951951D01*
X99531652Y-70951954D01*
X99441954Y-71041652D01*
X99441951Y-71041657D01*
X99384352Y-71154698D01*
X99384352Y-71154699D01*
X99364508Y-71279996D01*
X99364508Y-71280000D01*
X99366076Y-71289900D01*
X99357122Y-71359194D01*
X99331284Y-71396980D01*
X99264493Y-71463771D01*
X99262140Y-71466005D01*
X99231837Y-71493290D01*
X99223416Y-71512203D01*
X99214137Y-71529292D01*
X99202867Y-71546647D01*
X99202866Y-71546649D01*
X99202541Y-71548704D01*
X99193351Y-71579732D01*
X99192500Y-71581643D01*
X99192500Y-71602342D01*
X99190972Y-71621740D01*
X99187737Y-71642172D01*
X99188274Y-71644177D01*
X99192500Y-71676272D01*
X99192500Y-73289542D01*
X99192415Y-73292787D01*
X99190282Y-73333489D01*
X99190283Y-73333496D01*
X99197698Y-73352814D01*
X99203223Y-73371464D01*
X99207526Y-73391708D01*
X99208750Y-73393392D01*
X99224192Y-73421833D01*
X99224938Y-73423776D01*
X99224940Y-73423780D01*
X99224942Y-73423782D01*
X99239568Y-73438408D01*
X99252206Y-73453204D01*
X99264372Y-73469949D01*
X99266172Y-73470988D01*
X99291856Y-73490696D01*
X100588978Y-74787819D01*
X100622463Y-74849142D01*
X100617479Y-74918834D01*
X100575607Y-74974767D01*
X100510143Y-74999184D01*
X100501297Y-74999500D01*
X95124500Y-74999500D01*
X95057461Y-74979815D01*
X95011706Y-74927011D01*
X95000500Y-74875500D01*
X95000500Y-72823248D01*
X95020185Y-72756209D01*
X95072989Y-72710454D01*
X95142147Y-72700510D01*
X95205703Y-72729535D01*
X95209384Y-72732856D01*
X95334603Y-72850445D01*
X95334611Y-72850451D01*
X95454021Y-72916097D01*
X95478632Y-72929627D01*
X95637823Y-72970500D01*
X95637827Y-72970500D01*
X95760923Y-72970500D01*
X95760925Y-72970500D01*
X95760930Y-72970499D01*
X95760934Y-72970499D01*
X95774174Y-72968826D01*
X95883058Y-72955071D01*
X96035871Y-72894568D01*
X96048363Y-72885492D01*
X96168835Y-72797965D01*
X96168835Y-72797963D01*
X96168837Y-72797963D01*
X96273600Y-72671326D01*
X96343579Y-72522613D01*
X96374376Y-72361170D01*
X96369196Y-72278833D01*
X96865624Y-72278833D01*
X96875944Y-72442860D01*
X96926732Y-72599171D01*
X96926734Y-72599175D01*
X97014798Y-72737940D01*
X97134603Y-72850445D01*
X97134611Y-72850451D01*
X97254021Y-72916097D01*
X97278632Y-72929627D01*
X97437823Y-72970500D01*
X97437827Y-72970500D01*
X97560923Y-72970500D01*
X97560925Y-72970500D01*
X97560930Y-72970499D01*
X97560934Y-72970499D01*
X97574174Y-72968826D01*
X97683058Y-72955071D01*
X97835871Y-72894568D01*
X97848363Y-72885492D01*
X97968835Y-72797965D01*
X97968835Y-72797963D01*
X97968837Y-72797963D01*
X98073600Y-72671326D01*
X98143579Y-72522613D01*
X98174376Y-72361170D01*
X98164056Y-72197140D01*
X98113268Y-72040829D01*
X98025202Y-71902060D01*
X98025201Y-71902059D01*
X97905396Y-71789554D01*
X97905388Y-71789548D01*
X97761371Y-71710374D01*
X97761361Y-71710371D01*
X97602180Y-71669500D01*
X97602177Y-71669500D01*
X97479075Y-71669500D01*
X97479065Y-71669500D01*
X97356942Y-71684929D01*
X97356939Y-71684929D01*
X97204130Y-71745431D01*
X97204121Y-71745436D01*
X97071164Y-71842034D01*
X97071162Y-71842037D01*
X96966400Y-71968673D01*
X96896420Y-72117387D01*
X96881207Y-72197139D01*
X96865624Y-72278830D01*
X96865624Y-72278832D01*
X96865624Y-72278833D01*
X96369196Y-72278833D01*
X96364056Y-72197140D01*
X96313268Y-72040829D01*
X96225202Y-71902060D01*
X96225201Y-71902059D01*
X96105396Y-71789554D01*
X96105388Y-71789548D01*
X95961371Y-71710374D01*
X95961361Y-71710371D01*
X95802180Y-71669500D01*
X95802177Y-71669500D01*
X95679075Y-71669500D01*
X95679065Y-71669500D01*
X95556942Y-71684929D01*
X95556939Y-71684929D01*
X95404130Y-71745431D01*
X95404121Y-71745436D01*
X95271164Y-71842034D01*
X95271161Y-71842038D01*
X95220043Y-71903829D01*
X95162143Y-71942936D01*
X95092292Y-71944532D01*
X95032666Y-71908110D01*
X95002197Y-71845234D01*
X95000500Y-71824788D01*
X95000500Y-67417056D01*
X95931500Y-67417056D01*
X95947955Y-67483818D01*
X95972210Y-67582226D01*
X96051263Y-67732849D01*
X96080026Y-67765316D01*
X96164071Y-67860183D01*
X96254318Y-67922476D01*
X96304068Y-67956817D01*
X96304069Y-67956817D01*
X96304070Y-67956818D01*
X96336382Y-67969072D01*
X96462439Y-68016879D01*
X96463128Y-68017140D01*
X96539028Y-68026356D01*
X96589626Y-68032500D01*
X96589628Y-68032500D01*
X96674374Y-68032500D01*
X96716538Y-68027380D01*
X96800872Y-68017140D01*
X96959930Y-67956818D01*
X97099929Y-67860183D01*
X97212734Y-67732852D01*
X97213208Y-67731950D01*
X97275751Y-67612784D01*
X97291790Y-67582225D01*
X97332500Y-67417056D01*
X97332500Y-67246944D01*
X97291790Y-67081775D01*
X97269641Y-67039574D01*
X97212736Y-66931150D01*
X97133830Y-66842084D01*
X97099929Y-66803817D01*
X97028341Y-66754403D01*
X96959931Y-66707182D01*
X96800874Y-66646860D01*
X96800868Y-66646859D01*
X96674374Y-66631500D01*
X96674372Y-66631500D01*
X96589628Y-66631500D01*
X96589626Y-66631500D01*
X96463131Y-66646859D01*
X96463125Y-66646860D01*
X96304068Y-66707182D01*
X96164072Y-66803816D01*
X96051263Y-66931150D01*
X95972210Y-67081773D01*
X95972210Y-67081775D01*
X95931500Y-67246944D01*
X95931500Y-67417056D01*
X95000500Y-67417056D01*
X95000500Y-64417056D01*
X95931500Y-64417056D01*
X95946456Y-64477737D01*
X95972210Y-64582226D01*
X96051263Y-64732849D01*
X96051266Y-64732852D01*
X96164071Y-64860183D01*
X96241037Y-64913309D01*
X96304068Y-64956817D01*
X96304069Y-64956817D01*
X96304070Y-64956818D01*
X96348899Y-64973819D01*
X96451251Y-65012636D01*
X96463128Y-65017140D01*
X96539028Y-65026356D01*
X96589626Y-65032500D01*
X96589628Y-65032500D01*
X96674374Y-65032500D01*
X96716538Y-65027380D01*
X96800872Y-65017140D01*
X96959930Y-64956818D01*
X97099929Y-64860183D01*
X97212734Y-64732852D01*
X97219447Y-64720063D01*
X97291789Y-64582226D01*
X97291790Y-64582225D01*
X97332500Y-64417056D01*
X97332500Y-64246944D01*
X97291790Y-64081775D01*
X97276137Y-64051951D01*
X97212736Y-63931150D01*
X97193560Y-63909505D01*
X97099929Y-63803817D01*
X97050177Y-63769475D01*
X96959931Y-63707182D01*
X96800874Y-63646860D01*
X96800868Y-63646859D01*
X96674374Y-63631500D01*
X96674372Y-63631500D01*
X96589628Y-63631500D01*
X96589626Y-63631500D01*
X96463131Y-63646859D01*
X96463125Y-63646860D01*
X96304068Y-63707182D01*
X96164072Y-63803816D01*
X96051263Y-63931150D01*
X95972210Y-64081773D01*
X95938169Y-64219887D01*
X95931500Y-64246944D01*
X95931500Y-64417056D01*
X95000500Y-64417056D01*
X95000500Y-61760000D01*
X106527770Y-61760000D01*
X106546643Y-61951626D01*
X106602538Y-62135884D01*
X106693302Y-62305692D01*
X106693306Y-62305699D01*
X106815458Y-62454541D01*
X106964300Y-62576693D01*
X106964307Y-62576697D01*
X107065456Y-62630762D01*
X107134117Y-62667462D01*
X107318376Y-62723357D01*
X107510000Y-62742230D01*
X107701624Y-62723357D01*
X107885883Y-62667462D01*
X108055698Y-62576694D01*
X108204541Y-62454541D01*
X108326694Y-62305698D01*
X108417462Y-62135883D01*
X108473357Y-61951624D01*
X108492230Y-61760000D01*
X108473357Y-61568376D01*
X108417462Y-61384117D01*
X108359500Y-61275677D01*
X108326697Y-61214307D01*
X108326693Y-61214300D01*
X108204541Y-61065458D01*
X108055699Y-60943306D01*
X108055692Y-60943302D01*
X107885884Y-60852538D01*
X107701626Y-60796643D01*
X107510000Y-60777770D01*
X107318373Y-60796643D01*
X107134115Y-60852538D01*
X106964307Y-60943302D01*
X106964300Y-60943306D01*
X106815458Y-61065458D01*
X106693306Y-61214300D01*
X106693302Y-61214307D01*
X106602538Y-61384115D01*
X106546643Y-61568373D01*
X106527770Y-61760000D01*
X95000500Y-61760000D01*
X95000500Y-59885000D01*
X99199534Y-59885000D01*
X99219312Y-60035234D01*
X99219313Y-60035236D01*
X99265966Y-60147867D01*
X99277302Y-60175233D01*
X99369549Y-60295451D01*
X99489767Y-60387698D01*
X99629764Y-60445687D01*
X99742280Y-60460500D01*
X99742287Y-60460500D01*
X99817713Y-60460500D01*
X99817720Y-60460500D01*
X99930236Y-60445687D01*
X100070233Y-60387698D01*
X100190451Y-60295451D01*
X100282698Y-60175233D01*
X100340687Y-60035236D01*
X100360466Y-59885000D01*
X100340687Y-59734764D01*
X100282698Y-59594767D01*
X100190451Y-59474549D01*
X100070233Y-59382302D01*
X100070229Y-59382300D01*
X99996279Y-59351669D01*
X99930236Y-59324313D01*
X99916171Y-59322461D01*
X99817727Y-59309500D01*
X99817720Y-59309500D01*
X99742280Y-59309500D01*
X99742272Y-59309500D01*
X99629764Y-59324313D01*
X99629763Y-59324313D01*
X99489770Y-59382300D01*
X99489767Y-59382301D01*
X99489767Y-59382302D01*
X99369549Y-59474549D01*
X99286885Y-59582279D01*
X99277300Y-59594770D01*
X99219313Y-59734763D01*
X99219312Y-59734765D01*
X99199534Y-59884999D01*
X99199534Y-59885000D01*
X95000500Y-59885000D01*
X95000500Y-54105000D01*
X99199534Y-54105000D01*
X99219312Y-54255234D01*
X99219313Y-54255236D01*
X99277253Y-54395116D01*
X99277302Y-54395233D01*
X99369549Y-54515451D01*
X99489767Y-54607698D01*
X99629764Y-54665687D01*
X99742280Y-54680500D01*
X99742287Y-54680500D01*
X99817713Y-54680500D01*
X99817720Y-54680500D01*
X99930236Y-54665687D01*
X100070233Y-54607698D01*
X100190451Y-54515451D01*
X100282698Y-54395233D01*
X100340687Y-54255236D01*
X100360466Y-54105000D01*
X100340687Y-53954764D01*
X100282698Y-53814767D01*
X100190451Y-53694549D01*
X100070233Y-53602302D01*
X100070229Y-53602300D01*
X99984512Y-53566795D01*
X99930236Y-53544313D01*
X99916171Y-53542461D01*
X99817727Y-53529500D01*
X99817720Y-53529500D01*
X99742280Y-53529500D01*
X99742272Y-53529500D01*
X99629764Y-53544313D01*
X99629763Y-53544313D01*
X99489770Y-53602300D01*
X99489767Y-53602301D01*
X99489767Y-53602302D01*
X99369549Y-53694549D01*
X99289906Y-53798342D01*
X99277300Y-53814770D01*
X99219313Y-53954763D01*
X99219312Y-53954765D01*
X99199534Y-54104999D01*
X99199534Y-54105000D01*
X95000500Y-54105000D01*
X95000500Y-52124500D01*
X95020185Y-52057461D01*
X95072989Y-52011706D01*
X95124500Y-52000500D01*
X104988829Y-52000500D01*
X105007959Y-52001985D01*
G37*
%TD.AperFunction*%
%TA.AperFunction,Conductor*%
G36*
X113975359Y-67499031D02*
G01*
X114029023Y-67543775D01*
X114049978Y-67610428D01*
X114050000Y-67612784D01*
X114050000Y-74875500D01*
X114030315Y-74942539D01*
X113977511Y-74988294D01*
X113926000Y-74999500D01*
X112241594Y-74999500D01*
X112174555Y-74979815D01*
X112128800Y-74927011D01*
X112118856Y-74857853D01*
X112147881Y-74794297D01*
X112153913Y-74787819D01*
X112818551Y-74123181D01*
X113575550Y-73366182D01*
X113577829Y-73364019D01*
X113608163Y-73336708D01*
X113616585Y-73317790D01*
X113625859Y-73300711D01*
X113637134Y-73283350D01*
X113637458Y-73281303D01*
X113646655Y-73250254D01*
X113647500Y-73248357D01*
X113647500Y-73227657D01*
X113649027Y-73208258D01*
X113649880Y-73202873D01*
X113652263Y-73187828D01*
X113651725Y-73185819D01*
X113647500Y-73153727D01*
X113647500Y-72637576D01*
X113647585Y-72634330D01*
X113648860Y-72610000D01*
X113649719Y-72593616D01*
X113642301Y-72574293D01*
X113636776Y-72555643D01*
X113632474Y-72535400D01*
X113631249Y-72533714D01*
X113615807Y-72505274D01*
X113615060Y-72503327D01*
X113600429Y-72488696D01*
X113587793Y-72473902D01*
X113575628Y-72457158D01*
X113575626Y-72457155D01*
X113573825Y-72456116D01*
X113548143Y-72436410D01*
X113418715Y-72306982D01*
X113385230Y-72245659D01*
X113383924Y-72199897D01*
X113384030Y-72199233D01*
X113385492Y-72190000D01*
X113373991Y-72117387D01*
X113365647Y-72064699D01*
X113365647Y-72064698D01*
X113358564Y-72050797D01*
X113308050Y-71951658D01*
X113308046Y-71951654D01*
X113308045Y-71951652D01*
X113218347Y-71861954D01*
X113218344Y-71861952D01*
X113218342Y-71861950D01*
X113105304Y-71804354D01*
X113105303Y-71804353D01*
X113105300Y-71804352D01*
X112980003Y-71784508D01*
X112979997Y-71784508D01*
X112854699Y-71804352D01*
X112854698Y-71804352D01*
X112780745Y-71842034D01*
X112741658Y-71861950D01*
X112741657Y-71861951D01*
X112741656Y-71861951D01*
X112646180Y-71957427D01*
X112584857Y-71990911D01*
X112515165Y-71985927D01*
X112459232Y-71944055D01*
X112434815Y-71878590D01*
X112434500Y-71869772D01*
X112434500Y-70272115D01*
X112434585Y-70268870D01*
X112436718Y-70228168D01*
X112429302Y-70208849D01*
X112423775Y-70190190D01*
X112421660Y-70180240D01*
X112419474Y-70169952D01*
X112418248Y-70168265D01*
X112402802Y-70139812D01*
X112402059Y-70137877D01*
X112387428Y-70123246D01*
X112374790Y-70108450D01*
X112362627Y-70091709D01*
X112362626Y-70091708D01*
X112360821Y-70090666D01*
X112335145Y-70070963D01*
X111745562Y-69481380D01*
X111712077Y-69420057D01*
X111717061Y-69350365D01*
X111758933Y-69294432D01*
X111786611Y-69280080D01*
X111786609Y-69280076D01*
X111787238Y-69279755D01*
X111794936Y-69275764D01*
X111795291Y-69275647D01*
X111795304Y-69275646D01*
X111908342Y-69218050D01*
X111998050Y-69128342D01*
X112055646Y-69015304D01*
X112055646Y-69015302D01*
X112055647Y-69015301D01*
X112055647Y-69015300D01*
X112066402Y-68947391D01*
X112075492Y-68890000D01*
X112075491Y-68889993D01*
X112075492Y-68881500D01*
X112095177Y-68814461D01*
X112147981Y-68768706D01*
X112199492Y-68757500D01*
X112502435Y-68757500D01*
X112505678Y-68757584D01*
X112546384Y-68759718D01*
X112565700Y-68752302D01*
X112584352Y-68746777D01*
X112604600Y-68742474D01*
X112606275Y-68741256D01*
X112634735Y-68725803D01*
X112636673Y-68725060D01*
X112651311Y-68710420D01*
X112666094Y-68697794D01*
X112682842Y-68685628D01*
X112683882Y-68683825D01*
X112703587Y-68658144D01*
X113822549Y-67539183D01*
X113824848Y-67537002D01*
X113836609Y-67526413D01*
X113843032Y-67520631D01*
X113906024Y-67490404D01*
X113975359Y-67499031D01*
G37*
%TD.AperFunction*%
%TA.AperFunction,Conductor*%
G36*
X106461444Y-69247185D02*
G01*
X106482086Y-69263819D01*
X107376181Y-70157914D01*
X107409666Y-70219237D01*
X107412500Y-70245595D01*
X107412500Y-71261134D01*
X107392815Y-71328173D01*
X107340011Y-71373928D01*
X107270853Y-71383872D01*
X107207297Y-71354847D01*
X107175220Y-71311569D01*
X107172474Y-71305401D01*
X107172474Y-71305400D01*
X107171249Y-71303714D01*
X107155807Y-71275274D01*
X107155060Y-71273327D01*
X107155057Y-71273324D01*
X107155057Y-71273323D01*
X107140428Y-71258694D01*
X107127790Y-71243898D01*
X107115627Y-71227157D01*
X107115626Y-71227156D01*
X107113821Y-71226114D01*
X107088145Y-71206411D01*
X106376744Y-70495010D01*
X106343259Y-70433687D01*
X106348243Y-70363995D01*
X106376745Y-70319647D01*
X106408046Y-70288346D01*
X106408050Y-70288342D01*
X106465646Y-70175304D01*
X106465646Y-70175302D01*
X106465647Y-70175301D01*
X106465647Y-70175300D01*
X106485492Y-70050003D01*
X106485492Y-70049996D01*
X106465647Y-69924699D01*
X106465647Y-69924698D01*
X106465646Y-69924696D01*
X106408050Y-69811658D01*
X106408046Y-69811654D01*
X106408045Y-69811652D01*
X106318347Y-69721954D01*
X106318344Y-69721952D01*
X106318342Y-69721950D01*
X106205304Y-69664354D01*
X106205303Y-69664353D01*
X106205300Y-69664352D01*
X106080003Y-69644508D01*
X106079997Y-69644508D01*
X105954699Y-69664352D01*
X105954698Y-69664352D01*
X105879337Y-69702751D01*
X105841658Y-69721950D01*
X105841657Y-69721950D01*
X105841657Y-69721951D01*
X105841652Y-69721954D01*
X105751954Y-69811652D01*
X105751951Y-69811657D01*
X105751950Y-69811658D01*
X105746045Y-69823248D01*
X105694352Y-69924698D01*
X105694352Y-69924699D01*
X105674508Y-70049996D01*
X105674508Y-70050003D01*
X105694352Y-70175300D01*
X105694352Y-70175301D01*
X105703999Y-70194233D01*
X105751950Y-70288342D01*
X105751952Y-70288344D01*
X105751954Y-70288347D01*
X105816180Y-70352573D01*
X105849665Y-70413896D01*
X105852499Y-70440252D01*
X105852500Y-70512434D01*
X105852415Y-70515680D01*
X105850282Y-70556382D01*
X105850283Y-70556389D01*
X105857698Y-70575707D01*
X105863223Y-70594357D01*
X105867526Y-70614601D01*
X105868750Y-70616285D01*
X105884192Y-70644726D01*
X105884413Y-70645301D01*
X105884940Y-70646673D01*
X105884942Y-70646675D01*
X105899567Y-70661300D01*
X105912205Y-70676096D01*
X105924372Y-70692842D01*
X105926173Y-70693882D01*
X105951853Y-70713587D01*
X106335792Y-71097526D01*
X106696181Y-71457914D01*
X106729666Y-71519237D01*
X106732500Y-71545595D01*
X106732500Y-71870838D01*
X106712815Y-71937877D01*
X106701246Y-71947900D01*
X106703363Y-71949304D01*
X106731477Y-72013268D01*
X106732500Y-72029161D01*
X106732500Y-72752435D01*
X106732415Y-72755680D01*
X106730282Y-72796382D01*
X106730283Y-72796389D01*
X106737698Y-72815707D01*
X106743223Y-72834357D01*
X106747526Y-72854601D01*
X106748750Y-72856285D01*
X106764192Y-72884726D01*
X106764938Y-72886669D01*
X106764940Y-72886673D01*
X106764942Y-72886675D01*
X106779567Y-72901300D01*
X106792205Y-72916097D01*
X106804369Y-72932839D01*
X106804370Y-72932840D01*
X106804372Y-72932842D01*
X106806171Y-72933880D01*
X106831854Y-72953587D01*
X107094086Y-73215820D01*
X107343778Y-73465512D01*
X107346013Y-73467867D01*
X107361850Y-73485456D01*
X107373292Y-73498163D01*
X107387543Y-73504508D01*
X107392192Y-73506578D01*
X107409288Y-73515860D01*
X107419474Y-73522474D01*
X107426648Y-73527133D01*
X107426650Y-73527134D01*
X107428696Y-73527458D01*
X107459744Y-73536655D01*
X107461641Y-73537499D01*
X107461642Y-73537500D01*
X107461643Y-73537500D01*
X107482343Y-73537500D01*
X107501739Y-73539026D01*
X107522172Y-73542263D01*
X107524180Y-73541724D01*
X107556273Y-73537500D01*
X109822434Y-73537500D01*
X109825677Y-73537585D01*
X109831851Y-73537908D01*
X109837360Y-73538197D01*
X109903279Y-73561360D01*
X109946210Y-73616484D01*
X109952523Y-73686068D01*
X109920214Y-73748019D01*
X109918558Y-73749707D01*
X109872086Y-73796180D01*
X109810763Y-73829666D01*
X109784404Y-73832500D01*
X107005596Y-73832500D01*
X106938557Y-73812815D01*
X106917915Y-73796181D01*
X106353819Y-73232084D01*
X106320334Y-73170761D01*
X106317500Y-73144403D01*
X106317500Y-72340254D01*
X106337185Y-72273215D01*
X106353814Y-72252577D01*
X106418050Y-72188342D01*
X106475646Y-72075304D01*
X106475646Y-72075302D01*
X106475647Y-72075301D01*
X106475647Y-72075300D01*
X106486027Y-72009764D01*
X106515881Y-71946787D01*
X106489523Y-71905773D01*
X106486027Y-71890236D01*
X106475647Y-71824698D01*
X106459593Y-71793191D01*
X106418050Y-71711658D01*
X106418046Y-71711654D01*
X106418045Y-71711652D01*
X106328347Y-71621954D01*
X106328344Y-71621952D01*
X106328342Y-71621950D01*
X106215304Y-71564354D01*
X106215303Y-71564353D01*
X106215300Y-71564352D01*
X106090003Y-71544508D01*
X106089997Y-71544508D01*
X105964699Y-71564352D01*
X105964698Y-71564352D01*
X105890141Y-71602342D01*
X105851658Y-71621950D01*
X105851656Y-71621951D01*
X105851657Y-71621951D01*
X105851652Y-71621954D01*
X105761954Y-71711652D01*
X105761951Y-71711657D01*
X105761950Y-71711658D01*
X105746259Y-71742453D01*
X105704352Y-71824698D01*
X105704352Y-71824699D01*
X105684508Y-71949996D01*
X105684508Y-71950003D01*
X105704352Y-72075300D01*
X105704352Y-72075301D01*
X105722805Y-72111517D01*
X105761950Y-72188342D01*
X105826182Y-72252574D01*
X105859666Y-72313895D01*
X105862500Y-72340254D01*
X105862500Y-73282435D01*
X105862415Y-73285680D01*
X105860282Y-73326382D01*
X105860283Y-73326389D01*
X105867698Y-73345707D01*
X105873223Y-73364357D01*
X105877526Y-73384601D01*
X105878750Y-73386285D01*
X105894192Y-73414726D01*
X105894938Y-73416669D01*
X105894940Y-73416673D01*
X105894942Y-73416675D01*
X105909567Y-73431300D01*
X105922206Y-73446097D01*
X105927369Y-73453204D01*
X105934372Y-73462842D01*
X105936173Y-73463882D01*
X105961853Y-73483587D01*
X106426085Y-73947819D01*
X106459570Y-74009142D01*
X106454586Y-74078834D01*
X106412714Y-74134767D01*
X106347250Y-74159184D01*
X106338404Y-74159500D01*
X104844964Y-74159500D01*
X104811174Y-74149578D01*
X104790929Y-74158477D01*
X104775036Y-74159500D01*
X103716255Y-74159500D01*
X103649216Y-74139815D01*
X103603461Y-74087011D01*
X103593517Y-74017853D01*
X103622542Y-73954297D01*
X103628574Y-73947819D01*
X103658045Y-73918347D01*
X103658050Y-73918342D01*
X103715646Y-73805304D01*
X103715646Y-73805302D01*
X103715647Y-73805301D01*
X103715647Y-73805300D01*
X103735492Y-73680003D01*
X103735492Y-73679996D01*
X103715647Y-73554699D01*
X103715647Y-73554698D01*
X103709311Y-73542263D01*
X103658050Y-73441658D01*
X103658046Y-73441654D01*
X103658045Y-73441652D01*
X103593819Y-73377426D01*
X103560334Y-73316103D01*
X103557500Y-73289745D01*
X103557500Y-72762701D01*
X103577185Y-72695662D01*
X103593810Y-72675029D01*
X103682515Y-72586323D01*
X103743833Y-72552842D01*
X103813525Y-72557826D01*
X103869459Y-72599697D01*
X103880675Y-72617710D01*
X103931950Y-72718342D01*
X103931952Y-72718344D01*
X103931954Y-72718347D01*
X104021652Y-72808045D01*
X104021654Y-72808046D01*
X104021658Y-72808050D01*
X104134696Y-72865646D01*
X104134697Y-72865646D01*
X104134699Y-72865647D01*
X104259997Y-72885492D01*
X104260000Y-72885492D01*
X104260003Y-72885492D01*
X104385300Y-72865647D01*
X104385301Y-72865647D01*
X104385302Y-72865646D01*
X104385304Y-72865646D01*
X104498342Y-72808050D01*
X104588050Y-72718342D01*
X104628016Y-72639903D01*
X104675990Y-72589109D01*
X104743811Y-72572314D01*
X104809945Y-72594851D01*
X104853397Y-72649566D01*
X104862500Y-72696200D01*
X104862500Y-72990286D01*
X104842815Y-73057325D01*
X104790011Y-73103080D01*
X104757898Y-73112759D01*
X104684699Y-73124352D01*
X104684698Y-73124352D01*
X104609337Y-73162751D01*
X104571658Y-73181950D01*
X104571656Y-73181951D01*
X104571657Y-73181951D01*
X104571652Y-73181954D01*
X104481954Y-73271652D01*
X104481951Y-73271657D01*
X104481950Y-73271658D01*
X104474739Y-73285810D01*
X104424352Y-73384698D01*
X104424352Y-73384699D01*
X104404508Y-73509996D01*
X104404508Y-73510003D01*
X104424352Y-73635300D01*
X104424352Y-73635301D01*
X104431607Y-73649539D01*
X104481950Y-73748342D01*
X104481952Y-73748344D01*
X104481954Y-73748347D01*
X104571652Y-73838045D01*
X104571654Y-73838046D01*
X104571658Y-73838050D01*
X104684696Y-73895646D01*
X104684697Y-73895646D01*
X104684699Y-73895647D01*
X104794433Y-73913027D01*
X104806539Y-73918765D01*
X104810029Y-73916523D01*
X104825567Y-73913027D01*
X104935300Y-73895647D01*
X104935301Y-73895647D01*
X104935302Y-73895646D01*
X104935304Y-73895646D01*
X105048342Y-73838050D01*
X105138050Y-73748342D01*
X105195646Y-73635304D01*
X105195646Y-73635302D01*
X105195647Y-73635301D01*
X105195647Y-73635300D01*
X105208412Y-73554699D01*
X105215492Y-73510000D01*
X105215491Y-73509996D01*
X105213984Y-73500480D01*
X105222935Y-73431187D01*
X105253483Y-73388928D01*
X105278163Y-73366708D01*
X105286580Y-73347801D01*
X105295866Y-73330698D01*
X105307134Y-73313349D01*
X105307458Y-73311297D01*
X105316654Y-73280254D01*
X105317500Y-73278357D01*
X105317500Y-73257663D01*
X105319027Y-73238264D01*
X105320841Y-73226809D01*
X105322264Y-73217828D01*
X105321726Y-73215820D01*
X105317499Y-73183719D01*
X105317499Y-69615596D01*
X105337184Y-69548557D01*
X105353818Y-69527914D01*
X105405025Y-69476708D01*
X105551746Y-69329987D01*
X105617916Y-69263818D01*
X105679239Y-69230334D01*
X105705597Y-69227500D01*
X106394405Y-69227500D01*
X106461444Y-69247185D01*
G37*
%TD.AperFunction*%
%TA.AperFunction,Conductor*%
G36*
X112121444Y-64957185D02*
G01*
X112142086Y-64973819D01*
X112341284Y-65173017D01*
X112374769Y-65234340D01*
X112376077Y-65280094D01*
X112374508Y-65290001D01*
X112374508Y-65290003D01*
X112394352Y-65415300D01*
X112394352Y-65415301D01*
X112403763Y-65433770D01*
X112451950Y-65528342D01*
X112451952Y-65528344D01*
X112451954Y-65528347D01*
X112541652Y-65618045D01*
X112541654Y-65618046D01*
X112541658Y-65618050D01*
X112654696Y-65675646D01*
X112654697Y-65675646D01*
X112654699Y-65675647D01*
X112779997Y-65695492D01*
X112780000Y-65695492D01*
X112780002Y-65695492D01*
X112909101Y-65675045D01*
X112978395Y-65684000D01*
X113031847Y-65728996D01*
X113052486Y-65795748D01*
X113052499Y-65797518D01*
X113052499Y-66754403D01*
X113032814Y-66821442D01*
X113016180Y-66842084D01*
X112062085Y-67796181D01*
X112000762Y-67829666D01*
X111974404Y-67832500D01*
X111770254Y-67832500D01*
X111703215Y-67812815D01*
X111682577Y-67796185D01*
X111618342Y-67731950D01*
X111505304Y-67674354D01*
X111505303Y-67674353D01*
X111505300Y-67674352D01*
X111380003Y-67654508D01*
X111379997Y-67654508D01*
X111254699Y-67674352D01*
X111254698Y-67674352D01*
X111200693Y-67701870D01*
X111167793Y-67718633D01*
X111099126Y-67731529D01*
X111034386Y-67705253D01*
X110994128Y-67648147D01*
X110987500Y-67608148D01*
X110987500Y-65568021D01*
X110987585Y-65564775D01*
X110989719Y-65524061D01*
X110982297Y-65504726D01*
X110976775Y-65486082D01*
X110972474Y-65465845D01*
X110972474Y-65465844D01*
X110971255Y-65464167D01*
X110955806Y-65435714D01*
X110955060Y-65433770D01*
X110940426Y-65419137D01*
X110927790Y-65404343D01*
X110915628Y-65387603D01*
X110915623Y-65387599D01*
X110913823Y-65386560D01*
X110888145Y-65366856D01*
X110670470Y-65149181D01*
X110636985Y-65087858D01*
X110641969Y-65018166D01*
X110683841Y-64962233D01*
X110749305Y-64937816D01*
X110758151Y-64937500D01*
X112054405Y-64937500D01*
X112121444Y-64957185D01*
G37*
%TD.AperFunction*%
%TA.AperFunction,Conductor*%
G36*
X108972702Y-55814881D02*
G01*
X108979180Y-55820913D01*
X112833769Y-59675502D01*
X112836004Y-59677857D01*
X112863291Y-59708162D01*
X112863292Y-59708163D01*
X112882199Y-59716581D01*
X112899294Y-59725862D01*
X112916651Y-59737134D01*
X112918704Y-59737459D01*
X112949737Y-59746652D01*
X112951640Y-59747499D01*
X112951643Y-59747500D01*
X112972337Y-59747500D01*
X112991735Y-59749026D01*
X113012172Y-59752264D01*
X113014184Y-59751724D01*
X113046276Y-59747500D01*
X113621404Y-59747500D01*
X113688443Y-59767185D01*
X113734198Y-59819989D01*
X113744142Y-59889147D01*
X113715117Y-59952703D01*
X113709101Y-59959164D01*
X113550122Y-60118143D01*
X113511485Y-60156780D01*
X113509131Y-60159014D01*
X113478837Y-60186290D01*
X113470416Y-60205203D01*
X113461137Y-60222292D01*
X113449867Y-60239647D01*
X113449866Y-60239649D01*
X113449865Y-60239650D01*
X113449866Y-60239650D01*
X113449539Y-60241708D01*
X113440351Y-60272731D01*
X113439499Y-60274643D01*
X113439499Y-60295344D01*
X113437973Y-60314732D01*
X113434736Y-60335170D01*
X113434737Y-60335173D01*
X113435275Y-60337181D01*
X113439499Y-60369269D01*
X113439499Y-60930453D01*
X113419814Y-60997492D01*
X113367010Y-61043247D01*
X113297852Y-61053191D01*
X113236834Y-61026306D01*
X113135699Y-60943306D01*
X113135692Y-60943302D01*
X112965884Y-60852538D01*
X112781626Y-60796643D01*
X112590000Y-60777770D01*
X112398373Y-60796643D01*
X112214115Y-60852538D01*
X112044307Y-60943302D01*
X112044300Y-60943306D01*
X111895458Y-61065458D01*
X111787353Y-61197185D01*
X111729607Y-61236519D01*
X111659763Y-61238390D01*
X111599994Y-61202202D01*
X111569279Y-61139446D01*
X111567500Y-61118520D01*
X111567500Y-59437576D01*
X111567585Y-59434330D01*
X111568001Y-59426389D01*
X111569719Y-59393616D01*
X111562301Y-59374293D01*
X111556776Y-59355643D01*
X111552474Y-59335400D01*
X111551249Y-59333714D01*
X111535807Y-59305274D01*
X111535060Y-59303327D01*
X111520429Y-59288696D01*
X111507797Y-59273907D01*
X111495628Y-59257158D01*
X111495625Y-59257156D01*
X111493819Y-59256113D01*
X111468143Y-59236410D01*
X108803818Y-56572084D01*
X108770333Y-56510761D01*
X108767499Y-56484411D01*
X108767499Y-55908592D01*
X108787184Y-55841555D01*
X108839988Y-55795800D01*
X108909146Y-55785856D01*
X108972702Y-55814881D01*
G37*
%TD.AperFunction*%
%TA.AperFunction,Conductor*%
G36*
X117942539Y-52020185D02*
G01*
X117988294Y-52072989D01*
X117999500Y-52124500D01*
X117999500Y-60086000D01*
X117979815Y-60153039D01*
X117927011Y-60198794D01*
X117875500Y-60210000D01*
X116188201Y-60210000D01*
X116121162Y-60190315D01*
X116075407Y-60137511D01*
X116065463Y-60068353D01*
X116094488Y-60004797D01*
X116100520Y-59998319D01*
X116160980Y-59937859D01*
X116415540Y-59683298D01*
X116417819Y-59681135D01*
X116448163Y-59653815D01*
X116456580Y-59634908D01*
X116465866Y-59617805D01*
X116477134Y-59600456D01*
X116477458Y-59598404D01*
X116486654Y-59567361D01*
X116487500Y-59565464D01*
X116487500Y-59544770D01*
X116489027Y-59525370D01*
X116490404Y-59516675D01*
X116492264Y-59504935D01*
X116492135Y-59504456D01*
X116491725Y-59502921D01*
X116487500Y-59470830D01*
X116487500Y-59110456D01*
X116487585Y-59107211D01*
X116488710Y-59085736D01*
X116489718Y-59066509D01*
X116482302Y-59047190D01*
X116476775Y-59028531D01*
X116476518Y-59027324D01*
X116472474Y-59008293D01*
X116471248Y-59006606D01*
X116455803Y-58978156D01*
X116455060Y-58976221D01*
X116455058Y-58976217D01*
X116440426Y-58961585D01*
X116427793Y-58946794D01*
X116426346Y-58944802D01*
X116415628Y-58930051D01*
X116415627Y-58930050D01*
X116415626Y-58930049D01*
X116415625Y-58930048D01*
X116413825Y-58929009D01*
X116388143Y-58909303D01*
X116188021Y-58709180D01*
X116154536Y-58647857D01*
X116159520Y-58578165D01*
X116201392Y-58522232D01*
X116266856Y-58497815D01*
X116275684Y-58497499D01*
X117090826Y-58497499D01*
X117164204Y-58486809D01*
X117277390Y-58431476D01*
X117366476Y-58342390D01*
X117421809Y-58229204D01*
X117432500Y-58155827D01*
X117432499Y-57384174D01*
X117421809Y-57310796D01*
X117366476Y-57197610D01*
X117366474Y-57197608D01*
X117366474Y-57197607D01*
X117277392Y-57108525D01*
X117164202Y-57053190D01*
X117090827Y-57042500D01*
X115769174Y-57042500D01*
X115695795Y-57053191D01*
X115582609Y-57108524D01*
X115509180Y-57181953D01*
X115447856Y-57215437D01*
X115378165Y-57210452D01*
X115322231Y-57168581D01*
X115297815Y-57103116D01*
X115297499Y-57094271D01*
X115297499Y-56315465D01*
X115297499Y-54305590D01*
X115317184Y-54238555D01*
X115333809Y-54217923D01*
X115953018Y-53598713D01*
X116014339Y-53565230D01*
X116060095Y-53563923D01*
X116070000Y-53565492D01*
X116070001Y-53565491D01*
X116070003Y-53565492D01*
X116195300Y-53545647D01*
X116195301Y-53545647D01*
X116195302Y-53545646D01*
X116195304Y-53545646D01*
X116308342Y-53488050D01*
X116398050Y-53398342D01*
X116455646Y-53285304D01*
X116455646Y-53285302D01*
X116455647Y-53285301D01*
X116455647Y-53285300D01*
X116475492Y-53160003D01*
X116475492Y-53159996D01*
X116455647Y-53034699D01*
X116455647Y-53034698D01*
X116455646Y-53034696D01*
X116398050Y-52921658D01*
X116398046Y-52921654D01*
X116398045Y-52921652D01*
X116308347Y-52831954D01*
X116308344Y-52831952D01*
X116308342Y-52831950D01*
X116195304Y-52774354D01*
X116195303Y-52774353D01*
X116195300Y-52774352D01*
X116070003Y-52754508D01*
X116069997Y-52754508D01*
X115944699Y-52774352D01*
X115944698Y-52774352D01*
X115869337Y-52812751D01*
X115831658Y-52831950D01*
X115831657Y-52831951D01*
X115831652Y-52831954D01*
X115741954Y-52921652D01*
X115741951Y-52921657D01*
X115741950Y-52921658D01*
X115724472Y-52955960D01*
X115684352Y-53034698D01*
X115684352Y-53034699D01*
X115664508Y-53159996D01*
X115664508Y-53160000D01*
X115666076Y-53169900D01*
X115657122Y-53239194D01*
X115631284Y-53276980D01*
X114914493Y-53993771D01*
X114912140Y-53996005D01*
X114881837Y-54023290D01*
X114873416Y-54042203D01*
X114864137Y-54059292D01*
X114852867Y-54076647D01*
X114852866Y-54076649D01*
X114852541Y-54078704D01*
X114843351Y-54109730D01*
X114842500Y-54111643D01*
X114842500Y-54132342D01*
X114840973Y-54151740D01*
X114837737Y-54172170D01*
X114837737Y-54172172D01*
X114838275Y-54174180D01*
X114842499Y-54206268D01*
X114842499Y-58104390D01*
X114822814Y-58171429D01*
X114774796Y-58214874D01*
X114721657Y-58241950D01*
X114721652Y-58241954D01*
X114631954Y-58331652D01*
X114631951Y-58331657D01*
X114631950Y-58331658D01*
X114604170Y-58386179D01*
X114574353Y-58444697D01*
X114573628Y-58446930D01*
X114572012Y-58449292D01*
X114569924Y-58453391D01*
X114569394Y-58453120D01*
X114534186Y-58504603D01*
X114469826Y-58531797D01*
X114400980Y-58519878D01*
X114368018Y-58496285D01*
X112303819Y-56432085D01*
X112270334Y-56370762D01*
X112267500Y-56344404D01*
X112267500Y-54940254D01*
X112287185Y-54873215D01*
X112303814Y-54852577D01*
X112368050Y-54788342D01*
X112425646Y-54675304D01*
X112425646Y-54675302D01*
X112425647Y-54675301D01*
X112425647Y-54675300D01*
X112445492Y-54550003D01*
X112445492Y-54549996D01*
X112425647Y-54424699D01*
X112425647Y-54424698D01*
X112425621Y-54424646D01*
X112368050Y-54311658D01*
X112368046Y-54311654D01*
X112368045Y-54311652D01*
X112278347Y-54221954D01*
X112278343Y-54221951D01*
X112278342Y-54221950D01*
X112255839Y-54210484D01*
X112205043Y-54162511D01*
X112188248Y-54094690D01*
X112210785Y-54028555D01*
X112255838Y-53989515D01*
X112278342Y-53978050D01*
X112368050Y-53888342D01*
X112425646Y-53775304D01*
X112425646Y-53775302D01*
X112425647Y-53775301D01*
X112425647Y-53775300D01*
X112445492Y-53650003D01*
X112445492Y-53649996D01*
X112425647Y-53524699D01*
X112425647Y-53524698D01*
X112408470Y-53490987D01*
X112368050Y-53411658D01*
X112368046Y-53411654D01*
X112368045Y-53411652D01*
X112278347Y-53321954D01*
X112278344Y-53321952D01*
X112278342Y-53321950D01*
X112165304Y-53264354D01*
X112165303Y-53264353D01*
X112165300Y-53264352D01*
X112040003Y-53244508D01*
X112040001Y-53244508D01*
X112040000Y-53244508D01*
X112030093Y-53246076D01*
X111960801Y-53237121D01*
X111923017Y-53211284D01*
X111860914Y-53149181D01*
X111827429Y-53087858D01*
X111832413Y-53018166D01*
X111874285Y-52962233D01*
X111939749Y-52937816D01*
X111948595Y-52937500D01*
X113034405Y-52937500D01*
X113101444Y-52957185D01*
X113122086Y-52973819D01*
X113381284Y-53233017D01*
X113414769Y-53294340D01*
X113416077Y-53340094D01*
X113414508Y-53350001D01*
X113414508Y-53350003D01*
X113434352Y-53475300D01*
X113434352Y-53475301D01*
X113442345Y-53490987D01*
X113491950Y-53588342D01*
X113491952Y-53588344D01*
X113491954Y-53588347D01*
X113581652Y-53678045D01*
X113581654Y-53678046D01*
X113581658Y-53678050D01*
X113694696Y-53735646D01*
X113694697Y-53735646D01*
X113694699Y-53735647D01*
X113819997Y-53755492D01*
X113820000Y-53755492D01*
X113820003Y-53755492D01*
X113945300Y-53735647D01*
X113945301Y-53735647D01*
X113945302Y-53735646D01*
X113945304Y-53735646D01*
X114058342Y-53678050D01*
X114148050Y-53588342D01*
X114205646Y-53475304D01*
X114205646Y-53475302D01*
X114205647Y-53475301D01*
X114205647Y-53475300D01*
X114225492Y-53350003D01*
X114225492Y-53349996D01*
X114205647Y-53224699D01*
X114205647Y-53224698D01*
X114205646Y-53224696D01*
X114148050Y-53111658D01*
X114148046Y-53111654D01*
X114148045Y-53111652D01*
X114058347Y-53021954D01*
X114058344Y-53021952D01*
X114058342Y-53021950D01*
X113945304Y-52964354D01*
X113945303Y-52964353D01*
X113945300Y-52964352D01*
X113820003Y-52944508D01*
X113819996Y-52944508D01*
X113810096Y-52946076D01*
X113740803Y-52937121D01*
X113703018Y-52911284D01*
X113346219Y-52554485D01*
X113343984Y-52552130D01*
X113316706Y-52521835D01*
X113297797Y-52513416D01*
X113280702Y-52504134D01*
X113263350Y-52492865D01*
X113263347Y-52492864D01*
X113261296Y-52492540D01*
X113230265Y-52483348D01*
X113228363Y-52482501D01*
X113228357Y-52482500D01*
X113207657Y-52482500D01*
X113188260Y-52480973D01*
X113167828Y-52477737D01*
X113165819Y-52478275D01*
X113133727Y-52482500D01*
X109898009Y-52482500D01*
X109894765Y-52482415D01*
X109892704Y-52482307D01*
X109854058Y-52480281D01*
X109834730Y-52487700D01*
X109816087Y-52493222D01*
X109795845Y-52497525D01*
X109795844Y-52497525D01*
X109794155Y-52498753D01*
X109765718Y-52514192D01*
X109763773Y-52514938D01*
X109763771Y-52514940D01*
X109749136Y-52529574D01*
X109734349Y-52542203D01*
X109717604Y-52554370D01*
X109717599Y-52554374D01*
X109716557Y-52556181D01*
X109696857Y-52581852D01*
X108057493Y-54221216D01*
X108055140Y-54223450D01*
X108024837Y-54250735D01*
X108016416Y-54269648D01*
X108007137Y-54286737D01*
X107995867Y-54304092D01*
X107995866Y-54304094D01*
X107995865Y-54304095D01*
X107995866Y-54304095D01*
X107995539Y-54306153D01*
X107986351Y-54337176D01*
X107985499Y-54339088D01*
X107985499Y-54359789D01*
X107983973Y-54379176D01*
X107980736Y-54399615D01*
X107980736Y-54399616D01*
X107981273Y-54401617D01*
X107985500Y-54433717D01*
X107985500Y-57155435D01*
X107985415Y-57158680D01*
X107983282Y-57199382D01*
X107983283Y-57199389D01*
X107990698Y-57218707D01*
X107996223Y-57237357D01*
X108000526Y-57257601D01*
X108001750Y-57259285D01*
X108017192Y-57287726D01*
X108017938Y-57289669D01*
X108017940Y-57289673D01*
X108017942Y-57289675D01*
X108032567Y-57304300D01*
X108045205Y-57319096D01*
X108057372Y-57335842D01*
X108059173Y-57336882D01*
X108084853Y-57356587D01*
X108431284Y-57703017D01*
X108464769Y-57764340D01*
X108466077Y-57810094D01*
X108464508Y-57820001D01*
X108464508Y-57820003D01*
X108484352Y-57945300D01*
X108484352Y-57945301D01*
X108494235Y-57964696D01*
X108541950Y-58058342D01*
X108541952Y-58058344D01*
X108541954Y-58058347D01*
X108631652Y-58148045D01*
X108631654Y-58148046D01*
X108631658Y-58148050D01*
X108744696Y-58205646D01*
X108744697Y-58205646D01*
X108744699Y-58205647D01*
X108869997Y-58225492D01*
X108870000Y-58225492D01*
X108879898Y-58223924D01*
X108949191Y-58232875D01*
X108986982Y-58258714D01*
X109306182Y-58577915D01*
X109339666Y-58639236D01*
X109342500Y-58665594D01*
X109342500Y-59174403D01*
X109322815Y-59241442D01*
X109306181Y-59262084D01*
X108842085Y-59726181D01*
X108780762Y-59759666D01*
X108754404Y-59762500D01*
X108397578Y-59762500D01*
X108330539Y-59742815D01*
X108284784Y-59690011D01*
X108274840Y-59620853D01*
X108303865Y-59557297D01*
X108341290Y-59528011D01*
X108424258Y-59485747D01*
X108540186Y-59401537D01*
X108545926Y-59395797D01*
X108545968Y-59395765D01*
X108556672Y-59385060D01*
X108556674Y-59385060D01*
X108597001Y-59344733D01*
X108622852Y-59318888D01*
X108622852Y-59318887D01*
X108632433Y-59309309D01*
X108632466Y-59309266D01*
X108691931Y-59249800D01*
X108691935Y-59249798D01*
X108705050Y-59236683D01*
X108705061Y-59236676D01*
X108745414Y-59196322D01*
X108778283Y-59163451D01*
X108830480Y-59073039D01*
X108857500Y-58972199D01*
X108857500Y-58920000D01*
X108857500Y-58874747D01*
X108857500Y-58867818D01*
X108857498Y-58867806D01*
X108857498Y-58867801D01*
X108830478Y-58766961D01*
X108783333Y-58685301D01*
X108778285Y-58676557D01*
X108778283Y-58676555D01*
X108778280Y-58676549D01*
X108778274Y-58676543D01*
X108778267Y-58676534D01*
X108775563Y-58673830D01*
X108775563Y-58673829D01*
X108727191Y-58625457D01*
X108727176Y-58625430D01*
X108651248Y-58549502D01*
X108581845Y-58503131D01*
X108558063Y-58487241D01*
X108530068Y-58475646D01*
X108454521Y-58444356D01*
X108344604Y-58422497D01*
X108344600Y-58422497D01*
X108316581Y-58422498D01*
X108288559Y-58422500D01*
X108250980Y-58422500D01*
X108250901Y-58422492D01*
X108225627Y-58422495D01*
X108158585Y-58402818D01*
X108137936Y-58386181D01*
X108126007Y-58374253D01*
X108044000Y-58319462D01*
X108043997Y-58319460D01*
X108043996Y-58319460D01*
X107994408Y-58298924D01*
X107952878Y-58281725D01*
X107856144Y-58262494D01*
X107856139Y-58262493D01*
X107806823Y-58262500D01*
X107804557Y-58262500D01*
X107737518Y-58242815D01*
X107691763Y-58190011D01*
X107689993Y-58185947D01*
X107655887Y-58103593D01*
X107596656Y-58014931D01*
X107596654Y-58014929D01*
X107596615Y-58014881D01*
X107558971Y-57977237D01*
X107558963Y-57977223D01*
X107558961Y-57977226D01*
X107523706Y-57941962D01*
X107518358Y-57935864D01*
X107513671Y-57929756D01*
X107496429Y-57907284D01*
X107480243Y-57879245D01*
X107479369Y-57877135D01*
X107471131Y-57857241D01*
X107462756Y-57825976D01*
X107458028Y-57790044D01*
X107457500Y-57781979D01*
X107457505Y-57740924D01*
X107457503Y-57740920D01*
X107457505Y-57729553D01*
X107457500Y-57729487D01*
X107457500Y-57113264D01*
X107457493Y-57113136D01*
X107457493Y-57103116D01*
X107457494Y-57076837D01*
X107437603Y-56951233D01*
X107398308Y-56830287D01*
X107340575Y-56716978D01*
X107265828Y-56614095D01*
X107223736Y-56572002D01*
X107218391Y-56565906D01*
X107195264Y-56535766D01*
X107174720Y-56508993D01*
X107158537Y-56480962D01*
X107135775Y-56426008D01*
X107127399Y-56394743D01*
X107118031Y-56323565D01*
X107117500Y-56315465D01*
X107117501Y-56274337D01*
X107117500Y-56274334D01*
X107117500Y-55366683D01*
X107117517Y-55349931D01*
X107107107Y-55310955D01*
X107106371Y-55307880D01*
X107102474Y-55289542D01*
X107102472Y-55289540D01*
X107100208Y-55278886D01*
X107097500Y-55253116D01*
X107097500Y-54824705D01*
X107097499Y-54824700D01*
X107097499Y-54821559D01*
X107097481Y-54821208D01*
X107097481Y-54815594D01*
X107097483Y-54762577D01*
X107070567Y-54592612D01*
X107017394Y-54428951D01*
X107001259Y-54397283D01*
X106939275Y-54275623D01*
X106838131Y-54136402D01*
X106838129Y-54136399D01*
X106820389Y-54118658D01*
X106820377Y-54118643D01*
X106766624Y-54064890D01*
X106738245Y-54036507D01*
X106738217Y-54036483D01*
X106554193Y-53852458D01*
X106553728Y-53852039D01*
X106536331Y-53834632D01*
X106536329Y-53834630D01*
X106445933Y-53782404D01*
X106345094Y-53755355D01*
X106341961Y-53754941D01*
X106338703Y-53753640D01*
X106337255Y-53753252D01*
X106337300Y-53753080D01*
X106285318Y-53732328D01*
X106247454Y-53704819D01*
X106204787Y-53649490D01*
X106198807Y-53579876D01*
X106231412Y-53518081D01*
X106292251Y-53483723D01*
X106320338Y-53480500D01*
X108159045Y-53480500D01*
X108194762Y-53490987D01*
X108235507Y-53482883D01*
X108259699Y-53480500D01*
X108287734Y-53480500D01*
X108298342Y-53483614D01*
X108308857Y-53476589D01*
X108339429Y-53461760D01*
X108342160Y-53460873D01*
X108393542Y-53423542D01*
X108430873Y-53372160D01*
X108431760Y-53369429D01*
X108446589Y-53338857D01*
X108453188Y-53328980D01*
X108450500Y-53317738D01*
X108450500Y-53307185D01*
X108450500Y-53289691D01*
X108452882Y-53265505D01*
X108460061Y-53229416D01*
X108454406Y-53219924D01*
X108450500Y-53189045D01*
X108450500Y-52209756D01*
X108451993Y-52190573D01*
X108452001Y-52190521D01*
X108452256Y-52188908D01*
X108452668Y-52186582D01*
X108460197Y-52148734D01*
X108471316Y-52116658D01*
X108474631Y-52110153D01*
X108478303Y-52103888D01*
X108493385Y-52081316D01*
X108508788Y-52062549D01*
X108512549Y-52058788D01*
X108531316Y-52043385D01*
X108553901Y-52028295D01*
X108560140Y-52024638D01*
X108566658Y-52021317D01*
X108598727Y-52010198D01*
X108636610Y-52002663D01*
X108638860Y-52002264D01*
X108640549Y-52001996D01*
X108640625Y-52001985D01*
X108659755Y-52000500D01*
X117875500Y-52000500D01*
X117942539Y-52020185D01*
G37*
%TD.AperFunction*%
%TA.AperFunction,Conductor*%
G36*
X109845479Y-53641659D02*
G01*
X109901412Y-53683531D01*
X109912628Y-53701543D01*
X109961950Y-53798342D01*
X109961952Y-53798344D01*
X109961954Y-53798347D01*
X110051652Y-53888045D01*
X110051654Y-53888046D01*
X110051658Y-53888050D01*
X110164696Y-53945646D01*
X110164697Y-53945646D01*
X110164699Y-53945647D01*
X110289997Y-53965492D01*
X110290000Y-53965492D01*
X110299898Y-53963924D01*
X110369191Y-53972875D01*
X110406982Y-53998715D01*
X111136180Y-54727913D01*
X111169665Y-54789236D01*
X111172499Y-54815594D01*
X111172499Y-56722439D01*
X111172414Y-56725682D01*
X111170281Y-56766384D01*
X111177698Y-56785706D01*
X111183223Y-56804357D01*
X111187526Y-56824601D01*
X111188750Y-56826285D01*
X111204192Y-56854726D01*
X111204938Y-56856669D01*
X111204940Y-56856673D01*
X111204942Y-56856675D01*
X111219568Y-56871301D01*
X111232206Y-56886097D01*
X111244372Y-56902842D01*
X111246172Y-56903881D01*
X111271856Y-56923589D01*
X112863428Y-58515161D01*
X112896913Y-58576484D01*
X112898220Y-58583444D01*
X112914352Y-58685300D01*
X112914352Y-58685301D01*
X112928613Y-58713289D01*
X112971950Y-58798342D01*
X112971952Y-58798344D01*
X112971954Y-58798347D01*
X113061652Y-58888045D01*
X113061654Y-58888046D01*
X113061658Y-58888050D01*
X113174696Y-58945646D01*
X113174697Y-58945646D01*
X113174699Y-58945647D01*
X113299997Y-58965492D01*
X113300000Y-58965492D01*
X113300003Y-58965492D01*
X113425300Y-58945647D01*
X113425301Y-58945647D01*
X113425302Y-58945646D01*
X113425304Y-58945646D01*
X113538342Y-58888050D01*
X113628050Y-58798342D01*
X113685097Y-58686380D01*
X113733071Y-58635586D01*
X113800892Y-58618791D01*
X113867027Y-58641328D01*
X113883262Y-58654996D01*
X114309085Y-59080819D01*
X114342570Y-59142142D01*
X114337586Y-59211834D01*
X114295714Y-59267767D01*
X114230250Y-59292184D01*
X114221404Y-59292500D01*
X113145596Y-59292500D01*
X113078557Y-59272815D01*
X113057915Y-59256181D01*
X109303819Y-55502085D01*
X109270334Y-55440762D01*
X109267500Y-55414404D01*
X109267500Y-55120254D01*
X109287185Y-55053215D01*
X109303814Y-55032577D01*
X109368050Y-54968342D01*
X109425646Y-54855304D01*
X109425646Y-54855302D01*
X109425647Y-54855301D01*
X109425647Y-54855300D01*
X109445492Y-54730003D01*
X109445492Y-54729996D01*
X109425647Y-54604699D01*
X109425647Y-54604698D01*
X109420857Y-54595297D01*
X109368050Y-54491658D01*
X109368046Y-54491654D01*
X109368045Y-54491652D01*
X109278347Y-54401954D01*
X109278343Y-54401951D01*
X109278342Y-54401950D01*
X109269181Y-54397282D01*
X109234542Y-54379632D01*
X109183746Y-54331657D01*
X109166952Y-54263836D01*
X109189490Y-54197701D01*
X109203151Y-54181473D01*
X109714466Y-53670158D01*
X109775787Y-53636675D01*
X109845479Y-53641659D01*
G37*
%TD.AperFunction*%
%TD*%
M02*
